G04 Layer_Color=128*
%FSLAX23Y23*%
%MOIN*%
G70*
G01*
G75*
G04:AMPARAMS|DCode=11|XSize=79mil|YSize=79mil|CornerRadius=39mil|HoleSize=0mil|Usage=FLASHONLY|Rotation=90.000|XOffset=0mil|YOffset=0mil|HoleType=Round|Shape=RoundedRectangle|*
%AMROUNDEDRECTD11*
21,1,0.079,0.000,0,0,90.0*
21,1,0.000,0.079,0,0,90.0*
1,1,0.079,0.000,0.000*
1,1,0.079,0.000,0.000*
1,1,0.079,0.000,0.000*
1,1,0.079,0.000,0.000*
%
%ADD11ROUNDEDRECTD11*%
%ADD132C,0.048*%
D11*
X381Y131D02*
D03*
X4240Y134D02*
D03*
Y8482D02*
D03*
X381D02*
D03*
D132*
X2476Y1626D02*
D03*
X2171Y1571D02*
D03*
X2381D02*
D03*
X2836Y1876D02*
D03*
X3866Y1961D02*
D03*
X3445Y1960D02*
D03*
X2911Y1846D02*
D03*
X3761Y1996D02*
D03*
X3379Y1946D02*
D03*
X3631Y2461D02*
D03*
X3466Y2506D02*
D03*
X3626Y941D02*
D03*
X2586Y2776D02*
D03*
X1286Y3926D02*
D03*
X1687Y3927D02*
D03*
X2087D02*
D03*
X2616Y3786D02*
D03*
X2741Y2496D02*
D03*
X3030Y2516D02*
D03*
X1831Y1736D02*
D03*
X1541Y1801D02*
D03*
X1771Y1786D02*
D03*
X3308Y2567D02*
D03*
X2261Y936D02*
D03*
X904Y941D02*
D03*
X1582D02*
D03*
X2941D02*
D03*
X3801Y506D02*
D03*
X3206D02*
D03*
X1501D02*
D03*
X911D02*
D03*
X3901D02*
D03*
X3306D02*
D03*
X1601D02*
D03*
X1011D02*
D03*
X3701D02*
D03*
X3106D02*
D03*
X1401D02*
D03*
X811D02*
D03*
X3601D02*
D03*
X3006D02*
D03*
X1301D02*
D03*
X711D02*
D03*
X2436Y546D02*
D03*
X2261Y401D02*
D03*
X2341Y476D02*
D03*
X2336Y341D02*
D03*
X2626Y2716D02*
D03*
X2546D02*
D03*
X2506Y2776D02*
D03*
X2466Y2716D02*
D03*
X2666Y2776D02*
D03*
X2476Y5676D02*
D03*
X2171Y5621D02*
D03*
X2381D02*
D03*
X2836Y5926D02*
D03*
X3866Y6011D02*
D03*
X3445Y6010D02*
D03*
X2911Y5896D02*
D03*
X3761Y6046D02*
D03*
X3379Y5996D02*
D03*
X3631Y6511D02*
D03*
X3466Y6556D02*
D03*
X3626Y4991D02*
D03*
X2586Y6826D02*
D03*
X1286Y7976D02*
D03*
X1687Y7977D02*
D03*
X2087D02*
D03*
X2616Y7836D02*
D03*
X2741Y6546D02*
D03*
X3030Y6566D02*
D03*
X1831Y5786D02*
D03*
X1541Y5851D02*
D03*
X1771Y5836D02*
D03*
X3308Y6617D02*
D03*
X2261Y4986D02*
D03*
X904Y4991D02*
D03*
X1582D02*
D03*
X2941D02*
D03*
X3801Y4556D02*
D03*
X3206D02*
D03*
X1501D02*
D03*
X911D02*
D03*
X3901D02*
D03*
X3306D02*
D03*
X1601D02*
D03*
X1011D02*
D03*
X3701D02*
D03*
X3106D02*
D03*
X1401D02*
D03*
X811D02*
D03*
X3601D02*
D03*
X3006D02*
D03*
X1301D02*
D03*
X711D02*
D03*
X2436Y4596D02*
D03*
X2261Y4451D02*
D03*
X2341Y4526D02*
D03*
X2336Y4391D02*
D03*
X2626Y6766D02*
D03*
X2546D02*
D03*
X2506Y6826D02*
D03*
X2466Y6766D02*
D03*
X2666Y6826D02*
D03*
M02*
