G04 Layer_Color=16711935*
%FSLAX23Y23*%
%MOIN*%
G70*
G01*
G75*
G04:AMPARAMS|DCode=172|XSize=119mil|YSize=119mil|CornerRadius=59mil|HoleSize=0mil|Usage=FLASHONLY|Rotation=90.000|XOffset=0mil|YOffset=0mil|HoleType=Round|Shape=RoundedRectangle|*
%AMROUNDEDRECTD172*
21,1,0.119,0.000,0,0,90.0*
21,1,0.000,0.119,0,0,90.0*
1,1,0.119,0.000,0.000*
1,1,0.119,0.000,0.000*
1,1,0.119,0.000,0.000*
1,1,0.119,0.000,0.000*
%
%ADD172ROUNDEDRECTD172*%
%ADD177C,0.058*%
%ADD221R,0.067X0.067*%
%ADD222C,0.067*%
G04:AMPARAMS|DCode=223|XSize=141mil|YSize=91mil|CornerRadius=0mil|HoleSize=0mil|Usage=FLASHONLY|Rotation=180.000|XOffset=0mil|YOffset=0mil|HoleType=Round|Shape=Octagon|*
%AMOCTAGOND223*
4,1,8,-0.070,0.023,-0.070,-0.023,-0.048,-0.046,0.048,-0.046,0.070,-0.023,0.070,0.023,0.048,0.046,-0.048,0.046,-0.070,0.023,0.0*
%
%ADD223OCTAGOND223*%

%ADD224O,0.068X0.128*%
%ADD225C,0.062*%
%ADD226C,0.139*%
%ADD227C,0.108*%
%ADD228P,0.084X8X292.5*%
%ADD229O,0.091X0.173*%
%ADD230O,0.173X0.091*%
%ADD231O,0.128X0.068*%
G04:AMPARAMS|DCode=232|XSize=141mil|YSize=91mil|CornerRadius=0mil|HoleSize=0mil|Usage=FLASHONLY|Rotation=270.000|XOffset=0mil|YOffset=0mil|HoleType=Round|Shape=Octagon|*
%AMOCTAGOND232*
4,1,8,-0.023,-0.070,0.023,-0.070,0.046,-0.048,0.046,0.048,0.023,0.070,-0.023,0.070,-0.046,0.048,-0.046,-0.048,-0.023,-0.070,0.0*
%
%ADD232OCTAGOND232*%

D172*
X381Y131D02*
D03*
X4240Y134D02*
D03*
Y8482D02*
D03*
X381D02*
D03*
D177*
X596Y2631D02*
D03*
Y2726D02*
D03*
X1971Y3046D02*
D03*
X2018Y2945D02*
D03*
X2066Y3046D02*
D03*
X2126Y2861D02*
D03*
X1861Y2716D02*
D03*
X2771Y1731D02*
D03*
X3116Y3251D02*
D03*
X3221Y3786D02*
D03*
X901Y4241D02*
D03*
X366Y3916D02*
D03*
X2971Y4101D02*
D03*
X1286Y3926D02*
D03*
X1687Y3927D02*
D03*
X2087D02*
D03*
X2616Y3786D02*
D03*
X4311Y1866D02*
D03*
X4306Y2901D02*
D03*
X4311Y3236D02*
D03*
Y3751D02*
D03*
X4041Y3916D02*
D03*
X2386Y1556D02*
D03*
X2176Y1531D02*
D03*
X2476Y1626D02*
D03*
X1831Y1736D02*
D03*
X1541Y1801D02*
D03*
X1771Y1786D02*
D03*
X2836Y1876D02*
D03*
X3866Y1961D02*
D03*
X3445Y1960D02*
D03*
X2911Y1846D02*
D03*
X3761Y1996D02*
D03*
X3379Y1946D02*
D03*
X3598Y925D02*
D03*
X3631Y2461D02*
D03*
X3466Y2506D02*
D03*
X2586Y2776D02*
D03*
X3030Y2516D02*
D03*
X3308Y2567D02*
D03*
X2231Y916D02*
D03*
X881Y918D02*
D03*
X1556Y911D02*
D03*
X2916D02*
D03*
X3801Y506D02*
D03*
X3206D02*
D03*
X1501D02*
D03*
X911D02*
D03*
X3901D02*
D03*
X3306D02*
D03*
X1601D02*
D03*
X1011D02*
D03*
X3701D02*
D03*
X3106D02*
D03*
X1401D02*
D03*
X811D02*
D03*
X3601D02*
D03*
X3006D02*
D03*
X1301D02*
D03*
X711D02*
D03*
X2356Y546D02*
D03*
X2261Y401D02*
D03*
X2341Y476D02*
D03*
X2336Y341D02*
D03*
X2626Y2716D02*
D03*
X2546D02*
D03*
X2506Y2776D02*
D03*
X2466Y2716D02*
D03*
X2666Y2776D02*
D03*
X2741Y2496D02*
D03*
X596Y6681D02*
D03*
Y6776D02*
D03*
X1971Y7096D02*
D03*
X2018Y6995D02*
D03*
X2066Y7096D02*
D03*
X2126Y6911D02*
D03*
X1861Y6766D02*
D03*
X2771Y5781D02*
D03*
X3116Y7301D02*
D03*
X3221Y7836D02*
D03*
X901Y8291D02*
D03*
X366Y7966D02*
D03*
X2971Y8151D02*
D03*
X1286Y7976D02*
D03*
X1687Y7977D02*
D03*
X2087D02*
D03*
X2616Y7836D02*
D03*
X4311Y5916D02*
D03*
X4306Y6951D02*
D03*
X4311Y7286D02*
D03*
Y7801D02*
D03*
X4041Y7966D02*
D03*
X2386Y5606D02*
D03*
X2176Y5581D02*
D03*
X2476Y5676D02*
D03*
X1831Y5786D02*
D03*
X1541Y5851D02*
D03*
X1771Y5836D02*
D03*
X2836Y5926D02*
D03*
X3866Y6011D02*
D03*
X3445Y6010D02*
D03*
X2911Y5896D02*
D03*
X3761Y6046D02*
D03*
X3379Y5996D02*
D03*
X3598Y4975D02*
D03*
X3631Y6511D02*
D03*
X3466Y6556D02*
D03*
X2586Y6826D02*
D03*
X3030Y6566D02*
D03*
X3308Y6617D02*
D03*
X2231Y4966D02*
D03*
X881Y4968D02*
D03*
X1556Y4961D02*
D03*
X2916D02*
D03*
X3801Y4556D02*
D03*
X3206D02*
D03*
X1501D02*
D03*
X911D02*
D03*
X3901D02*
D03*
X3306D02*
D03*
X1601D02*
D03*
X1011D02*
D03*
X3701D02*
D03*
X3106D02*
D03*
X1401D02*
D03*
X811D02*
D03*
X3601D02*
D03*
X3006D02*
D03*
X1301D02*
D03*
X711D02*
D03*
X2356Y4596D02*
D03*
X2261Y4451D02*
D03*
X2341Y4526D02*
D03*
X2336Y4391D02*
D03*
X2626Y6766D02*
D03*
X2546D02*
D03*
X2506Y6826D02*
D03*
X2466Y6766D02*
D03*
X2666Y6826D02*
D03*
X2741Y6546D02*
D03*
D221*
X1456Y1861D02*
D03*
Y2156D02*
D03*
X1286Y2536D02*
D03*
X2941Y1731D02*
D03*
X3111Y1641D02*
D03*
X1456Y5911D02*
D03*
Y6206D02*
D03*
X1286Y6586D02*
D03*
X2941Y5781D02*
D03*
X3111Y5691D02*
D03*
D222*
X1456Y1761D02*
D03*
X1356Y1861D02*
D03*
Y1761D02*
D03*
X1256Y1861D02*
D03*
Y1761D02*
D03*
X1156Y1861D02*
D03*
Y1761D02*
D03*
X1056Y1861D02*
D03*
Y1761D02*
D03*
X1456Y2056D02*
D03*
X1356Y2156D02*
D03*
Y2056D02*
D03*
X1256Y2156D02*
D03*
Y2056D02*
D03*
X1156Y2156D02*
D03*
Y2056D02*
D03*
X1056Y2156D02*
D03*
Y2056D02*
D03*
X1286Y2436D02*
D03*
X1186Y2536D02*
D03*
Y2436D02*
D03*
X1086Y2536D02*
D03*
Y2436D02*
D03*
X986Y2536D02*
D03*
Y2436D02*
D03*
X886Y2536D02*
D03*
Y2436D02*
D03*
X2841Y1731D02*
D03*
X3511Y1741D02*
D03*
Y1641D02*
D03*
X3411Y1741D02*
D03*
Y1641D02*
D03*
X3311Y1741D02*
D03*
Y1641D02*
D03*
X3211Y1741D02*
D03*
Y1641D02*
D03*
X3111Y1741D02*
D03*
X1456Y5811D02*
D03*
X1356Y5911D02*
D03*
Y5811D02*
D03*
X1256Y5911D02*
D03*
Y5811D02*
D03*
X1156Y5911D02*
D03*
Y5811D02*
D03*
X1056Y5911D02*
D03*
Y5811D02*
D03*
X1456Y6106D02*
D03*
X1356Y6206D02*
D03*
Y6106D02*
D03*
X1256Y6206D02*
D03*
Y6106D02*
D03*
X1156Y6206D02*
D03*
Y6106D02*
D03*
X1056Y6206D02*
D03*
Y6106D02*
D03*
X1286Y6486D02*
D03*
X1186Y6586D02*
D03*
Y6486D02*
D03*
X1086Y6586D02*
D03*
Y6486D02*
D03*
X986Y6586D02*
D03*
Y6486D02*
D03*
X886Y6586D02*
D03*
Y6486D02*
D03*
X2841Y5781D02*
D03*
X3511Y5791D02*
D03*
Y5691D02*
D03*
X3411Y5791D02*
D03*
Y5691D02*
D03*
X3311Y5791D02*
D03*
Y5691D02*
D03*
X3211Y5791D02*
D03*
Y5691D02*
D03*
X3111Y5791D02*
D03*
D223*
X3336Y3549D02*
D03*
Y3683D02*
D03*
X3866D02*
D03*
Y3549D02*
D03*
X3336Y3159D02*
D03*
Y3293D02*
D03*
X3866D02*
D03*
Y3159D02*
D03*
X3336Y7599D02*
D03*
Y7733D02*
D03*
X3866D02*
D03*
Y7599D02*
D03*
X3336Y7209D02*
D03*
Y7343D02*
D03*
X3866D02*
D03*
Y7209D02*
D03*
D224*
X3711Y2381D02*
D03*
X3811D02*
D03*
X3911D02*
D03*
X3560Y2811D02*
D03*
X3460D02*
D03*
X3876Y2811D02*
D03*
X3776D02*
D03*
X2932Y2811D02*
D03*
X2832D02*
D03*
X3247D02*
D03*
X3147D02*
D03*
X3081Y2141D02*
D03*
X2981D02*
D03*
X2881D02*
D03*
X3911D02*
D03*
X3811D02*
D03*
X3711D02*
D03*
X3496D02*
D03*
X3396D02*
D03*
X3296D02*
D03*
X2881Y2381D02*
D03*
X2981D02*
D03*
X3081D02*
D03*
X3296D02*
D03*
X3396D02*
D03*
X3496D02*
D03*
X376Y3791D02*
D03*
X476D02*
D03*
X711Y401D02*
D03*
X811D02*
D03*
X911D02*
D03*
X1011D02*
D03*
X1301D02*
D03*
X1401D02*
D03*
X1501D02*
D03*
X1601D02*
D03*
X3006D02*
D03*
X3106D02*
D03*
X3206D02*
D03*
X3306D02*
D03*
X3601D02*
D03*
X3701D02*
D03*
X3801D02*
D03*
X3901D02*
D03*
X2716D02*
D03*
X2616D02*
D03*
X2516D02*
D03*
X2416D02*
D03*
X2196D02*
D03*
X2096D02*
D03*
X1996D02*
D03*
X1896D02*
D03*
X3711Y6431D02*
D03*
X3811D02*
D03*
X3911D02*
D03*
X3560Y6861D02*
D03*
X3460D02*
D03*
X3876Y6861D02*
D03*
X3776D02*
D03*
X2932Y6861D02*
D03*
X2832D02*
D03*
X3247D02*
D03*
X3147D02*
D03*
X3081Y6191D02*
D03*
X2981D02*
D03*
X2881D02*
D03*
X3911D02*
D03*
X3811D02*
D03*
X3711D02*
D03*
X3496D02*
D03*
X3396D02*
D03*
X3296D02*
D03*
X2881Y6431D02*
D03*
X2981D02*
D03*
X3081D02*
D03*
X3296D02*
D03*
X3396D02*
D03*
X3496D02*
D03*
X376Y7841D02*
D03*
X476D02*
D03*
X711Y4451D02*
D03*
X811D02*
D03*
X911D02*
D03*
X1011D02*
D03*
X1301D02*
D03*
X1401D02*
D03*
X1501D02*
D03*
X1601D02*
D03*
X3006D02*
D03*
X3106D02*
D03*
X3206D02*
D03*
X3306D02*
D03*
X3601D02*
D03*
X3701D02*
D03*
X3801D02*
D03*
X3901D02*
D03*
X2716D02*
D03*
X2616D02*
D03*
X2516D02*
D03*
X2416D02*
D03*
X2196D02*
D03*
X2096D02*
D03*
X1996D02*
D03*
X1896D02*
D03*
D225*
X550Y2581D02*
D03*
Y2680D02*
D03*
X471D02*
D03*
Y2581D02*
D03*
X550Y6631D02*
D03*
Y6730D02*
D03*
X471D02*
D03*
Y6631D02*
D03*
D226*
X364Y2867D02*
D03*
Y2394D02*
D03*
Y6917D02*
D03*
Y6444D02*
D03*
D227*
X450Y3253D02*
D03*
Y3529D02*
D03*
X4006Y812D02*
D03*
X3867Y951D02*
D03*
X450Y7303D02*
D03*
Y7579D02*
D03*
X4006Y4862D02*
D03*
X3867Y5001D02*
D03*
D228*
X352Y3302D02*
D03*
Y3480D02*
D03*
Y7352D02*
D03*
Y7530D02*
D03*
D229*
X736Y4096D02*
D03*
X936D02*
D03*
X1136D02*
D03*
X1336D02*
D03*
X1536D02*
D03*
X1736D02*
D03*
X1936D02*
D03*
X2136D02*
D03*
X2336D02*
D03*
X2536D02*
D03*
X736Y8146D02*
D03*
X936D02*
D03*
X1136D02*
D03*
X1336D02*
D03*
X1536D02*
D03*
X1736D02*
D03*
X1936D02*
D03*
X2136D02*
D03*
X2336D02*
D03*
X2536D02*
D03*
D230*
X4151Y2681D02*
D03*
Y2881D02*
D03*
Y3081D02*
D03*
Y3681D02*
D03*
Y3481D02*
D03*
Y3281D02*
D03*
Y6731D02*
D03*
Y6931D02*
D03*
Y7131D02*
D03*
Y7731D02*
D03*
Y7531D02*
D03*
Y7331D02*
D03*
D231*
X3861Y1721D02*
D03*
Y1621D02*
D03*
Y1521D02*
D03*
Y1421D02*
D03*
Y5771D02*
D03*
Y5671D02*
D03*
Y5571D02*
D03*
Y5471D02*
D03*
D232*
X4258Y1756D02*
D03*
X4124D02*
D03*
Y2286D02*
D03*
X4258D02*
D03*
Y5806D02*
D03*
X4124D02*
D03*
Y6336D02*
D03*
X4258D02*
D03*
M02*
