G04 Layer_Color=16711935*
%FSLAX23Y23*%
%MOIN*%
G70*
G01*
G75*
%ADD12C,0.010*%
D12*
X440Y64D02*
G03*
X448Y72I0J8D01*
G01*
Y190D02*
G03*
X440Y198I-8J0D01*
G01*
X322D02*
G03*
X314Y190I0J-8D01*
G01*
Y72D02*
G03*
X322Y64I8J0D01*
G01*
X4173Y75D02*
G03*
X4181Y67I8J0D01*
G01*
Y201D02*
G03*
X4173Y193I0J-8D01*
G01*
X4307D02*
G03*
X4299Y201I-8J0D01*
G01*
Y67D02*
G03*
X4307Y75I0J8D01*
G01*
X4299Y8415D02*
G03*
X4307Y8423I0J8D01*
G01*
Y8541D02*
G03*
X4299Y8549I-8J0D01*
G01*
X4181D02*
G03*
X4173Y8541I0J-8D01*
G01*
Y8423D02*
G03*
X4181Y8415I8J0D01*
G01*
X314Y8423D02*
G03*
X322Y8415I8J0D01*
G01*
Y8549D02*
G03*
X314Y8541I0J-8D01*
G01*
X448D02*
G03*
X440Y8549I-8J0D01*
G01*
Y8415D02*
G03*
X448Y8423I0J8D01*
G01*
X314Y72D02*
G03*
X322Y64I8J0D01*
G01*
Y198D02*
G03*
X314Y190I0J-8D01*
G01*
X448D02*
G03*
X440Y198I-8J0D01*
G01*
Y64D02*
G03*
X448Y72I0J8D01*
G01*
X4299Y67D02*
G03*
X4307Y75I0J8D01*
G01*
Y193D02*
G03*
X4299Y201I-8J0D01*
G01*
X4181D02*
G03*
X4173Y193I0J-8D01*
G01*
Y75D02*
G03*
X4181Y67I8J0D01*
G01*
X4173Y8423D02*
G03*
X4181Y8415I8J0D01*
G01*
Y8549D02*
G03*
X4173Y8541I0J-8D01*
G01*
X4307D02*
G03*
X4299Y8549I-8J0D01*
G01*
Y8415D02*
G03*
X4307Y8423I0J8D01*
G01*
X440Y8415D02*
G03*
X448Y8423I0J8D01*
G01*
Y8541D02*
G03*
X440Y8549I-8J0D01*
G01*
X322D02*
G03*
X314Y8541I0J-8D01*
G01*
Y8423D02*
G03*
X322Y8415I8J0D01*
G01*
Y64D02*
X440D01*
X314Y72D02*
Y190D01*
X322Y198D02*
X440D01*
X448Y72D02*
Y190D01*
X4307Y75D02*
Y193D01*
X4181Y201D02*
X4299D01*
X4173Y75D02*
Y193D01*
X4181Y67D02*
X4299D01*
X4181Y8415D02*
X4299D01*
X4173Y8423D02*
Y8541D01*
X4181Y8549D02*
X4299D01*
X4307Y8423D02*
Y8541D01*
X448Y8423D02*
Y8541D01*
X322Y8549D02*
X440D01*
X314Y8423D02*
Y8541D01*
X322Y8415D02*
X440D01*
X322Y64D02*
X440D01*
X448Y72D02*
Y190D01*
X322Y198D02*
X440D01*
X314Y72D02*
Y190D01*
X4173Y75D02*
Y193D01*
X4181Y201D02*
X4299D01*
X4307Y75D02*
Y193D01*
X4181Y67D02*
X4299D01*
X4181Y8415D02*
X4299D01*
X4307Y8423D02*
Y8541D01*
X4181Y8549D02*
X4299D01*
X4173Y8423D02*
Y8541D01*
X314Y8423D02*
Y8541D01*
X322Y8549D02*
X440D01*
X448Y8423D02*
Y8541D01*
X322Y8415D02*
X440D01*
X256Y256D02*
X4356D01*
X256D02*
Y4306D01*
X4356D01*
Y256D02*
Y4306D01*
X256D02*
X4356D01*
X256D02*
Y8356D01*
X4356D01*
Y4306D02*
Y8356D01*
M02*
