M48
;Layer_Color=9474304
;FILE_FORMAT=2:3
INCH,LZ
;TYPE=PLATED
T1F00S00C0.015
T2F00S00C0.035
T3F00S00C0.038
T4F00S00C0.040
T5F00S00C0.055
T6F00S00C0.059
T7F00S00C0.063
T8F00S00C0.087
;TYPE=NON_PLATED
T9F00S00C0.118
%
T01
X00336Y00336
X00306Y00406
X00336Y00476
X00406Y00506
X00476Y00476
X00506Y00406
X00476Y00336
X00406Y00306
X00631Y00371
X00731Y00621
X00997Y006
X01062
X01061Y00546
X01127
X01126Y00496
Y00446
Y00396
Y00346
X01191
Y00396
Y00446
Y00496
X01127Y006
X01637
X01636Y00546
X01702
X01701Y00496
Y00446
Y00396
Y00346
X01766
Y00396
Y00446
Y00496
Y00546
X01767Y006
X01702
X01897
X01896Y00561
X01926Y00531
X02046Y00541
X02096Y0057
X02006Y00586
X02211Y00606
X02261
X02316
X02371
X02436
X02481
X02538Y00584
X02586Y00611
X02756Y00616
X02791Y00591
X02906Y00636
X02871Y00401
X02851Y00356
X02796
Y00406
X03381
Y00356
X03426
X03476
X03531
X03571Y00631
X03616Y00626
X03671
X03301Y00586
X03331Y00551
X03371Y00516
X03781Y00576
Y00611
X03846
Y00576
X03911
Y00611
X03971
Y00576
Y00526
Y00476
Y00426
Y00376
X04106Y00406
X04136Y00336
X04206Y00306
X04276Y00336
X04306Y00406
X04276Y00476
X04206Y00506
X04136Y00476
X04191Y00691
Y00786
Y00881
X04186Y00981
Y01086
X04071
Y00981
X04076Y00881
X03956
X03951Y00981
Y01086
X03836
X03841Y00881
Y00786
Y00691
X03956
X04076
X04011Y01166
Y01231
Y01276
X03996Y01321
Y01386
Y01461
Y01521
X04126
Y01461
Y01386
Y01326
X04121Y01661
X04061
Y01756
X04191
Y01661
X04261
X04256Y01851
Y01891
X04191
Y01851
X04121
Y01891
Y01936
Y02006
X04191
Y01936
Y02086
Y02141
Y02196
X04124
Y02141
X04121Y02086
X04061Y02141
Y02196
X03981
Y02116
X03961Y02001
X03916Y01911
X03846
X03836Y01866
X03801Y01861
X03966
X04006
X03761
X03691Y01836
X03616
X0358Y0186
X0354
X035Y01865
X03495Y0191
X03415
X0337Y0186
X0333
X03301Y01986
X03266Y01976
X03231Y01971
X03201Y01946
X03171Y01886
X03131
X03066Y01906
X03071Y01861
X02996Y01831
X02986Y01906
X02931Y01891
X02891
X02886Y01601
X02871Y01446
X02836
X02801
X02771Y01377
X02755Y01243
Y012
Y01157
X02712
Y012
Y01243
X02669
Y012
Y01157
X02625
Y012
Y01243
X02582
Y012
Y01157
X02624Y01026
X02714
X02911Y01045
X02944Y0098
X02981Y0091
X03035Y00905
Y0084
X02985
X02939Y00856
X03079
X03172Y0094
X03304Y01026
X03394
X03392Y01157
X03435
Y012
Y01243
X03392
Y012
X03349
Y01243
X03305
Y012
Y01157
X03349
X03262
Y012
Y01243
X03074Y01136
X02944
X03014Y01046
X02852Y0094
X02746Y00706
X02591
X0244Y0067
X02411Y00641
X02385Y00675
X02324Y00676
X02277Y00675
X02301Y00641
X02351
X02225Y00645
X02259Y00856
X02305Y0084
X02355
X02399Y00856
X02355Y00905
X02301Y00911
X02262Y00977
X02227Y01041
X02329Y01041
X02264Y01136
X02394Y01136
X02396Y01376
X02451
X02521
X02526Y01576
X02536Y01611
X02601Y01586
X02591Y01686
X02586Y01721
X02563Y01744
X02536Y01726
X02491Y01721
X02436Y01726
X02401Y01751
X02381Y01781
X02396Y01811
X02431
X02466
X02426Y01631
X02421Y01591
X02356Y01541
X02323Y01556
X02314Y01521
X02311Y01456
Y01406
X02276Y01376
X02241Y01406
Y01456
X02366
X02311Y01616
Y01661
X02206Y01646
X02216Y01571
X02241Y02121
X02276
X02311Y02131
X02356Y02106
X02366Y02071
X02351Y02036
X02466Y02046
X02541Y02002
X02571Y02017
X02606Y02011
X02621Y02096
X02411Y02186
X02371
X03186Y02131
X03616Y02126
Y02026
Y01926
X03686
X03551Y01446
X03516
X03481
X03451Y01377
X03624Y01136
X03596Y01044
X03624Y0098
X03721Y00981
X03689Y01046
X03721Y01086
X03726Y00881
X03661Y0091
X03665Y0084
X03619Y00856
X03532Y0094
X03726Y00786
Y00691
X03637Y00675
X03426Y00696
X03266Y00686
X0312Y0067
X03065Y00675
X03036Y00646
X02986
X02957Y00675
X02492Y0094
X02172Y0094
X02034Y01026
X01944
X01946Y01157
X01989
X02032
X02075
Y012
Y01243
X02032
Y012
X01989
Y01243
X01946
Y012
X01902
Y01243
Y01157
X01714Y01136
X01584Y01136
X01549Y01045
X01584Y00981
X01621Y00906
X01675Y00905
Y0084
X01625
X01579Y00856
X01719Y00856
X01812Y0094
X01647Y01045
X01492Y0094
X01354Y01026
X01264
X01265Y01157
X01309
X01352
X01395
Y012
Y01243
X01352
Y012
X01309
Y01243
X01265
Y012
X01222
Y01243
Y01157
X01034Y01136
X00904
X00871Y01046
X00904Y00981
X00941Y00911
X00995Y00905
Y0084
X00945
X00899Y00856
X01039
X01132Y0094
X00969Y01046
X00812Y0094
X00674Y01026
X00672Y01157
X00715
Y012
Y01243
X00672
Y012
X00731Y01377
X00761Y01446
X00796
X00831
X00696Y01636
X00706Y01751
Y01856
X00641Y02001
X00711Y02071
X00691Y02166
X00741Y02161
X00791
X00836Y02066
X00891Y02056
X00836Y02001
X00891Y01911
X00971Y01906
Y02011
Y02136
Y01781
X00846Y01761
X01201Y01731
X01651Y01796
X01711Y01781
Y01901
X01666Y01896
X01631
X01551Y01926
X01611Y02021
X01641Y02001
X01676Y02016
X01841Y02036
Y01904
X01865Y01876
X01891Y01896
X02071Y01881
X0212
X02096Y01855
X02146Y01856
X02031Y02051
X02011Y02181
X02061
X01611Y02161
X01576Y02166
X01511Y01446
X01476
X01441
X01411Y01377
X02091
X02121Y01446
X02156
X02191
X02121Y01556
X02086Y01526
X02066Y00701
X01911Y00696
X0176Y0067
X01705Y00675
X01644Y00651
X01597Y00675
X01545Y00645
X01391Y00696
X01231Y00691
X0108Y0067
X01025Y00675
X00969Y00671
X00917Y00675
X00865Y00645
X00546Y00701
X00406Y00651
X0036Y00675
X00359Y00856
X00452Y0094
X00584Y01026
X00585Y01157
X00629
Y012
Y01243
X00585
Y012
X00542
Y01243
Y01157
X00354Y01136
X00356Y01471
X00406Y01596
X00536
X00501Y01716
X00516Y01761
X00496Y01791
X00499Y01836
X00581Y01856
X00556Y01941
X00521Y01946
X00496Y02031
X00542Y02112
X00581Y02141
X00381Y02131
X00386Y01986
X00366Y01691
X00416Y02246
X00306Y02256
X00301Y02326
X00311Y02486
Y02546
Y02606
Y02676
Y02736
Y02796
X00301Y02941
X00311Y03031
Y03081
X00416Y02941
X00506
X00611
X00606Y03031
Y03086
X00531Y03171
Y03296
Y03436
X00311Y03621
X00471Y02751
X00516Y02486
X00572Y02412
X00581Y02271
X00541
X00616Y02266
X00656Y02271
X00726Y02286
X00811Y02291
X00906Y02266
X00941
X01051Y02276
X01161
X01256
X01456Y02261
X01534Y02326
X01566Y02316
X01616Y02311
X01621Y02381
X01656
X01776Y02397
X01783Y02318
X01881Y02346
X01901Y02271
X01879Y02245
X01901Y02221
X02036Y02226
X02086
X02196Y02221
X01996Y02306
X01961Y02321
X01971Y02486
X01936Y02476
X01896Y02461
X02026Y02436
X02071Y02561
X02096Y02536
X02166Y02656
X02036Y02681
X02013Y02658
X01989Y0268
X01964Y02659
X01939Y02684
X01796Y02692
Y02657
X01815Y02631
X01786Y02611
X01656Y02642
X01661Y02676
X01566Y02666
Y02631
X01571Y02596
X01601Y02566
X01556Y02536
X01521Y02539
X01446Y02536
X01421Y02621
X01496Y02636
X01466Y02666
Y02701
X01411Y02731
X01341Y02651
X01246
X01146
X01046
X00941
X00841
X00806Y02591
X00751Y02606
Y02516
X00806Y02476
X00941Y02441
X00891Y02591
X00996
X00906Y02731
X00766Y02706
X00702Y02806
X00651Y02844
X00671Y02876
X00651Y02769
Y02606
X00711Y02376
X00776Y02941
X00871Y03006
X00901Y02901
X00856Y03171
Y03296
X00851Y03436
X00686
Y03296
Y03171
X00696Y03071
X01041Y03216
X01086Y03356
X01126
X01166
X01206
X01246
X01286
X01326
X01306Y03396
X01266
X01226
X01186
X01146
X01106
X01066
X01148Y03558
X01188
X01228
Y03598
Y03638
Y03678
X01188
Y03638
Y03598
X01148
Y03638
Y03678
X01268
X01308
Y03638
X01268
Y03598
X01308
Y03558
X01268
X01416Y03681
X01546Y03678
Y03638
Y03598
Y03558
X01586
X01626
Y03598
Y03638
Y03678
X01586
Y03638
Y03598
X01666
Y03638
Y03678
X01706
Y03638
Y03598
Y03558
X01666
X01655Y03397
X01615
X01575
X01535
X01495
X01456Y03396
X01475Y03357
X01515
X01555
X01595
X01635
X01675
X01716Y03356
X01696Y03396
X01856
X01896
X01936
X01976
X02016
X02056
X02096
X02076Y03356
X02036
X01996
X01956
X01916
X01876
X01891Y03196
X01966Y03206
X02066
X02116
Y03356
X02107Y03558
Y03598
Y03638
Y03678
X02067
X02027
Y03638
Y03598
Y03558
X01987
X01947
Y03598
X01987
Y03638
X01947
Y03678
X01987
X02067Y03638
Y03598
Y03558
X01816Y03671
X01756Y03216
X01591
X01441
X01446Y03071
X01486Y03031
X01481Y02991
X01456Y02916
X01416Y02926
X01629Y02901
X01661Y02869
X01681Y02776
X01561Y02741
X01668Y02536
X01541Y02416
X01466
X01431
X01401
X01366
X01616Y02201
X01771Y02929
X01804Y02901
X01866Y02918
Y02866
X01936Y02886
X01931Y02921
X01971Y02896
X02066
X02166Y02901
X02116Y03041
X02016
X01856Y03081
X01836Y02951
X01271Y03216
X00971Y03611
X00921Y03696
X00871Y03736
X00826Y03701
X00776Y03736
X00731Y03701
X00681Y03611
X02216Y03671
X02403Y03678
Y03638
Y03598
Y03558
X02443
X02483
Y03598
Y03638
Y03678
X02443
Y03638
Y03598
X02523
Y03638
Y03678
X02563
Y03638
Y03598
Y03558
X02523
X02512Y03397
X02472
X02432
X02392
X02352
X02311Y03396
X02271
X02231
X02251Y03356
X02291
X02332Y03357
X02372
X02412
X02452
X02492
X02531Y03357
X02551Y03396
X02661Y03356
X02686Y03436
X02731
X02716Y03491
X02861
X02916Y03431
X02891Y03396
X02811Y03381
X02861Y03251
X02856Y03206
X02891Y03226
Y03181
Y03276
X02991Y03306
X03036
Y03361
X03106
X03101Y03306
X03176
Y03361
X03161Y03406
X03241Y03361
Y03291
Y03226
Y03161
Y03096
X03221Y03051
X03171
X03121Y03061
Y03111
X03171
X03176Y03166
X03116
X03041Y03171
X03056Y03111
Y03061
X02996
Y03111
X0281Y03113
X02726Y03146
Y03196
X02706Y03226
X02691Y03261
X02731Y03266
X02691Y03171
Y03121
X02711Y03091
X02701Y03056
X0266Y03032
X02622
X02542Y03026
X02544Y03068
X02506Y02986
X02441Y03026
X02336Y03036
X02311Y02991
X02236Y02986
X02201Y02976
X02236Y03036
X02225Y0308
X02206Y03116
X02341Y03176
Y03236
X02406
Y03176
X02331Y03311
X02376Y02941
X02391Y02871
X02441
X02491
X02546
X02741Y02851
X02751Y02766
Y02661
X02681Y02681
X02686Y02716
X02656Y02621
X02681Y02531
Y02496
X02638Y02508
X02616Y02536
X02791Y02541
X02816Y02601
X02919Y02671
X03014
X03041Y02766
Y02851
X02941Y02911
X02856Y02981
X02861Y03036
X02671Y02986
X02276Y02936
X02281Y02901
X02242Y02902
X02281Y02736
X02351Y02701
X02336Y02661
X02356Y02631
X02311Y02611
X02291Y02511
X02256Y02471
X02446Y02496
X02486Y02481
X02469Y02449
X02456Y02416
X02446Y02366
X02481
X02675Y02349
X02706Y02391
X02781Y02321
X02796Y02286
X02836
X02981Y02261
X03086
X03186Y02311
Y02206
X03286Y02261
X03396
X03496
X03616Y02311
Y02206
X03701Y02261
X03616Y02416
X035Y02541
X03521Y02599
X03395Y02631
X03371Y02571
X03251Y02511
X03186Y02436
X03064Y02546
X03092Y02601
X03194Y02671
X03221Y02921
X03166
X03281
X03356
X03426
X03496
X03571
X03646
X03706Y03051
X03646Y03111
Y03161
Y03221
Y03281
X03651Y03336
Y03406
X03601
X03716
X03721Y03481
Y03551
Y03616
Y03681
X03646Y03686
Y03746
Y03616
X03651Y03551
Y03481
X03526
Y03551
Y03616
Y03686
X03436
Y03611
Y03551
X03336Y03616
X03236Y03621
X03176
X03126
Y03686
X03176
X03236
Y03551
Y03481
X03336
X03341Y03361
X03336Y03226
X03431
Y03291
X03546Y03281
Y03336
Y03221
Y03166
Y03111
X03496Y03051
X03426
X03431Y03096
Y03156
X03336Y03096
X03361Y03051
X03286
X03176Y03236
X03021Y03511
Y03566
X02976
Y03626
X03021
X02986Y03711
X02921Y03706
X02861Y03646
X03336Y03751
X03721Y03296
Y03231
Y03161
X0369Y02606
X0362Y02666
X02471Y02626
X02204Y02661
X02321Y02236
X02331Y02201
X02634Y022
X03806Y02261
X03926
X03981Y02311
Y02411
X04066Y02431
Y02376
X04124
X04191Y02371
Y02286
X04061
X04066Y02501
Y02571
X04051Y02621
Y02681
Y02741
X03991Y02746
Y02801
X04036
X04041Y02881
X03991
Y02946
X04041
Y03006
Y03081
Y03151
Y03211
Y03281
X04046Y03341
X04066Y03416
X03996Y03406
X03926
X03856
X03866Y03361
X03776
X03786Y03406
X03771Y03481
Y03551
Y03616
Y03681
X03866Y03616
X03961
Y03551
Y03481
X03866
Y03226
X03956
Y03291
Y03156
X03911Y03051
X03841
X03776
Y03091
Y03161
Y03231
Y03296
X03866Y03091
X03841Y02921
X03776
X03911
X0387Y02721
X03991Y02681
Y02621
X04011Y02551
X04146Y02571
X04151Y02621
X04251
Y02676
Y02741
X04256Y02811
X04261Y02881
Y02951
Y03006
Y03081
Y03146
X04256Y03211
X04261Y03281
Y03346
X04256Y03416
Y03481
Y03546
X04261Y03611
Y03681
Y03751
X04151
Y03611
Y03546
Y03416
Y03346
Y03211
Y03151
Y03006
Y02951
Y02811
Y02741
X04146Y02501
X04151Y02431
X04241Y02436
Y02496
Y02571
X03836Y02521
X03766Y02536
X03801Y02601
X03961Y03686
X04041Y03681
X04036Y03616
X03996Y03856
Y03931
X04066Y03956
X04091Y03886
X04301
X04276Y04086
X04306Y04156
X04276Y04226
X04206Y04256
X04136Y04226
X04106Y04156
X04136Y04086
X04206Y04056
Y04356
X04136Y04386
X04106Y04456
X04136Y04526
X04206Y04556
X04276Y04526
X04306Y04456
X04276Y04386
X03971Y04426
Y04476
Y04526
Y04576
Y04626
Y04661
X03911
Y04626
X03846
Y04661
X03781
Y04626
X03841Y04741
Y04836
Y04931
X03956
X03951Y05031
Y05136
X03836
X04071
Y05031
X04076Y04931
X04191
Y04836
Y04741
X04076
X03956
X04186Y05031
Y05136
X04011Y05216
Y05281
X03948Y04136
X03903Y04131
X03798
X03748
X03723Y04156
X03553Y04176
X03527Y0412
Y04081
X03487
Y04041
X03527
X03448
Y04081
Y0412
X03487
X03448Y04171
X03278Y04176
X03261Y04111
X03268Y04056
X03277Y03987
X03291Y03936
X03171Y03896
X03276Y03786
X03361Y03831
X03408Y03826
X03526Y03766
X03559Y03862
Y03927
X03399Y04013
X03081Y04046
X03026Y04101
X03091Y04201
X02906Y03951
X02986Y03851
X02861Y03811
X02776
X02401Y03871
X02336
Y03941
Y03991
X02266Y03996
X02261Y03941
Y03871
X02216
X02206Y03986
Y04096
X02271
X02261Y04196
X02206Y04206
X02336Y04196
X02396
X02401Y04096
Y04011
Y03941
X02371Y04656
X02316
X02301Y04691
X02351
X02411
X0244Y0472
X02385Y04725
X02324Y04726
X02277Y04725
X02225Y04695
X02211Y04656
X02261
X02436
X02481
X02538Y04634
X02586Y04661
X02591Y04756
X02746
X02756Y04666
X02791Y04641
X02906Y04686
X02957Y04725
X02986Y04696
X03036
X03065Y04725
X0312Y0472
X03266Y04736
X03301Y04636
X03331Y04601
X03371Y04566
X03381Y04456
Y04406
X03426
X03476
X03531
X03571Y04681
X03616Y04676
X03671
X03637Y04725
X03726Y04741
Y04836
Y04931
X03661Y0496
X03665Y0489
X03619Y04906
X03624Y0503
X03596Y05094
X03689Y05096
X03721Y05136
Y05031
X03532Y0499
X03394Y05076
X03304
X03305Y05207
X03349
X03392
X03435
Y0525
Y05293
X03392
Y0525
X03349
Y05293
X03305
Y0525
X03262
Y05293
Y05207
X03074Y05186
X02944
X02911Y05095
X02944Y0503
X02981Y0496
X03035Y04955
Y0489
X02985
X02939Y04906
X03079
X03172Y0499
X03014Y05096
X02852Y0499
X02714Y05076
X02624
X02625Y05207
X02669
X02712
X02755
Y0525
Y05293
X02712
Y0525
X02669
Y05293
X02625
Y0525
X02582
Y05293
Y05207
X02394Y05186
X02264Y05186
X02227Y05091
X02262Y05027
X02301Y04961
X02355Y04955
Y0489
X02305
X02259Y04906
X02399Y04906
X02492Y0499
X02329Y05091
X02796Y04456
Y04406
X02851
X02871Y04451
X03426Y04746
X03624Y05186
X02075Y05207
Y0525
Y05293
X02032
Y0525
Y05207
X01989
Y0525
Y05293
X01946
Y0525
Y05207
X01902
Y0525
Y05293
X01944Y05076
X02034
X02172Y0499
X02066Y04751
X01911Y04746
X01897Y0465
X01896Y04611
X01926Y04581
X02046Y04591
X02096Y0462
X02006Y04636
X01767Y0465
X01766Y04596
Y04546
Y04496
Y04446
Y04396
X01701
Y04446
Y04496
Y04546
X01702Y04596
Y0465
X01637
X01636Y04596
X01644Y04701
X01597Y04725
X01545Y04695
X01705Y04725
X0176Y0472
X01719Y04906
X01675Y0489
X01625
X01579Y04906
X01621Y04956
X01675Y04955
X01584Y05031
X01549Y05095
X01647Y05095
X01584Y05186
X01714Y05186
X01812Y0499
X01492Y0499
X01354Y05076
X01264
X01265Y05207
X01309
X01352
X01395
Y0525
Y05293
X01352
Y0525
X01309
Y05293
X01265
Y0525
X01222
Y05293
Y05207
X01034Y05186
X00904
X00871Y05096
X00904Y05031
X00941Y04961
X00995Y04955
Y0489
X00945
X00899Y04906
X01039
X01132Y0499
X00969Y05096
X00812Y0499
X00674Y05076
X00672Y05207
X00715
Y0525
Y05293
X00672
Y0525
X00731Y04671
X00865Y04695
X00917Y04725
X00969Y04721
X01025Y04725
X0108Y0472
X01062Y0465
X01061Y04596
X01127
X01126Y04546
Y04496
Y04446
Y04396
X01191
Y04446
Y04496
Y04546
X01127Y0465
X00997
X01231Y04741
X01391Y04746
X01411Y04206
X01336
X01226
X01136
X01066
X01006
X00936
X00866
X00801
X00736
X00666
Y04096
Y03986
X00736
X00806
X00866
X00936
X01006
X01071
X01136
X01131Y03926
Y03871
X01056
Y03926
X01006Y03901
X00936
X00866
X00826Y03776
X00921
X00731
X00806Y04096
X00866
X01006
X01066
X01226
Y04001
X01336Y03986
X01416
X01466
Y03921
Y03866
X01416Y03871
X01536Y03866
Y03921
Y03986
X01626
X01736
X01821
X01866
Y03921
Y03866
X01816Y03871
X01931Y03866
Y03921
X01936Y03986
X02026
X02136
Y04206
X02026
X01936
X01871
X01821
X01736
X01626
Y04096
X01466
X01416
X01821
X01866
X02026
X01631Y03871
X00476Y04086
X00506Y04156
X00476Y04226
X00406Y04256
X00336Y04226
X00306Y04156
X00336Y04086
X00406Y04056
Y04356
X00336Y04386
X00306Y04456
X00336Y04526
X00406Y04556
X00476Y04526
X00506Y04456
X00476Y04386
X00631Y04421
X00546Y04751
X00406Y04701
X0036Y04725
X00359Y04906
X00452Y0499
X00584Y05076
X00585Y05207
X00629
Y0525
Y05293
X00585
Y0525
X00542
Y05293
Y05207
X00354Y05186
X00356Y05521
X00406Y05646
X00536
X00501Y05766
X00516Y05811
X00496Y05841
X00499Y05886
X00581Y05906
X00556Y05991
X00521Y05996
X00496Y06081
X00542Y06162
X00581Y06191
Y06321
X00541
X00616Y06316
X00572Y06462
X00516Y06536
X00311
Y06596
Y06656
Y06726
Y06786
Y06846
X00471Y06801
X00416Y06296
X00306Y06306
X00301Y06376
X00381Y06181
X00386Y06036
X00366Y05741
X00696Y05686
X00706Y05801
Y05906
X00641Y06051
X00711Y06121
X00691Y06216
X00741Y06211
X00791
X00836Y06116
X00891Y06106
X00836Y06051
X00891Y05961
X00971Y05956
Y06061
Y06186
X00941Y06316
X00906
X00811Y06341
X00726Y06336
X00656Y06321
X00711Y06426
X00751Y06566
Y06656
X00806Y06641
X00891
X00996
X01046Y06701
X01146
X01246
X01341
X01421Y06671
X01496Y06686
X01466Y06716
Y06751
X01411Y06781
X01561Y06791
X01566Y06716
Y06681
X01571Y06646
X01601Y06616
X01556Y06586
X01521Y06589
X01446Y06586
X01431Y06466
X01401
X01366
X01466
X01541
X01534Y06376
X01566Y06366
X01616Y06361
X01621Y06431
X01656
X01776Y06447
X01783Y06368
X01881Y06396
X01901Y06321
X01879Y06295
X01901Y06271
X02036Y06276
X02086
X02061Y06231
X02011
X01996Y06356
X01961Y06371
X01971Y06536
X01936Y06526
X01896Y06511
X02026Y06486
X02071Y06611
X02096Y06586
X02166Y06706
X02036Y06731
X02013Y06708
X01989Y0673
X01964Y06709
X01939Y06734
X01796Y06742
Y06707
X01815Y06681
X01786Y06661
X01656Y06692
X01661Y06726
X01681Y06826
X01668Y06586
X01616Y06251
X01611Y06211
X01576Y06216
X01611Y06071
X01641Y06051
X01676Y06066
X01666Y05946
X01631
X01711Y05951
Y05831
X01651Y05846
X01551Y05976
X01841Y05954
X01865Y05926
X01891Y05946
X01841Y06086
X02031Y06101
X02071Y05931
X0212
X02096Y05905
X02146Y05906
X02121Y05606
X02086Y05576
X02121Y05496
X02156
X02191
X02091Y05427
X01511Y05496
X01476
X01441
X01411Y05427
X01201Y05781
X00971Y05831
X00846Y05811
X00831Y05496
X00796
X00761
X00731Y05427
X00806Y06526
X00941Y06491
Y06701
X00841
X00766Y06756
X00702Y06856
X00651Y06819
Y06656
X00906Y06781
X01051Y06326
X01161
X01256
X01456Y06311
X02196Y06271
X02321Y06286
X02331Y06251
X02371Y06236
X02411
X02356Y06156
X02366Y06121
X02351Y06086
X02466Y06096
X02541Y06052
X02571Y06067
X02606Y06061
X02621Y06146
X02634Y0625
X02675Y06399
X02706Y06441
X02681Y06546
Y06581
X02638Y06558
X02616Y06586
X02656Y06671
X02681Y06731
X02686Y06766
X02751Y06816
Y06711
X02816Y06651
X02791Y06591
X02781Y06371
X02796Y06336
X02836
X02981Y06311
X03086
X03186Y06361
Y06256
Y06181
X03201Y05996
X03231Y06021
X03266Y06026
X03301Y06036
X0333Y0591
X0337
X03415Y0596
X03495
X035Y05915
X0354Y0591
X0358
X03616Y05886
X03691
X03686Y05976
X03616
Y06076
Y06176
Y06256
Y06361
Y06466
X03701Y06311
X03496
X03396
X03286
X03186Y06486
X03251Y06561
X03371Y06621
X03395Y06681
X03521Y06649
X035Y06591
X0362Y06716
X0369Y06656
X03194Y06721
X03092Y06651
X03064Y06596
X03014Y06721
X02919
X03041Y06816
X02471Y06676
X02356Y06681
X02336Y06711
X02351Y06751
X02281Y06786
X02204Y06711
X02311Y06661
X02291Y06561
X02256Y06521
X02446Y06546
X02486Y06531
X02469Y06499
X02456Y06466
X02446Y06416
X02481
X02311Y06181
X02276Y06171
X02241
X02396Y05861
X02431
X02466
X02491Y05771
X02536Y05776
X02563Y05794
X02586Y05771
X02591Y05736
X02601Y05636
X02526Y05626
X02536Y05661
X02426Y05681
X02421Y05641
X02356Y05591
X02323Y05606
X02314Y05571
X02311Y05506
Y05456
X02276Y05426
X02241Y05456
Y05506
X02366
X02396Y05426
X02451
X02521
X02771Y05427
X02801Y05496
X02836
X02871
X02886Y05651
X02891Y05941
X02931
X02986Y05956
X03066
X03071Y05911
X03131Y05936
X03171
X02996Y05881
X02436Y05776
X02401Y05801
X02381Y05831
X02311Y05711
Y05666
X02206Y05696
X02216Y05621
X03481Y05496
X03516
X03551
X03451Y05427
X03761Y05911
X03801
X03836Y05916
X03846Y05961
X03916
X03966Y05911
X04006
X04121Y05901
Y05941
Y05986
Y06056
X04191
Y05986
Y05941
Y05901
X04256
Y05941
X04191Y05806
Y05711
X04121
X04061
Y05806
X04261Y05711
X04126Y05571
Y05511
Y05436
Y05376
X03996Y05371
X04011Y05326
X03996Y05436
Y05511
Y05571
X03961Y06051
X03981Y06166
Y06246
X04061
Y06191
X04124
Y06246
X04191
Y06191
Y06136
X04121
X04061Y06336
X04066Y06426
Y06481
Y06551
Y06621
X04051Y06671
Y06731
Y06791
X03991Y06796
Y06851
X04036
X04151Y06861
Y06791
X04251
Y06726
Y06671
X04241Y06621
Y06546
Y06486
X04151Y06481
X04146Y06551
Y06621
X04151Y06671
X03991
Y06731
X04011Y06601
X03981Y06461
Y06361
X03926Y06311
X03806
X03836Y06571
X03766Y06586
X03801Y06651
X0387Y06771
X04256Y06861
X04191Y06421
X04124Y06426
X04191Y06336
X04261Y06931
Y07001
Y07056
Y07131
Y07196
X04256Y07261
X04261Y07331
Y07396
X04256Y07466
Y07531
Y07596
X04261Y07661
Y07731
Y07801
X04151
Y07661
Y07596
Y07466
Y07396
X04046Y07391
X04041Y07331
Y07261
Y07201
Y07131
Y07056
Y06996
X03991
Y06931
X04041
X03911Y06971
X03841
X03776
Y07101
Y07141
Y07211
Y07281
Y07346
Y07411
X03786Y07456
X03856
X03866Y07411
X03926Y07456
X03996
X04066Y07466
X03961Y07531
Y07601
Y07666
Y07736
X04041Y07731
X04036Y07666
X03866
X03771
Y07731
Y07601
Y07531
X03866
Y07276
X03956
Y07341
Y07206
X03911Y07101
X03841
X03866Y07141
X04151Y07201
Y07261
Y07056
Y07001
X04091Y07936
X04066Y08006
X03996Y07981
Y07906
X03948Y08186
X03903Y08181
X03798
X04106Y08206
X04136Y08136
X04206Y08106
X04276Y08136
X04306Y08206
X04276Y08276
X04206Y08306
X04136Y08276
X04301Y07936
X03559Y07912
Y07977
X03527Y08091
Y08131
X03487
Y08091
X03448
Y08131
Y0817
X03487
X03527
X03553Y08226
X03448Y08221
X03278Y08226
X03261Y08161
X03268Y08106
X03277Y08037
X03291Y07986
X03171Y07946
X03276Y07836
X03336Y07801
X03361Y07881
X03408Y07876
X03436Y07736
Y07661
Y07601
X03526
Y07666
Y07736
Y07816
X03646Y07796
Y07736
Y07666
X03651Y07601
X03721
Y07666
Y07731
Y07531
X03651
Y07456
X03601
X03716
X03721Y07346
Y07281
Y07211
X03646
Y07161
X03546
Y07216
Y07271
Y07331
Y07386
X03651
X03646Y07331
Y07271
X03431Y07276
Y07341
Y07206
Y07146
X03426Y07101
X03361
X03336Y07146
X03286Y07101
X03221
X03171
X03121Y07111
Y07161
X03171
X03176Y07216
X03116
X03041Y07221
X03056Y07161
Y07111
X02996
Y07161
X02891Y07231
Y07276
Y07326
X02861Y07301
X02856Y07256
X0281Y07163
X02726Y07196
Y07246
X02706Y07276
X02691Y07311
X02731Y07316
X02691Y07221
Y07171
X02711Y07141
X02701Y07106
X0266Y07082
X02622
X02542Y07076
X02544Y07118
X02506Y07036
X02441Y07076
X02336Y07086
X02311Y07041
X02236Y07036
X02201Y07026
X02236Y07086
X02225Y0713
X02206Y07166
X02341Y07226
Y07286
X02406
Y07226
X02412Y07407
X02452
X02492
X02531Y07407
X02551Y07446
X02512Y07447
X02472
X02432
X02392
X02352
X02311Y07446
X02271
X02231
X02251Y07406
X02291
X02332Y07407
X02372
X02331Y07361
X02403Y07608
X02443
X02483
Y07648
Y07688
Y07728
X02443
Y07688
Y07648
X02403
Y07688
Y07728
X02523
X02563
Y07688
X02523
Y07648
X02563
Y07608
X02523
X02716Y07541
X02731Y07486
X02686
X02661Y07406
X02811Y07431
X02891Y07446
X02916Y07481
X02861Y07541
Y07696
X02921Y07756
X02986Y07761
X02976Y07676
X03021
Y07616
X02976
X03021Y07561
X03036Y07411
Y07356
X02991
X03101
X03106Y07411
X03176
Y07356
Y07286
X03241Y07276
Y07211
Y07146
X03221Y06971
X03166
X03281
X03356
X03426
X03496
X03571
X03646
X03706Y07101
X03496
X03336Y07276
X03341Y07411
X03241
Y07341
X03161Y07456
X03236Y07531
Y07601
Y07671
X03176
X03126
Y07736
X03176
X03236
X03336Y07666
Y07531
X03526
X03399Y08063
X03081Y08096
X03026Y08151
X03091Y08251
X02906Y08001
X02986Y07901
X02861Y07861
X02776
X02401Y07921
X02336
Y07991
Y08041
X02266Y08046
X02261Y07991
Y07921
X02216
X02206Y08036
Y08146
X02271
X02261Y08246
X02206Y08256
X02336Y08246
X02396
X02401Y08146
Y08061
Y07991
X02216Y07721
X02276Y06986
X02281Y06951
X02242Y06952
X02376Y06991
X02391Y06921
X02441
X02491
X02546
X02741Y06901
X02671Y07036
X02856Y07031
X02861Y07086
X02941Y06961
X03041Y06901
X03748Y08181
X03723Y08206
X02136Y08256
X02026
X01936
X01871
X01821
X01736
X01626
Y08146
Y08036
X01536
Y07971
Y07916
X01466
X01416Y07921
X01466Y07971
Y08036
X01416
X01336
X01226Y08051
Y08146
Y08256
X01136
X01066
X01006
X00936
X00866
X00801
X00736
X00666
Y08146
Y08036
X00736
X00806
X00866
X00936
X01006
X01071
X01136
X01131Y07976
Y07921
X01056
Y07976
X01006Y07951
X00936
X00866
X00826Y07826
Y07751
X00871Y07786
X00921Y07826
Y07746
X00971Y07661
X01148Y07648
Y07608
X01188
X01228
Y07648
Y07688
Y07728
X01188
Y07688
Y07648
X01148Y07688
Y07728
X01268
X01308
Y07688
X01268
Y07648
X01308
Y07608
X01268
X01266Y07446
X01226
X01186
X01146
X01106
X01066
X01086Y07406
X01126
X01166
X01206
X01246
X01286
X01326
X01306Y07446
X01456
X01495Y07447
X01535
X01575
X01615
X01655
X01696Y07446
X01716Y07406
X01675Y07407
X01635
X01595
X01555
X01515
X01475
X01441Y07266
X01446Y07121
X01486Y07081
X01481Y07041
X01456Y06966
X01416Y06976
X01629Y06951
X01661Y06919
X01771Y06979
X01804Y06951
X01866Y06968
Y06916
X01936Y06936
X01931Y06971
X01971Y06946
X02066
X02166Y06951
X02116Y07091
X02016
X01856Y07131
X01891Y07246
X01966Y07256
X02066
X02116
Y07406
X02076
X02036
X01996
X01956
X01916
X01876
X01896Y07446
X01936
X01976
X02016
X02056
X02096
X02107Y07608
Y07648
Y07688
Y07728
X02067
X02027
Y07688
Y07648
Y07608
X01987
X01947
Y07648
X01987
Y07688
X01947
Y07728
X01987
X02067Y07688
Y07648
Y07608
X01706
Y07648
Y07688
Y07728
X01666
X01626
Y07688
Y07648
Y07608
X01586
X01546
Y07648
X01586
Y07688
X01546
Y07728
X01586
X01666Y07688
Y07648
Y07608
X01816Y07721
Y07921
X01866Y07916
Y07971
Y08036
X01821
X01736
X01821Y08146
X01866
X02026
Y08036
X01936
X01931Y07971
Y07916
X01631Y07921
X01466Y08146
X01416
X01411Y08256
X01336
X01066Y08146
X01006
X00866
X00806
X00776Y07786
X00731Y07751
Y07826
X00681Y07661
X00686Y07486
Y07346
Y07221
X00696Y07121
X00776Y06991
X00871Y07056
X00901Y06951
X00671Y06926
X00651Y06894
X00856Y07221
Y07346
X00851Y07486
X01041Y07266
X01271
X01591
X01756
X01856Y07446
X01836Y07001
X01416Y07731
X02136Y08036
X00476Y08136
X00506Y08206
X00476Y08276
X00406Y08306
X00336Y08276
X00306Y08206
X00336Y08136
X00406Y08106
X00311Y07671
X00531Y07486
Y07346
Y07221
X00606Y07136
Y07081
X00611Y06991
X00506
X00416
X00301
X00311Y07081
Y07131
T02
X02841Y01731
X02941
X03111Y01741
Y01641
X03211
Y01741
X03311
Y01641
X03411
Y01741
X03511
Y01641
X01456Y01761
X01356
X01256
X01156
X01056
Y01861
X01156
X01256
X01356
X01456
Y02056
X01356
X01256
X01156
X01056
Y02156
X01156
X01256
X01356
X01456
X01291Y02391
X01191
X01091
X00991
X00891
Y02491
X00991
X01091
X01191
X01291
X01256Y05811
X01156
X01056
Y05911
X01156
X01256
X01356
Y05811
X01456
Y05911
Y06106
X01356
X01256
X01156
X01056
Y06206
X01156
X01256
X01356
X01456
X01291Y06441
X01191
X01091
X00991
X00891
Y06541
X00991
X01091
X01191
X01291
X02841Y05781
X02941
X03111Y05791
Y05691
X03211
Y05791
X03311
Y05691
X03411
Y05791
X03511
Y05691
T03
X00471Y02581
X0055
Y0268
X00471
Y06631
X0055
Y0673
X00471
T04
X00711Y00401
X00811
X00911
X01011
X01301
X01401
X01501
X01601
X01896
X01996
X02096
X02196
X02416
X02516
X02616
X02716
X03006
X03106
X03206
X03306
X03601
X03701
X03801
X03901
X04006Y00812
X03867Y00951
X03861Y01421
Y01521
Y01621
Y01721
X03811Y02141
X03911
X03711
X03496
X03396
X03296
X03081
X02981
X02881
X00352Y03302
Y0348
X02832Y02811
X02932
X03147
X03247
X0346Y02811
X0356
X03496Y02381
X03396
X03296
X03081
X02981
X02881
X03711
X03811
X03911
X03876Y02811
X03776
X03801Y04451
X03901
X04006Y04862
X03867Y05001
X03701Y04451
X03601
X03306
X03206
X03106
X03006
X02716
X02616
X02516
X02416
X02196
X02096
X01996
X01896
X01601
X01501
X01401
X01301
X01011
X00911
X00811
X00711
X00476Y03791
X00376
X02881Y06191
X02981
X03081
X03296
X03396
X03496
X03711
Y06431
X03496
X03396
X03296
X03081
X02981
X02881
X02832Y06861
X02932
X03147
X03247
X0346Y06861
X0356
X03776Y06861
X03876
X03911Y06431
X03811
Y06191
X03911
X03861Y05771
Y05671
Y05571
Y05471
X00352Y07352
Y0753
X00376Y07841
X00476
T05
X04151Y02681
Y02881
Y03081
Y03281
Y03481
Y03681
X02536Y04096
X02336
X02136
X01936
X01736
X01536
X01336
X01136
X00936
X00736
X04151Y06731
Y06931
Y07131
Y07331
Y07531
Y07731
X02536Y08146
X02336
X02136
X01936
X01736
X01536
X01336
X01136
X00936
X00736
T06
X0045Y03253
Y03529
Y07303
Y07579
T07
X04124Y01756
X04258
X03336Y03159
Y03293
Y03549
Y03683
X03866
Y03549
Y03293
Y03159
X04124Y02286
X04258
Y05806
X04124
Y06336
X04258
X03866Y07209
Y07343
Y07599
Y07733
X03336
Y07599
Y07343
Y07209
T08
X00364Y02394
Y02867
Y06444
Y06917
T09
X00135Y00135
X00406Y00406
X04206Y00408
X04482Y00138
X04206Y04156
Y04458
X00406Y04456
Y04156
X04206Y08206
X00406
X00135Y08474
X04482
M30
