G04 Layer_Physical_Order=3*
G04 Layer_Color=128*
%FSLAX23Y23*%
%MOIN*%
G70*
G01*
G75*
%ADD12C,0.010*%
%ADD67C,0.040*%
%ADD91C,0.158*%
%ADD92C,0.075*%
G04:AMPARAMS|DCode=93|XSize=95.433mil|YSize=95.433mil|CornerRadius=0mil|HoleSize=0mil|Usage=FLASHONLY|Rotation=0.000|XOffset=0mil|YOffset=0mil|HoleType=Round|Shape=Relief|Width=10mil|Gap=10mil|Entries=4|*
%AMTHD93*
7,0,0,0.095,0.075,0.010,45*
%
%ADD93THD93*%
%ADD94C,0.103*%
%ADD95C,0.080*%
G04:AMPARAMS|DCode=96|XSize=100mil|YSize=100mil|CornerRadius=0mil|HoleSize=0mil|Usage=FLASHONLY|Rotation=0.000|XOffset=0mil|YOffset=0mil|HoleType=Round|Shape=Relief|Width=10mil|Gap=10mil|Entries=4|*
%AMTHD96*
7,0,0,0.100,0.080,0.010,45*
%
%ADD96THD96*%
%ADD97C,0.078*%
%ADD98C,0.127*%
%ADD99C,0.099*%
%ADD100C,0.095*%
G04:AMPARAMS|DCode=101|XSize=115mil|YSize=115mil|CornerRadius=0mil|HoleSize=0mil|Usage=FLASHONLY|Rotation=0.000|XOffset=0mil|YOffset=0mil|HoleType=Round|Shape=Relief|Width=10mil|Gap=10mil|Entries=4|*
%AMTHD101*
7,0,0,0.115,0.095,0.010,45*
%
%ADD101THD101*%
%ADD102C,0.055*%
G04:AMPARAMS|DCode=103|XSize=123mil|YSize=123mil|CornerRadius=0mil|HoleSize=0mil|Usage=FLASHONLY|Rotation=0.000|XOffset=0mil|YOffset=0mil|HoleType=Round|Shape=Relief|Width=10mil|Gap=10mil|Entries=4|*
%AMTHD103*
7,0,0,0.123,0.103,0.010,45*
%
%ADD103THD103*%
D12*
X613Y2141D02*
G03*
X613Y2141I-32J0D01*
G01*
X548Y1946D02*
G03*
X548Y1946I-32J0D01*
G01*
X3833Y4131D02*
G03*
X3833Y4131I-35J0D01*
G01*
X2886Y3526D02*
Y3746D01*
X3956Y2981D02*
X4006D01*
X3956Y2556D02*
Y2621D01*
Y2556D02*
X4016Y2496D01*
X4036Y1820D02*
Y2331D01*
X3956Y2621D02*
Y2981D01*
X4036Y1436D02*
Y1820D01*
X1021Y3421D02*
X1061D01*
X1021D02*
Y3461D01*
Y3576D01*
X2766Y2971D02*
Y3221D01*
X2566Y3421D02*
X2766Y3221D01*
X1061Y3421D02*
X2566D01*
X256Y606D02*
X601D01*
Y506D02*
Y606D01*
Y266D02*
Y506D01*
X4006Y616D02*
X4356D01*
X4006Y256D02*
Y616D01*
X2766Y2971D02*
X3956D01*
X2226Y4276D02*
X2246Y4296D01*
X4346Y2981D02*
Y3021D01*
X4356Y3031D02*
Y3126D01*
X4346Y3021D02*
X4356Y3031D01*
X4006Y2981D02*
X4346D01*
X556Y3696D02*
Y3701D01*
X266D02*
X556D01*
X266D02*
Y3936D01*
X4351Y1546D02*
Y2971D01*
X257Y1201D02*
X3759D01*
X256Y256D02*
X257Y1196D01*
X826Y3576D02*
X1021D01*
X556D02*
Y3696D01*
Y3576D02*
X826D01*
X3551Y3431D02*
Y3811D01*
X2226Y3836D02*
Y4276D01*
X3261Y3431D02*
X3551D01*
Y3811D02*
X4356D01*
Y3886D01*
X2886Y3526D02*
X2981Y3431D01*
X3261D01*
X2226Y3836D02*
X2796D01*
X2886Y3746D01*
X3231Y3811D02*
X3551D01*
X3231D02*
Y4316D01*
X3551Y2971D02*
Y3431D01*
X3744Y1201D02*
X3801D01*
X4016Y2351D02*
Y2496D01*
X3801Y1201D02*
X4036Y1436D01*
Y2111D02*
X4346D01*
X3551Y3431D02*
X4356D01*
X601Y266D02*
X611Y256D01*
X4016Y2351D02*
X4036Y2331D01*
X613Y6191D02*
G03*
X613Y6191I-32J0D01*
G01*
X548Y5996D02*
G03*
X548Y5996I-32J0D01*
G01*
X3833Y8181D02*
G03*
X3833Y8181I-35J0D01*
G01*
X2886Y7576D02*
Y7796D01*
X3956Y7031D02*
X4006D01*
X3956Y6606D02*
Y6671D01*
Y6606D02*
X4016Y6546D01*
X4036Y5870D02*
Y6381D01*
X3956Y6671D02*
Y7031D01*
X4036Y5486D02*
Y5870D01*
X1021Y7471D02*
X1061D01*
X1021D02*
Y7511D01*
Y7626D01*
X2766Y7021D02*
Y7271D01*
X2566Y7471D02*
X2766Y7271D01*
X1061Y7471D02*
X2566D01*
X256Y4656D02*
X601D01*
Y4556D02*
Y4656D01*
Y4316D02*
Y4556D01*
X4006Y4666D02*
X4356D01*
X4006Y4306D02*
Y4666D01*
X2766Y7021D02*
X3956D01*
X2226Y8326D02*
X2246Y8346D01*
X4346Y7031D02*
Y7071D01*
X4356Y7081D02*
Y7176D01*
X4346Y7071D02*
X4356Y7081D01*
X4006Y7031D02*
X4346D01*
X556Y7746D02*
Y7751D01*
X266D02*
X556D01*
X266D02*
Y7986D01*
X4351Y5596D02*
Y7021D01*
X257Y5251D02*
X3759D01*
X256Y4306D02*
X257Y5246D01*
X826Y7626D02*
X1021D01*
X556D02*
Y7746D01*
Y7626D02*
X826D01*
X3551Y7481D02*
Y7861D01*
X2226Y7886D02*
Y8326D01*
X3261Y7481D02*
X3551D01*
Y7861D02*
X4356D01*
Y7936D01*
X2886Y7576D02*
X2981Y7481D01*
X3261D01*
X2226Y7886D02*
X2796D01*
X2886Y7796D01*
X3231Y7861D02*
X3551D01*
X3231D02*
Y8366D01*
X3551Y7021D02*
Y7481D01*
X3744Y5251D02*
X3801D01*
X4016Y6401D02*
Y6546D01*
X3801Y5251D02*
X4036Y5486D01*
Y6161D02*
X4346D01*
X3551Y7481D02*
X4356D01*
X601Y4316D02*
X611Y4306D01*
X4016Y6401D02*
X4036Y6381D01*
D67*
X2Y2D02*
X4615D01*
Y8612D01*
X2D02*
X4615D01*
X2Y2D02*
Y8612D01*
X256Y256D02*
Y4306D01*
X4356D01*
Y256D02*
Y4306D01*
X256Y256D02*
X4356D01*
X256Y4306D02*
Y8356D01*
X4356D01*
Y4306D02*
Y8356D01*
X256Y4306D02*
X4356D01*
D91*
X135Y135D02*
D03*
X4482Y138D02*
D03*
Y8474D02*
D03*
X135D02*
D03*
X4206Y4156D02*
D03*
X406D02*
D03*
Y406D02*
D03*
X4206Y408D02*
D03*
Y8206D02*
D03*
X406D02*
D03*
Y4456D02*
D03*
X4206Y4458D02*
D03*
D92*
X1456Y1861D02*
D03*
Y1761D02*
D03*
X1356Y1861D02*
D03*
Y1761D02*
D03*
X1256Y1861D02*
D03*
Y1761D02*
D03*
X1156Y1861D02*
D03*
Y1761D02*
D03*
X1056Y1861D02*
D03*
X1456Y2156D02*
D03*
Y2056D02*
D03*
X1356Y2156D02*
D03*
Y2056D02*
D03*
X1256Y2156D02*
D03*
Y2056D02*
D03*
X1156Y2156D02*
D03*
Y2056D02*
D03*
X1056Y2156D02*
D03*
Y2056D02*
D03*
X1286Y2536D02*
D03*
Y2436D02*
D03*
X1186Y2536D02*
D03*
Y2436D02*
D03*
X1086Y2536D02*
D03*
Y2436D02*
D03*
X986Y2536D02*
D03*
Y2436D02*
D03*
X886Y2536D02*
D03*
X2841Y1731D02*
D03*
X3511Y1641D02*
D03*
X3411Y1741D02*
D03*
Y1641D02*
D03*
X3311Y1741D02*
D03*
Y1641D02*
D03*
X3211Y1741D02*
D03*
Y1641D02*
D03*
X3111Y1741D02*
D03*
Y1641D02*
D03*
X1456Y5911D02*
D03*
Y5811D02*
D03*
X1356Y5911D02*
D03*
Y5811D02*
D03*
X1256Y5911D02*
D03*
Y5811D02*
D03*
X1156Y5911D02*
D03*
Y5811D02*
D03*
X1056Y5911D02*
D03*
X1456Y6206D02*
D03*
Y6106D02*
D03*
X1356Y6206D02*
D03*
Y6106D02*
D03*
X1256Y6206D02*
D03*
Y6106D02*
D03*
X1156Y6206D02*
D03*
Y6106D02*
D03*
X1056Y6206D02*
D03*
Y6106D02*
D03*
X1286Y6586D02*
D03*
Y6486D02*
D03*
X1186Y6586D02*
D03*
Y6486D02*
D03*
X1086Y6586D02*
D03*
Y6486D02*
D03*
X986Y6586D02*
D03*
Y6486D02*
D03*
X886Y6586D02*
D03*
X2841Y5781D02*
D03*
X3511Y5691D02*
D03*
X3411Y5791D02*
D03*
Y5691D02*
D03*
X3311Y5791D02*
D03*
Y5691D02*
D03*
X3211Y5791D02*
D03*
Y5691D02*
D03*
X3111Y5791D02*
D03*
Y5691D02*
D03*
D93*
X1056Y1761D02*
D03*
X886Y2436D02*
D03*
X3511Y1741D02*
D03*
X1056Y5811D02*
D03*
X886Y6486D02*
D03*
X3511Y5791D02*
D03*
D94*
X3866Y3683D02*
D03*
Y3549D02*
D03*
Y3293D02*
D03*
Y3159D02*
D03*
Y7733D02*
D03*
Y7599D02*
D03*
Y7343D02*
D03*
Y7209D02*
D03*
D95*
X3811Y2381D02*
D03*
X3911D02*
D03*
X3560Y2811D02*
D03*
X3460D02*
D03*
X3876Y2811D02*
D03*
X3776D02*
D03*
X2932Y2811D02*
D03*
X2832D02*
D03*
X3247D02*
D03*
X3147D02*
D03*
X2981Y2141D02*
D03*
X2881D02*
D03*
X3811D02*
D03*
X3711D02*
D03*
X3396D02*
D03*
X3296D02*
D03*
X2981Y2381D02*
D03*
X3081D02*
D03*
X3396D02*
D03*
X3496D02*
D03*
X376Y3791D02*
D03*
X352Y3302D02*
D03*
Y3480D02*
D03*
X711Y401D02*
D03*
X811D02*
D03*
X911D02*
D03*
X1011D02*
D03*
X1301D02*
D03*
X1401D02*
D03*
X1501D02*
D03*
X1601D02*
D03*
X3006D02*
D03*
X3106D02*
D03*
X3206D02*
D03*
X3306D02*
D03*
X3601D02*
D03*
X3701D02*
D03*
X3801D02*
D03*
X3901D02*
D03*
X4006Y812D02*
D03*
X2716Y401D02*
D03*
X2616D02*
D03*
X2516D02*
D03*
X2416D02*
D03*
X2196D02*
D03*
X2096D02*
D03*
X1996D02*
D03*
X1896D02*
D03*
X3861Y1721D02*
D03*
Y1621D02*
D03*
Y1521D02*
D03*
X3811Y6431D02*
D03*
X3911D02*
D03*
X3560Y6861D02*
D03*
X3460D02*
D03*
X3876Y6861D02*
D03*
X3776D02*
D03*
X2932Y6861D02*
D03*
X2832D02*
D03*
X3247D02*
D03*
X3147D02*
D03*
X2981Y6191D02*
D03*
X2881D02*
D03*
X3811D02*
D03*
X3711D02*
D03*
X3396D02*
D03*
X3296D02*
D03*
X2981Y6431D02*
D03*
X3081D02*
D03*
X3396D02*
D03*
X3496D02*
D03*
X376Y7841D02*
D03*
X352Y7352D02*
D03*
Y7530D02*
D03*
X711Y4451D02*
D03*
X811D02*
D03*
X911D02*
D03*
X1011D02*
D03*
X1301D02*
D03*
X1401D02*
D03*
X1501D02*
D03*
X1601D02*
D03*
X3006D02*
D03*
X3106D02*
D03*
X3206D02*
D03*
X3306D02*
D03*
X3601D02*
D03*
X3701D02*
D03*
X3801D02*
D03*
X3901D02*
D03*
X4006Y4862D02*
D03*
X2716Y4451D02*
D03*
X2616D02*
D03*
X2516D02*
D03*
X2416D02*
D03*
X2196D02*
D03*
X2096D02*
D03*
X1996D02*
D03*
X1896D02*
D03*
X3861Y5771D02*
D03*
Y5671D02*
D03*
Y5571D02*
D03*
D96*
X3711Y2381D02*
D03*
X3911Y2141D02*
D03*
X3496D02*
D03*
X2881Y2381D02*
D03*
X3296D02*
D03*
X476Y3791D02*
D03*
X3867Y951D02*
D03*
X3711Y6431D02*
D03*
X3911Y6191D02*
D03*
X3496D02*
D03*
X2881Y6431D02*
D03*
X3296D02*
D03*
X476Y7841D02*
D03*
X3867Y5001D02*
D03*
D97*
X550Y2581D02*
D03*
Y2680D02*
D03*
X471D02*
D03*
Y2581D02*
D03*
X550Y6631D02*
D03*
Y6730D02*
D03*
X471D02*
D03*
Y6631D02*
D03*
D98*
X364Y2867D02*
D03*
Y2394D02*
D03*
Y6917D02*
D03*
Y6444D02*
D03*
D99*
X450Y3253D02*
D03*
Y3529D02*
D03*
Y7303D02*
D03*
Y7579D02*
D03*
D100*
X936Y4096D02*
D03*
X1336D02*
D03*
X1736D02*
D03*
X2136D02*
D03*
X2536D02*
D03*
X4151Y2681D02*
D03*
Y3081D02*
D03*
Y3681D02*
D03*
Y3481D02*
D03*
Y3281D02*
D03*
X936Y8146D02*
D03*
X1336D02*
D03*
X1736D02*
D03*
X2136D02*
D03*
X2536D02*
D03*
X4151Y6731D02*
D03*
Y7131D02*
D03*
Y7731D02*
D03*
Y7531D02*
D03*
Y7331D02*
D03*
D101*
X736Y4096D02*
D03*
X1136D02*
D03*
X1536D02*
D03*
X1936D02*
D03*
X2336D02*
D03*
X4151Y2881D02*
D03*
X736Y8146D02*
D03*
X1136D02*
D03*
X1536D02*
D03*
X1936D02*
D03*
X2336D02*
D03*
X4151Y6931D02*
D03*
D102*
X4206Y4056D02*
D03*
Y4256D02*
D03*
X4306Y4156D02*
D03*
X4106D02*
D03*
X4136Y4226D02*
D03*
X4276D02*
D03*
Y4086D02*
D03*
X4136D02*
D03*
X406Y4056D02*
D03*
Y4256D02*
D03*
X506Y4156D02*
D03*
X306D02*
D03*
X336Y4226D02*
D03*
X476D02*
D03*
Y4086D02*
D03*
X336D02*
D03*
X406Y306D02*
D03*
Y506D02*
D03*
X506Y406D02*
D03*
X306D02*
D03*
X336Y476D02*
D03*
X476D02*
D03*
Y336D02*
D03*
X336D02*
D03*
X4206Y306D02*
D03*
Y506D02*
D03*
X4306Y406D02*
D03*
X4106D02*
D03*
X4136Y476D02*
D03*
X4276D02*
D03*
Y336D02*
D03*
X4136D02*
D03*
X1541Y2416D02*
D03*
X1911Y2266D02*
D03*
X1891Y2231D02*
D03*
X1916Y2201D02*
D03*
X1881Y2356D02*
D03*
X1961Y2326D02*
D03*
X2806Y2541D02*
D03*
X2684Y2679D02*
D03*
Y2529D02*
D03*
X2616Y2536D02*
D03*
X2656Y2621D02*
D03*
X2621Y2495D02*
D03*
X2061Y3206D02*
D03*
X2111D02*
D03*
X2266Y3006D02*
D03*
X2226Y2991D02*
D03*
X2206Y3106D02*
D03*
X2261Y2952D02*
D03*
X2681Y2491D02*
D03*
X1966Y3201D02*
D03*
X2116Y3046D02*
D03*
X2016D02*
D03*
X1926Y2901D02*
D03*
X1916Y2726D02*
D03*
X1966Y2901D02*
D03*
X2018Y2658D02*
D03*
X2051Y2676D02*
D03*
X1989Y2680D02*
D03*
X2481Y2626D02*
D03*
X2446Y2366D02*
D03*
Y2496D02*
D03*
X2486Y2481D02*
D03*
X2356Y2221D02*
D03*
X2486Y2351D02*
D03*
X3221Y1981D02*
D03*
X3066Y1906D02*
D03*
X3621Y2671D02*
D03*
X2701Y2391D02*
D03*
X2771Y2326D02*
D03*
X2655Y2197D02*
D03*
X651Y2844D02*
D03*
Y2769D02*
D03*
X3026Y4101D02*
D03*
X1936Y2476D02*
D03*
X1971Y2486D02*
D03*
X1896Y2461D02*
D03*
X1841Y2946D02*
D03*
X2506Y2986D02*
D03*
X2406Y3176D02*
D03*
X2341D02*
D03*
X2406Y3236D02*
D03*
X2341D02*
D03*
X366Y1691D02*
D03*
X3981Y2116D02*
D03*
X2523Y3558D02*
D03*
X2563D02*
D03*
Y3598D02*
D03*
X2523D02*
D03*
Y3638D02*
D03*
X2563D02*
D03*
Y3678D02*
D03*
X2523D02*
D03*
X2443D02*
D03*
X2403D02*
D03*
Y3638D02*
D03*
X2443D02*
D03*
Y3598D02*
D03*
X2403D02*
D03*
Y3558D02*
D03*
X2443D02*
D03*
X2483D02*
D03*
Y3598D02*
D03*
Y3678D02*
D03*
Y3638D02*
D03*
X2067Y3558D02*
D03*
X2107D02*
D03*
Y3598D02*
D03*
X2067D02*
D03*
Y3638D02*
D03*
X2107D02*
D03*
Y3678D02*
D03*
X2067D02*
D03*
X1987D02*
D03*
X1947D02*
D03*
Y3638D02*
D03*
X1987D02*
D03*
Y3598D02*
D03*
X1947D02*
D03*
Y3558D02*
D03*
X1987D02*
D03*
X2027D02*
D03*
Y3598D02*
D03*
Y3678D02*
D03*
Y3638D02*
D03*
X1666Y3558D02*
D03*
X1706D02*
D03*
Y3598D02*
D03*
X1666D02*
D03*
Y3638D02*
D03*
X1706D02*
D03*
Y3678D02*
D03*
X1666D02*
D03*
X1586D02*
D03*
X1546D02*
D03*
Y3638D02*
D03*
X1586D02*
D03*
Y3598D02*
D03*
X1546D02*
D03*
Y3558D02*
D03*
X1586D02*
D03*
X1626D02*
D03*
Y3598D02*
D03*
Y3678D02*
D03*
Y3638D02*
D03*
X1268Y3558D02*
D03*
X1308D02*
D03*
Y3598D02*
D03*
X1268D02*
D03*
Y3638D02*
D03*
X1308D02*
D03*
Y3678D02*
D03*
X1268D02*
D03*
X1188D02*
D03*
X1148D02*
D03*
Y3638D02*
D03*
X1188D02*
D03*
Y3598D02*
D03*
X1148D02*
D03*
Y3558D02*
D03*
X1188D02*
D03*
X1228D02*
D03*
Y3598D02*
D03*
Y3678D02*
D03*
Y3638D02*
D03*
X2856Y2981D02*
D03*
X2861Y3036D02*
D03*
X1756Y3216D02*
D03*
X1591D02*
D03*
X1441D02*
D03*
X536Y1596D02*
D03*
X406D02*
D03*
X996Y2591D02*
D03*
X891D02*
D03*
X806D02*
D03*
X841Y2651D02*
D03*
X836Y2066D02*
D03*
X711Y2071D02*
D03*
X836Y2001D02*
D03*
X706Y1751D02*
D03*
Y1856D02*
D03*
X501Y1716D02*
D03*
X641Y2001D02*
D03*
X971Y1781D02*
D03*
Y1906D02*
D03*
Y2136D02*
D03*
Y2011D02*
D03*
X1256Y2276D02*
D03*
X1161D02*
D03*
X1051D02*
D03*
X1341Y2651D02*
D03*
X1246D02*
D03*
X1146D02*
D03*
X1046D02*
D03*
X941D02*
D03*
X3370Y1860D02*
D03*
X386Y1986D02*
D03*
X2931Y1891D02*
D03*
X3201Y1946D02*
D03*
X2031Y2051D02*
D03*
X3301Y1986D02*
D03*
X3266Y1976D02*
D03*
X2311Y2611D02*
D03*
X1551Y1926D02*
D03*
X1783Y2318D02*
D03*
X846Y1761D02*
D03*
X542Y2112D02*
D03*
X381Y2131D02*
D03*
X891Y2056D02*
D03*
Y1911D02*
D03*
X791Y2161D02*
D03*
X741D02*
D03*
X516Y1761D02*
D03*
X496Y1791D02*
D03*
X691Y2166D02*
D03*
X556Y1941D02*
D03*
X496Y2031D02*
D03*
X3911Y2921D02*
D03*
X3841D02*
D03*
X3776D02*
D03*
X3281D02*
D03*
X3721Y3161D02*
D03*
Y3231D02*
D03*
Y3296D02*
D03*
X3776Y3091D02*
D03*
Y3361D02*
D03*
Y3231D02*
D03*
X3956Y3226D02*
D03*
X3866Y3361D02*
D03*
X3956Y3291D02*
D03*
Y3156D02*
D03*
X3866Y3091D02*
D03*
X3776Y3161D02*
D03*
Y3296D02*
D03*
X3866Y3226D02*
D03*
X4041Y3211D02*
D03*
X4046Y3341D02*
D03*
X4261Y3346D02*
D03*
X4256Y3211D02*
D03*
X4261Y3281D02*
D03*
X4151Y3211D02*
D03*
X4041Y3281D02*
D03*
X4151Y3346D02*
D03*
X2376Y2941D02*
D03*
X2491Y2871D02*
D03*
X2441D02*
D03*
X2391D02*
D03*
X2276Y1376D02*
D03*
X2396D02*
D03*
X2451D02*
D03*
X2366Y1456D02*
D03*
X2311Y1406D02*
D03*
Y1456D02*
D03*
X2241Y1406D02*
D03*
Y1456D02*
D03*
X2121Y1556D02*
D03*
X4251Y2621D02*
D03*
X4051D02*
D03*
Y2741D02*
D03*
X4251D02*
D03*
X4066Y3416D02*
D03*
X4256Y3546D02*
D03*
Y3416D02*
D03*
X4151Y3546D02*
D03*
X4256Y3481D02*
D03*
X4151Y3416D02*
D03*
X3996Y3406D02*
D03*
X3651D02*
D03*
X3926D02*
D03*
X3856D02*
D03*
X3786D02*
D03*
X3601D02*
D03*
X3716D02*
D03*
X3651Y3336D02*
D03*
X3646Y3281D02*
D03*
Y3221D02*
D03*
Y3161D02*
D03*
Y3111D02*
D03*
X2861Y3646D02*
D03*
Y3491D02*
D03*
X3646Y3746D02*
D03*
X3651Y3481D02*
D03*
Y3551D02*
D03*
X3646Y3616D02*
D03*
Y3686D02*
D03*
X3911Y3051D02*
D03*
X3841D02*
D03*
X3776D02*
D03*
X3706D02*
D03*
X3546Y3111D02*
D03*
Y3166D02*
D03*
Y3221D02*
D03*
Y3281D02*
D03*
Y3336D02*
D03*
X3526Y3481D02*
D03*
Y3616D02*
D03*
Y3551D02*
D03*
Y3686D02*
D03*
Y3766D02*
D03*
X3721Y3481D02*
D03*
Y3551D02*
D03*
Y3616D02*
D03*
Y3681D02*
D03*
X4036Y3616D02*
D03*
X4261Y3751D02*
D03*
Y3611D02*
D03*
X4151Y3751D02*
D03*
X4041Y3681D02*
D03*
X4261D02*
D03*
X4151Y3611D02*
D03*
X3961Y3481D02*
D03*
X3771D02*
D03*
X3961Y3616D02*
D03*
X3771D02*
D03*
X3961Y3686D02*
D03*
X3866Y3616D02*
D03*
X3961Y3551D02*
D03*
X2331Y3311D02*
D03*
X2336Y3036D02*
D03*
X1271Y3216D02*
D03*
X1041D02*
D03*
X856Y3171D02*
D03*
Y3296D02*
D03*
X851Y3436D02*
D03*
X686Y3171D02*
D03*
Y3436D02*
D03*
X531Y3296D02*
D03*
Y3436D02*
D03*
X686Y3296D02*
D03*
X531Y3171D02*
D03*
X696Y3071D02*
D03*
X1456Y2711D02*
D03*
X3278Y4176D02*
D03*
X3553D02*
D03*
X3448Y4171D02*
D03*
X2191Y1446D02*
D03*
X2156D02*
D03*
X2121D02*
D03*
X3551D02*
D03*
X3516D02*
D03*
X3481D02*
D03*
X356Y1471D02*
D03*
X3866Y3481D02*
D03*
X3771Y3551D02*
D03*
Y3681D02*
D03*
X2551Y3396D02*
D03*
X1856D02*
D03*
X1456D02*
D03*
X1066D02*
D03*
X1326Y3356D02*
D03*
X1716D02*
D03*
X2116D02*
D03*
X2096Y3396D02*
D03*
X1696D02*
D03*
X1306D02*
D03*
X2986Y3851D02*
D03*
X3408Y3826D02*
D03*
X4261Y3081D02*
D03*
X4041D02*
D03*
X4151Y3151D02*
D03*
Y3006D02*
D03*
X4261D02*
D03*
Y3146D02*
D03*
X4041Y3151D02*
D03*
Y3006D02*
D03*
X3221Y3051D02*
D03*
X3571Y2921D02*
D03*
X3496D02*
D03*
X1456Y2676D02*
D03*
X2446Y2036D02*
D03*
X301Y2326D02*
D03*
X311Y2796D02*
D03*
X413Y2942D02*
D03*
X301Y2941D02*
D03*
X311Y2736D02*
D03*
Y2676D02*
D03*
Y2606D02*
D03*
Y2546D02*
D03*
Y2486D02*
D03*
X2034Y1026D02*
D03*
X2538Y584D02*
D03*
X2871Y401D02*
D03*
X2329Y1041D02*
D03*
X1647Y1045D02*
D03*
X969Y1046D02*
D03*
X1186Y3396D02*
D03*
X1206Y3356D02*
D03*
X1226Y3396D02*
D03*
X1246Y3356D02*
D03*
X1266Y3396D02*
D03*
X1166Y3356D02*
D03*
X1146Y3396D02*
D03*
X1126Y3356D02*
D03*
X1106Y3396D02*
D03*
X1086Y3356D02*
D03*
X1286D02*
D03*
X2412Y3357D02*
D03*
X2392Y3397D02*
D03*
X2372Y3357D02*
D03*
X2352Y3397D02*
D03*
X2332Y3357D02*
D03*
X1575Y3397D02*
D03*
X1595Y3357D02*
D03*
X1615Y3397D02*
D03*
X1635Y3357D02*
D03*
X1655Y3397D02*
D03*
X1555Y3357D02*
D03*
X1535Y3397D02*
D03*
X1515Y3357D02*
D03*
X1495Y3397D02*
D03*
X1475Y3357D02*
D03*
X1675D02*
D03*
X2076Y3356D02*
D03*
X1876D02*
D03*
X1896Y3396D02*
D03*
X1916Y3356D02*
D03*
X1936Y3396D02*
D03*
X1956Y3356D02*
D03*
X2056Y3396D02*
D03*
X2311Y2991D02*
D03*
X2026Y4206D02*
D03*
X2206D02*
D03*
X2216Y3871D02*
D03*
Y3671D02*
D03*
X1626Y4206D02*
D03*
X1821D02*
D03*
X1816Y3871D02*
D03*
Y3671D02*
D03*
X1416Y3871D02*
D03*
X1411Y4206D02*
D03*
X1226D02*
D03*
X3870Y2721D02*
D03*
X3194Y2671D02*
D03*
X2919D02*
D03*
X3690Y2606D02*
D03*
X3014Y2671D02*
D03*
X3500Y2541D02*
D03*
X3846Y1911D02*
D03*
X2036Y3356D02*
D03*
X2016Y3396D02*
D03*
X1996Y3356D02*
D03*
X1976Y3396D02*
D03*
X3131Y1886D02*
D03*
X2281Y2736D02*
D03*
X1456Y2916D02*
D03*
X311Y3081D02*
D03*
Y3031D02*
D03*
X606D02*
D03*
Y3086D02*
D03*
X2096Y570D02*
D03*
X2225Y645D02*
D03*
X711Y2376D02*
D03*
X572Y2412D02*
D03*
X871Y3006D02*
D03*
X1760Y670D02*
D03*
X1705Y675D02*
D03*
X1719Y856D02*
D03*
X2277Y675D02*
D03*
X2259Y856D02*
D03*
X2264Y1136D02*
D03*
X1944Y1026D02*
D03*
X1714Y1136D02*
D03*
X3527Y4120D02*
D03*
X3487D02*
D03*
X3448D02*
D03*
Y4081D02*
D03*
Y4041D02*
D03*
X3487D02*
D03*
X3527D02*
D03*
Y4081D02*
D03*
X3487D02*
D03*
X3801Y1861D02*
D03*
X3836Y1866D02*
D03*
X3559Y3927D02*
D03*
Y3862D02*
D03*
X3399Y4013D02*
D03*
X702Y2806D02*
D03*
X3798Y4131D02*
D03*
X3120Y670D02*
D03*
X3065Y675D02*
D03*
X3079Y856D02*
D03*
X3637Y675D02*
D03*
X3619Y856D02*
D03*
X3394Y1026D02*
D03*
X3624Y1136D02*
D03*
X3074D02*
D03*
X3304Y1026D02*
D03*
X2440Y670D02*
D03*
X2385Y675D02*
D03*
X2399Y856D02*
D03*
X2957Y675D02*
D03*
X2939Y856D02*
D03*
X2714Y1026D02*
D03*
X2944Y1136D02*
D03*
X2394D02*
D03*
X2624Y1026D02*
D03*
X1080Y670D02*
D03*
X1545Y645D02*
D03*
X1025Y675D02*
D03*
X1039Y856D02*
D03*
X1597Y675D02*
D03*
X1579Y856D02*
D03*
X1354Y1026D02*
D03*
X1584Y1136D02*
D03*
X1034D02*
D03*
X1264Y1026D02*
D03*
X865Y645D02*
D03*
X359Y856D02*
D03*
X917Y675D02*
D03*
X899Y856D02*
D03*
X904Y1136D02*
D03*
X360Y675D02*
D03*
X354Y1136D02*
D03*
X1866Y2866D02*
D03*
X1796Y2041D02*
D03*
X1631Y3871D02*
D03*
X311Y3621D02*
D03*
X1226Y4096D02*
D03*
X1416D02*
D03*
X1226Y4001D02*
D03*
X1416Y3986D02*
D03*
X1821D02*
D03*
X1626D02*
D03*
X1821Y4096D02*
D03*
X1626D02*
D03*
X2026D02*
D03*
Y3986D02*
D03*
X2206Y4096D02*
D03*
X2136Y3986D02*
D03*
X1416Y3681D02*
D03*
X1561Y2741D02*
D03*
X1681Y2776D02*
D03*
X1446Y3071D02*
D03*
X2536Y1611D02*
D03*
X4011Y1166D02*
D03*
Y1231D02*
D03*
Y1276D02*
D03*
X2906Y3951D02*
D03*
X3268Y4056D02*
D03*
X3948Y4136D02*
D03*
X2836Y2286D02*
D03*
X2796D02*
D03*
X3766Y2536D02*
D03*
X3064Y2546D02*
D03*
X3395Y2631D02*
D03*
X2661Y3356D02*
D03*
X2311Y3396D02*
D03*
X2291Y3356D02*
D03*
X2271Y3396D02*
D03*
X2251Y3356D02*
D03*
X2231Y3396D02*
D03*
X3415Y1910D02*
D03*
X2986Y1906D02*
D03*
X3916Y1911D02*
D03*
X906Y2731D02*
D03*
X766Y2706D02*
D03*
X751Y2606D02*
D03*
Y2516D02*
D03*
X506Y2941D02*
D03*
X471Y2751D02*
D03*
X611Y2941D02*
D03*
X516Y2486D02*
D03*
X651Y2606D02*
D03*
X776Y2941D02*
D03*
X671Y2886D02*
D03*
X901Y2901D02*
D03*
X3396Y2261D02*
D03*
X2981D02*
D03*
X3186Y2311D02*
D03*
Y2431D02*
D03*
Y2206D02*
D03*
X3616Y2311D02*
D03*
Y2416D02*
D03*
Y2206D02*
D03*
X3806Y2261D02*
D03*
X3956Y1996D02*
D03*
X3836Y2521D02*
D03*
X4051Y2681D02*
D03*
X4151Y2621D02*
D03*
Y2741D02*
D03*
X4251Y2676D02*
D03*
X3286Y2261D02*
D03*
X3496D02*
D03*
X3701D02*
D03*
X3926D02*
D03*
X3086D02*
D03*
X2751Y2766D02*
D03*
X2741Y2851D02*
D03*
X3041Y2766D02*
D03*
Y2851D02*
D03*
X3161Y3406D02*
D03*
X2472Y3397D02*
D03*
X2512D02*
D03*
X2531Y3357D02*
D03*
X2492Y3357D02*
D03*
X2432Y3397D02*
D03*
X2452Y3357D02*
D03*
X3361Y3051D02*
D03*
X3426D02*
D03*
X3496D02*
D03*
X3286D02*
D03*
X2891Y3396D02*
D03*
X2731Y3436D02*
D03*
X2811Y3381D02*
D03*
X2976Y3626D02*
D03*
X3021D02*
D03*
X2996Y3111D02*
D03*
X3056D02*
D03*
X3121D02*
D03*
X3171D02*
D03*
X2996Y3061D02*
D03*
X3056D02*
D03*
X3121D02*
D03*
X3171Y3051D02*
D03*
X2871Y1446D02*
D03*
X2836D02*
D03*
X2801D02*
D03*
X1511D02*
D03*
X1476D02*
D03*
X1441D02*
D03*
X831D02*
D03*
X796D02*
D03*
X761D02*
D03*
X674Y1026D02*
D03*
X584D02*
D03*
X731Y621D02*
D03*
X546Y701D02*
D03*
X1231Y691D02*
D03*
X1391Y696D02*
D03*
X1911D02*
D03*
X2066Y701D02*
D03*
X2591Y706D02*
D03*
X2746D02*
D03*
X2906Y636D02*
D03*
X3426Y696D02*
D03*
X3571Y631D02*
D03*
X1549Y1045D02*
D03*
X2227Y1041D02*
D03*
X3371Y2571D02*
D03*
X3251Y2511D02*
D03*
X1804Y2901D02*
D03*
X2242Y2902D02*
D03*
X2166Y2901D02*
D03*
X2066Y2896D02*
D03*
X4301Y3886D02*
D03*
X4091D02*
D03*
X3021Y3511D02*
D03*
X2916Y3431D02*
D03*
X3166Y2921D02*
D03*
X3221D02*
D03*
X3356D02*
D03*
X3426D02*
D03*
X731Y3776D02*
D03*
Y3701D02*
D03*
X921Y3696D02*
D03*
Y3776D02*
D03*
X826D02*
D03*
Y3701D02*
D03*
X776Y3736D02*
D03*
X871D02*
D03*
X4126Y1521D02*
D03*
Y1461D02*
D03*
Y1386D02*
D03*
Y1326D02*
D03*
X3996Y1321D02*
D03*
Y1386D02*
D03*
Y1461D02*
D03*
Y1521D02*
D03*
X2542Y3026D02*
D03*
X3966Y1861D02*
D03*
X3996Y3856D02*
D03*
Y3931D02*
D03*
X3748Y4131D02*
D03*
X3646Y2921D02*
D03*
X2861Y3811D02*
D03*
X2686Y3436D02*
D03*
X2716Y3491D02*
D03*
X2776Y3811D02*
D03*
X406Y651D02*
D03*
X941Y911D02*
D03*
X1621Y906D02*
D03*
X2301Y911D02*
D03*
X2981Y910D02*
D03*
X2944Y980D02*
D03*
X2911Y1045D02*
D03*
X3624Y980D02*
D03*
X3661Y910D02*
D03*
X2216Y1571D02*
D03*
X1411Y2731D02*
D03*
X1486Y3031D02*
D03*
X306Y2256D02*
D03*
X1629Y2901D02*
D03*
X1661Y2869D02*
D03*
X1771Y2929D02*
D03*
X1486Y2646D02*
D03*
X1651Y1796D02*
D03*
X499Y1836D02*
D03*
X1201Y1731D02*
D03*
X906Y2266D02*
D03*
X941D02*
D03*
X3091Y4201D02*
D03*
X3361Y3831D02*
D03*
X2986Y3711D02*
D03*
X3021Y3566D02*
D03*
X3291Y3936D02*
D03*
X3081Y4046D02*
D03*
X3171Y3896D02*
D03*
X1736Y4206D02*
D03*
X2206Y3986D02*
D03*
X2136Y4206D02*
D03*
X1736Y3986D02*
D03*
X1336D02*
D03*
Y4206D02*
D03*
X1006Y4096D02*
D03*
X866D02*
D03*
X936Y4206D02*
D03*
Y3986D02*
D03*
X1006D02*
D03*
Y4206D02*
D03*
X866D02*
D03*
Y3986D02*
D03*
X4191Y2006D02*
D03*
Y1936D02*
D03*
Y2086D02*
D03*
X4121D02*
D03*
Y2006D02*
D03*
Y1936D02*
D03*
X3186Y2131D02*
D03*
X3616Y2126D02*
D03*
X3981Y2196D02*
D03*
Y2411D02*
D03*
Y2311D02*
D03*
X3616Y2021D02*
D03*
Y1926D02*
D03*
Y1836D02*
D03*
X3686Y1926D02*
D03*
X3691Y1836D02*
D03*
X2026Y2436D02*
D03*
X2256Y2471D02*
D03*
X2351Y2696D02*
D03*
X2336Y2661D02*
D03*
X2196Y2221D02*
D03*
X1996Y2306D02*
D03*
X866Y3901D02*
D03*
X936D02*
D03*
X1006D02*
D03*
X2976Y3566D02*
D03*
X1902Y1157D02*
D03*
Y1200D02*
D03*
Y1243D02*
D03*
X1946Y1157D02*
D03*
Y1200D02*
D03*
Y1243D02*
D03*
X1989Y1157D02*
D03*
Y1200D02*
D03*
Y1243D02*
D03*
X2032Y1157D02*
D03*
Y1200D02*
D03*
Y1243D02*
D03*
X2075Y1157D02*
D03*
Y1200D02*
D03*
Y1243D02*
D03*
X542Y1157D02*
D03*
Y1200D02*
D03*
Y1243D02*
D03*
X585Y1157D02*
D03*
Y1200D02*
D03*
Y1243D02*
D03*
X629Y1157D02*
D03*
Y1200D02*
D03*
Y1243D02*
D03*
X672Y1157D02*
D03*
Y1200D02*
D03*
Y1243D02*
D03*
X715Y1157D02*
D03*
Y1200D02*
D03*
Y1243D02*
D03*
X1222Y1157D02*
D03*
Y1200D02*
D03*
Y1243D02*
D03*
X1265Y1157D02*
D03*
Y1200D02*
D03*
Y1243D02*
D03*
X1309Y1157D02*
D03*
Y1200D02*
D03*
Y1243D02*
D03*
X1352Y1157D02*
D03*
Y1200D02*
D03*
Y1243D02*
D03*
X1395Y1157D02*
D03*
Y1200D02*
D03*
Y1243D02*
D03*
X2582Y1157D02*
D03*
Y1200D02*
D03*
Y1243D02*
D03*
X2625Y1157D02*
D03*
Y1200D02*
D03*
Y1243D02*
D03*
X2669Y1157D02*
D03*
Y1200D02*
D03*
Y1243D02*
D03*
X2712Y1157D02*
D03*
Y1200D02*
D03*
Y1243D02*
D03*
X2755Y1157D02*
D03*
Y1200D02*
D03*
Y1243D02*
D03*
X3262Y1157D02*
D03*
Y1200D02*
D03*
Y1243D02*
D03*
X3305Y1157D02*
D03*
Y1200D02*
D03*
Y1243D02*
D03*
X3349Y1157D02*
D03*
Y1200D02*
D03*
Y1243D02*
D03*
X3392Y1157D02*
D03*
Y1200D02*
D03*
Y1243D02*
D03*
X3435Y1157D02*
D03*
Y1200D02*
D03*
Y1243D02*
D03*
X1556Y2641D02*
D03*
Y2677D02*
D03*
X1561Y2605D02*
D03*
X1661Y2679D02*
D03*
X1657Y2641D02*
D03*
X1711Y1776D02*
D03*
X682Y1622D02*
D03*
X866Y1041D02*
D03*
X1636Y2171D02*
D03*
X1776Y2397D02*
D03*
X1601Y2566D02*
D03*
X1556Y2541D02*
D03*
X616Y2266D02*
D03*
X1616Y1891D02*
D03*
X1736Y1931D02*
D03*
X2356Y1521D02*
D03*
X2423Y1593D02*
D03*
X516Y1946D02*
D03*
X1476Y2231D02*
D03*
X1666Y2381D02*
D03*
X1534Y2326D02*
D03*
X1521Y2551D02*
D03*
X1789Y2656D02*
D03*
X1785Y2610D02*
D03*
X2071Y2566D02*
D03*
X2096Y2538D02*
D03*
X2066Y2176D02*
D03*
X2006D02*
D03*
X2036Y2226D02*
D03*
X2091Y2221D02*
D03*
X2271Y2131D02*
D03*
X2241Y2106D02*
D03*
X2311Y2131D02*
D03*
X2411Y2186D02*
D03*
X2372Y2186D02*
D03*
X2316Y2231D02*
D03*
X2341Y2101D02*
D03*
X2366Y2071D02*
D03*
X2206Y2631D02*
D03*
X2221Y2686D02*
D03*
X1916Y2681D02*
D03*
X1951Y2661D02*
D03*
X1821Y2636D02*
D03*
X1791Y2696D02*
D03*
X1921Y2041D02*
D03*
X1875Y2046D02*
D03*
X1836D02*
D03*
X2426Y1631D02*
D03*
X2881Y1616D02*
D03*
X3021Y1041D02*
D03*
X2146Y1856D02*
D03*
X2311Y1656D02*
D03*
X2066Y1881D02*
D03*
X2095Y1855D02*
D03*
X2121Y1882D02*
D03*
X2311Y1616D02*
D03*
X2323Y1556D02*
D03*
X2411Y1766D02*
D03*
X2621Y2096D02*
D03*
X1571Y2316D02*
D03*
X1626Y2386D02*
D03*
X1411Y2416D02*
D03*
X2311Y1516D02*
D03*
X2531Y1571D02*
D03*
X2351Y2036D02*
D03*
X2471Y1786D02*
D03*
X3500Y1865D02*
D03*
X3495Y1910D02*
D03*
X3071Y1861D02*
D03*
X3540Y1860D02*
D03*
X2986Y1841D02*
D03*
X3686Y1041D02*
D03*
X2435Y1796D02*
D03*
X2451Y1741D02*
D03*
X2491Y1721D02*
D03*
X2600Y1666D02*
D03*
X2576Y1986D02*
D03*
X2506Y1766D02*
D03*
X2596Y1541D02*
D03*
X2586Y1621D02*
D03*
X2556Y1741D02*
D03*
X2551Y2015D02*
D03*
X2605Y2011D02*
D03*
X2396Y1833D02*
D03*
X2446Y2421D02*
D03*
X2473Y2445D02*
D03*
X2347Y2625D02*
D03*
X2622Y3032D02*
D03*
X2660D02*
D03*
X2671Y2986D02*
D03*
X2701Y3021D02*
D03*
X2711Y3071D02*
D03*
X2731Y3266D02*
D03*
X2696Y3121D02*
D03*
X2861Y3081D02*
D03*
X2751Y2661D02*
D03*
X2711Y2711D02*
D03*
X2724Y3146D02*
D03*
X2704Y3227D02*
D03*
X2703Y3176D02*
D03*
X2746Y3206D02*
D03*
X1861Y3071D02*
D03*
X1656Y2306D02*
D03*
X1646Y1996D02*
D03*
X1571Y2156D02*
D03*
X2256Y966D02*
D03*
X1584Y971D02*
D03*
X904D02*
D03*
X3271Y696D02*
D03*
X2695Y3263D02*
D03*
X3591Y1041D02*
D03*
X2551Y3066D02*
D03*
X1726Y2001D02*
D03*
X4206Y8106D02*
D03*
Y8306D02*
D03*
X4306Y8206D02*
D03*
X4106D02*
D03*
X4136Y8276D02*
D03*
X4276D02*
D03*
Y8136D02*
D03*
X4136D02*
D03*
X406Y8106D02*
D03*
Y8306D02*
D03*
X506Y8206D02*
D03*
X306D02*
D03*
X336Y8276D02*
D03*
X476D02*
D03*
Y8136D02*
D03*
X336D02*
D03*
X406Y4356D02*
D03*
Y4556D02*
D03*
X506Y4456D02*
D03*
X306D02*
D03*
X336Y4526D02*
D03*
X476D02*
D03*
Y4386D02*
D03*
X336D02*
D03*
X4206Y4356D02*
D03*
Y4556D02*
D03*
X4306Y4456D02*
D03*
X4106D02*
D03*
X4136Y4526D02*
D03*
X4276D02*
D03*
Y4386D02*
D03*
X4136D02*
D03*
X1541Y6466D02*
D03*
X1911Y6316D02*
D03*
X1891Y6281D02*
D03*
X1916Y6251D02*
D03*
X1881Y6406D02*
D03*
X1961Y6376D02*
D03*
X2806Y6591D02*
D03*
X2684Y6729D02*
D03*
Y6579D02*
D03*
X2616Y6586D02*
D03*
X2656Y6671D02*
D03*
X2621Y6545D02*
D03*
X2061Y7256D02*
D03*
X2111D02*
D03*
X2266Y7056D02*
D03*
X2226Y7041D02*
D03*
X2206Y7156D02*
D03*
X2261Y7002D02*
D03*
X2681Y6541D02*
D03*
X1966Y7251D02*
D03*
X2116Y7096D02*
D03*
X2016D02*
D03*
X1926Y6951D02*
D03*
X1916Y6776D02*
D03*
X1966Y6951D02*
D03*
X2018Y6708D02*
D03*
X2051Y6726D02*
D03*
X1989Y6730D02*
D03*
X2481Y6676D02*
D03*
X2446Y6416D02*
D03*
Y6546D02*
D03*
X2486Y6531D02*
D03*
X2356Y6271D02*
D03*
X2486Y6401D02*
D03*
X3221Y6031D02*
D03*
X3066Y5956D02*
D03*
X3621Y6721D02*
D03*
X2701Y6441D02*
D03*
X2771Y6376D02*
D03*
X2655Y6247D02*
D03*
X651Y6894D02*
D03*
Y6819D02*
D03*
X3026Y8151D02*
D03*
X1936Y6526D02*
D03*
X1971Y6536D02*
D03*
X1896Y6511D02*
D03*
X1841Y6996D02*
D03*
X2506Y7036D02*
D03*
X2406Y7226D02*
D03*
X2341D02*
D03*
X2406Y7286D02*
D03*
X2341D02*
D03*
X366Y5741D02*
D03*
X3981Y6166D02*
D03*
X2523Y7608D02*
D03*
X2563D02*
D03*
Y7648D02*
D03*
X2523D02*
D03*
Y7688D02*
D03*
X2563D02*
D03*
Y7728D02*
D03*
X2523D02*
D03*
X2443D02*
D03*
X2403D02*
D03*
Y7688D02*
D03*
X2443D02*
D03*
Y7648D02*
D03*
X2403D02*
D03*
Y7608D02*
D03*
X2443D02*
D03*
X2483D02*
D03*
Y7648D02*
D03*
Y7728D02*
D03*
Y7688D02*
D03*
X2067Y7608D02*
D03*
X2107D02*
D03*
Y7648D02*
D03*
X2067D02*
D03*
Y7688D02*
D03*
X2107D02*
D03*
Y7728D02*
D03*
X2067D02*
D03*
X1987D02*
D03*
X1947D02*
D03*
Y7688D02*
D03*
X1987D02*
D03*
Y7648D02*
D03*
X1947D02*
D03*
Y7608D02*
D03*
X1987D02*
D03*
X2027D02*
D03*
Y7648D02*
D03*
Y7728D02*
D03*
Y7688D02*
D03*
X1666Y7608D02*
D03*
X1706D02*
D03*
Y7648D02*
D03*
X1666D02*
D03*
Y7688D02*
D03*
X1706D02*
D03*
Y7728D02*
D03*
X1666D02*
D03*
X1586D02*
D03*
X1546D02*
D03*
Y7688D02*
D03*
X1586D02*
D03*
Y7648D02*
D03*
X1546D02*
D03*
Y7608D02*
D03*
X1586D02*
D03*
X1626D02*
D03*
Y7648D02*
D03*
Y7728D02*
D03*
Y7688D02*
D03*
X1268Y7608D02*
D03*
X1308D02*
D03*
Y7648D02*
D03*
X1268D02*
D03*
Y7688D02*
D03*
X1308D02*
D03*
Y7728D02*
D03*
X1268D02*
D03*
X1188D02*
D03*
X1148D02*
D03*
Y7688D02*
D03*
X1188D02*
D03*
Y7648D02*
D03*
X1148D02*
D03*
Y7608D02*
D03*
X1188D02*
D03*
X1228D02*
D03*
Y7648D02*
D03*
Y7728D02*
D03*
Y7688D02*
D03*
X2856Y7031D02*
D03*
X2861Y7086D02*
D03*
X1756Y7266D02*
D03*
X1591D02*
D03*
X1441D02*
D03*
X536Y5646D02*
D03*
X406D02*
D03*
X996Y6641D02*
D03*
X891D02*
D03*
X806D02*
D03*
X841Y6701D02*
D03*
X836Y6116D02*
D03*
X711Y6121D02*
D03*
X836Y6051D02*
D03*
X706Y5801D02*
D03*
Y5906D02*
D03*
X501Y5766D02*
D03*
X641Y6051D02*
D03*
X971Y5831D02*
D03*
Y5956D02*
D03*
Y6186D02*
D03*
Y6061D02*
D03*
X1256Y6326D02*
D03*
X1161D02*
D03*
X1051D02*
D03*
X1341Y6701D02*
D03*
X1246D02*
D03*
X1146D02*
D03*
X1046D02*
D03*
X941D02*
D03*
X3370Y5910D02*
D03*
X386Y6036D02*
D03*
X2931Y5941D02*
D03*
X3201Y5996D02*
D03*
X2031Y6101D02*
D03*
X3301Y6036D02*
D03*
X3266Y6026D02*
D03*
X2311Y6661D02*
D03*
X1551Y5976D02*
D03*
X1783Y6368D02*
D03*
X846Y5811D02*
D03*
X542Y6162D02*
D03*
X381Y6181D02*
D03*
X891Y6106D02*
D03*
Y5961D02*
D03*
X791Y6211D02*
D03*
X741D02*
D03*
X516Y5811D02*
D03*
X496Y5841D02*
D03*
X691Y6216D02*
D03*
X556Y5991D02*
D03*
X496Y6081D02*
D03*
X3911Y6971D02*
D03*
X3841D02*
D03*
X3776D02*
D03*
X3281D02*
D03*
X3721Y7211D02*
D03*
Y7281D02*
D03*
Y7346D02*
D03*
X3776Y7141D02*
D03*
Y7411D02*
D03*
Y7281D02*
D03*
X3956Y7276D02*
D03*
X3866Y7411D02*
D03*
X3956Y7341D02*
D03*
Y7206D02*
D03*
X3866Y7141D02*
D03*
X3776Y7211D02*
D03*
Y7346D02*
D03*
X3866Y7276D02*
D03*
X4041Y7261D02*
D03*
X4046Y7391D02*
D03*
X4261Y7396D02*
D03*
X4256Y7261D02*
D03*
X4261Y7331D02*
D03*
X4151Y7261D02*
D03*
X4041Y7331D02*
D03*
X4151Y7396D02*
D03*
X2376Y6991D02*
D03*
X2491Y6921D02*
D03*
X2441D02*
D03*
X2391D02*
D03*
X2276Y5426D02*
D03*
X2396D02*
D03*
X2451D02*
D03*
X2366Y5506D02*
D03*
X2311Y5456D02*
D03*
Y5506D02*
D03*
X2241Y5456D02*
D03*
Y5506D02*
D03*
X2121Y5606D02*
D03*
X4251Y6671D02*
D03*
X4051D02*
D03*
Y6791D02*
D03*
X4251D02*
D03*
X4066Y7466D02*
D03*
X4256Y7596D02*
D03*
Y7466D02*
D03*
X4151Y7596D02*
D03*
X4256Y7531D02*
D03*
X4151Y7466D02*
D03*
X3996Y7456D02*
D03*
X3651D02*
D03*
X3926D02*
D03*
X3856D02*
D03*
X3786D02*
D03*
X3601D02*
D03*
X3716D02*
D03*
X3651Y7386D02*
D03*
X3646Y7331D02*
D03*
Y7271D02*
D03*
Y7211D02*
D03*
Y7161D02*
D03*
X2861Y7696D02*
D03*
Y7541D02*
D03*
X3646Y7796D02*
D03*
X3651Y7531D02*
D03*
Y7601D02*
D03*
X3646Y7666D02*
D03*
Y7736D02*
D03*
X3911Y7101D02*
D03*
X3841D02*
D03*
X3776D02*
D03*
X3706D02*
D03*
X3546Y7161D02*
D03*
Y7216D02*
D03*
Y7271D02*
D03*
Y7331D02*
D03*
Y7386D02*
D03*
X3526Y7531D02*
D03*
Y7666D02*
D03*
Y7601D02*
D03*
Y7736D02*
D03*
Y7816D02*
D03*
X3721Y7531D02*
D03*
Y7601D02*
D03*
Y7666D02*
D03*
Y7731D02*
D03*
X4036Y7666D02*
D03*
X4261Y7801D02*
D03*
Y7661D02*
D03*
X4151Y7801D02*
D03*
X4041Y7731D02*
D03*
X4261D02*
D03*
X4151Y7661D02*
D03*
X3961Y7531D02*
D03*
X3771D02*
D03*
X3961Y7666D02*
D03*
X3771D02*
D03*
X3961Y7736D02*
D03*
X3866Y7666D02*
D03*
X3961Y7601D02*
D03*
X2331Y7361D02*
D03*
X2336Y7086D02*
D03*
X1271Y7266D02*
D03*
X1041D02*
D03*
X856Y7221D02*
D03*
Y7346D02*
D03*
X851Y7486D02*
D03*
X686Y7221D02*
D03*
Y7486D02*
D03*
X531Y7346D02*
D03*
Y7486D02*
D03*
X686Y7346D02*
D03*
X531Y7221D02*
D03*
X696Y7121D02*
D03*
X1456Y6761D02*
D03*
X3278Y8226D02*
D03*
X3553D02*
D03*
X3448Y8221D02*
D03*
X2191Y5496D02*
D03*
X2156D02*
D03*
X2121D02*
D03*
X3551D02*
D03*
X3516D02*
D03*
X3481D02*
D03*
X356Y5521D02*
D03*
X3866Y7531D02*
D03*
X3771Y7601D02*
D03*
Y7731D02*
D03*
X2551Y7446D02*
D03*
X1856D02*
D03*
X1456D02*
D03*
X1066D02*
D03*
X1326Y7406D02*
D03*
X1716D02*
D03*
X2116D02*
D03*
X2096Y7446D02*
D03*
X1696D02*
D03*
X1306D02*
D03*
X2986Y7901D02*
D03*
X3408Y7876D02*
D03*
X4261Y7131D02*
D03*
X4041D02*
D03*
X4151Y7201D02*
D03*
Y7056D02*
D03*
X4261D02*
D03*
Y7196D02*
D03*
X4041Y7201D02*
D03*
Y7056D02*
D03*
X3221Y7101D02*
D03*
X3571Y6971D02*
D03*
X3496D02*
D03*
X1456Y6726D02*
D03*
X2446Y6086D02*
D03*
X301Y6376D02*
D03*
X311Y6846D02*
D03*
X413Y6992D02*
D03*
X301Y6991D02*
D03*
X311Y6786D02*
D03*
Y6726D02*
D03*
Y6656D02*
D03*
Y6596D02*
D03*
Y6536D02*
D03*
X2034Y5076D02*
D03*
X2538Y4634D02*
D03*
X2871Y4451D02*
D03*
X2329Y5091D02*
D03*
X1647Y5095D02*
D03*
X969Y5096D02*
D03*
X1186Y7446D02*
D03*
X1206Y7406D02*
D03*
X1226Y7446D02*
D03*
X1246Y7406D02*
D03*
X1266Y7446D02*
D03*
X1166Y7406D02*
D03*
X1146Y7446D02*
D03*
X1126Y7406D02*
D03*
X1106Y7446D02*
D03*
X1086Y7406D02*
D03*
X1286D02*
D03*
X2412Y7407D02*
D03*
X2392Y7447D02*
D03*
X2372Y7407D02*
D03*
X2352Y7447D02*
D03*
X2332Y7407D02*
D03*
X1575Y7447D02*
D03*
X1595Y7407D02*
D03*
X1615Y7447D02*
D03*
X1635Y7407D02*
D03*
X1655Y7447D02*
D03*
X1555Y7407D02*
D03*
X1535Y7447D02*
D03*
X1515Y7407D02*
D03*
X1495Y7447D02*
D03*
X1475Y7407D02*
D03*
X1675D02*
D03*
X2076Y7406D02*
D03*
X1876D02*
D03*
X1896Y7446D02*
D03*
X1916Y7406D02*
D03*
X1936Y7446D02*
D03*
X1956Y7406D02*
D03*
X2056Y7446D02*
D03*
X2311Y7041D02*
D03*
X2026Y8256D02*
D03*
X2206D02*
D03*
X2216Y7921D02*
D03*
Y7721D02*
D03*
X1626Y8256D02*
D03*
X1821D02*
D03*
X1816Y7921D02*
D03*
Y7721D02*
D03*
X1416Y7921D02*
D03*
X1411Y8256D02*
D03*
X1226D02*
D03*
X3870Y6771D02*
D03*
X3194Y6721D02*
D03*
X2919D02*
D03*
X3690Y6656D02*
D03*
X3014Y6721D02*
D03*
X3500Y6591D02*
D03*
X3846Y5961D02*
D03*
X2036Y7406D02*
D03*
X2016Y7446D02*
D03*
X1996Y7406D02*
D03*
X1976Y7446D02*
D03*
X3131Y5936D02*
D03*
X2281Y6786D02*
D03*
X1456Y6966D02*
D03*
X311Y7131D02*
D03*
Y7081D02*
D03*
X606D02*
D03*
Y7136D02*
D03*
X2096Y4620D02*
D03*
X2225Y4695D02*
D03*
X711Y6426D02*
D03*
X572Y6462D02*
D03*
X871Y7056D02*
D03*
X1760Y4720D02*
D03*
X1705Y4725D02*
D03*
X1719Y4906D02*
D03*
X2277Y4725D02*
D03*
X2259Y4906D02*
D03*
X2264Y5186D02*
D03*
X1944Y5076D02*
D03*
X1714Y5186D02*
D03*
X3527Y8170D02*
D03*
X3487D02*
D03*
X3448D02*
D03*
Y8131D02*
D03*
Y8091D02*
D03*
X3487D02*
D03*
X3527D02*
D03*
Y8131D02*
D03*
X3487D02*
D03*
X3801Y5911D02*
D03*
X3836Y5916D02*
D03*
X3559Y7977D02*
D03*
Y7912D02*
D03*
X3399Y8063D02*
D03*
X702Y6856D02*
D03*
X3798Y8181D02*
D03*
X3120Y4720D02*
D03*
X3065Y4725D02*
D03*
X3079Y4906D02*
D03*
X3637Y4725D02*
D03*
X3619Y4906D02*
D03*
X3394Y5076D02*
D03*
X3624Y5186D02*
D03*
X3074D02*
D03*
X3304Y5076D02*
D03*
X2440Y4720D02*
D03*
X2385Y4725D02*
D03*
X2399Y4906D02*
D03*
X2957Y4725D02*
D03*
X2939Y4906D02*
D03*
X2714Y5076D02*
D03*
X2944Y5186D02*
D03*
X2394D02*
D03*
X2624Y5076D02*
D03*
X1080Y4720D02*
D03*
X1545Y4695D02*
D03*
X1025Y4725D02*
D03*
X1039Y4906D02*
D03*
X1597Y4725D02*
D03*
X1579Y4906D02*
D03*
X1354Y5076D02*
D03*
X1584Y5186D02*
D03*
X1034D02*
D03*
X1264Y5076D02*
D03*
X865Y4695D02*
D03*
X359Y4906D02*
D03*
X917Y4725D02*
D03*
X899Y4906D02*
D03*
X904Y5186D02*
D03*
X360Y4725D02*
D03*
X354Y5186D02*
D03*
X1866Y6916D02*
D03*
X1796Y6091D02*
D03*
X1631Y7921D02*
D03*
X311Y7671D02*
D03*
X1226Y8146D02*
D03*
X1416D02*
D03*
X1226Y8051D02*
D03*
X1416Y8036D02*
D03*
X1821D02*
D03*
X1626D02*
D03*
X1821Y8146D02*
D03*
X1626D02*
D03*
X2026D02*
D03*
Y8036D02*
D03*
X2206Y8146D02*
D03*
X2136Y8036D02*
D03*
X1416Y7731D02*
D03*
X1561Y6791D02*
D03*
X1681Y6826D02*
D03*
X1446Y7121D02*
D03*
X2536Y5661D02*
D03*
X4011Y5216D02*
D03*
Y5281D02*
D03*
Y5326D02*
D03*
X2906Y8001D02*
D03*
X3268Y8106D02*
D03*
X3948Y8186D02*
D03*
X2836Y6336D02*
D03*
X2796D02*
D03*
X3766Y6586D02*
D03*
X3064Y6596D02*
D03*
X3395Y6681D02*
D03*
X2661Y7406D02*
D03*
X2311Y7446D02*
D03*
X2291Y7406D02*
D03*
X2271Y7446D02*
D03*
X2251Y7406D02*
D03*
X2231Y7446D02*
D03*
X3415Y5960D02*
D03*
X2986Y5956D02*
D03*
X3916Y5961D02*
D03*
X906Y6781D02*
D03*
X766Y6756D02*
D03*
X751Y6656D02*
D03*
Y6566D02*
D03*
X506Y6991D02*
D03*
X471Y6801D02*
D03*
X611Y6991D02*
D03*
X516Y6536D02*
D03*
X651Y6656D02*
D03*
X776Y6991D02*
D03*
X671Y6936D02*
D03*
X901Y6951D02*
D03*
X3396Y6311D02*
D03*
X2981D02*
D03*
X3186Y6361D02*
D03*
Y6481D02*
D03*
Y6256D02*
D03*
X3616Y6361D02*
D03*
Y6466D02*
D03*
Y6256D02*
D03*
X3806Y6311D02*
D03*
X3956Y6046D02*
D03*
X3836Y6571D02*
D03*
X4051Y6731D02*
D03*
X4151Y6671D02*
D03*
Y6791D02*
D03*
X4251Y6726D02*
D03*
X3286Y6311D02*
D03*
X3496D02*
D03*
X3701D02*
D03*
X3926D02*
D03*
X3086D02*
D03*
X2751Y6816D02*
D03*
X2741Y6901D02*
D03*
X3041Y6816D02*
D03*
Y6901D02*
D03*
X3161Y7456D02*
D03*
X2472Y7447D02*
D03*
X2512D02*
D03*
X2531Y7407D02*
D03*
X2492Y7407D02*
D03*
X2432Y7447D02*
D03*
X2452Y7407D02*
D03*
X3361Y7101D02*
D03*
X3426D02*
D03*
X3496D02*
D03*
X3286D02*
D03*
X2891Y7446D02*
D03*
X2731Y7486D02*
D03*
X2811Y7431D02*
D03*
X2976Y7676D02*
D03*
X3021D02*
D03*
X2996Y7161D02*
D03*
X3056D02*
D03*
X3121D02*
D03*
X3171D02*
D03*
X2996Y7111D02*
D03*
X3056D02*
D03*
X3121D02*
D03*
X3171Y7101D02*
D03*
X2871Y5496D02*
D03*
X2836D02*
D03*
X2801D02*
D03*
X1511D02*
D03*
X1476D02*
D03*
X1441D02*
D03*
X831D02*
D03*
X796D02*
D03*
X761D02*
D03*
X674Y5076D02*
D03*
X584D02*
D03*
X731Y4671D02*
D03*
X546Y4751D02*
D03*
X1231Y4741D02*
D03*
X1391Y4746D02*
D03*
X1911D02*
D03*
X2066Y4751D02*
D03*
X2591Y4756D02*
D03*
X2746D02*
D03*
X2906Y4686D02*
D03*
X3426Y4746D02*
D03*
X3571Y4681D02*
D03*
X1549Y5095D02*
D03*
X2227Y5091D02*
D03*
X3371Y6621D02*
D03*
X3251Y6561D02*
D03*
X1804Y6951D02*
D03*
X2242Y6952D02*
D03*
X2166Y6951D02*
D03*
X2066Y6946D02*
D03*
X4301Y7936D02*
D03*
X4091D02*
D03*
X3021Y7561D02*
D03*
X2916Y7481D02*
D03*
X3166Y6971D02*
D03*
X3221D02*
D03*
X3356D02*
D03*
X3426D02*
D03*
X731Y7826D02*
D03*
Y7751D02*
D03*
X921Y7746D02*
D03*
Y7826D02*
D03*
X826D02*
D03*
Y7751D02*
D03*
X776Y7786D02*
D03*
X871D02*
D03*
X4126Y5571D02*
D03*
Y5511D02*
D03*
Y5436D02*
D03*
Y5376D02*
D03*
X3996Y5371D02*
D03*
Y5436D02*
D03*
Y5511D02*
D03*
Y5571D02*
D03*
X2542Y7076D02*
D03*
X3966Y5911D02*
D03*
X3996Y7906D02*
D03*
Y7981D02*
D03*
X3748Y8181D02*
D03*
X3646Y6971D02*
D03*
X2861Y7861D02*
D03*
X2686Y7486D02*
D03*
X2716Y7541D02*
D03*
X2776Y7861D02*
D03*
X406Y4701D02*
D03*
X941Y4961D02*
D03*
X1621Y4956D02*
D03*
X2301Y4961D02*
D03*
X2981Y4960D02*
D03*
X2944Y5030D02*
D03*
X2911Y5095D02*
D03*
X3624Y5030D02*
D03*
X3661Y4960D02*
D03*
X2216Y5621D02*
D03*
X1411Y6781D02*
D03*
X1486Y7081D02*
D03*
X306Y6306D02*
D03*
X1629Y6951D02*
D03*
X1661Y6919D02*
D03*
X1771Y6979D02*
D03*
X1486Y6696D02*
D03*
X1651Y5846D02*
D03*
X499Y5886D02*
D03*
X1201Y5781D02*
D03*
X906Y6316D02*
D03*
X941D02*
D03*
X3091Y8251D02*
D03*
X3361Y7881D02*
D03*
X2986Y7761D02*
D03*
X3021Y7616D02*
D03*
X3291Y7986D02*
D03*
X3081Y8096D02*
D03*
X3171Y7946D02*
D03*
X1736Y8256D02*
D03*
X2206Y8036D02*
D03*
X2136Y8256D02*
D03*
X1736Y8036D02*
D03*
X1336D02*
D03*
Y8256D02*
D03*
X1006Y8146D02*
D03*
X866D02*
D03*
X936Y8256D02*
D03*
Y8036D02*
D03*
X1006D02*
D03*
Y8256D02*
D03*
X866D02*
D03*
Y8036D02*
D03*
X4191Y6056D02*
D03*
Y5986D02*
D03*
Y6136D02*
D03*
X4121D02*
D03*
Y6056D02*
D03*
Y5986D02*
D03*
X3186Y6181D02*
D03*
X3616Y6176D02*
D03*
X3981Y6246D02*
D03*
Y6461D02*
D03*
Y6361D02*
D03*
X3616Y6071D02*
D03*
Y5976D02*
D03*
Y5886D02*
D03*
X3686Y5976D02*
D03*
X3691Y5886D02*
D03*
X2026Y6486D02*
D03*
X2256Y6521D02*
D03*
X2351Y6746D02*
D03*
X2336Y6711D02*
D03*
X2196Y6271D02*
D03*
X1996Y6356D02*
D03*
X866Y7951D02*
D03*
X936D02*
D03*
X1006D02*
D03*
X2976Y7616D02*
D03*
X1902Y5207D02*
D03*
Y5250D02*
D03*
Y5293D02*
D03*
X1946Y5207D02*
D03*
Y5250D02*
D03*
Y5293D02*
D03*
X1989Y5207D02*
D03*
Y5250D02*
D03*
Y5293D02*
D03*
X2032Y5207D02*
D03*
Y5250D02*
D03*
Y5293D02*
D03*
X2075Y5207D02*
D03*
Y5250D02*
D03*
Y5293D02*
D03*
X542Y5207D02*
D03*
Y5250D02*
D03*
Y5293D02*
D03*
X585Y5207D02*
D03*
Y5250D02*
D03*
Y5293D02*
D03*
X629Y5207D02*
D03*
Y5250D02*
D03*
Y5293D02*
D03*
X672Y5207D02*
D03*
Y5250D02*
D03*
Y5293D02*
D03*
X715Y5207D02*
D03*
Y5250D02*
D03*
Y5293D02*
D03*
X1222Y5207D02*
D03*
Y5250D02*
D03*
Y5293D02*
D03*
X1265Y5207D02*
D03*
Y5250D02*
D03*
Y5293D02*
D03*
X1309Y5207D02*
D03*
Y5250D02*
D03*
Y5293D02*
D03*
X1352Y5207D02*
D03*
Y5250D02*
D03*
Y5293D02*
D03*
X1395Y5207D02*
D03*
Y5250D02*
D03*
Y5293D02*
D03*
X2582Y5207D02*
D03*
Y5250D02*
D03*
Y5293D02*
D03*
X2625Y5207D02*
D03*
Y5250D02*
D03*
Y5293D02*
D03*
X2669Y5207D02*
D03*
Y5250D02*
D03*
Y5293D02*
D03*
X2712Y5207D02*
D03*
Y5250D02*
D03*
Y5293D02*
D03*
X2755Y5207D02*
D03*
Y5250D02*
D03*
Y5293D02*
D03*
X3262Y5207D02*
D03*
Y5250D02*
D03*
Y5293D02*
D03*
X3305Y5207D02*
D03*
Y5250D02*
D03*
Y5293D02*
D03*
X3349Y5207D02*
D03*
Y5250D02*
D03*
Y5293D02*
D03*
X3392Y5207D02*
D03*
Y5250D02*
D03*
Y5293D02*
D03*
X3435Y5207D02*
D03*
Y5250D02*
D03*
Y5293D02*
D03*
X1556Y6691D02*
D03*
Y6727D02*
D03*
X1561Y6655D02*
D03*
X1661Y6729D02*
D03*
X1657Y6691D02*
D03*
X1711Y5826D02*
D03*
X682Y5672D02*
D03*
X866Y5091D02*
D03*
X1636Y6221D02*
D03*
X1776Y6447D02*
D03*
X1601Y6616D02*
D03*
X1556Y6591D02*
D03*
X616Y6316D02*
D03*
X1616Y5941D02*
D03*
X1736Y5981D02*
D03*
X2356Y5571D02*
D03*
X2423Y5643D02*
D03*
X516Y5996D02*
D03*
X1476Y6281D02*
D03*
X1666Y6431D02*
D03*
X1534Y6376D02*
D03*
X1521Y6601D02*
D03*
X1789Y6706D02*
D03*
X1785Y6660D02*
D03*
X2071Y6616D02*
D03*
X2096Y6588D02*
D03*
X2066Y6226D02*
D03*
X2006D02*
D03*
X2036Y6276D02*
D03*
X2091Y6271D02*
D03*
X2271Y6181D02*
D03*
X2241Y6156D02*
D03*
X2311Y6181D02*
D03*
X2411Y6236D02*
D03*
X2372Y6236D02*
D03*
X2316Y6281D02*
D03*
X2341Y6151D02*
D03*
X2366Y6121D02*
D03*
X2206Y6681D02*
D03*
X2221Y6736D02*
D03*
X1916Y6731D02*
D03*
X1951Y6711D02*
D03*
X1821Y6686D02*
D03*
X1791Y6746D02*
D03*
X1921Y6091D02*
D03*
X1875Y6096D02*
D03*
X1836D02*
D03*
X2426Y5681D02*
D03*
X2881Y5666D02*
D03*
X3021Y5091D02*
D03*
X2146Y5906D02*
D03*
X2311Y5706D02*
D03*
X2066Y5931D02*
D03*
X2095Y5905D02*
D03*
X2121Y5932D02*
D03*
X2311Y5666D02*
D03*
X2323Y5606D02*
D03*
X2411Y5816D02*
D03*
X2621Y6146D02*
D03*
X1571Y6366D02*
D03*
X1626Y6436D02*
D03*
X1411Y6466D02*
D03*
X2311Y5566D02*
D03*
X2531Y5621D02*
D03*
X2351Y6086D02*
D03*
X2471Y5836D02*
D03*
X3500Y5915D02*
D03*
X3495Y5960D02*
D03*
X3071Y5911D02*
D03*
X3540Y5910D02*
D03*
X2986Y5891D02*
D03*
X3686Y5091D02*
D03*
X2435Y5846D02*
D03*
X2451Y5791D02*
D03*
X2491Y5771D02*
D03*
X2600Y5716D02*
D03*
X2576Y6036D02*
D03*
X2506Y5816D02*
D03*
X2596Y5591D02*
D03*
X2586Y5671D02*
D03*
X2556Y5791D02*
D03*
X2551Y6065D02*
D03*
X2605Y6061D02*
D03*
X2396Y5883D02*
D03*
X2446Y6471D02*
D03*
X2473Y6495D02*
D03*
X2347Y6675D02*
D03*
X2622Y7082D02*
D03*
X2660D02*
D03*
X2671Y7036D02*
D03*
X2701Y7071D02*
D03*
X2711Y7121D02*
D03*
X2731Y7316D02*
D03*
X2696Y7171D02*
D03*
X2861Y7131D02*
D03*
X2751Y6711D02*
D03*
X2711Y6761D02*
D03*
X2724Y7196D02*
D03*
X2704Y7277D02*
D03*
X2703Y7226D02*
D03*
X2746Y7256D02*
D03*
X1861Y7121D02*
D03*
X1656Y6356D02*
D03*
X1646Y6046D02*
D03*
X1571Y6206D02*
D03*
X2256Y5016D02*
D03*
X1584Y5021D02*
D03*
X904D02*
D03*
X3271Y4746D02*
D03*
X2695Y7313D02*
D03*
X3591Y5091D02*
D03*
X2551Y7116D02*
D03*
X1726Y6051D02*
D03*
D103*
X3336Y3549D02*
D03*
Y3683D02*
D03*
Y3159D02*
D03*
Y3293D02*
D03*
Y7599D02*
D03*
Y7733D02*
D03*
Y7209D02*
D03*
Y7343D02*
D03*
M02*
