G04 Layer_Color=8388736*
%FSLAX23Y23*%
%MOIN*%
G70*
G01*
G75*
%ADD36C,0.060*%
%ADD41R,0.030X0.110*%
%ADD173R,0.035X0.070*%
G04:AMPARAMS|DCode=174|XSize=119mil|YSize=119mil|CornerRadius=59mil|HoleSize=0mil|Usage=FLASHONLY|Rotation=90.000|XOffset=0mil|YOffset=0mil|HoleType=Round|Shape=RoundedRectangle|*
%AMROUNDEDRECTD174*
21,1,0.119,0.000,0,0,90.0*
21,1,0.000,0.119,0,0,90.0*
1,1,0.119,0.000,0.000*
1,1,0.119,0.000,0.000*
1,1,0.119,0.000,0.000*
1,1,0.119,0.000,0.000*
%
%ADD174ROUNDEDRECTD174*%
G04:AMPARAMS|DCode=175|XSize=37mil|YSize=47mil|CornerRadius=10mil|HoleSize=0mil|Usage=FLASHONLY|Rotation=270.000|XOffset=0mil|YOffset=0mil|HoleType=Round|Shape=RoundedRectangle|*
%AMROUNDEDRECTD175*
21,1,0.037,0.028,0,0,270.0*
21,1,0.017,0.047,0,0,270.0*
1,1,0.020,-0.014,-0.009*
1,1,0.020,-0.014,0.009*
1,1,0.020,0.014,0.009*
1,1,0.020,0.014,-0.009*
%
%ADD175ROUNDEDRECTD175*%
%ADD176R,0.214X0.130*%
%ADD177O,0.022X0.075*%
G04:AMPARAMS|DCode=178|XSize=30mil|YSize=32mil|CornerRadius=8mil|HoleSize=0mil|Usage=FLASHONLY|Rotation=270.000|XOffset=0mil|YOffset=0mil|HoleType=Round|Shape=RoundedRectangle|*
%AMROUNDEDRECTD178*
21,1,0.030,0.015,0,0,270.0*
21,1,0.013,0.032,0,0,270.0*
1,1,0.017,-0.008,-0.007*
1,1,0.017,-0.008,0.007*
1,1,0.017,0.008,0.007*
1,1,0.017,0.008,-0.007*
%
%ADD178ROUNDEDRECTD178*%
%ADD179R,0.032X0.032*%
G04:AMPARAMS|DCode=180|XSize=37mil|YSize=47mil|CornerRadius=10mil|HoleSize=0mil|Usage=FLASHONLY|Rotation=0.000|XOffset=0mil|YOffset=0mil|HoleType=Round|Shape=RoundedRectangle|*
%AMROUNDEDRECTD180*
21,1,0.037,0.028,0,0,0.0*
21,1,0.017,0.047,0,0,0.0*
1,1,0.020,0.009,-0.014*
1,1,0.020,-0.009,-0.014*
1,1,0.020,-0.009,0.014*
1,1,0.020,0.009,0.014*
%
%ADD180ROUNDEDRECTD180*%
%ADD181R,0.053X0.067*%
%ADD182R,0.067X0.039*%
%ADD183R,0.075X0.063*%
%ADD184R,0.056X0.056*%
G04:AMPARAMS|DCode=185|XSize=30mil|YSize=32mil|CornerRadius=8mil|HoleSize=0mil|Usage=FLASHONLY|Rotation=0.000|XOffset=0mil|YOffset=0mil|HoleType=Round|Shape=RoundedRectangle|*
%AMROUNDEDRECTD185*
21,1,0.030,0.015,0,0,0.0*
21,1,0.013,0.032,0,0,0.0*
1,1,0.017,0.007,-0.008*
1,1,0.017,-0.007,-0.008*
1,1,0.017,-0.007,0.008*
1,1,0.017,0.007,0.008*
%
%ADD185ROUNDEDRECTD185*%
G04:AMPARAMS|DCode=186|XSize=54mil|YSize=71mil|CornerRadius=16mil|HoleSize=0mil|Usage=FLASHONLY|Rotation=180.000|XOffset=0mil|YOffset=0mil|HoleType=Round|Shape=RoundedRectangle|*
%AMROUNDEDRECTD186*
21,1,0.054,0.040,0,0,180.0*
21,1,0.023,0.071,0,0,180.0*
1,1,0.031,-0.012,0.020*
1,1,0.031,0.012,0.020*
1,1,0.031,0.012,-0.020*
1,1,0.031,-0.012,-0.020*
%
%ADD186ROUNDEDRECTD186*%
%ADD187R,0.075X0.051*%
%ADD188R,0.051X0.075*%
%ADD189C,0.058*%
%ADD190R,0.071X0.134*%
%ADD191R,0.032X0.068*%
%ADD192R,0.134X0.071*%
%ADD193R,0.036X0.028*%
%ADD194R,0.063X0.142*%
%ADD195R,0.142X0.063*%
%ADD196R,0.087X0.087*%
%ADD197R,0.173X0.089*%
%ADD198R,0.022X0.043*%
%ADD199R,0.136X0.102*%
%ADD200R,0.047X0.102*%
%ADD201R,0.043X0.138*%
%ADD202R,0.048X0.020*%
%ADD203R,0.076X0.083*%
G04:AMPARAMS|DCode=204|XSize=60mil|YSize=68mil|CornerRadius=17mil|HoleSize=0mil|Usage=FLASHONLY|Rotation=180.000|XOffset=0mil|YOffset=0mil|HoleType=Round|Shape=RoundedRectangle|*
%AMROUNDEDRECTD204*
21,1,0.060,0.034,0,0,180.0*
21,1,0.026,0.068,0,0,180.0*
1,1,0.034,-0.013,0.017*
1,1,0.034,0.013,0.017*
1,1,0.034,0.013,-0.017*
1,1,0.034,-0.013,-0.017*
%
%ADD204ROUNDEDRECTD204*%
G04:AMPARAMS|DCode=205|XSize=60mil|YSize=68mil|CornerRadius=17mil|HoleSize=0mil|Usage=FLASHONLY|Rotation=90.000|XOffset=0mil|YOffset=0mil|HoleType=Round|Shape=RoundedRectangle|*
%AMROUNDEDRECTD205*
21,1,0.060,0.034,0,0,90.0*
21,1,0.026,0.068,0,0,90.0*
1,1,0.034,0.017,0.013*
1,1,0.034,0.017,-0.013*
1,1,0.034,-0.017,-0.013*
1,1,0.034,-0.017,0.013*
%
%ADD205ROUNDEDRECTD205*%
%ADD206R,0.063X0.032*%
%ADD207R,0.032X0.063*%
%ADD208R,0.079X0.102*%
%ADD209O,0.099X0.032*%
%ADD210R,0.043X0.036*%
%ADD211R,0.039X0.032*%
%ADD212R,0.032X0.039*%
%ADD213R,0.099X0.093*%
G04:AMPARAMS|DCode=214|XSize=80mil|YSize=80mil|CornerRadius=40mil|HoleSize=0mil|Usage=FLASHONLY|Rotation=90.000|XOffset=0mil|YOffset=0mil|HoleType=Round|Shape=RoundedRectangle|*
%AMROUNDEDRECTD214*
21,1,0.080,0.000,0,0,90.0*
21,1,0.000,0.080,0,0,90.0*
1,1,0.080,0.000,0.000*
1,1,0.080,0.000,0.000*
1,1,0.080,0.000,0.000*
1,1,0.080,0.000,0.000*
%
%ADD214ROUNDEDRECTD214*%
G04:AMPARAMS|DCode=215|XSize=80mil|YSize=80mil|CornerRadius=40mil|HoleSize=0mil|Usage=FLASHONLY|Rotation=0.000|XOffset=0mil|YOffset=0mil|HoleType=Round|Shape=RoundedRectangle|*
%AMROUNDEDRECTD215*
21,1,0.080,0.000,0,0,0.0*
21,1,0.000,0.080,0,0,0.0*
1,1,0.080,0.000,0.000*
1,1,0.080,0.000,0.000*
1,1,0.080,0.000,0.000*
1,1,0.080,0.000,0.000*
%
%ADD215ROUNDEDRECTD215*%
%ADD216O,0.073X0.022*%
%ADD217R,0.056X0.056*%
%ADD218O,0.067X0.032*%
%ADD219R,0.138X0.043*%
%ADD220O,0.079X0.020*%
%ADD221O,0.020X0.079*%
%ADD222R,0.036X0.064*%
%ADD223R,0.067X0.067*%
%ADD224C,0.067*%
G04:AMPARAMS|DCode=225|XSize=141mil|YSize=91mil|CornerRadius=0mil|HoleSize=0mil|Usage=FLASHONLY|Rotation=270.000|XOffset=0mil|YOffset=0mil|HoleType=Round|Shape=Octagon|*
%AMOCTAGOND225*
4,1,8,-0.023,-0.070,0.023,-0.070,0.046,-0.048,0.046,0.048,0.023,0.070,-0.023,0.070,-0.046,0.048,-0.046,-0.048,-0.023,-0.070,0.0*
%
%ADD225OCTAGOND225*%

%ADD226O,0.128X0.068*%
%ADD227O,0.173X0.091*%
%ADD228O,0.091X0.173*%
%ADD229O,0.068X0.128*%
%ADD230C,0.108*%
%ADD231P,0.084X8X292.5*%
%ADD232C,0.139*%
%ADD233C,0.062*%
G04:AMPARAMS|DCode=234|XSize=141mil|YSize=91mil|CornerRadius=0mil|HoleSize=0mil|Usage=FLASHONLY|Rotation=180.000|XOffset=0mil|YOffset=0mil|HoleType=Round|Shape=Octagon|*
%AMOCTAGOND234*
4,1,8,-0.070,0.023,-0.070,-0.023,-0.048,-0.046,0.048,-0.046,0.070,-0.023,0.070,0.023,0.048,0.046,-0.048,0.046,-0.070,0.023,0.0*
%
%ADD234OCTAGOND234*%

G36*
X1728Y3676D02*
Y3637D01*
Y3597D01*
Y3557D01*
Y3530D01*
X1524D01*
Y3557D01*
Y3597D01*
Y3637D01*
Y3677D01*
Y3706D01*
X1728D01*
Y3676D01*
D02*
G37*
G36*
X1330D02*
Y3637D01*
Y3597D01*
Y3557D01*
Y3530D01*
X1125D01*
Y3557D01*
Y3597D01*
Y3637D01*
Y3677D01*
Y3706D01*
X1330D01*
Y3676D01*
D02*
G37*
G36*
X2585D02*
Y3637D01*
Y3597D01*
Y3557D01*
Y3530D01*
X2380D01*
Y3557D01*
Y3597D01*
Y3637D01*
Y3677D01*
Y3706D01*
X2585D01*
Y3676D01*
D02*
G37*
G36*
X2129D02*
Y3637D01*
Y3597D01*
Y3557D01*
Y3530D01*
X1925D01*
Y3557D01*
Y3597D01*
Y3637D01*
Y3677D01*
Y3706D01*
X2129D01*
Y3676D01*
D02*
G37*
G36*
X3455Y1243D02*
Y1222D01*
Y1200D01*
Y1178D01*
Y1157D01*
Y1135D01*
X3242D01*
Y1157D01*
Y1178D01*
Y1200D01*
Y1222D01*
Y1243D01*
Y1243D01*
Y1265D01*
X3455D01*
Y1243D01*
D02*
G37*
G36*
X1415D02*
Y1222D01*
Y1200D01*
Y1178D01*
Y1157D01*
Y1135D01*
X1202D01*
Y1157D01*
Y1178D01*
Y1200D01*
Y1222D01*
Y1243D01*
Y1243D01*
Y1265D01*
X1415D01*
Y1243D01*
D02*
G37*
G36*
X735D02*
Y1222D01*
Y1200D01*
Y1178D01*
Y1157D01*
Y1135D01*
X522D01*
Y1157D01*
Y1178D01*
Y1200D01*
Y1222D01*
Y1243D01*
Y1243D01*
Y1265D01*
X735D01*
Y1243D01*
D02*
G37*
G36*
X2775D02*
Y1222D01*
Y1200D01*
Y1178D01*
Y1157D01*
Y1135D01*
X2562D01*
Y1157D01*
Y1178D01*
Y1200D01*
Y1222D01*
Y1243D01*
Y1243D01*
Y1265D01*
X2775D01*
Y1243D01*
D02*
G37*
G36*
X2096D02*
Y1222D01*
Y1200D01*
Y1178D01*
Y1157D01*
Y1135D01*
X1882D01*
Y1157D01*
Y1178D01*
Y1200D01*
Y1222D01*
Y1243D01*
Y1243D01*
Y1265D01*
X2096D01*
Y1243D01*
D02*
G37*
%LPC*%
G36*
X1396Y1253D02*
X1395Y1253D01*
Y1253D01*
X1393Y1253D01*
X1388Y1251D01*
X1386Y1247D01*
X1386Y1244D01*
X1386Y1243D01*
X1385D01*
X1385Y1242D01*
X1385Y1239D01*
X1388Y1236D01*
X1391Y1234D01*
X1394Y1233D01*
X1395Y1233D01*
X1397D01*
X1402Y1236D01*
X1405Y1239D01*
X1405Y1243D01*
X1405Y1244D01*
X1405Y1244D01*
X1405Y1245D01*
X1404Y1248D01*
X1402Y1251D01*
X1399Y1253D01*
X1396Y1253D01*
D02*
G37*
G36*
X2077D02*
X2076Y1253D01*
Y1253D01*
X2074Y1253D01*
X2069Y1251D01*
X2066Y1247D01*
X2066Y1244D01*
X2066Y1243D01*
X2065D01*
X2065Y1242D01*
X2066Y1239D01*
X2068Y1236D01*
X2071Y1234D01*
X2074Y1233D01*
X2075Y1233D01*
X2077D01*
X2083Y1236D01*
X2085Y1239D01*
X2086Y1243D01*
X2086Y1244D01*
X2085Y1244D01*
X2085Y1245D01*
X2085Y1248D01*
X2082Y1251D01*
X2079Y1253D01*
X2077Y1253D01*
D02*
G37*
G36*
X3263Y1210D02*
X3262Y1210D01*
Y1210D01*
X3261D01*
X3258Y1210D01*
X3255Y1207D01*
X3252Y1204D01*
X3252Y1201D01*
Y1200D01*
X3252D01*
X3252Y1200D01*
Y1199D01*
X3252Y1196D01*
X3255Y1193D01*
X3258Y1191D01*
X3261Y1190D01*
X3262D01*
X3264Y1190D01*
X3269Y1193D01*
X3271Y1196D01*
X3272Y1199D01*
X3272Y1201D01*
X3272D01*
X3272Y1201D01*
X3272Y1204D01*
X3270Y1207D01*
X3266Y1210D01*
X3263Y1210D01*
D02*
G37*
G36*
X716Y1253D02*
X715Y1253D01*
Y1253D01*
X713Y1253D01*
X708Y1251D01*
X706Y1247D01*
X706Y1244D01*
X706Y1243D01*
X705D01*
X705Y1242D01*
X705Y1239D01*
X708Y1236D01*
X711Y1234D01*
X714Y1233D01*
X715Y1233D01*
X717D01*
X722Y1236D01*
X725Y1239D01*
X725Y1243D01*
X725Y1244D01*
X725Y1244D01*
X725Y1245D01*
X724Y1248D01*
X722Y1251D01*
X719Y1253D01*
X716Y1253D01*
D02*
G37*
G36*
X586Y1253D02*
X585Y1253D01*
X585Y1253D01*
X584Y1253D01*
X582Y1253D01*
X578Y1251D01*
X576Y1247D01*
X576Y1244D01*
X576Y1243D01*
X575D01*
X575Y1243D01*
X576Y1240D01*
X578Y1236D01*
X581Y1234D01*
X585Y1233D01*
X586Y1233D01*
X586D01*
X587Y1233D01*
X589Y1234D01*
X593Y1236D01*
X595Y1239D01*
X595Y1242D01*
X595Y1243D01*
X595D01*
X595Y1244D01*
X595Y1247D01*
X593Y1251D01*
X589Y1253D01*
X586Y1253D01*
D02*
G37*
G36*
X1266D02*
X1265Y1253D01*
X1265Y1253D01*
X1264Y1253D01*
X1262Y1253D01*
X1258Y1251D01*
X1256Y1247D01*
X1256Y1244D01*
X1256Y1243D01*
X1255D01*
X1255Y1243D01*
X1256Y1240D01*
X1258Y1236D01*
X1261Y1234D01*
X1265Y1233D01*
X1266Y1233D01*
X1266D01*
X1267Y1233D01*
X1269Y1234D01*
X1273Y1236D01*
X1275Y1239D01*
X1275Y1242D01*
X1275Y1243D01*
X1275D01*
X1275Y1244D01*
X1275Y1247D01*
X1273Y1251D01*
X1269Y1253D01*
X1266Y1253D01*
D02*
G37*
G36*
X2756Y1253D02*
X2755Y1253D01*
Y1253D01*
X2753Y1253D01*
X2748Y1251D01*
X2746Y1247D01*
X2746Y1244D01*
X2746Y1243D01*
X2745D01*
X2745Y1242D01*
X2745Y1239D01*
X2748Y1236D01*
X2751Y1234D01*
X2754Y1233D01*
X2755Y1233D01*
X2757D01*
X2762Y1236D01*
X2765Y1239D01*
X2765Y1243D01*
X2765Y1244D01*
X2765Y1244D01*
Y1244D01*
Y1244D01*
D01*
X2765Y1245D01*
X2764Y1248D01*
X2762Y1251D01*
X2759Y1253D01*
X2756Y1253D01*
D02*
G37*
G36*
X3436D02*
X3435Y1253D01*
Y1253D01*
X3433Y1253D01*
X3428Y1251D01*
X3426Y1247D01*
X3426Y1244D01*
X3426Y1243D01*
X3425D01*
X3425Y1242D01*
X3425Y1239D01*
X3428Y1236D01*
X3431Y1234D01*
X3434Y1233D01*
X3435Y1233D01*
X3437D01*
X3442Y1236D01*
X3445Y1239D01*
X3445Y1243D01*
X3445Y1244D01*
X3445Y1244D01*
Y1244D01*
Y1244D01*
D01*
X3445Y1245D01*
X3444Y1248D01*
X3442Y1251D01*
X3439Y1253D01*
X3436Y1253D01*
D02*
G37*
G36*
X2583Y1210D02*
X2582Y1210D01*
Y1210D01*
X2581D01*
X2578Y1210D01*
X2575Y1207D01*
X2572Y1204D01*
X2572Y1201D01*
Y1200D01*
X2572D01*
X2572Y1200D01*
Y1199D01*
X2572Y1196D01*
X2575Y1193D01*
X2578Y1191D01*
X2581Y1190D01*
X2582D01*
X2584Y1190D01*
X2589Y1193D01*
X2591Y1196D01*
X2592Y1199D01*
X2592Y1201D01*
X2592D01*
X2592Y1201D01*
X2592Y1204D01*
X2590Y1207D01*
X2586Y1210D01*
X2583Y1210D01*
D02*
G37*
G36*
X1990Y1210D02*
X1989Y1210D01*
X1989Y1210D01*
X1988Y1210D01*
X1985Y1210D01*
X1982Y1208D01*
X1979Y1204D01*
X1979Y1201D01*
X1979Y1200D01*
X1979D01*
X1979Y1200D01*
X1979Y1200D01*
X1979Y1200D01*
X1979D01*
X1979Y1199D01*
X1979Y1196D01*
X1982Y1193D01*
X1985Y1190D01*
X1988Y1190D01*
X1990D01*
X1993Y1190D01*
X1996Y1193D01*
X1998Y1196D01*
X1999Y1199D01*
X1999Y1200D01*
X1999D01*
Y1200D01*
Y1200D01*
D01*
X1999Y1200D01*
X1999Y1200D01*
X1999D01*
X1999Y1201D01*
X1998Y1204D01*
X1996Y1208D01*
X1993Y1210D01*
X1990Y1210D01*
D02*
G37*
G36*
X2670D02*
X2669Y1210D01*
X2669Y1210D01*
X2668Y1210D01*
X2665Y1210D01*
X2661Y1208D01*
X2659Y1204D01*
X2659Y1201D01*
X2659Y1200D01*
X2659D01*
X2659Y1200D01*
X2659Y1200D01*
X2659Y1200D01*
X2659D01*
X2659Y1199D01*
X2659Y1196D01*
X2661Y1193D01*
X2665Y1190D01*
X2668Y1190D01*
X2670D01*
X2672Y1190D01*
X2676Y1193D01*
X2678Y1196D01*
X2679Y1199D01*
X2679Y1200D01*
X2679D01*
Y1200D01*
Y1200D01*
D01*
X2679Y1200D01*
X2679Y1200D01*
X2679D01*
X2679Y1201D01*
X2678Y1204D01*
X2676Y1208D01*
X2672Y1210D01*
X2670Y1210D01*
D02*
G37*
G36*
X630D02*
X629Y1210D01*
X629Y1210D01*
X628Y1210D01*
X625Y1210D01*
X621Y1208D01*
X619Y1204D01*
X619Y1201D01*
X619Y1200D01*
X619D01*
X619Y1200D01*
X619Y1200D01*
X619Y1200D01*
X619D01*
X619Y1199D01*
X619Y1196D01*
X621Y1193D01*
X625Y1190D01*
X628Y1190D01*
X630D01*
X632Y1190D01*
X636Y1193D01*
X638Y1196D01*
X639Y1199D01*
X639Y1200D01*
X639D01*
Y1200D01*
Y1200D01*
D01*
X639Y1200D01*
X639Y1200D01*
X639D01*
X639Y1201D01*
X638Y1204D01*
X636Y1208D01*
X632Y1210D01*
X630Y1210D01*
D02*
G37*
G36*
X1310D02*
X1309Y1210D01*
X1309Y1210D01*
X1308Y1210D01*
X1305Y1210D01*
X1301Y1208D01*
X1299Y1204D01*
X1299Y1201D01*
X1299Y1200D01*
X1299D01*
X1299Y1200D01*
X1299Y1200D01*
X1299Y1200D01*
X1299D01*
X1299Y1199D01*
X1299Y1196D01*
X1301Y1193D01*
X1305Y1190D01*
X1308Y1190D01*
X1310D01*
X1312Y1190D01*
X1316Y1193D01*
X1318Y1196D01*
X1319Y1199D01*
X1319Y1200D01*
X1319D01*
Y1200D01*
Y1200D01*
D01*
X1319Y1200D01*
X1319Y1200D01*
X1319D01*
X1319Y1201D01*
X1318Y1204D01*
X1316Y1208D01*
X1312Y1210D01*
X1310Y1210D01*
D02*
G37*
G36*
X1223Y1210D02*
X1222Y1210D01*
Y1210D01*
X1221D01*
X1218Y1210D01*
X1215Y1207D01*
X1212Y1204D01*
X1212Y1201D01*
Y1200D01*
X1212D01*
X1212Y1200D01*
Y1199D01*
X1212Y1196D01*
X1215Y1193D01*
X1218Y1191D01*
X1221Y1190D01*
X1222D01*
X1224Y1190D01*
X1229Y1193D01*
X1231Y1196D01*
X1232Y1199D01*
X1232Y1201D01*
X1232D01*
X1232Y1201D01*
X1232Y1204D01*
X1230Y1207D01*
X1226Y1210D01*
X1223Y1210D01*
D02*
G37*
G36*
X1903D02*
X1902Y1210D01*
Y1210D01*
X1901D01*
X1898Y1210D01*
X1895Y1207D01*
X1893Y1204D01*
X1892Y1201D01*
Y1200D01*
X1892D01*
X1892Y1200D01*
Y1199D01*
X1893Y1196D01*
X1895Y1193D01*
X1898Y1191D01*
X1901Y1190D01*
X1902D01*
X1904Y1190D01*
X1909Y1193D01*
X1911Y1196D01*
X1912Y1199D01*
X1912Y1201D01*
X1913D01*
X1913Y1201D01*
X1912Y1204D01*
X1910Y1207D01*
X1906Y1210D01*
X1903Y1210D01*
D02*
G37*
G36*
X3350Y1210D02*
X3349Y1210D01*
X3349Y1210D01*
X3348Y1210D01*
X3345Y1210D01*
X3341Y1208D01*
X3339Y1204D01*
X3339Y1201D01*
X3339Y1200D01*
X3339D01*
X3339Y1200D01*
X3339Y1200D01*
X3339Y1200D01*
X3339D01*
X3339Y1199D01*
X3339Y1196D01*
X3341Y1193D01*
X3345Y1190D01*
X3348Y1190D01*
X3350D01*
X3352Y1190D01*
X3356Y1193D01*
X3358Y1196D01*
X3359Y1199D01*
X3359Y1200D01*
X3359D01*
Y1200D01*
Y1200D01*
D01*
X3359Y1200D01*
X3359Y1200D01*
X3359D01*
X3359Y1201D01*
X3358Y1204D01*
X3356Y1208D01*
X3352Y1210D01*
X3350Y1210D01*
D02*
G37*
G36*
X543Y1210D02*
X542Y1210D01*
Y1210D01*
X541D01*
X538Y1210D01*
X535Y1207D01*
X532Y1204D01*
X532Y1201D01*
Y1200D01*
X532D01*
X532Y1200D01*
Y1199D01*
X532Y1196D01*
X535Y1193D01*
X538Y1191D01*
X541Y1190D01*
X542D01*
X544Y1190D01*
X549Y1193D01*
X551Y1196D01*
X552Y1199D01*
X552Y1201D01*
X552D01*
X552Y1201D01*
X552Y1204D01*
X550Y1207D01*
X546Y1210D01*
X543Y1210D01*
D02*
G37*
G36*
X1947Y1253D02*
X1946Y1253D01*
X1946Y1253D01*
X1945Y1253D01*
X1942Y1253D01*
X1939Y1251D01*
X1936Y1247D01*
X1936Y1244D01*
X1936Y1243D01*
X1935D01*
X1935Y1243D01*
X1936Y1240D01*
X1938Y1236D01*
X1942Y1234D01*
X1945Y1233D01*
X1946Y1233D01*
X1946D01*
X1947Y1233D01*
X1950Y1234D01*
X1953Y1236D01*
X1955Y1239D01*
X1956Y1242D01*
X1956Y1243D01*
X1956D01*
X1956Y1244D01*
X1955Y1247D01*
X1953Y1251D01*
X1950Y1253D01*
X1947Y1253D01*
D02*
G37*
G36*
X3350Y1254D02*
X3349Y1254D01*
X3349Y1254D01*
X3348Y1254D01*
X3345Y1253D01*
X3341Y1251D01*
X3339Y1248D01*
X3339Y1244D01*
X3339Y1243D01*
X3339D01*
X3339Y1243D01*
X3339Y1243D01*
X3339Y1243D01*
X3339D01*
X3339Y1242D01*
X3339Y1239D01*
X3341Y1236D01*
X3345Y1234D01*
X3348Y1233D01*
X3350D01*
X3352Y1234D01*
X3356Y1236D01*
X3358Y1239D01*
X3359Y1242D01*
X3359Y1243D01*
X3359D01*
Y1243D01*
Y1243D01*
D01*
X3359Y1243D01*
X3359Y1243D01*
X3359D01*
X3359Y1244D01*
X3358Y1248D01*
X3356Y1251D01*
X3352Y1253D01*
X3350Y1254D01*
D02*
G37*
G36*
X543Y1254D02*
X542Y1254D01*
Y1254D01*
X541D01*
X538Y1253D01*
X535Y1251D01*
X532Y1247D01*
X532Y1244D01*
Y1244D01*
X532Y1244D01*
X532D01*
X532Y1243D01*
X532Y1240D01*
X535Y1236D01*
X540Y1234D01*
X542Y1233D01*
X542Y1233D01*
X544Y1233D01*
X549Y1236D01*
X551Y1239D01*
X552Y1243D01*
X552Y1244D01*
X552D01*
X552Y1244D01*
X552Y1247D01*
X550Y1251D01*
X546Y1253D01*
X543Y1254D01*
D02*
G37*
G36*
X1990Y1254D02*
X1989Y1254D01*
X1989Y1254D01*
X1988Y1254D01*
X1985Y1253D01*
X1982Y1251D01*
X1979Y1248D01*
X1979Y1244D01*
X1979Y1243D01*
X1979D01*
X1979Y1243D01*
X1979Y1243D01*
X1979Y1243D01*
X1979D01*
X1979Y1242D01*
X1979Y1239D01*
X1982Y1236D01*
X1985Y1234D01*
X1988Y1233D01*
X1990D01*
X1993Y1234D01*
X1996Y1236D01*
X1998Y1239D01*
X1999Y1242D01*
X1999Y1243D01*
X1999D01*
Y1243D01*
Y1243D01*
D01*
X1999Y1243D01*
X1999Y1243D01*
X1999D01*
X1999Y1244D01*
X1998Y1248D01*
X1996Y1251D01*
X1993Y1253D01*
X1990Y1254D01*
D02*
G37*
G36*
X2670D02*
X2669Y1254D01*
X2669Y1254D01*
X2668Y1254D01*
X2665Y1253D01*
X2661Y1251D01*
X2659Y1248D01*
X2659Y1244D01*
X2659Y1243D01*
X2659D01*
X2659Y1243D01*
X2659Y1243D01*
X2659Y1243D01*
X2659D01*
X2659Y1242D01*
X2659Y1239D01*
X2661Y1236D01*
X2665Y1234D01*
X2668Y1233D01*
X2670D01*
X2672Y1234D01*
X2676Y1236D01*
X2678Y1239D01*
X2679Y1242D01*
X2679Y1243D01*
X2679D01*
Y1243D01*
Y1243D01*
D01*
X2679Y1243D01*
X2679Y1243D01*
X2679D01*
X2679Y1244D01*
X2678Y1248D01*
X2676Y1251D01*
X2672Y1253D01*
X2670Y1254D01*
D02*
G37*
G36*
X2583Y1254D02*
X2582Y1254D01*
Y1254D01*
X2581D01*
X2578Y1253D01*
X2575Y1251D01*
X2572Y1247D01*
X2572Y1244D01*
Y1244D01*
X2572Y1244D01*
X2572D01*
X2572Y1243D01*
X2572Y1240D01*
X2575Y1236D01*
X2580Y1234D01*
X2582Y1233D01*
X2582Y1233D01*
X2584Y1233D01*
X2589Y1236D01*
X2591Y1239D01*
X2592Y1243D01*
X2592Y1244D01*
X2592D01*
X2592Y1244D01*
X2592Y1247D01*
X2590Y1251D01*
X2586Y1253D01*
X2583Y1254D01*
D02*
G37*
G36*
X3263D02*
X3262Y1254D01*
Y1254D01*
X3261D01*
X3258Y1253D01*
X3255Y1251D01*
X3252Y1247D01*
X3252Y1244D01*
Y1244D01*
X3252Y1244D01*
X3252D01*
X3252Y1243D01*
X3252Y1240D01*
X3255Y1236D01*
X3260Y1234D01*
X3262Y1233D01*
X3262Y1233D01*
X3264Y1233D01*
X3269Y1236D01*
X3271Y1239D01*
X3272Y1243D01*
X3272Y1244D01*
X3272D01*
X3272Y1244D01*
X3272Y1247D01*
X3270Y1251D01*
X3266Y1253D01*
X3263Y1254D01*
D02*
G37*
G36*
X1223D02*
X1222Y1254D01*
Y1254D01*
X1221D01*
X1218Y1253D01*
X1215Y1251D01*
X1212Y1247D01*
X1212Y1244D01*
Y1244D01*
X1212Y1244D01*
X1212D01*
X1212Y1243D01*
X1212Y1240D01*
X1215Y1236D01*
X1220Y1234D01*
X1222Y1233D01*
X1222Y1233D01*
X1224Y1233D01*
X1229Y1236D01*
X1231Y1239D01*
X1232Y1243D01*
X1232Y1244D01*
X1232D01*
X1232Y1244D01*
X1232Y1247D01*
X1230Y1251D01*
X1226Y1253D01*
X1223Y1254D01*
D02*
G37*
G36*
X1903D02*
X1902Y1254D01*
Y1254D01*
X1901D01*
X1898Y1253D01*
X1895Y1251D01*
X1893Y1247D01*
X1892Y1244D01*
Y1244D01*
X1892Y1244D01*
X1892D01*
X1892Y1243D01*
X1893Y1240D01*
X1895Y1236D01*
X1900Y1234D01*
X1902Y1233D01*
X1902Y1233D01*
X1904Y1233D01*
X1909Y1236D01*
X1911Y1239D01*
X1912Y1243D01*
X1912Y1244D01*
X1913D01*
X1913Y1244D01*
X1912Y1247D01*
X1910Y1251D01*
X1906Y1253D01*
X1903Y1254D01*
D02*
G37*
G36*
X1310Y1254D02*
X1309Y1254D01*
X1309Y1254D01*
X1308Y1254D01*
X1305Y1253D01*
X1301Y1251D01*
X1299Y1248D01*
X1299Y1244D01*
X1299Y1243D01*
X1299D01*
X1299Y1243D01*
X1299Y1243D01*
X1299Y1243D01*
X1299D01*
X1299Y1242D01*
X1299Y1239D01*
X1301Y1236D01*
X1305Y1234D01*
X1308Y1233D01*
X1310D01*
X1312Y1234D01*
X1316Y1236D01*
X1318Y1239D01*
X1319Y1242D01*
X1319Y1243D01*
X1319D01*
Y1243D01*
Y1243D01*
D01*
X1319Y1243D01*
X1319Y1243D01*
X1319D01*
X1319Y1244D01*
X1318Y1248D01*
X1316Y1251D01*
X1312Y1253D01*
X1310Y1254D01*
D02*
G37*
G36*
X673Y1253D02*
X672Y1253D01*
X672Y1253D01*
X671Y1253D01*
X668Y1253D01*
X665Y1251D01*
X662Y1247D01*
X662Y1244D01*
X662Y1243D01*
X662D01*
X662Y1243D01*
X662Y1243D01*
X662Y1243D01*
X662D01*
X662Y1242D01*
X662Y1239D01*
X665Y1236D01*
X668Y1234D01*
X671Y1233D01*
X672Y1233D01*
X672D01*
X673Y1233D01*
X676Y1234D01*
X679Y1236D01*
X681Y1239D01*
X682Y1242D01*
X682Y1243D01*
X682D01*
X682Y1245D01*
X679Y1250D01*
X676Y1253D01*
X673Y1253D01*
D02*
G37*
G36*
X1353D02*
X1352Y1253D01*
X1352Y1253D01*
X1351Y1253D01*
X1348Y1253D01*
X1345Y1251D01*
X1342Y1247D01*
X1342Y1244D01*
X1342Y1243D01*
X1342D01*
X1342Y1243D01*
X1342Y1243D01*
X1342Y1243D01*
X1342D01*
X1342Y1242D01*
X1342Y1239D01*
X1345Y1236D01*
X1348Y1234D01*
X1351Y1233D01*
X1352Y1233D01*
X1352D01*
X1353Y1233D01*
X1356Y1234D01*
X1359Y1236D01*
X1361Y1239D01*
X1362Y1242D01*
X1362Y1243D01*
X1362D01*
X1362Y1245D01*
X1359Y1250D01*
X1356Y1253D01*
X1353Y1253D01*
D02*
G37*
G36*
X2626Y1253D02*
X2625Y1253D01*
X2625Y1253D01*
X2624Y1253D01*
X2622Y1253D01*
X2618Y1251D01*
X2616Y1247D01*
X2616Y1244D01*
X2616Y1243D01*
X2615D01*
X2615Y1243D01*
X2616Y1240D01*
X2618Y1236D01*
X2621Y1234D01*
X2625Y1233D01*
X2626Y1233D01*
X2626D01*
X2627Y1233D01*
X2629Y1234D01*
X2633Y1236D01*
X2635Y1239D01*
X2635Y1242D01*
X2635Y1243D01*
X2635D01*
X2635Y1244D01*
X2635Y1247D01*
X2633Y1251D01*
X2629Y1253D01*
X2626Y1253D01*
D02*
G37*
G36*
X3306D02*
X3305Y1253D01*
X3305Y1253D01*
X3304Y1253D01*
X3302Y1253D01*
X3298Y1251D01*
X3296Y1247D01*
X3296Y1244D01*
X3296Y1243D01*
X3295D01*
X3295Y1243D01*
X3296Y1240D01*
X3298Y1236D01*
X3301Y1234D01*
X3305Y1233D01*
X3306Y1233D01*
X3306D01*
X3307Y1233D01*
X3309Y1234D01*
X3313Y1236D01*
X3315Y1239D01*
X3315Y1242D01*
X3315Y1243D01*
X3315D01*
X3315Y1244D01*
X3315Y1247D01*
X3313Y1251D01*
X3309Y1253D01*
X3306Y1253D01*
D02*
G37*
G36*
X3393Y1253D02*
X3392Y1253D01*
X3392Y1253D01*
X3391Y1253D01*
X3388Y1253D01*
X3385Y1251D01*
X3382Y1247D01*
X3382Y1244D01*
X3382Y1243D01*
X3382D01*
X3382Y1243D01*
X3382Y1243D01*
X3382Y1243D01*
X3382D01*
X3382Y1242D01*
X3382Y1239D01*
X3385Y1236D01*
X3388Y1234D01*
X3391Y1233D01*
X3392Y1233D01*
X3392D01*
X3393Y1233D01*
X3396Y1234D01*
X3399Y1236D01*
X3401Y1239D01*
X3402Y1242D01*
X3402Y1243D01*
X3402D01*
X3402Y1245D01*
X3399Y1250D01*
X3396Y1253D01*
X3393Y1253D01*
D02*
G37*
G36*
X630Y1254D02*
X629Y1254D01*
X629Y1254D01*
X628Y1254D01*
X625Y1253D01*
X621Y1251D01*
X619Y1248D01*
X619Y1244D01*
X619Y1243D01*
X619D01*
X619Y1243D01*
X619Y1243D01*
X619Y1243D01*
X619D01*
X619Y1242D01*
X619Y1239D01*
X621Y1236D01*
X625Y1234D01*
X628Y1233D01*
X630D01*
X632Y1234D01*
X636Y1236D01*
X638Y1239D01*
X639Y1242D01*
X639Y1243D01*
X639D01*
Y1243D01*
Y1243D01*
D01*
X639Y1243D01*
X639Y1243D01*
X639D01*
X639Y1244D01*
X638Y1248D01*
X636Y1251D01*
X632Y1253D01*
X630Y1254D01*
D02*
G37*
G36*
X2033Y1253D02*
X2032Y1253D01*
X2032Y1253D01*
X2031Y1253D01*
X2028Y1253D01*
X2025Y1251D01*
X2023Y1247D01*
X2022Y1244D01*
X2022Y1243D01*
X2022D01*
X2022Y1243D01*
X2022Y1243D01*
X2022Y1243D01*
X2022D01*
X2022Y1242D01*
X2023Y1239D01*
X2025Y1236D01*
X2028Y1234D01*
X2031Y1233D01*
X2032Y1233D01*
X2032D01*
X2033Y1233D01*
X2036Y1234D01*
X2039Y1236D01*
X2041Y1239D01*
X2042Y1242D01*
X2042Y1243D01*
X2042D01*
X2042Y1245D01*
X2039Y1250D01*
X2036Y1253D01*
X2033Y1253D01*
D02*
G37*
G36*
X2713D02*
X2712Y1253D01*
X2712Y1253D01*
X2711Y1253D01*
X2708Y1253D01*
X2705Y1251D01*
X2702Y1247D01*
X2702Y1244D01*
X2702Y1243D01*
X2702D01*
X2702Y1243D01*
X2702Y1243D01*
X2702Y1243D01*
X2702D01*
X2702Y1242D01*
X2702Y1239D01*
X2705Y1236D01*
X2708Y1234D01*
X2711Y1233D01*
X2712Y1233D01*
X2712D01*
X2713Y1233D01*
X2716Y1234D01*
X2719Y1236D01*
X2721Y1239D01*
X2722Y1242D01*
X2722Y1243D01*
X2722D01*
X2722Y1245D01*
X2719Y1250D01*
X2716Y1253D01*
X2713Y1253D01*
D02*
G37*
G36*
X3393Y1210D02*
X3392Y1210D01*
X3392Y1210D01*
X3391Y1210D01*
X3388Y1209D01*
X3385Y1207D01*
X3382Y1204D01*
X3382Y1201D01*
X3382Y1200D01*
X3382D01*
X3382Y1200D01*
X3382Y1200D01*
X3382Y1200D01*
X3382D01*
X3382Y1199D01*
X3382Y1196D01*
X3385Y1193D01*
X3388Y1191D01*
X3391Y1190D01*
X3392Y1190D01*
X3392D01*
X3393Y1190D01*
X3396Y1191D01*
X3399Y1193D01*
X3401Y1196D01*
X3402Y1199D01*
X3402Y1200D01*
X3402D01*
X3402Y1202D01*
X3399Y1207D01*
X3396Y1209D01*
X3393Y1210D01*
D02*
G37*
G36*
X2033Y1167D02*
X2032Y1167D01*
X2032Y1167D01*
X2031Y1167D01*
X2028Y1166D01*
X2025Y1164D01*
X2023Y1161D01*
X2022Y1158D01*
X2022Y1157D01*
X2022D01*
X2022Y1157D01*
X2022Y1157D01*
X2022Y1157D01*
X2022D01*
X2022Y1156D01*
X2023Y1153D01*
X2025Y1150D01*
X2028Y1147D01*
X2031Y1147D01*
X2032Y1147D01*
X2032D01*
X2033Y1147D01*
X2036Y1147D01*
X2039Y1150D01*
X2041Y1153D01*
X2042Y1156D01*
X2042Y1157D01*
X2042D01*
X2042Y1159D01*
X2039Y1164D01*
X2036Y1166D01*
X2033Y1167D01*
D02*
G37*
G36*
X2713D02*
X2712Y1167D01*
X2712Y1167D01*
X2711Y1167D01*
X2708Y1166D01*
X2705Y1164D01*
X2702Y1161D01*
X2702Y1158D01*
X2702Y1157D01*
X2702D01*
X2702Y1157D01*
X2702Y1157D01*
X2702Y1157D01*
X2702D01*
X2702Y1156D01*
X2702Y1153D01*
X2705Y1150D01*
X2708Y1147D01*
X2711Y1147D01*
X2712Y1147D01*
X2712D01*
X2713Y1147D01*
X2716Y1147D01*
X2719Y1150D01*
X2721Y1153D01*
X2722Y1156D01*
X2722Y1157D01*
X2722D01*
X2722Y1159D01*
X2719Y1164D01*
X2716Y1166D01*
X2713Y1167D01*
D02*
G37*
G36*
X673D02*
X672Y1167D01*
X672Y1167D01*
X671Y1167D01*
X668Y1166D01*
X665Y1164D01*
X662Y1161D01*
X662Y1158D01*
X662Y1157D01*
X662D01*
X662Y1157D01*
X662Y1157D01*
X662Y1157D01*
X662D01*
X662Y1156D01*
X662Y1153D01*
X665Y1150D01*
X668Y1147D01*
X671Y1147D01*
X672Y1147D01*
X672D01*
X673Y1147D01*
X676Y1147D01*
X679Y1150D01*
X681Y1153D01*
X682Y1156D01*
X682Y1157D01*
X682D01*
X682Y1159D01*
X679Y1164D01*
X676Y1166D01*
X673Y1167D01*
D02*
G37*
G36*
X1353D02*
X1352Y1167D01*
X1352Y1167D01*
X1351Y1167D01*
X1348Y1166D01*
X1345Y1164D01*
X1342Y1161D01*
X1342Y1158D01*
X1342Y1157D01*
X1342D01*
X1342Y1157D01*
X1342Y1157D01*
X1342Y1157D01*
X1342D01*
X1342Y1156D01*
X1342Y1153D01*
X1345Y1150D01*
X1348Y1147D01*
X1351Y1147D01*
X1352Y1147D01*
X1352D01*
X1353Y1147D01*
X1356Y1147D01*
X1359Y1150D01*
X1361Y1153D01*
X1362Y1156D01*
X1362Y1157D01*
X1362D01*
X1362Y1159D01*
X1359Y1164D01*
X1356Y1166D01*
X1353Y1167D01*
D02*
G37*
G36*
X3393D02*
X3392Y1167D01*
X3392Y1167D01*
X3391Y1167D01*
X3388Y1166D01*
X3385Y1164D01*
X3382Y1161D01*
X3382Y1158D01*
X3382Y1157D01*
X3382D01*
X3382Y1157D01*
X3382Y1157D01*
X3382Y1157D01*
X3382D01*
X3382Y1156D01*
X3382Y1153D01*
X3385Y1150D01*
X3388Y1147D01*
X3391Y1147D01*
X3392Y1147D01*
X3392D01*
X3393Y1147D01*
X3396Y1147D01*
X3399Y1150D01*
X3401Y1153D01*
X3402Y1156D01*
X3402Y1157D01*
X3402D01*
X3402Y1159D01*
X3399Y1164D01*
X3396Y1166D01*
X3393Y1167D01*
D02*
G37*
G36*
X1990Y1167D02*
X1989Y1167D01*
X1989Y1167D01*
X1988Y1167D01*
X1985Y1166D01*
X1982Y1164D01*
X1979Y1161D01*
X1979Y1158D01*
X1979Y1157D01*
X1979D01*
X1979Y1157D01*
X1979Y1157D01*
X1979Y1157D01*
X1979D01*
X1979Y1156D01*
X1979Y1153D01*
X1982Y1149D01*
X1985Y1147D01*
X1988Y1147D01*
X1990D01*
X1993Y1147D01*
X1996Y1149D01*
X1998Y1153D01*
X1999Y1156D01*
X1999Y1157D01*
X1999D01*
Y1157D01*
Y1157D01*
D01*
X1999Y1157D01*
X1999Y1157D01*
X1999D01*
X1999Y1158D01*
X1998Y1161D01*
X1996Y1164D01*
X1993Y1166D01*
X1990Y1167D01*
D02*
G37*
G36*
X2670D02*
X2669Y1167D01*
X2669Y1167D01*
X2668Y1167D01*
X2665Y1166D01*
X2661Y1164D01*
X2659Y1161D01*
X2659Y1158D01*
X2659Y1157D01*
X2659D01*
X2659Y1157D01*
X2659Y1157D01*
X2659Y1157D01*
X2659D01*
X2659Y1156D01*
X2659Y1153D01*
X2661Y1149D01*
X2665Y1147D01*
X2668Y1147D01*
X2670D01*
X2672Y1147D01*
X2676Y1149D01*
X2678Y1153D01*
X2679Y1156D01*
X2679Y1157D01*
X2679D01*
Y1157D01*
Y1157D01*
D01*
X2679Y1157D01*
X2679Y1157D01*
X2679D01*
X2679Y1158D01*
X2678Y1161D01*
X2676Y1164D01*
X2672Y1166D01*
X2670Y1167D01*
D02*
G37*
G36*
X630D02*
X629Y1167D01*
X629Y1167D01*
X628Y1167D01*
X625Y1166D01*
X621Y1164D01*
X619Y1161D01*
X619Y1158D01*
X619Y1157D01*
X619D01*
X619Y1157D01*
X619Y1157D01*
X619Y1157D01*
X619D01*
X619Y1156D01*
X619Y1153D01*
X621Y1149D01*
X625Y1147D01*
X628Y1147D01*
X630D01*
X632Y1147D01*
X636Y1149D01*
X638Y1153D01*
X639Y1156D01*
X639Y1157D01*
X639D01*
Y1157D01*
Y1157D01*
D01*
X639Y1157D01*
X639Y1157D01*
X639D01*
X639Y1158D01*
X638Y1161D01*
X636Y1164D01*
X632Y1166D01*
X630Y1167D01*
D02*
G37*
G36*
X1310D02*
X1309Y1167D01*
X1309Y1167D01*
X1308Y1167D01*
X1305Y1166D01*
X1301Y1164D01*
X1299Y1161D01*
X1299Y1158D01*
X1299Y1157D01*
X1299D01*
X1299Y1157D01*
X1299Y1157D01*
X1299Y1157D01*
X1299D01*
X1299Y1156D01*
X1299Y1153D01*
X1301Y1149D01*
X1305Y1147D01*
X1308Y1147D01*
X1310D01*
X1312Y1147D01*
X1316Y1149D01*
X1318Y1153D01*
X1319Y1156D01*
X1319Y1157D01*
X1319D01*
Y1157D01*
Y1157D01*
D01*
X1319Y1157D01*
X1319Y1157D01*
X1319D01*
X1319Y1158D01*
X1318Y1161D01*
X1316Y1164D01*
X1312Y1166D01*
X1310Y1167D01*
D02*
G37*
G36*
X3306Y1167D02*
X3305Y1167D01*
X3305Y1167D01*
X3304Y1167D01*
X3302Y1166D01*
X3298Y1164D01*
X3296Y1161D01*
X3296Y1158D01*
X3296Y1157D01*
X3295D01*
X3295Y1156D01*
X3296Y1153D01*
X3298Y1150D01*
X3301Y1147D01*
X3305Y1147D01*
X3306Y1147D01*
X3306D01*
X3307Y1147D01*
X3309Y1147D01*
X3313Y1150D01*
X3315Y1153D01*
X3315Y1156D01*
X3315Y1157D01*
X3315D01*
X3315Y1158D01*
X3315Y1161D01*
X3313Y1164D01*
X3309Y1166D01*
X3306Y1167D01*
D02*
G37*
G36*
X2077Y1167D02*
X2076Y1167D01*
Y1167D01*
X2074Y1167D01*
X2069Y1164D01*
X2066Y1161D01*
X2066Y1158D01*
X2066Y1157D01*
X2065D01*
X2065Y1156D01*
X2066Y1153D01*
X2068Y1149D01*
X2071Y1147D01*
X2074Y1147D01*
X2075Y1147D01*
X2077D01*
X2083Y1149D01*
X2085Y1153D01*
X2086Y1156D01*
X2086Y1157D01*
X2085Y1157D01*
X2085Y1158D01*
X2085Y1161D01*
X2082Y1164D01*
X2079Y1166D01*
X2077Y1167D01*
D02*
G37*
G36*
X2756D02*
X2755Y1167D01*
Y1167D01*
X2753Y1167D01*
X2748Y1164D01*
X2746Y1161D01*
X2746Y1158D01*
X2746Y1157D01*
X2745D01*
X2745Y1156D01*
X2745Y1153D01*
X2748Y1149D01*
X2751Y1147D01*
X2754Y1147D01*
X2755Y1147D01*
X2757D01*
X2762Y1149D01*
X2765Y1153D01*
X2765Y1156D01*
X2765Y1157D01*
X2765Y1157D01*
Y1157D01*
Y1157D01*
D01*
X2765Y1158D01*
X2764Y1161D01*
X2762Y1164D01*
X2759Y1166D01*
X2756Y1167D01*
D02*
G37*
G36*
X716D02*
X715Y1167D01*
Y1167D01*
X713Y1167D01*
X708Y1164D01*
X706Y1161D01*
X706Y1158D01*
X706Y1157D01*
X705D01*
X705Y1156D01*
X705Y1153D01*
X708Y1149D01*
X711Y1147D01*
X714Y1147D01*
X715Y1147D01*
X717D01*
X722Y1149D01*
X725Y1153D01*
X725Y1156D01*
X725Y1157D01*
X725Y1157D01*
X725Y1158D01*
X724Y1161D01*
X722Y1164D01*
X719Y1166D01*
X716Y1167D01*
D02*
G37*
G36*
X1396D02*
X1395Y1167D01*
Y1167D01*
X1393Y1167D01*
X1388Y1164D01*
X1386Y1161D01*
X1386Y1158D01*
X1386Y1157D01*
X1385D01*
X1385Y1156D01*
X1385Y1153D01*
X1388Y1149D01*
X1391Y1147D01*
X1394Y1147D01*
X1395Y1147D01*
X1397D01*
X1402Y1149D01*
X1405Y1153D01*
X1405Y1156D01*
X1405Y1157D01*
X1405Y1157D01*
X1405Y1158D01*
X1404Y1161D01*
X1402Y1164D01*
X1399Y1166D01*
X1396Y1167D01*
D02*
G37*
G36*
X3436D02*
X3435Y1167D01*
Y1167D01*
X3433Y1167D01*
X3428Y1164D01*
X3426Y1161D01*
X3426Y1158D01*
X3426Y1157D01*
X3425D01*
X3425Y1156D01*
X3425Y1153D01*
X3428Y1149D01*
X3431Y1147D01*
X3434Y1147D01*
X3435Y1147D01*
X3437D01*
X3442Y1149D01*
X3445Y1153D01*
X3445Y1156D01*
X3445Y1157D01*
X3445Y1157D01*
Y1157D01*
Y1157D01*
D01*
X3445Y1158D01*
X3444Y1161D01*
X3442Y1164D01*
X3439Y1166D01*
X3436Y1167D01*
D02*
G37*
G36*
X1947Y1167D02*
X1946Y1167D01*
X1946Y1167D01*
X1945Y1167D01*
X1942Y1166D01*
X1939Y1164D01*
X1936Y1161D01*
X1936Y1158D01*
X1936Y1157D01*
X1935D01*
X1935Y1156D01*
X1936Y1153D01*
X1938Y1150D01*
X1942Y1147D01*
X1945Y1147D01*
X1946Y1147D01*
X1946D01*
X1947Y1147D01*
X1950Y1147D01*
X1953Y1150D01*
X1955Y1153D01*
X1956Y1156D01*
X1956Y1157D01*
X1956D01*
X1956Y1158D01*
X1955Y1161D01*
X1953Y1164D01*
X1950Y1166D01*
X1947Y1167D01*
D02*
G37*
G36*
X2626D02*
X2625Y1167D01*
X2625Y1167D01*
X2624Y1167D01*
X2622Y1166D01*
X2618Y1164D01*
X2616Y1161D01*
X2616Y1158D01*
X2616Y1157D01*
X2615D01*
X2615Y1156D01*
X2616Y1153D01*
X2618Y1150D01*
X2621Y1147D01*
X2625Y1147D01*
X2626Y1147D01*
X2626D01*
X2627Y1147D01*
X2629Y1147D01*
X2633Y1150D01*
X2635Y1153D01*
X2635Y1156D01*
X2635Y1157D01*
X2635D01*
X2635Y1158D01*
X2635Y1161D01*
X2633Y1164D01*
X2629Y1166D01*
X2626Y1167D01*
D02*
G37*
G36*
X586D02*
X585Y1167D01*
X585Y1167D01*
X584Y1167D01*
X582Y1166D01*
X578Y1164D01*
X576Y1161D01*
X576Y1158D01*
X576Y1157D01*
X575D01*
X575Y1156D01*
X576Y1153D01*
X578Y1150D01*
X581Y1147D01*
X585Y1147D01*
X586Y1147D01*
X586D01*
X587Y1147D01*
X589Y1147D01*
X593Y1150D01*
X595Y1153D01*
X595Y1156D01*
X595Y1157D01*
X595D01*
X595Y1158D01*
X595Y1161D01*
X593Y1164D01*
X589Y1166D01*
X586Y1167D01*
D02*
G37*
G36*
X1266D02*
X1265Y1167D01*
X1265Y1167D01*
X1264Y1167D01*
X1262Y1166D01*
X1258Y1164D01*
X1256Y1161D01*
X1256Y1158D01*
X1256Y1157D01*
X1255D01*
X1255Y1156D01*
X1256Y1153D01*
X1258Y1150D01*
X1261Y1147D01*
X1265Y1147D01*
X1266Y1147D01*
X1266D01*
X1267Y1147D01*
X1269Y1147D01*
X1273Y1150D01*
X1275Y1153D01*
X1275Y1156D01*
X1275Y1157D01*
X1275D01*
X1275Y1158D01*
X1275Y1161D01*
X1273Y1164D01*
X1269Y1166D01*
X1266Y1167D01*
D02*
G37*
G36*
X3350Y1167D02*
X3349Y1167D01*
X3349Y1167D01*
X3348Y1167D01*
X3345Y1166D01*
X3341Y1164D01*
X3339Y1161D01*
X3339Y1158D01*
X3339Y1157D01*
X3339D01*
X3339Y1157D01*
X3339Y1157D01*
X3339Y1157D01*
X3339D01*
X3339Y1156D01*
X3339Y1153D01*
X3341Y1149D01*
X3345Y1147D01*
X3348Y1147D01*
X3350D01*
X3352Y1147D01*
X3356Y1149D01*
X3358Y1153D01*
X3359Y1156D01*
X3359Y1157D01*
X3359D01*
Y1157D01*
Y1157D01*
D01*
X3359Y1157D01*
X3359Y1157D01*
X3359D01*
X3359Y1158D01*
X3358Y1161D01*
X3356Y1164D01*
X3352Y1166D01*
X3350Y1167D01*
D02*
G37*
G36*
X1947Y1210D02*
X1946Y1210D01*
X1946Y1210D01*
X1945Y1210D01*
X1942Y1209D01*
X1939Y1207D01*
X1936Y1204D01*
X1936Y1201D01*
X1936Y1200D01*
X1935D01*
X1935Y1200D01*
X1936Y1196D01*
X1938Y1193D01*
X1942Y1191D01*
X1945Y1190D01*
X1946Y1190D01*
X1946D01*
X1947Y1190D01*
X1950Y1191D01*
X1953Y1193D01*
X1955Y1196D01*
X1956Y1199D01*
X1956Y1200D01*
X1956D01*
X1956Y1201D01*
X1955Y1204D01*
X1953Y1207D01*
X1950Y1209D01*
X1947Y1210D01*
D02*
G37*
G36*
X2626D02*
X2625Y1210D01*
X2625Y1210D01*
X2624Y1210D01*
X2622Y1209D01*
X2618Y1207D01*
X2616Y1204D01*
X2616Y1201D01*
X2616Y1200D01*
X2615D01*
X2615Y1200D01*
X2616Y1196D01*
X2618Y1193D01*
X2621Y1191D01*
X2625Y1190D01*
X2626Y1190D01*
X2626D01*
X2627Y1190D01*
X2629Y1191D01*
X2633Y1193D01*
X2635Y1196D01*
X2635Y1199D01*
X2635Y1200D01*
X2635D01*
X2635Y1201D01*
X2635Y1204D01*
X2633Y1207D01*
X2629Y1209D01*
X2626Y1210D01*
D02*
G37*
G36*
X586D02*
X585Y1210D01*
X585Y1210D01*
X584Y1210D01*
X582Y1209D01*
X578Y1207D01*
X576Y1204D01*
X576Y1201D01*
X576Y1200D01*
X575D01*
X575Y1200D01*
X576Y1196D01*
X578Y1193D01*
X581Y1191D01*
X585Y1190D01*
X586Y1190D01*
X586D01*
X587Y1190D01*
X589Y1191D01*
X593Y1193D01*
X595Y1196D01*
X595Y1199D01*
X595Y1200D01*
X595D01*
X595Y1201D01*
X595Y1204D01*
X593Y1207D01*
X589Y1209D01*
X586Y1210D01*
D02*
G37*
G36*
X1266D02*
X1265Y1210D01*
X1265Y1210D01*
X1264Y1210D01*
X1262Y1209D01*
X1258Y1207D01*
X1256Y1204D01*
X1256Y1201D01*
X1256Y1200D01*
X1255D01*
X1255Y1200D01*
X1256Y1196D01*
X1258Y1193D01*
X1261Y1191D01*
X1265Y1190D01*
X1266Y1190D01*
X1266D01*
X1267Y1190D01*
X1269Y1191D01*
X1273Y1193D01*
X1275Y1196D01*
X1275Y1199D01*
X1275Y1200D01*
X1275D01*
X1275Y1201D01*
X1275Y1204D01*
X1273Y1207D01*
X1269Y1209D01*
X1266Y1210D01*
D02*
G37*
G36*
X3306D02*
X3305Y1210D01*
X3305Y1210D01*
X3304Y1210D01*
X3302Y1209D01*
X3298Y1207D01*
X3296Y1204D01*
X3296Y1201D01*
X3296Y1200D01*
X3295D01*
X3295Y1200D01*
X3296Y1196D01*
X3298Y1193D01*
X3301Y1191D01*
X3305Y1190D01*
X3306Y1190D01*
X3306D01*
X3307Y1190D01*
X3309Y1191D01*
X3313Y1193D01*
X3315Y1196D01*
X3315Y1199D01*
X3315Y1200D01*
X3315D01*
X3315Y1201D01*
X3315Y1204D01*
X3313Y1207D01*
X3309Y1209D01*
X3306Y1210D01*
D02*
G37*
G36*
X2033Y1210D02*
X2032Y1210D01*
X2032Y1210D01*
X2031Y1210D01*
X2028Y1209D01*
X2025Y1207D01*
X2023Y1204D01*
X2022Y1201D01*
X2022Y1200D01*
X2022D01*
X2022Y1200D01*
X2022Y1200D01*
X2022Y1200D01*
X2022D01*
X2022Y1199D01*
X2023Y1196D01*
X2025Y1193D01*
X2028Y1191D01*
X2031Y1190D01*
X2032Y1190D01*
X2032D01*
X2033Y1190D01*
X2036Y1191D01*
X2039Y1193D01*
X2041Y1196D01*
X2042Y1199D01*
X2042Y1200D01*
X2042D01*
X2042Y1202D01*
X2039Y1207D01*
X2036Y1209D01*
X2033Y1210D01*
D02*
G37*
G36*
X2713D02*
X2712Y1210D01*
X2712Y1210D01*
X2711Y1210D01*
X2708Y1209D01*
X2705Y1207D01*
X2702Y1204D01*
X2702Y1201D01*
X2702Y1200D01*
X2702D01*
X2702Y1200D01*
X2702Y1200D01*
X2702Y1200D01*
X2702D01*
X2702Y1199D01*
X2702Y1196D01*
X2705Y1193D01*
X2708Y1191D01*
X2711Y1190D01*
X2712Y1190D01*
X2712D01*
X2713Y1190D01*
X2716Y1191D01*
X2719Y1193D01*
X2721Y1196D01*
X2722Y1199D01*
X2722Y1200D01*
X2722D01*
X2722Y1202D01*
X2719Y1207D01*
X2716Y1209D01*
X2713Y1210D01*
D02*
G37*
G36*
X673D02*
X672Y1210D01*
X672Y1210D01*
X671Y1210D01*
X668Y1209D01*
X665Y1207D01*
X662Y1204D01*
X662Y1201D01*
X662Y1200D01*
X662D01*
X662Y1200D01*
X662Y1200D01*
X662Y1200D01*
X662D01*
X662Y1199D01*
X662Y1196D01*
X665Y1193D01*
X668Y1191D01*
X671Y1190D01*
X672Y1190D01*
X672D01*
X673Y1190D01*
X676Y1191D01*
X679Y1193D01*
X681Y1196D01*
X682Y1199D01*
X682Y1200D01*
X682D01*
X682Y1202D01*
X679Y1207D01*
X676Y1209D01*
X673Y1210D01*
D02*
G37*
G36*
X1353D02*
X1352Y1210D01*
X1352Y1210D01*
X1351Y1210D01*
X1348Y1209D01*
X1345Y1207D01*
X1342Y1204D01*
X1342Y1201D01*
X1342Y1200D01*
X1342D01*
X1342Y1200D01*
X1342Y1200D01*
X1342Y1200D01*
X1342D01*
X1342Y1199D01*
X1342Y1196D01*
X1345Y1193D01*
X1348Y1191D01*
X1351Y1190D01*
X1352Y1190D01*
X1352D01*
X1353Y1190D01*
X1356Y1191D01*
X1359Y1193D01*
X1361Y1196D01*
X1362Y1199D01*
X1362Y1200D01*
X1362D01*
X1362Y1202D01*
X1359Y1207D01*
X1356Y1209D01*
X1353Y1210D01*
D02*
G37*
G36*
X3436Y1210D02*
X3435Y1210D01*
Y1210D01*
X3433Y1210D01*
X3428Y1207D01*
X3426Y1204D01*
X3426Y1201D01*
X3426Y1200D01*
X3425D01*
X3425Y1199D01*
X3425Y1196D01*
X3428Y1193D01*
X3431Y1190D01*
X3434Y1190D01*
X3435Y1190D01*
X3437D01*
X3442Y1193D01*
X3445Y1196D01*
X3445Y1199D01*
X3445Y1201D01*
X3445Y1201D01*
Y1201D01*
Y1201D01*
D01*
X3445Y1201D01*
X3444Y1204D01*
X3442Y1207D01*
X3439Y1209D01*
X3436Y1210D01*
D02*
G37*
G36*
X1903Y1167D02*
X1902Y1167D01*
Y1167D01*
X1901D01*
X1898Y1166D01*
X1895Y1164D01*
X1893Y1161D01*
X1892Y1158D01*
Y1157D01*
X1892D01*
X1892Y1157D01*
Y1156D01*
X1893Y1153D01*
X1895Y1150D01*
X1898Y1147D01*
X1901Y1147D01*
X1902D01*
X1904Y1147D01*
X1909Y1150D01*
X1911Y1153D01*
X1912Y1156D01*
X1912Y1157D01*
X1913D01*
X1913Y1158D01*
X1912Y1161D01*
X1910Y1164D01*
X1906Y1166D01*
X1903Y1167D01*
D02*
G37*
G36*
X2583D02*
X2582Y1167D01*
Y1167D01*
X2581D01*
X2578Y1166D01*
X2575Y1164D01*
X2572Y1161D01*
X2572Y1158D01*
Y1157D01*
X2572D01*
X2572Y1157D01*
Y1156D01*
X2572Y1153D01*
X2575Y1150D01*
X2578Y1147D01*
X2581Y1147D01*
X2582D01*
X2584Y1147D01*
X2589Y1150D01*
X2591Y1153D01*
X2592Y1156D01*
X2592Y1157D01*
X2592D01*
X2592Y1158D01*
X2592Y1161D01*
X2590Y1164D01*
X2586Y1166D01*
X2583Y1167D01*
D02*
G37*
G36*
X543D02*
X542Y1167D01*
Y1167D01*
X541D01*
X538Y1166D01*
X535Y1164D01*
X532Y1161D01*
X532Y1158D01*
Y1157D01*
X532D01*
X532Y1157D01*
Y1156D01*
X532Y1153D01*
X535Y1150D01*
X538Y1147D01*
X541Y1147D01*
X542D01*
X544Y1147D01*
X549Y1150D01*
X551Y1153D01*
X552Y1156D01*
X552Y1157D01*
X552D01*
X552Y1158D01*
X552Y1161D01*
X550Y1164D01*
X546Y1166D01*
X543Y1167D01*
D02*
G37*
G36*
X1223D02*
X1222Y1167D01*
Y1167D01*
X1221D01*
X1218Y1166D01*
X1215Y1164D01*
X1212Y1161D01*
X1212Y1158D01*
Y1157D01*
X1212D01*
X1212Y1157D01*
Y1156D01*
X1212Y1153D01*
X1215Y1150D01*
X1218Y1147D01*
X1221Y1147D01*
X1222D01*
X1224Y1147D01*
X1229Y1150D01*
X1231Y1153D01*
X1232Y1156D01*
X1232Y1157D01*
X1232D01*
X1232Y1158D01*
X1232Y1161D01*
X1230Y1164D01*
X1226Y1166D01*
X1223Y1167D01*
D02*
G37*
G36*
X3263D02*
X3262Y1167D01*
Y1167D01*
X3261D01*
X3258Y1166D01*
X3255Y1164D01*
X3252Y1161D01*
X3252Y1158D01*
Y1157D01*
X3252D01*
X3252Y1157D01*
Y1156D01*
X3252Y1153D01*
X3255Y1150D01*
X3258Y1147D01*
X3261Y1147D01*
X3262D01*
X3264Y1147D01*
X3269Y1150D01*
X3271Y1153D01*
X3272Y1156D01*
X3272Y1157D01*
X3272D01*
X3272Y1158D01*
X3272Y1161D01*
X3270Y1164D01*
X3266Y1166D01*
X3263Y1167D01*
D02*
G37*
G36*
X2077Y1210D02*
X2076Y1210D01*
Y1210D01*
X2074Y1210D01*
X2069Y1207D01*
X2066Y1204D01*
X2066Y1201D01*
X2066Y1200D01*
X2065D01*
X2065Y1199D01*
X2066Y1196D01*
X2068Y1193D01*
X2071Y1190D01*
X2074Y1190D01*
X2075Y1190D01*
X2077D01*
X2083Y1193D01*
X2085Y1196D01*
X2086Y1199D01*
X2086Y1201D01*
X2085Y1201D01*
X2085Y1201D01*
X2085Y1204D01*
X2082Y1207D01*
X2079Y1209D01*
X2077Y1210D01*
D02*
G37*
G36*
X2756D02*
X2755Y1210D01*
Y1210D01*
X2753Y1210D01*
X2748Y1207D01*
X2746Y1204D01*
X2746Y1201D01*
X2746Y1200D01*
X2745D01*
X2745Y1199D01*
X2745Y1196D01*
X2748Y1193D01*
X2751Y1190D01*
X2754Y1190D01*
X2755Y1190D01*
X2757D01*
X2762Y1193D01*
X2765Y1196D01*
X2765Y1199D01*
X2765Y1201D01*
X2765Y1201D01*
Y1201D01*
Y1201D01*
D01*
X2765Y1201D01*
X2764Y1204D01*
X2762Y1207D01*
X2759Y1209D01*
X2756Y1210D01*
D02*
G37*
G36*
X716D02*
X715Y1210D01*
Y1210D01*
X713Y1210D01*
X708Y1207D01*
X706Y1204D01*
X706Y1201D01*
X706Y1200D01*
X705D01*
X705Y1199D01*
X705Y1196D01*
X708Y1193D01*
X711Y1190D01*
X714Y1190D01*
X715Y1190D01*
X717D01*
X722Y1193D01*
X725Y1196D01*
X725Y1199D01*
X725Y1201D01*
X725Y1201D01*
X725Y1201D01*
X724Y1204D01*
X722Y1207D01*
X719Y1209D01*
X716Y1210D01*
D02*
G37*
G36*
X1396D02*
X1395Y1210D01*
Y1210D01*
X1393Y1210D01*
X1388Y1207D01*
X1386Y1204D01*
X1386Y1201D01*
X1386Y1200D01*
X1385D01*
X1385Y1199D01*
X1385Y1196D01*
X1388Y1193D01*
X1391Y1190D01*
X1394Y1190D01*
X1395Y1190D01*
X1397D01*
X1402Y1193D01*
X1405Y1196D01*
X1405Y1199D01*
X1405Y1201D01*
X1405Y1201D01*
X1405Y1201D01*
X1404Y1204D01*
X1402Y1207D01*
X1399Y1209D01*
X1396Y1210D01*
D02*
G37*
G36*
X2028Y3648D02*
X2026D01*
X2023Y3647D01*
X2020Y3645D01*
X2018Y3642D01*
X2017Y3639D01*
Y3638D01*
Y3637D01*
X2016D01*
Y3637D01*
X2017Y3634D01*
X2019Y3630D01*
X2023Y3628D01*
X2026Y3627D01*
X2028D01*
X2031Y3628D01*
X2034Y3630D01*
X2037Y3633D01*
X2037Y3636D01*
Y3637D01*
X2037D01*
Y3638D01*
Y3639D01*
X2036Y3642D01*
X2034Y3645D01*
X2031Y3647D01*
X2028Y3648D01*
D02*
G37*
G36*
X2068D02*
X2066D01*
X2064Y3647D01*
X2060Y3645D01*
X2058Y3642D01*
X2058Y3639D01*
Y3638D01*
Y3637D01*
X2057D01*
Y3636D01*
X2057Y3633D01*
X2059Y3630D01*
X2063Y3628D01*
X2066Y3627D01*
X2068D01*
X2071Y3628D01*
X2074Y3630D01*
X2077Y3634D01*
X2077Y3637D01*
X2077D01*
Y3638D01*
Y3639D01*
X2077Y3642D01*
X2075Y3645D01*
X2071Y3647D01*
X2068Y3648D01*
D02*
G37*
G36*
X1989Y3649D02*
X1987D01*
X1984Y3648D01*
X1980Y3646D01*
X1978Y3642D01*
X1977Y3639D01*
Y3638D01*
Y3637D01*
Y3636D01*
X1977Y3633D01*
X1980Y3630D01*
X1983Y3628D01*
X1986Y3627D01*
X1988D01*
X1991Y3628D01*
X1994Y3630D01*
X1997Y3634D01*
X1997Y3637D01*
Y3637D01*
X1997D01*
Y3640D01*
Y3641D01*
X1996Y3644D01*
X1994Y3646D01*
X1991Y3648D01*
X1989Y3649D01*
D02*
G37*
G36*
X1707Y3648D02*
X1705D01*
X1702Y3647D01*
X1699Y3645D01*
X1697Y3642D01*
X1696Y3639D01*
Y3638D01*
Y3637D01*
X1695D01*
Y3637D01*
X1696Y3634D01*
X1698Y3630D01*
X1702Y3628D01*
X1705Y3627D01*
X1707D01*
X1710Y3628D01*
X1713Y3630D01*
X1716Y3634D01*
X1716Y3637D01*
Y3637D01*
X1716D01*
Y3638D01*
Y3639D01*
X1715Y3642D01*
X1713Y3645D01*
X1710Y3647D01*
X1707Y3648D01*
D02*
G37*
G36*
X1948D02*
X1946D01*
X1944Y3647D01*
X1940Y3645D01*
X1938Y3642D01*
X1938Y3639D01*
Y3638D01*
Y3637D01*
X1937D01*
Y3637D01*
X1937Y3634D01*
X1940Y3630D01*
X1943Y3628D01*
X1946Y3627D01*
X1948D01*
X1951Y3628D01*
X1955Y3630D01*
X1957Y3633D01*
X1957Y3636D01*
Y3637D01*
X1956D01*
Y3639D01*
Y3640D01*
X1956Y3643D01*
X1954Y3645D01*
X1951Y3647D01*
X1948Y3648D01*
D02*
G37*
G36*
X2484D02*
X2482D01*
X2479Y3647D01*
X2476Y3645D01*
X2473Y3642D01*
X2473Y3639D01*
Y3638D01*
Y3637D01*
X2472D01*
Y3637D01*
X2473Y3634D01*
X2475Y3630D01*
X2478Y3628D01*
X2482Y3627D01*
X2484D01*
X2487Y3628D01*
X2490Y3630D01*
X2492Y3633D01*
X2493Y3636D01*
Y3637D01*
X2492D01*
Y3638D01*
Y3639D01*
X2492Y3642D01*
X2490Y3645D01*
X2486Y3647D01*
X2484Y3648D01*
D02*
G37*
G36*
X2524D02*
X2522D01*
X2519Y3647D01*
X2516Y3645D01*
X2514Y3642D01*
X2513Y3639D01*
Y3638D01*
Y3637D01*
X2512D01*
Y3636D01*
X2513Y3633D01*
X2515Y3630D01*
X2518Y3628D01*
X2521Y3627D01*
X2523D01*
X2526Y3628D01*
X2530Y3630D01*
X2532Y3634D01*
X2533Y3637D01*
X2533D01*
Y3638D01*
Y3639D01*
X2532Y3642D01*
X2530Y3645D01*
X2527Y3647D01*
X2524Y3648D01*
D02*
G37*
G36*
X2444Y3649D02*
X2442D01*
X2439Y3648D01*
X2435Y3646D01*
X2433Y3642D01*
X2432Y3639D01*
Y3638D01*
Y3637D01*
Y3636D01*
X2433Y3633D01*
X2435Y3630D01*
X2438Y3628D01*
X2441Y3627D01*
X2443D01*
X2446Y3628D01*
X2450Y3630D01*
X2452Y3634D01*
X2453Y3637D01*
Y3637D01*
X2452D01*
Y3640D01*
Y3641D01*
X2452Y3644D01*
X2450Y3646D01*
X2447Y3648D01*
X2444Y3649D01*
D02*
G37*
G36*
X2108Y3648D02*
X2106D01*
X2103Y3647D01*
X2100Y3645D01*
X2098Y3642D01*
X2097Y3639D01*
Y3638D01*
Y3637D01*
X2096D01*
Y3637D01*
X2097Y3634D01*
X2099Y3630D01*
X2103Y3628D01*
X2106Y3627D01*
X2108D01*
X2111Y3628D01*
X2114Y3630D01*
X2117Y3634D01*
X2117Y3637D01*
Y3637D01*
X2117D01*
Y3638D01*
Y3639D01*
X2116Y3642D01*
X2114Y3645D01*
X2111Y3647D01*
X2108Y3648D01*
D02*
G37*
G36*
X2404D02*
X2402D01*
X2399Y3647D01*
X2396Y3645D01*
X2394Y3642D01*
X2393Y3639D01*
Y3638D01*
Y3637D01*
X2392D01*
Y3637D01*
X2393Y3634D01*
X2395Y3630D01*
X2399Y3628D01*
X2402Y3627D01*
X2404D01*
X2407Y3628D01*
X2410Y3630D01*
X2412Y3633D01*
X2413Y3636D01*
Y3637D01*
X2412D01*
Y3639D01*
Y3640D01*
X2411Y3643D01*
X2409Y3645D01*
X2406Y3647D01*
X2404Y3648D01*
D02*
G37*
G36*
X1229D02*
X1227D01*
X1224Y3647D01*
X1221Y3645D01*
X1218Y3642D01*
X1218Y3639D01*
Y3638D01*
Y3637D01*
X1217D01*
Y3637D01*
X1218Y3634D01*
X1220Y3630D01*
X1223Y3628D01*
X1227Y3627D01*
X1229D01*
X1232Y3628D01*
X1235Y3630D01*
X1237Y3633D01*
X1238Y3636D01*
Y3637D01*
X1237D01*
Y3638D01*
Y3639D01*
X1237Y3642D01*
X1235Y3645D01*
X1231Y3647D01*
X1229Y3648D01*
D02*
G37*
G36*
X1269D02*
X1267D01*
X1264Y3647D01*
X1261Y3645D01*
X1259Y3642D01*
X1258Y3639D01*
Y3638D01*
Y3637D01*
X1257D01*
Y3636D01*
X1258Y3633D01*
X1260Y3630D01*
X1263Y3628D01*
X1266Y3627D01*
X1268D01*
X1271Y3628D01*
X1275Y3630D01*
X1277Y3634D01*
X1278Y3637D01*
X1278D01*
Y3638D01*
Y3639D01*
X1277Y3642D01*
X1275Y3645D01*
X1272Y3647D01*
X1269Y3648D01*
D02*
G37*
G36*
X1189Y3649D02*
X1187D01*
X1184Y3648D01*
X1180Y3646D01*
X1178Y3642D01*
X1177Y3639D01*
Y3638D01*
Y3637D01*
Y3636D01*
X1178Y3633D01*
X1180Y3630D01*
X1183Y3628D01*
X1186Y3627D01*
X1188D01*
X1191Y3628D01*
X1195Y3630D01*
X1197Y3634D01*
X1198Y3637D01*
Y3637D01*
X1197D01*
Y3640D01*
Y3641D01*
X1197Y3644D01*
X1195Y3646D01*
X1192Y3648D01*
X1189Y3649D01*
D02*
G37*
G36*
X2563Y3608D02*
X2561D01*
X2558Y3607D01*
X2555Y3605D01*
X2553Y3602D01*
X2552Y3599D01*
Y3598D01*
Y3597D01*
X2552D01*
X2552Y3594D01*
X2555Y3591D01*
X2558Y3589D01*
X2561Y3588D01*
X2563D01*
X2566Y3589D01*
X2570Y3591D01*
X2572Y3594D01*
X2573Y3597D01*
X2572D01*
Y3598D01*
Y3599D01*
X2572Y3602D01*
X2569Y3605D01*
X2566Y3607D01*
X2563Y3608D01*
D02*
G37*
G36*
X1149Y3648D02*
X1147D01*
X1144Y3647D01*
X1141Y3645D01*
X1139Y3642D01*
X1138Y3639D01*
Y3638D01*
Y3637D01*
X1137D01*
Y3637D01*
X1138Y3634D01*
X1140Y3630D01*
X1144Y3628D01*
X1147Y3627D01*
X1149D01*
X1152Y3628D01*
X1155Y3630D01*
X1157Y3633D01*
X1158Y3636D01*
Y3637D01*
X1157D01*
Y3639D01*
Y3640D01*
X1156Y3643D01*
X1154Y3645D01*
X1151Y3647D01*
X1149Y3648D01*
D02*
G37*
G36*
X1627D02*
X1625D01*
X1622Y3647D01*
X1619Y3645D01*
X1617Y3642D01*
X1616Y3639D01*
Y3638D01*
Y3637D01*
X1615D01*
Y3637D01*
X1616Y3634D01*
X1618Y3630D01*
X1622Y3628D01*
X1625Y3627D01*
X1627D01*
X1630Y3628D01*
X1633Y3630D01*
X1636Y3633D01*
X1636Y3636D01*
Y3637D01*
X1636D01*
Y3638D01*
Y3639D01*
X1635Y3642D01*
X1633Y3645D01*
X1630Y3647D01*
X1627Y3648D01*
D02*
G37*
G36*
X1667D02*
X1665D01*
X1663Y3647D01*
X1659Y3645D01*
X1657Y3642D01*
X1657Y3639D01*
Y3638D01*
Y3637D01*
X1656D01*
Y3636D01*
X1656Y3633D01*
X1658Y3630D01*
X1662Y3628D01*
X1665Y3627D01*
X1667D01*
X1670Y3628D01*
X1673Y3630D01*
X1676Y3634D01*
X1676Y3637D01*
X1676D01*
Y3638D01*
Y3639D01*
X1676Y3642D01*
X1674Y3645D01*
X1670Y3647D01*
X1667Y3648D01*
D02*
G37*
G36*
X1588Y3649D02*
X1586D01*
X1583Y3648D01*
X1579Y3646D01*
X1577Y3642D01*
X1576Y3639D01*
Y3638D01*
Y3637D01*
Y3636D01*
X1576Y3633D01*
X1579Y3630D01*
X1582Y3628D01*
X1585Y3627D01*
X1587D01*
X1590Y3628D01*
X1593Y3630D01*
X1596Y3634D01*
X1596Y3637D01*
Y3637D01*
X1596D01*
Y3640D01*
Y3641D01*
X1595Y3644D01*
X1593Y3646D01*
X1590Y3648D01*
X1588Y3649D01*
D02*
G37*
G36*
X1308Y3648D02*
X1306D01*
X1303Y3647D01*
X1300Y3645D01*
X1298Y3642D01*
X1297Y3639D01*
Y3638D01*
Y3637D01*
X1296D01*
Y3637D01*
X1297Y3634D01*
X1300Y3630D01*
X1303Y3628D01*
X1306Y3627D01*
X1308D01*
X1311Y3628D01*
X1315Y3630D01*
X1317Y3634D01*
X1318Y3637D01*
Y3637D01*
X1317D01*
Y3638D01*
Y3639D01*
X1317Y3642D01*
X1314Y3645D01*
X1311Y3647D01*
X1308Y3648D01*
D02*
G37*
G36*
X1547D02*
X1545D01*
X1543Y3647D01*
X1539Y3645D01*
X1537Y3642D01*
X1537Y3639D01*
Y3638D01*
Y3637D01*
X1536D01*
Y3637D01*
X1536Y3634D01*
X1539Y3630D01*
X1542Y3628D01*
X1545Y3627D01*
X1547D01*
X1550Y3628D01*
X1554Y3630D01*
X1556Y3633D01*
X1556Y3636D01*
Y3637D01*
X1555D01*
Y3639D01*
Y3640D01*
X1555Y3643D01*
X1553Y3645D01*
X1550Y3647D01*
X1547Y3648D01*
D02*
G37*
G36*
X2563D02*
X2561D01*
X2558Y3647D01*
X2555Y3645D01*
X2553Y3642D01*
X2552Y3639D01*
Y3638D01*
Y3637D01*
X2551D01*
Y3637D01*
X2552Y3634D01*
X2555Y3630D01*
X2558Y3628D01*
X2561Y3627D01*
X2563D01*
X2566Y3628D01*
X2570Y3630D01*
X2572Y3634D01*
X2573Y3637D01*
Y3637D01*
X2572D01*
Y3638D01*
Y3639D01*
X2572Y3642D01*
X2569Y3645D01*
X2566Y3647D01*
X2563Y3648D01*
D02*
G37*
G36*
X2068Y3689D02*
X2066D01*
X2063Y3689D01*
X2060Y3686D01*
X2057Y3683D01*
X2057Y3680D01*
Y3678D01*
Y3677D01*
Y3676D01*
X2057Y3674D01*
X2059Y3670D01*
X2063Y3668D01*
X2066Y3668D01*
X2068D01*
X2071Y3668D01*
X2074Y3671D01*
X2077Y3674D01*
X2077Y3677D01*
Y3679D01*
Y3680D01*
X2077Y3683D01*
X2075Y3687D01*
X2071Y3689D01*
X2068Y3689D01*
D02*
G37*
G36*
X2108D02*
X2106D01*
X2103Y3689D01*
X2099Y3686D01*
X2097Y3683D01*
X2096Y3680D01*
Y3678D01*
Y3677D01*
X2097Y3674D01*
X2099Y3671D01*
X2103Y3668D01*
X2106Y3668D01*
X2108D01*
X2111Y3668D01*
X2114Y3671D01*
X2117Y3674D01*
X2117Y3677D01*
Y3678D01*
Y3681D01*
X2117Y3683D01*
X2115Y3686D01*
X2111Y3689D01*
X2108Y3689D01*
D02*
G37*
G36*
X2029Y3688D02*
X2026D01*
X2023Y3688D01*
X2019Y3685D01*
X2017Y3682D01*
X2016Y3680D01*
Y3678D01*
Y3677D01*
X2017Y3674D01*
X2019Y3671D01*
X2023Y3668D01*
X2026Y3668D01*
X2028D01*
X2031Y3668D01*
X2034Y3670D01*
X2037Y3674D01*
X2037Y3676D01*
X2037D01*
Y3679D01*
Y3680D01*
X2036Y3683D01*
X2034Y3686D01*
X2032Y3688D01*
X2029Y3688D01*
D02*
G37*
G36*
X1948Y3689D02*
X1947D01*
X1947Y3689D01*
X1946D01*
X1943Y3688D01*
X1939Y3685D01*
X1937Y3682D01*
X1937Y3680D01*
X1937D01*
Y3678D01*
Y3677D01*
X1937Y3674D01*
X1940Y3671D01*
X1943Y3668D01*
X1946Y3668D01*
X1948D01*
X1951Y3668D01*
X1955Y3670D01*
X1957Y3674D01*
X1957Y3677D01*
Y3677D01*
X1957D01*
X1957Y3679D01*
Y3680D01*
X1957Y3683D01*
X1954Y3686D01*
X1951Y3689D01*
X1948Y3689D01*
D02*
G37*
G36*
X1988Y3689D02*
X1986D01*
X1983Y3689D01*
X1980Y3687D01*
X1977Y3683D01*
X1977Y3680D01*
Y3679D01*
Y3677D01*
Y3676D01*
X1977Y3674D01*
X1980Y3670D01*
X1983Y3668D01*
X1986Y3668D01*
X1988D01*
X1991Y3668D01*
X1994Y3671D01*
X1997Y3674D01*
X1997Y3677D01*
Y3678D01*
Y3681D01*
X1997Y3683D01*
X1995Y3686D01*
X1991Y3689D01*
X1988Y3689D01*
D02*
G37*
G36*
X2524D02*
X2522D01*
X2519Y3689D01*
X2515Y3686D01*
X2513Y3683D01*
X2512Y3680D01*
Y3678D01*
Y3677D01*
Y3676D01*
X2513Y3674D01*
X2515Y3670D01*
X2518Y3668D01*
X2521Y3668D01*
X2523D01*
X2526Y3668D01*
X2530Y3671D01*
X2532Y3674D01*
X2533Y3677D01*
Y3679D01*
Y3680D01*
X2532Y3683D01*
X2530Y3687D01*
X2527Y3689D01*
X2524Y3689D01*
D02*
G37*
G36*
X2563D02*
X2561D01*
X2558Y3689D01*
X2555Y3686D01*
X2552Y3683D01*
X2551Y3680D01*
Y3678D01*
Y3677D01*
X2552Y3674D01*
X2555Y3671D01*
X2558Y3668D01*
X2561Y3668D01*
X2563D01*
X2566Y3668D01*
X2570Y3671D01*
X2572Y3674D01*
X2573Y3677D01*
Y3678D01*
Y3681D01*
X2573Y3683D01*
X2570Y3686D01*
X2567Y3689D01*
X2563Y3689D01*
D02*
G37*
G36*
X2484Y3688D02*
X2482D01*
X2478Y3688D01*
X2475Y3685D01*
X2472Y3682D01*
X2472Y3680D01*
Y3678D01*
Y3677D01*
X2473Y3674D01*
X2475Y3671D01*
X2478Y3668D01*
X2482Y3668D01*
X2484D01*
X2487Y3668D01*
X2490Y3670D01*
X2492Y3674D01*
X2493Y3676D01*
X2492D01*
Y3679D01*
Y3680D01*
X2492Y3683D01*
X2490Y3686D01*
X2487Y3688D01*
X2484Y3688D01*
D02*
G37*
G36*
X2404Y3689D02*
X2403D01*
X2403Y3689D01*
X2402D01*
X2398Y3688D01*
X2395Y3685D01*
X2392Y3682D01*
X2392Y3680D01*
X2392D01*
Y3678D01*
Y3677D01*
X2393Y3674D01*
X2395Y3671D01*
X2399Y3668D01*
X2402Y3668D01*
X2404D01*
X2407Y3668D01*
X2410Y3670D01*
X2412Y3674D01*
X2413Y3677D01*
Y3677D01*
X2413D01*
X2413Y3679D01*
Y3680D01*
X2412Y3683D01*
X2410Y3686D01*
X2407Y3689D01*
X2404Y3689D01*
D02*
G37*
G36*
X2443Y3689D02*
X2441D01*
X2438Y3689D01*
X2435Y3687D01*
X2433Y3683D01*
X2432Y3680D01*
Y3679D01*
Y3677D01*
Y3676D01*
X2433Y3674D01*
X2435Y3670D01*
X2438Y3668D01*
X2441Y3668D01*
X2443D01*
X2446Y3668D01*
X2450Y3671D01*
X2452Y3674D01*
X2453Y3677D01*
Y3678D01*
Y3681D01*
X2452Y3683D01*
X2450Y3686D01*
X2446Y3689D01*
X2443Y3689D01*
D02*
G37*
G36*
X1269D02*
X1267D01*
X1264Y3689D01*
X1260Y3686D01*
X1258Y3683D01*
X1257Y3680D01*
Y3678D01*
Y3677D01*
Y3676D01*
X1258Y3674D01*
X1260Y3670D01*
X1263Y3668D01*
X1266Y3668D01*
X1268D01*
X1271Y3668D01*
X1275Y3671D01*
X1277Y3674D01*
X1278Y3677D01*
Y3679D01*
Y3680D01*
X1277Y3683D01*
X1275Y3687D01*
X1272Y3689D01*
X1269Y3689D01*
D02*
G37*
G36*
X1308D02*
X1306D01*
X1303Y3689D01*
X1300Y3686D01*
X1297Y3683D01*
X1296Y3680D01*
Y3678D01*
Y3677D01*
X1297Y3674D01*
X1300Y3671D01*
X1303Y3668D01*
X1306Y3668D01*
X1308D01*
X1311Y3668D01*
X1315Y3671D01*
X1317Y3674D01*
X1318Y3677D01*
Y3678D01*
Y3681D01*
X1318Y3683D01*
X1315Y3686D01*
X1312Y3689D01*
X1308Y3689D01*
D02*
G37*
G36*
X1229Y3688D02*
X1227D01*
X1223Y3688D01*
X1220Y3685D01*
X1217Y3682D01*
X1217Y3680D01*
Y3678D01*
Y3677D01*
X1218Y3674D01*
X1220Y3671D01*
X1223Y3668D01*
X1227Y3668D01*
X1229D01*
X1232Y3668D01*
X1235Y3670D01*
X1237Y3674D01*
X1238Y3676D01*
X1237D01*
Y3679D01*
Y3680D01*
X1237Y3683D01*
X1235Y3686D01*
X1232Y3688D01*
X1229Y3688D01*
D02*
G37*
G36*
X1149Y3689D02*
X1148D01*
X1148Y3689D01*
X1147D01*
X1143Y3688D01*
X1140Y3685D01*
X1137Y3682D01*
X1137Y3680D01*
X1137D01*
Y3678D01*
Y3677D01*
X1138Y3674D01*
X1140Y3671D01*
X1144Y3668D01*
X1147Y3668D01*
X1149D01*
X1152Y3668D01*
X1155Y3670D01*
X1157Y3674D01*
X1158Y3677D01*
Y3677D01*
X1158D01*
X1158Y3679D01*
Y3680D01*
X1157Y3683D01*
X1155Y3686D01*
X1152Y3689D01*
X1149Y3689D01*
D02*
G37*
G36*
X1188Y3689D02*
X1186D01*
X1183Y3689D01*
X1180Y3687D01*
X1178Y3683D01*
X1177Y3680D01*
Y3679D01*
Y3677D01*
Y3676D01*
X1178Y3674D01*
X1180Y3670D01*
X1183Y3668D01*
X1186Y3668D01*
X1188D01*
X1191Y3668D01*
X1195Y3671D01*
X1197Y3674D01*
X1198Y3677D01*
Y3678D01*
Y3681D01*
X1197Y3683D01*
X1195Y3686D01*
X1191Y3689D01*
X1188Y3689D01*
D02*
G37*
G36*
X1667D02*
X1665D01*
X1662Y3689D01*
X1659Y3686D01*
X1656Y3683D01*
X1656Y3680D01*
Y3678D01*
Y3677D01*
Y3676D01*
X1656Y3674D01*
X1658Y3670D01*
X1662Y3668D01*
X1665Y3668D01*
X1667D01*
X1670Y3668D01*
X1673Y3671D01*
X1676Y3674D01*
X1676Y3677D01*
Y3679D01*
Y3680D01*
X1676Y3683D01*
X1674Y3687D01*
X1670Y3689D01*
X1667Y3689D01*
D02*
G37*
G36*
X1707D02*
X1705D01*
X1702Y3689D01*
X1698Y3686D01*
X1696Y3683D01*
X1695Y3680D01*
Y3678D01*
Y3677D01*
X1696Y3674D01*
X1698Y3671D01*
X1702Y3668D01*
X1705Y3668D01*
X1707D01*
X1710Y3668D01*
X1713Y3671D01*
X1716Y3674D01*
X1716Y3677D01*
Y3678D01*
Y3681D01*
X1716Y3683D01*
X1714Y3686D01*
X1710Y3689D01*
X1707Y3689D01*
D02*
G37*
G36*
X1628Y3688D02*
X1625D01*
X1622Y3688D01*
X1618Y3685D01*
X1616Y3682D01*
X1615Y3680D01*
Y3678D01*
Y3677D01*
X1616Y3674D01*
X1618Y3671D01*
X1622Y3668D01*
X1625Y3668D01*
X1627D01*
X1630Y3668D01*
X1633Y3670D01*
X1636Y3674D01*
X1636Y3676D01*
X1636D01*
Y3679D01*
Y3680D01*
X1635Y3683D01*
X1633Y3686D01*
X1631Y3688D01*
X1628Y3688D01*
D02*
G37*
G36*
X1547Y3689D02*
X1546D01*
X1546Y3689D01*
X1545D01*
X1542Y3688D01*
X1538Y3685D01*
X1536Y3682D01*
X1536Y3680D01*
X1536D01*
Y3678D01*
Y3677D01*
X1536Y3674D01*
X1539Y3671D01*
X1542Y3668D01*
X1545Y3668D01*
X1547D01*
X1550Y3668D01*
X1554Y3670D01*
X1556Y3674D01*
X1556Y3677D01*
Y3677D01*
X1556D01*
X1556Y3679D01*
Y3680D01*
X1556Y3683D01*
X1553Y3686D01*
X1550Y3689D01*
X1547Y3689D01*
D02*
G37*
G36*
X1587Y3689D02*
X1585D01*
X1582Y3689D01*
X1579Y3687D01*
X1576Y3683D01*
X1576Y3680D01*
Y3679D01*
Y3677D01*
Y3676D01*
X1576Y3674D01*
X1579Y3670D01*
X1582Y3668D01*
X1585Y3668D01*
X1587D01*
X1590Y3668D01*
X1593Y3671D01*
X1596Y3674D01*
X1596Y3677D01*
Y3678D01*
Y3681D01*
X1596Y3683D01*
X1594Y3686D01*
X1590Y3689D01*
X1587Y3689D01*
D02*
G37*
G36*
X2524Y3608D02*
X2522D01*
X2519Y3607D01*
X2516Y3605D01*
X2514Y3602D01*
X2513Y3599D01*
Y3598D01*
Y3597D01*
X2512D01*
X2513Y3594D01*
X2515Y3591D01*
X2518Y3588D01*
X2521Y3588D01*
X2523D01*
X2526Y3589D01*
X2530Y3591D01*
X2532Y3595D01*
X2533Y3597D01*
Y3598D01*
Y3599D01*
X2532Y3602D01*
X2530Y3605D01*
X2527Y3607D01*
X2524Y3608D01*
D02*
G37*
G36*
X2108Y3568D02*
X2106D01*
X2103Y3568D01*
X2100Y3565D01*
X2098Y3562D01*
X2097Y3559D01*
Y3558D01*
Y3558D01*
X2097Y3556D01*
Y3555D01*
X2098Y3553D01*
X2100Y3549D01*
X2103Y3547D01*
X2106Y3547D01*
X2107D01*
X2107Y3547D01*
X2108D01*
X2111Y3548D01*
X2115Y3550D01*
X2117Y3554D01*
X2118Y3557D01*
Y3557D01*
X2117D01*
Y3558D01*
Y3559D01*
X2116Y3562D01*
X2114Y3565D01*
X2111Y3568D01*
X2108Y3568D01*
D02*
G37*
G36*
X2563D02*
X2561D01*
X2558Y3568D01*
X2555Y3565D01*
X2553Y3562D01*
X2552Y3559D01*
Y3558D01*
Y3558D01*
X2553Y3556D01*
Y3555D01*
X2553Y3553D01*
X2555Y3549D01*
X2559Y3547D01*
X2561Y3547D01*
X2562D01*
X2563Y3547D01*
X2564D01*
X2567Y3548D01*
X2570Y3550D01*
X2573Y3554D01*
X2573Y3557D01*
Y3557D01*
X2572D01*
Y3558D01*
Y3559D01*
X2572Y3562D01*
X2569Y3565D01*
X2566Y3568D01*
X2563Y3568D01*
D02*
G37*
G36*
X1707D02*
X1705D01*
X1702Y3568D01*
X1699Y3565D01*
X1697Y3562D01*
X1696Y3559D01*
Y3558D01*
Y3558D01*
X1696Y3556D01*
Y3555D01*
X1697Y3553D01*
X1699Y3549D01*
X1702Y3547D01*
X1705Y3547D01*
X1706D01*
X1706Y3547D01*
X1707D01*
X1710Y3548D01*
X1714Y3550D01*
X1716Y3554D01*
X1717Y3557D01*
Y3557D01*
X1716D01*
Y3558D01*
Y3559D01*
X1715Y3562D01*
X1713Y3565D01*
X1710Y3568D01*
X1707Y3568D01*
D02*
G37*
G36*
X2524D02*
X2522D01*
X2519Y3568D01*
X2516Y3565D01*
X2514Y3562D01*
X2513Y3559D01*
Y3558D01*
Y3557D01*
X2512D01*
Y3557D01*
Y3556D01*
X2513Y3553D01*
X2515Y3550D01*
X2519Y3547D01*
X2522Y3547D01*
X2524D01*
X2527Y3547D01*
X2530Y3549D01*
X2532Y3553D01*
X2533Y3555D01*
Y3556D01*
Y3557D01*
Y3558D01*
Y3559D01*
X2532Y3562D01*
X2530Y3565D01*
X2527Y3568D01*
X2524Y3568D01*
D02*
G37*
G36*
X1308D02*
X1306D01*
X1303Y3568D01*
X1300Y3565D01*
X1298Y3562D01*
X1297Y3559D01*
Y3558D01*
Y3558D01*
X1298Y3556D01*
Y3555D01*
X1298Y3553D01*
X1300Y3549D01*
X1304Y3547D01*
X1306Y3547D01*
X1307D01*
X1308Y3547D01*
X1309D01*
X1312Y3548D01*
X1315Y3550D01*
X1318Y3554D01*
X1318Y3557D01*
Y3557D01*
X1317D01*
Y3558D01*
Y3559D01*
X1317Y3562D01*
X1314Y3565D01*
X1311Y3568D01*
X1308Y3568D01*
D02*
G37*
G36*
X1229D02*
X1227D01*
X1224Y3568D01*
X1221Y3565D01*
X1218Y3562D01*
X1218Y3559D01*
Y3558D01*
Y3557D01*
Y3556D01*
Y3556D01*
X1218Y3553D01*
X1220Y3550D01*
X1223Y3548D01*
X1226Y3548D01*
X1229D01*
X1232Y3548D01*
X1235Y3551D01*
X1238Y3554D01*
X1238Y3557D01*
Y3557D01*
X1237D01*
Y3558D01*
Y3559D01*
X1237Y3562D01*
X1235Y3565D01*
X1231Y3568D01*
X1229Y3568D01*
D02*
G37*
G36*
X1149Y3608D02*
X1147D01*
X1144Y3607D01*
X1141Y3605D01*
X1139Y3602D01*
X1138Y3599D01*
Y3598D01*
Y3597D01*
X1137D01*
X1138Y3595D01*
X1140Y3591D01*
X1144Y3589D01*
X1147Y3588D01*
X1149D01*
X1152Y3588D01*
X1155Y3591D01*
X1157Y3594D01*
X1158Y3597D01*
X1157D01*
Y3599D01*
Y3600D01*
X1156Y3602D01*
X1154Y3605D01*
X1151Y3607D01*
X1149Y3608D01*
D02*
G37*
G36*
X1189Y3609D02*
X1187D01*
X1184Y3608D01*
X1180Y3606D01*
X1178Y3602D01*
X1177Y3599D01*
Y3599D01*
Y3598D01*
Y3597D01*
X1178Y3594D01*
X1180Y3591D01*
X1183Y3588D01*
X1186Y3588D01*
X1188D01*
X1191Y3589D01*
X1195Y3591D01*
X1197Y3594D01*
X1198Y3597D01*
X1197D01*
Y3600D01*
Y3601D01*
X1197Y3603D01*
X1195Y3606D01*
X1192Y3608D01*
X1189Y3609D01*
D02*
G37*
G36*
X2484Y3568D02*
X2482D01*
X2479Y3568D01*
X2476Y3565D01*
X2473Y3562D01*
X2473Y3559D01*
Y3558D01*
Y3557D01*
Y3556D01*
Y3556D01*
X2473Y3553D01*
X2475Y3550D01*
X2478Y3548D01*
X2481Y3548D01*
X2484D01*
X2487Y3548D01*
X2490Y3551D01*
X2493Y3554D01*
X2493Y3557D01*
Y3557D01*
X2492D01*
Y3558D01*
Y3559D01*
X2492Y3562D01*
X2490Y3565D01*
X2486Y3568D01*
X2484Y3568D01*
D02*
G37*
G36*
X1627D02*
X1625D01*
X1622Y3568D01*
X1619Y3565D01*
X1617Y3562D01*
X1616Y3559D01*
Y3558D01*
Y3557D01*
Y3556D01*
Y3556D01*
X1617Y3553D01*
X1619Y3550D01*
X1622Y3548D01*
X1624Y3548D01*
X1627D01*
X1630Y3548D01*
X1634Y3551D01*
X1636Y3554D01*
X1637Y3557D01*
Y3557D01*
X1636D01*
Y3558D01*
Y3559D01*
X1635Y3562D01*
X1633Y3565D01*
X1630Y3568D01*
X1627Y3568D01*
D02*
G37*
G36*
X2028D02*
X2026D01*
X2023Y3568D01*
X2020Y3565D01*
X2018Y3562D01*
X2017Y3559D01*
Y3558D01*
Y3557D01*
Y3556D01*
Y3556D01*
X2018Y3553D01*
X2020Y3550D01*
X2023Y3548D01*
X2025Y3548D01*
X2028D01*
X2031Y3548D01*
X2035Y3551D01*
X2037Y3554D01*
X2038Y3557D01*
Y3557D01*
X2037D01*
Y3558D01*
Y3559D01*
X2036Y3562D01*
X2034Y3565D01*
X2031Y3568D01*
X2028Y3568D01*
D02*
G37*
G36*
X1547D02*
X1545D01*
X1543Y3568D01*
X1539Y3565D01*
X1537Y3562D01*
X1537Y3559D01*
Y3558D01*
Y3557D01*
X1536D01*
Y3557D01*
Y3556D01*
X1536Y3553D01*
X1539Y3550D01*
X1542Y3547D01*
X1545Y3547D01*
X1547D01*
X1551Y3547D01*
X1554Y3550D01*
X1557Y3553D01*
X1557Y3556D01*
Y3557D01*
Y3557D01*
X1555D01*
Y3559D01*
Y3560D01*
X1555Y3563D01*
X1553Y3566D01*
X1550Y3568D01*
X1547Y3568D01*
D02*
G37*
G36*
X1588Y3569D02*
X1586D01*
X1583Y3569D01*
X1579Y3566D01*
X1577Y3563D01*
X1576Y3559D01*
Y3558D01*
Y3557D01*
Y3556D01*
Y3555D01*
X1576Y3553D01*
X1579Y3549D01*
X1582Y3547D01*
X1585Y3547D01*
X1587D01*
X1590Y3547D01*
X1594Y3550D01*
X1596Y3553D01*
X1597Y3556D01*
Y3557D01*
Y3557D01*
X1596D01*
Y3560D01*
Y3561D01*
X1595Y3564D01*
X1593Y3567D01*
X1590Y3569D01*
X1588Y3569D01*
D02*
G37*
G36*
X1269Y3568D02*
X1267D01*
X1264Y3568D01*
X1261Y3565D01*
X1259Y3562D01*
X1258Y3559D01*
Y3558D01*
Y3557D01*
X1257D01*
Y3557D01*
Y3556D01*
X1258Y3553D01*
X1260Y3550D01*
X1264Y3547D01*
X1267Y3547D01*
X1269D01*
X1272Y3547D01*
X1275Y3549D01*
X1277Y3553D01*
X1278Y3555D01*
Y3556D01*
Y3557D01*
Y3558D01*
Y3559D01*
X1277Y3562D01*
X1275Y3565D01*
X1272Y3568D01*
X1269Y3568D01*
D02*
G37*
G36*
X1149D02*
X1147D01*
X1144Y3568D01*
X1141Y3565D01*
X1139Y3562D01*
X1138Y3559D01*
Y3558D01*
Y3557D01*
X1137D01*
Y3557D01*
Y3556D01*
X1138Y3553D01*
X1140Y3550D01*
X1144Y3547D01*
X1147Y3547D01*
X1149D01*
X1152Y3547D01*
X1156Y3550D01*
X1158Y3553D01*
X1159Y3556D01*
Y3557D01*
Y3557D01*
X1157D01*
Y3559D01*
Y3560D01*
X1156Y3563D01*
X1154Y3566D01*
X1151Y3568D01*
X1149Y3568D01*
D02*
G37*
G36*
X1189Y3569D02*
X1187D01*
X1184Y3569D01*
X1180Y3566D01*
X1178Y3563D01*
X1177Y3559D01*
Y3558D01*
Y3557D01*
Y3556D01*
Y3555D01*
X1178Y3553D01*
X1180Y3549D01*
X1183Y3547D01*
X1186Y3547D01*
X1188D01*
X1191Y3547D01*
X1195Y3550D01*
X1197Y3553D01*
X1198Y3556D01*
Y3557D01*
Y3557D01*
X1197D01*
Y3560D01*
Y3561D01*
X1197Y3564D01*
X1195Y3567D01*
X1192Y3569D01*
X1189Y3569D01*
D02*
G37*
G36*
X1667Y3568D02*
X1665D01*
X1663Y3568D01*
X1659Y3565D01*
X1657Y3562D01*
X1657Y3559D01*
Y3558D01*
Y3557D01*
X1656D01*
Y3557D01*
Y3556D01*
X1656Y3553D01*
X1659Y3550D01*
X1662Y3547D01*
X1665Y3547D01*
X1667D01*
X1670Y3547D01*
X1674Y3549D01*
X1676Y3553D01*
X1676Y3555D01*
Y3556D01*
Y3557D01*
Y3558D01*
Y3559D01*
X1676Y3562D01*
X1674Y3565D01*
X1670Y3568D01*
X1667Y3568D01*
D02*
G37*
G36*
X2404D02*
X2402D01*
X2399Y3568D01*
X2396Y3565D01*
X2394Y3562D01*
X2393Y3559D01*
Y3558D01*
Y3557D01*
X2392D01*
Y3557D01*
Y3556D01*
X2393Y3553D01*
X2395Y3550D01*
X2399Y3547D01*
X2402Y3547D01*
X2404D01*
X2407Y3547D01*
X2411Y3550D01*
X2413Y3553D01*
X2414Y3556D01*
Y3557D01*
Y3557D01*
X2412D01*
Y3559D01*
Y3560D01*
X2411Y3563D01*
X2409Y3566D01*
X2406Y3568D01*
X2404Y3568D01*
D02*
G37*
G36*
X2444Y3569D02*
X2442D01*
X2439Y3569D01*
X2435Y3566D01*
X2433Y3563D01*
X2432Y3559D01*
Y3558D01*
Y3557D01*
Y3556D01*
Y3555D01*
X2433Y3553D01*
X2435Y3549D01*
X2438Y3547D01*
X2441Y3547D01*
X2443D01*
X2446Y3547D01*
X2450Y3550D01*
X2452Y3553D01*
X2453Y3556D01*
Y3557D01*
Y3557D01*
X2452D01*
Y3560D01*
Y3561D01*
X2452Y3564D01*
X2450Y3567D01*
X2447Y3569D01*
X2444Y3569D01*
D02*
G37*
G36*
X2068Y3568D02*
X2066D01*
X2064Y3568D01*
X2060Y3565D01*
X2058Y3562D01*
X2058Y3559D01*
Y3558D01*
Y3557D01*
X2057D01*
Y3557D01*
Y3556D01*
X2057Y3553D01*
X2060Y3550D01*
X2063Y3547D01*
X2066Y3547D01*
X2068D01*
X2071Y3547D01*
X2075Y3549D01*
X2077Y3553D01*
X2077Y3555D01*
Y3556D01*
Y3557D01*
Y3558D01*
Y3559D01*
X2077Y3562D01*
X2075Y3565D01*
X2071Y3568D01*
X2068Y3568D01*
D02*
G37*
G36*
X1948D02*
X1946D01*
X1944Y3568D01*
X1940Y3565D01*
X1938Y3562D01*
X1938Y3559D01*
Y3558D01*
Y3557D01*
X1937D01*
Y3557D01*
Y3556D01*
X1937Y3553D01*
X1940Y3550D01*
X1943Y3547D01*
X1946Y3547D01*
X1948D01*
X1952Y3547D01*
X1955Y3550D01*
X1958Y3553D01*
X1958Y3556D01*
Y3557D01*
Y3557D01*
X1956D01*
Y3559D01*
Y3560D01*
X1956Y3563D01*
X1954Y3566D01*
X1951Y3568D01*
X1948Y3568D01*
D02*
G37*
G36*
X1989Y3569D02*
X1987D01*
X1984Y3569D01*
X1980Y3566D01*
X1978Y3563D01*
X1977Y3559D01*
Y3558D01*
Y3557D01*
Y3556D01*
Y3555D01*
X1977Y3553D01*
X1980Y3549D01*
X1983Y3547D01*
X1986Y3547D01*
X1988D01*
X1991Y3547D01*
X1995Y3550D01*
X1997Y3553D01*
X1998Y3556D01*
Y3557D01*
Y3557D01*
X1997D01*
Y3560D01*
Y3561D01*
X1996Y3564D01*
X1994Y3567D01*
X1991Y3569D01*
X1989Y3569D01*
D02*
G37*
G36*
X1707Y3608D02*
X1705D01*
X1702Y3607D01*
X1699Y3605D01*
X1697Y3602D01*
X1696Y3599D01*
Y3598D01*
Y3597D01*
X1695D01*
X1696Y3594D01*
X1698Y3591D01*
X1702Y3589D01*
X1705Y3588D01*
X1707D01*
X1710Y3589D01*
X1713Y3591D01*
X1716Y3594D01*
X1716Y3597D01*
X1716D01*
Y3598D01*
Y3599D01*
X1715Y3602D01*
X1713Y3605D01*
X1710Y3607D01*
X1707Y3608D01*
D02*
G37*
G36*
X2108D02*
X2106D01*
X2103Y3607D01*
X2100Y3605D01*
X2098Y3602D01*
X2097Y3599D01*
Y3598D01*
Y3597D01*
X2096D01*
X2097Y3594D01*
X2099Y3591D01*
X2103Y3589D01*
X2106Y3588D01*
X2108D01*
X2111Y3589D01*
X2114Y3591D01*
X2117Y3594D01*
X2117Y3597D01*
X2117D01*
Y3598D01*
Y3599D01*
X2116Y3602D01*
X2114Y3605D01*
X2111Y3607D01*
X2108Y3608D01*
D02*
G37*
G36*
X1627D02*
X1625D01*
X1622Y3607D01*
X1619Y3605D01*
X1617Y3602D01*
X1616Y3599D01*
Y3598D01*
Y3597D01*
X1616D01*
X1616Y3594D01*
X1618Y3591D01*
X1622Y3589D01*
X1625Y3588D01*
X1627D01*
X1630Y3588D01*
X1633Y3591D01*
X1636Y3594D01*
X1636Y3597D01*
X1636D01*
Y3598D01*
Y3599D01*
X1635Y3602D01*
X1633Y3605D01*
X1630Y3607D01*
X1627Y3608D01*
D02*
G37*
G36*
X1667D02*
X1665D01*
X1663Y3607D01*
X1659Y3605D01*
X1657Y3602D01*
X1657Y3599D01*
Y3598D01*
Y3597D01*
X1656D01*
X1656Y3594D01*
X1658Y3591D01*
X1662Y3588D01*
X1665Y3588D01*
X1667D01*
X1670Y3589D01*
X1673Y3591D01*
X1676Y3595D01*
X1676Y3597D01*
Y3598D01*
Y3599D01*
X1676Y3602D01*
X1674Y3605D01*
X1670Y3607D01*
X1667Y3608D01*
D02*
G37*
G36*
X1989Y3609D02*
X1987D01*
X1984Y3608D01*
X1980Y3606D01*
X1978Y3602D01*
X1977Y3599D01*
Y3599D01*
Y3598D01*
Y3597D01*
X1977Y3594D01*
X1980Y3591D01*
X1983Y3588D01*
X1986Y3588D01*
X1988D01*
X1991Y3589D01*
X1994Y3591D01*
X1997Y3594D01*
X1997Y3597D01*
X1997D01*
Y3600D01*
Y3601D01*
X1996Y3603D01*
X1994Y3606D01*
X1991Y3608D01*
X1989Y3609D01*
D02*
G37*
G36*
X1948Y3608D02*
X1946D01*
X1944Y3607D01*
X1940Y3605D01*
X1938Y3602D01*
X1938Y3599D01*
Y3598D01*
Y3597D01*
X1937D01*
X1937Y3595D01*
X1940Y3591D01*
X1943Y3589D01*
X1946Y3588D01*
X1948D01*
X1951Y3588D01*
X1955Y3591D01*
X1957Y3594D01*
X1957Y3597D01*
X1956D01*
Y3599D01*
Y3600D01*
X1956Y3602D01*
X1954Y3605D01*
X1951Y3607D01*
X1948Y3608D01*
D02*
G37*
G36*
X2068D02*
X2066D01*
X2064Y3607D01*
X2060Y3605D01*
X2058Y3602D01*
X2058Y3599D01*
Y3598D01*
Y3597D01*
X2057D01*
X2057Y3594D01*
X2059Y3591D01*
X2063Y3588D01*
X2066Y3588D01*
X2068D01*
X2071Y3589D01*
X2074Y3591D01*
X2077Y3595D01*
X2077Y3597D01*
Y3598D01*
Y3599D01*
X2077Y3602D01*
X2075Y3605D01*
X2071Y3607D01*
X2068Y3608D01*
D02*
G37*
G36*
X2028D02*
X2026D01*
X2023Y3607D01*
X2020Y3605D01*
X2018Y3602D01*
X2017Y3599D01*
Y3598D01*
Y3597D01*
X2017D01*
X2017Y3594D01*
X2019Y3591D01*
X2023Y3589D01*
X2026Y3588D01*
X2028D01*
X2031Y3588D01*
X2034Y3591D01*
X2037Y3594D01*
X2037Y3597D01*
X2037D01*
Y3598D01*
Y3599D01*
X2036Y3602D01*
X2034Y3605D01*
X2031Y3607D01*
X2028Y3608D01*
D02*
G37*
G36*
X2404D02*
X2402D01*
X2399Y3607D01*
X2396Y3605D01*
X2394Y3602D01*
X2393Y3599D01*
Y3598D01*
Y3597D01*
X2392D01*
X2393Y3595D01*
X2395Y3591D01*
X2399Y3589D01*
X2402Y3588D01*
X2404D01*
X2407Y3588D01*
X2410Y3591D01*
X2412Y3594D01*
X2413Y3597D01*
X2412D01*
Y3599D01*
Y3600D01*
X2411Y3602D01*
X2409Y3605D01*
X2406Y3607D01*
X2404Y3608D01*
D02*
G37*
G36*
X1229D02*
X1227D01*
X1224Y3607D01*
X1221Y3605D01*
X1218Y3602D01*
X1218Y3599D01*
Y3598D01*
Y3597D01*
X1217D01*
X1218Y3594D01*
X1220Y3591D01*
X1223Y3589D01*
X1227Y3588D01*
X1229D01*
X1232Y3588D01*
X1235Y3591D01*
X1237Y3594D01*
X1238Y3597D01*
X1237D01*
Y3598D01*
Y3599D01*
X1237Y3602D01*
X1235Y3605D01*
X1231Y3607D01*
X1229Y3608D01*
D02*
G37*
G36*
X2484D02*
X2482D01*
X2479Y3607D01*
X2476Y3605D01*
X2473Y3602D01*
X2473Y3599D01*
Y3598D01*
Y3597D01*
X2472D01*
X2473Y3594D01*
X2475Y3591D01*
X2478Y3589D01*
X2482Y3588D01*
X2484D01*
X2487Y3588D01*
X2490Y3591D01*
X2492Y3594D01*
X2493Y3597D01*
X2492D01*
Y3598D01*
Y3599D01*
X2492Y3602D01*
X2490Y3605D01*
X2486Y3607D01*
X2484Y3608D01*
D02*
G37*
G36*
X2444Y3609D02*
X2442D01*
X2439Y3608D01*
X2435Y3606D01*
X2433Y3602D01*
X2432Y3599D01*
Y3599D01*
Y3598D01*
Y3597D01*
X2433Y3594D01*
X2435Y3591D01*
X2438Y3588D01*
X2441Y3588D01*
X2443D01*
X2446Y3589D01*
X2450Y3591D01*
X2452Y3594D01*
X2453Y3597D01*
X2452D01*
Y3600D01*
Y3601D01*
X2452Y3603D01*
X2450Y3606D01*
X2447Y3608D01*
X2444Y3609D01*
D02*
G37*
G36*
X1547Y3608D02*
X1545D01*
X1543Y3607D01*
X1539Y3605D01*
X1537Y3602D01*
X1537Y3599D01*
Y3598D01*
Y3597D01*
X1536D01*
X1536Y3595D01*
X1539Y3591D01*
X1542Y3589D01*
X1545Y3588D01*
X1547D01*
X1550Y3588D01*
X1554Y3591D01*
X1556Y3594D01*
X1556Y3597D01*
X1555D01*
Y3599D01*
Y3600D01*
X1555Y3602D01*
X1553Y3605D01*
X1550Y3607D01*
X1547Y3608D01*
D02*
G37*
G36*
X1588Y3609D02*
X1586D01*
X1583Y3608D01*
X1579Y3606D01*
X1577Y3602D01*
X1576Y3599D01*
Y3599D01*
Y3598D01*
Y3597D01*
X1576Y3594D01*
X1579Y3591D01*
X1582Y3588D01*
X1585Y3588D01*
X1587D01*
X1590Y3589D01*
X1593Y3591D01*
X1596Y3594D01*
X1596Y3597D01*
X1596D01*
Y3600D01*
Y3601D01*
X1595Y3603D01*
X1593Y3606D01*
X1590Y3608D01*
X1588Y3609D01*
D02*
G37*
G36*
X1269Y3608D02*
X1267D01*
X1264Y3607D01*
X1261Y3605D01*
X1259Y3602D01*
X1258Y3599D01*
Y3598D01*
Y3597D01*
X1257D01*
X1258Y3594D01*
X1260Y3591D01*
X1263Y3588D01*
X1266Y3588D01*
X1268D01*
X1271Y3589D01*
X1275Y3591D01*
X1277Y3595D01*
X1278Y3597D01*
Y3598D01*
Y3599D01*
X1277Y3602D01*
X1275Y3605D01*
X1272Y3607D01*
X1269Y3608D01*
D02*
G37*
G36*
X1308D02*
X1306D01*
X1303Y3607D01*
X1300Y3605D01*
X1298Y3602D01*
X1297Y3599D01*
Y3598D01*
Y3597D01*
X1297D01*
X1297Y3594D01*
X1300Y3591D01*
X1303Y3589D01*
X1306Y3588D01*
X1308D01*
X1311Y3589D01*
X1315Y3591D01*
X1317Y3594D01*
X1318Y3597D01*
X1317D01*
Y3598D01*
Y3599D01*
X1317Y3602D01*
X1314Y3605D01*
X1311Y3607D01*
X1308Y3608D01*
D02*
G37*
%LPD*%
G36*
X725Y1157D02*
Y1157D01*
Y1157D01*
D01*
D02*
G37*
G36*
Y1244D02*
Y1244D01*
Y1244D01*
D01*
D02*
G37*
G36*
Y1201D02*
Y1201D01*
Y1201D01*
D01*
D02*
G37*
G36*
X2085Y1244D02*
Y1244D01*
Y1244D01*
D01*
D02*
G37*
G36*
X1405D02*
Y1244D01*
Y1244D01*
D01*
D02*
G37*
G36*
X2085Y1157D02*
Y1157D01*
Y1157D01*
D01*
D02*
G37*
G36*
X1405D02*
Y1157D01*
Y1157D01*
D01*
D02*
G37*
G36*
Y1201D02*
Y1201D01*
Y1201D01*
D01*
D02*
G37*
G36*
X2085D02*
Y1201D01*
Y1201D01*
D01*
D02*
G37*
G36*
X1728Y7726D02*
Y7687D01*
Y7647D01*
Y7607D01*
Y7580D01*
X1524D01*
Y7607D01*
Y7647D01*
Y7687D01*
Y7727D01*
Y7756D01*
X1728D01*
Y7726D01*
D02*
G37*
G36*
X1330D02*
Y7687D01*
Y7647D01*
Y7607D01*
Y7580D01*
X1125D01*
Y7607D01*
Y7647D01*
Y7687D01*
Y7727D01*
Y7756D01*
X1330D01*
Y7726D01*
D02*
G37*
G36*
X2585D02*
Y7687D01*
Y7647D01*
Y7607D01*
Y7580D01*
X2380D01*
Y7607D01*
Y7647D01*
Y7687D01*
Y7727D01*
Y7756D01*
X2585D01*
Y7726D01*
D02*
G37*
G36*
X2129D02*
Y7687D01*
Y7647D01*
Y7607D01*
Y7580D01*
X1925D01*
Y7607D01*
Y7647D01*
Y7687D01*
Y7727D01*
Y7756D01*
X2129D01*
Y7726D01*
D02*
G37*
G36*
X3455Y5293D02*
Y5272D01*
Y5250D01*
Y5228D01*
Y5207D01*
Y5185D01*
X3242D01*
Y5207D01*
Y5228D01*
Y5250D01*
Y5272D01*
Y5293D01*
Y5293D01*
Y5315D01*
X3455D01*
Y5293D01*
D02*
G37*
G36*
X1415D02*
Y5272D01*
Y5250D01*
Y5228D01*
Y5207D01*
Y5185D01*
X1202D01*
Y5207D01*
Y5228D01*
Y5250D01*
Y5272D01*
Y5293D01*
Y5293D01*
Y5315D01*
X1415D01*
Y5293D01*
D02*
G37*
G36*
X735D02*
Y5272D01*
Y5250D01*
Y5228D01*
Y5207D01*
Y5185D01*
X522D01*
Y5207D01*
Y5228D01*
Y5250D01*
Y5272D01*
Y5293D01*
Y5293D01*
Y5315D01*
X735D01*
Y5293D01*
D02*
G37*
G36*
X2775D02*
Y5272D01*
Y5250D01*
Y5228D01*
Y5207D01*
Y5185D01*
X2562D01*
Y5207D01*
Y5228D01*
Y5250D01*
Y5272D01*
Y5293D01*
Y5293D01*
Y5315D01*
X2775D01*
Y5293D01*
D02*
G37*
G36*
X2096D02*
Y5272D01*
Y5250D01*
Y5228D01*
Y5207D01*
Y5185D01*
X1882D01*
Y5207D01*
Y5228D01*
Y5250D01*
Y5272D01*
Y5293D01*
Y5293D01*
Y5315D01*
X2096D01*
Y5293D01*
D02*
G37*
%LPC*%
G36*
X1396Y5303D02*
X1395Y5303D01*
Y5303D01*
X1393Y5303D01*
X1388Y5301D01*
X1386Y5297D01*
X1386Y5294D01*
X1386Y5293D01*
X1385D01*
X1385Y5292D01*
X1385Y5289D01*
X1388Y5286D01*
X1391Y5284D01*
X1394Y5283D01*
X1395Y5283D01*
X1397D01*
X1402Y5286D01*
X1405Y5289D01*
X1405Y5293D01*
X1405Y5294D01*
X1405Y5294D01*
X1405Y5295D01*
X1404Y5298D01*
X1402Y5301D01*
X1399Y5303D01*
X1396Y5303D01*
D02*
G37*
G36*
X2077D02*
X2076Y5303D01*
Y5303D01*
X2074Y5303D01*
X2069Y5301D01*
X2066Y5297D01*
X2066Y5294D01*
X2066Y5293D01*
X2065D01*
X2065Y5292D01*
X2066Y5289D01*
X2068Y5286D01*
X2071Y5284D01*
X2074Y5283D01*
X2075Y5283D01*
X2077D01*
X2083Y5286D01*
X2085Y5289D01*
X2086Y5293D01*
X2086Y5294D01*
X2085Y5294D01*
X2085Y5295D01*
X2085Y5298D01*
X2082Y5301D01*
X2079Y5303D01*
X2077Y5303D01*
D02*
G37*
G36*
X3263Y5260D02*
X3262Y5260D01*
Y5260D01*
X3261D01*
X3258Y5260D01*
X3255Y5257D01*
X3252Y5254D01*
X3252Y5251D01*
Y5250D01*
X3252D01*
X3252Y5250D01*
Y5249D01*
X3252Y5246D01*
X3255Y5243D01*
X3258Y5241D01*
X3261Y5240D01*
X3262D01*
X3264Y5240D01*
X3269Y5243D01*
X3271Y5246D01*
X3272Y5249D01*
X3272Y5251D01*
X3272D01*
X3272Y5251D01*
X3272Y5254D01*
X3270Y5257D01*
X3266Y5260D01*
X3263Y5260D01*
D02*
G37*
G36*
X716Y5303D02*
X715Y5303D01*
Y5303D01*
X713Y5303D01*
X708Y5301D01*
X706Y5297D01*
X706Y5294D01*
X706Y5293D01*
X705D01*
X705Y5292D01*
X705Y5289D01*
X708Y5286D01*
X711Y5284D01*
X714Y5283D01*
X715Y5283D01*
X717D01*
X722Y5286D01*
X725Y5289D01*
X725Y5293D01*
X725Y5294D01*
X725Y5294D01*
X725Y5295D01*
X724Y5298D01*
X722Y5301D01*
X719Y5303D01*
X716Y5303D01*
D02*
G37*
G36*
X586Y5303D02*
X585Y5303D01*
X585Y5303D01*
X584Y5303D01*
X582Y5303D01*
X578Y5301D01*
X576Y5297D01*
X576Y5294D01*
X576Y5293D01*
X575D01*
X575Y5293D01*
X576Y5290D01*
X578Y5286D01*
X581Y5284D01*
X585Y5283D01*
X586Y5283D01*
X586D01*
X587Y5283D01*
X589Y5284D01*
X593Y5286D01*
X595Y5289D01*
X595Y5292D01*
X595Y5293D01*
X595D01*
X595Y5294D01*
X595Y5297D01*
X593Y5301D01*
X589Y5303D01*
X586Y5303D01*
D02*
G37*
G36*
X1266D02*
X1265Y5303D01*
X1265Y5303D01*
X1264Y5303D01*
X1262Y5303D01*
X1258Y5301D01*
X1256Y5297D01*
X1256Y5294D01*
X1256Y5293D01*
X1255D01*
X1255Y5293D01*
X1256Y5290D01*
X1258Y5286D01*
X1261Y5284D01*
X1265Y5283D01*
X1266Y5283D01*
X1266D01*
X1267Y5283D01*
X1269Y5284D01*
X1273Y5286D01*
X1275Y5289D01*
X1275Y5292D01*
X1275Y5293D01*
X1275D01*
X1275Y5294D01*
X1275Y5297D01*
X1273Y5301D01*
X1269Y5303D01*
X1266Y5303D01*
D02*
G37*
G36*
X2756Y5303D02*
X2755Y5303D01*
Y5303D01*
X2753Y5303D01*
X2748Y5301D01*
X2746Y5297D01*
X2746Y5294D01*
X2746Y5293D01*
X2745D01*
X2745Y5292D01*
X2745Y5289D01*
X2748Y5286D01*
X2751Y5284D01*
X2754Y5283D01*
X2755Y5283D01*
X2757D01*
X2762Y5286D01*
X2765Y5289D01*
X2765Y5293D01*
X2765Y5294D01*
X2765Y5294D01*
Y5294D01*
Y5294D01*
D01*
X2765Y5295D01*
X2764Y5298D01*
X2762Y5301D01*
X2759Y5303D01*
X2756Y5303D01*
D02*
G37*
G36*
X3436D02*
X3435Y5303D01*
Y5303D01*
X3433Y5303D01*
X3428Y5301D01*
X3426Y5297D01*
X3426Y5294D01*
X3426Y5293D01*
X3425D01*
X3425Y5292D01*
X3425Y5289D01*
X3428Y5286D01*
X3431Y5284D01*
X3434Y5283D01*
X3435Y5283D01*
X3437D01*
X3442Y5286D01*
X3445Y5289D01*
X3445Y5293D01*
X3445Y5294D01*
X3445Y5294D01*
Y5294D01*
Y5294D01*
D01*
X3445Y5295D01*
X3444Y5298D01*
X3442Y5301D01*
X3439Y5303D01*
X3436Y5303D01*
D02*
G37*
G36*
X2583Y5260D02*
X2582Y5260D01*
Y5260D01*
X2581D01*
X2578Y5260D01*
X2575Y5257D01*
X2572Y5254D01*
X2572Y5251D01*
Y5250D01*
X2572D01*
X2572Y5250D01*
Y5249D01*
X2572Y5246D01*
X2575Y5243D01*
X2578Y5241D01*
X2581Y5240D01*
X2582D01*
X2584Y5240D01*
X2589Y5243D01*
X2591Y5246D01*
X2592Y5249D01*
X2592Y5251D01*
X2592D01*
X2592Y5251D01*
X2592Y5254D01*
X2590Y5257D01*
X2586Y5260D01*
X2583Y5260D01*
D02*
G37*
G36*
X1990Y5260D02*
X1989Y5260D01*
X1989Y5260D01*
X1988Y5260D01*
X1985Y5260D01*
X1982Y5258D01*
X1979Y5254D01*
X1979Y5251D01*
X1979Y5250D01*
X1979D01*
X1979Y5250D01*
X1979Y5250D01*
X1979Y5250D01*
X1979D01*
X1979Y5249D01*
X1979Y5246D01*
X1982Y5243D01*
X1985Y5240D01*
X1988Y5240D01*
X1990D01*
X1993Y5240D01*
X1996Y5243D01*
X1998Y5246D01*
X1999Y5249D01*
X1999Y5250D01*
X1999D01*
Y5250D01*
Y5250D01*
D01*
X1999Y5250D01*
X1999Y5250D01*
X1999D01*
X1999Y5251D01*
X1998Y5254D01*
X1996Y5258D01*
X1993Y5260D01*
X1990Y5260D01*
D02*
G37*
G36*
X2670D02*
X2669Y5260D01*
X2669Y5260D01*
X2668Y5260D01*
X2665Y5260D01*
X2661Y5258D01*
X2659Y5254D01*
X2659Y5251D01*
X2659Y5250D01*
X2659D01*
X2659Y5250D01*
X2659Y5250D01*
X2659Y5250D01*
X2659D01*
X2659Y5249D01*
X2659Y5246D01*
X2661Y5243D01*
X2665Y5240D01*
X2668Y5240D01*
X2670D01*
X2672Y5240D01*
X2676Y5243D01*
X2678Y5246D01*
X2679Y5249D01*
X2679Y5250D01*
X2679D01*
Y5250D01*
Y5250D01*
D01*
X2679Y5250D01*
X2679Y5250D01*
X2679D01*
X2679Y5251D01*
X2678Y5254D01*
X2676Y5258D01*
X2672Y5260D01*
X2670Y5260D01*
D02*
G37*
G36*
X630D02*
X629Y5260D01*
X629Y5260D01*
X628Y5260D01*
X625Y5260D01*
X621Y5258D01*
X619Y5254D01*
X619Y5251D01*
X619Y5250D01*
X619D01*
X619Y5250D01*
X619Y5250D01*
X619Y5250D01*
X619D01*
X619Y5249D01*
X619Y5246D01*
X621Y5243D01*
X625Y5240D01*
X628Y5240D01*
X630D01*
X632Y5240D01*
X636Y5243D01*
X638Y5246D01*
X639Y5249D01*
X639Y5250D01*
X639D01*
Y5250D01*
Y5250D01*
D01*
X639Y5250D01*
X639Y5250D01*
X639D01*
X639Y5251D01*
X638Y5254D01*
X636Y5258D01*
X632Y5260D01*
X630Y5260D01*
D02*
G37*
G36*
X1310D02*
X1309Y5260D01*
X1309Y5260D01*
X1308Y5260D01*
X1305Y5260D01*
X1301Y5258D01*
X1299Y5254D01*
X1299Y5251D01*
X1299Y5250D01*
X1299D01*
X1299Y5250D01*
X1299Y5250D01*
X1299Y5250D01*
X1299D01*
X1299Y5249D01*
X1299Y5246D01*
X1301Y5243D01*
X1305Y5240D01*
X1308Y5240D01*
X1310D01*
X1312Y5240D01*
X1316Y5243D01*
X1318Y5246D01*
X1319Y5249D01*
X1319Y5250D01*
X1319D01*
Y5250D01*
Y5250D01*
D01*
X1319Y5250D01*
X1319Y5250D01*
X1319D01*
X1319Y5251D01*
X1318Y5254D01*
X1316Y5258D01*
X1312Y5260D01*
X1310Y5260D01*
D02*
G37*
G36*
X1223Y5260D02*
X1222Y5260D01*
Y5260D01*
X1221D01*
X1218Y5260D01*
X1215Y5257D01*
X1212Y5254D01*
X1212Y5251D01*
Y5250D01*
X1212D01*
X1212Y5250D01*
Y5249D01*
X1212Y5246D01*
X1215Y5243D01*
X1218Y5241D01*
X1221Y5240D01*
X1222D01*
X1224Y5240D01*
X1229Y5243D01*
X1231Y5246D01*
X1232Y5249D01*
X1232Y5251D01*
X1232D01*
X1232Y5251D01*
X1232Y5254D01*
X1230Y5257D01*
X1226Y5260D01*
X1223Y5260D01*
D02*
G37*
G36*
X1903D02*
X1902Y5260D01*
Y5260D01*
X1901D01*
X1898Y5260D01*
X1895Y5257D01*
X1893Y5254D01*
X1892Y5251D01*
Y5250D01*
X1892D01*
X1892Y5250D01*
Y5249D01*
X1893Y5246D01*
X1895Y5243D01*
X1898Y5241D01*
X1901Y5240D01*
X1902D01*
X1904Y5240D01*
X1909Y5243D01*
X1911Y5246D01*
X1912Y5249D01*
X1912Y5251D01*
X1913D01*
X1913Y5251D01*
X1912Y5254D01*
X1910Y5257D01*
X1906Y5260D01*
X1903Y5260D01*
D02*
G37*
G36*
X3350Y5260D02*
X3349Y5260D01*
X3349Y5260D01*
X3348Y5260D01*
X3345Y5260D01*
X3341Y5258D01*
X3339Y5254D01*
X3339Y5251D01*
X3339Y5250D01*
X3339D01*
X3339Y5250D01*
X3339Y5250D01*
X3339Y5250D01*
X3339D01*
X3339Y5249D01*
X3339Y5246D01*
X3341Y5243D01*
X3345Y5240D01*
X3348Y5240D01*
X3350D01*
X3352Y5240D01*
X3356Y5243D01*
X3358Y5246D01*
X3359Y5249D01*
X3359Y5250D01*
X3359D01*
Y5250D01*
Y5250D01*
D01*
X3359Y5250D01*
X3359Y5250D01*
X3359D01*
X3359Y5251D01*
X3358Y5254D01*
X3356Y5258D01*
X3352Y5260D01*
X3350Y5260D01*
D02*
G37*
G36*
X543Y5260D02*
X542Y5260D01*
Y5260D01*
X541D01*
X538Y5260D01*
X535Y5257D01*
X532Y5254D01*
X532Y5251D01*
Y5250D01*
X532D01*
X532Y5250D01*
Y5249D01*
X532Y5246D01*
X535Y5243D01*
X538Y5241D01*
X541Y5240D01*
X542D01*
X544Y5240D01*
X549Y5243D01*
X551Y5246D01*
X552Y5249D01*
X552Y5251D01*
X552D01*
X552Y5251D01*
X552Y5254D01*
X550Y5257D01*
X546Y5260D01*
X543Y5260D01*
D02*
G37*
G36*
X1947Y5303D02*
X1946Y5303D01*
X1946Y5303D01*
X1945Y5303D01*
X1942Y5303D01*
X1939Y5301D01*
X1936Y5297D01*
X1936Y5294D01*
X1936Y5293D01*
X1935D01*
X1935Y5293D01*
X1936Y5290D01*
X1938Y5286D01*
X1942Y5284D01*
X1945Y5283D01*
X1946Y5283D01*
X1946D01*
X1947Y5283D01*
X1950Y5284D01*
X1953Y5286D01*
X1955Y5289D01*
X1956Y5292D01*
X1956Y5293D01*
X1956D01*
X1956Y5294D01*
X1955Y5297D01*
X1953Y5301D01*
X1950Y5303D01*
X1947Y5303D01*
D02*
G37*
G36*
X3350Y5304D02*
X3349Y5304D01*
X3349Y5304D01*
X3348Y5304D01*
X3345Y5303D01*
X3341Y5301D01*
X3339Y5298D01*
X3339Y5294D01*
X3339Y5293D01*
X3339D01*
X3339Y5293D01*
X3339Y5293D01*
X3339Y5293D01*
X3339D01*
X3339Y5292D01*
X3339Y5289D01*
X3341Y5286D01*
X3345Y5284D01*
X3348Y5283D01*
X3350D01*
X3352Y5284D01*
X3356Y5286D01*
X3358Y5289D01*
X3359Y5292D01*
X3359Y5293D01*
X3359D01*
Y5293D01*
Y5293D01*
D01*
X3359Y5293D01*
X3359Y5293D01*
X3359D01*
X3359Y5294D01*
X3358Y5298D01*
X3356Y5301D01*
X3352Y5303D01*
X3350Y5304D01*
D02*
G37*
G36*
X543Y5304D02*
X542Y5304D01*
Y5304D01*
X541D01*
X538Y5303D01*
X535Y5301D01*
X532Y5297D01*
X532Y5294D01*
Y5294D01*
X532Y5294D01*
X532D01*
X532Y5293D01*
X532Y5290D01*
X535Y5286D01*
X540Y5284D01*
X542Y5283D01*
X542Y5283D01*
X544Y5283D01*
X549Y5286D01*
X551Y5289D01*
X552Y5293D01*
X552Y5294D01*
X552D01*
X552Y5294D01*
X552Y5297D01*
X550Y5301D01*
X546Y5303D01*
X543Y5304D01*
D02*
G37*
G36*
X1990Y5304D02*
X1989Y5304D01*
X1989Y5304D01*
X1988Y5304D01*
X1985Y5303D01*
X1982Y5301D01*
X1979Y5298D01*
X1979Y5294D01*
X1979Y5293D01*
X1979D01*
X1979Y5293D01*
X1979Y5293D01*
X1979Y5293D01*
X1979D01*
X1979Y5292D01*
X1979Y5289D01*
X1982Y5286D01*
X1985Y5284D01*
X1988Y5283D01*
X1990D01*
X1993Y5284D01*
X1996Y5286D01*
X1998Y5289D01*
X1999Y5292D01*
X1999Y5293D01*
X1999D01*
Y5293D01*
Y5293D01*
D01*
X1999Y5293D01*
X1999Y5293D01*
X1999D01*
X1999Y5294D01*
X1998Y5298D01*
X1996Y5301D01*
X1993Y5303D01*
X1990Y5304D01*
D02*
G37*
G36*
X2670D02*
X2669Y5304D01*
X2669Y5304D01*
X2668Y5304D01*
X2665Y5303D01*
X2661Y5301D01*
X2659Y5298D01*
X2659Y5294D01*
X2659Y5293D01*
X2659D01*
X2659Y5293D01*
X2659Y5293D01*
X2659Y5293D01*
X2659D01*
X2659Y5292D01*
X2659Y5289D01*
X2661Y5286D01*
X2665Y5284D01*
X2668Y5283D01*
X2670D01*
X2672Y5284D01*
X2676Y5286D01*
X2678Y5289D01*
X2679Y5292D01*
X2679Y5293D01*
X2679D01*
Y5293D01*
Y5293D01*
D01*
X2679Y5293D01*
X2679Y5293D01*
X2679D01*
X2679Y5294D01*
X2678Y5298D01*
X2676Y5301D01*
X2672Y5303D01*
X2670Y5304D01*
D02*
G37*
G36*
X2583Y5304D02*
X2582Y5304D01*
Y5304D01*
X2581D01*
X2578Y5303D01*
X2575Y5301D01*
X2572Y5297D01*
X2572Y5294D01*
Y5294D01*
X2572Y5294D01*
X2572D01*
X2572Y5293D01*
X2572Y5290D01*
X2575Y5286D01*
X2580Y5284D01*
X2582Y5283D01*
X2582Y5283D01*
X2584Y5283D01*
X2589Y5286D01*
X2591Y5289D01*
X2592Y5293D01*
X2592Y5294D01*
X2592D01*
X2592Y5294D01*
X2592Y5297D01*
X2590Y5301D01*
X2586Y5303D01*
X2583Y5304D01*
D02*
G37*
G36*
X3263D02*
X3262Y5304D01*
Y5304D01*
X3261D01*
X3258Y5303D01*
X3255Y5301D01*
X3252Y5297D01*
X3252Y5294D01*
Y5294D01*
X3252Y5294D01*
X3252D01*
X3252Y5293D01*
X3252Y5290D01*
X3255Y5286D01*
X3260Y5284D01*
X3262Y5283D01*
X3262Y5283D01*
X3264Y5283D01*
X3269Y5286D01*
X3271Y5289D01*
X3272Y5293D01*
X3272Y5294D01*
X3272D01*
X3272Y5294D01*
X3272Y5297D01*
X3270Y5301D01*
X3266Y5303D01*
X3263Y5304D01*
D02*
G37*
G36*
X1223D02*
X1222Y5304D01*
Y5304D01*
X1221D01*
X1218Y5303D01*
X1215Y5301D01*
X1212Y5297D01*
X1212Y5294D01*
Y5294D01*
X1212Y5294D01*
X1212D01*
X1212Y5293D01*
X1212Y5290D01*
X1215Y5286D01*
X1220Y5284D01*
X1222Y5283D01*
X1222Y5283D01*
X1224Y5283D01*
X1229Y5286D01*
X1231Y5289D01*
X1232Y5293D01*
X1232Y5294D01*
X1232D01*
X1232Y5294D01*
X1232Y5297D01*
X1230Y5301D01*
X1226Y5303D01*
X1223Y5304D01*
D02*
G37*
G36*
X1903D02*
X1902Y5304D01*
Y5304D01*
X1901D01*
X1898Y5303D01*
X1895Y5301D01*
X1893Y5297D01*
X1892Y5294D01*
Y5294D01*
X1892Y5294D01*
X1892D01*
X1892Y5293D01*
X1893Y5290D01*
X1895Y5286D01*
X1900Y5284D01*
X1902Y5283D01*
X1902Y5283D01*
X1904Y5283D01*
X1909Y5286D01*
X1911Y5289D01*
X1912Y5293D01*
X1912Y5294D01*
X1913D01*
X1913Y5294D01*
X1912Y5297D01*
X1910Y5301D01*
X1906Y5303D01*
X1903Y5304D01*
D02*
G37*
G36*
X1310Y5304D02*
X1309Y5304D01*
X1309Y5304D01*
X1308Y5304D01*
X1305Y5303D01*
X1301Y5301D01*
X1299Y5298D01*
X1299Y5294D01*
X1299Y5293D01*
X1299D01*
X1299Y5293D01*
X1299Y5293D01*
X1299Y5293D01*
X1299D01*
X1299Y5292D01*
X1299Y5289D01*
X1301Y5286D01*
X1305Y5284D01*
X1308Y5283D01*
X1310D01*
X1312Y5284D01*
X1316Y5286D01*
X1318Y5289D01*
X1319Y5292D01*
X1319Y5293D01*
X1319D01*
Y5293D01*
Y5293D01*
D01*
X1319Y5293D01*
X1319Y5293D01*
X1319D01*
X1319Y5294D01*
X1318Y5298D01*
X1316Y5301D01*
X1312Y5303D01*
X1310Y5304D01*
D02*
G37*
G36*
X673Y5303D02*
X672Y5303D01*
X672Y5303D01*
X671Y5303D01*
X668Y5303D01*
X665Y5301D01*
X662Y5297D01*
X662Y5294D01*
X662Y5293D01*
X662D01*
X662Y5293D01*
X662Y5293D01*
X662Y5293D01*
X662D01*
X662Y5292D01*
X662Y5289D01*
X665Y5286D01*
X668Y5284D01*
X671Y5283D01*
X672Y5283D01*
X672D01*
X673Y5283D01*
X676Y5284D01*
X679Y5286D01*
X681Y5289D01*
X682Y5292D01*
X682Y5293D01*
X682D01*
X682Y5295D01*
X679Y5300D01*
X676Y5303D01*
X673Y5303D01*
D02*
G37*
G36*
X1353D02*
X1352Y5303D01*
X1352Y5303D01*
X1351Y5303D01*
X1348Y5303D01*
X1345Y5301D01*
X1342Y5297D01*
X1342Y5294D01*
X1342Y5293D01*
X1342D01*
X1342Y5293D01*
X1342Y5293D01*
X1342Y5293D01*
X1342D01*
X1342Y5292D01*
X1342Y5289D01*
X1345Y5286D01*
X1348Y5284D01*
X1351Y5283D01*
X1352Y5283D01*
X1352D01*
X1353Y5283D01*
X1356Y5284D01*
X1359Y5286D01*
X1361Y5289D01*
X1362Y5292D01*
X1362Y5293D01*
X1362D01*
X1362Y5295D01*
X1359Y5300D01*
X1356Y5303D01*
X1353Y5303D01*
D02*
G37*
G36*
X2626Y5303D02*
X2625Y5303D01*
X2625Y5303D01*
X2624Y5303D01*
X2622Y5303D01*
X2618Y5301D01*
X2616Y5297D01*
X2616Y5294D01*
X2616Y5293D01*
X2615D01*
X2615Y5293D01*
X2616Y5290D01*
X2618Y5286D01*
X2621Y5284D01*
X2625Y5283D01*
X2626Y5283D01*
X2626D01*
X2627Y5283D01*
X2629Y5284D01*
X2633Y5286D01*
X2635Y5289D01*
X2635Y5292D01*
X2635Y5293D01*
X2635D01*
X2635Y5294D01*
X2635Y5297D01*
X2633Y5301D01*
X2629Y5303D01*
X2626Y5303D01*
D02*
G37*
G36*
X3306D02*
X3305Y5303D01*
X3305Y5303D01*
X3304Y5303D01*
X3302Y5303D01*
X3298Y5301D01*
X3296Y5297D01*
X3296Y5294D01*
X3296Y5293D01*
X3295D01*
X3295Y5293D01*
X3296Y5290D01*
X3298Y5286D01*
X3301Y5284D01*
X3305Y5283D01*
X3306Y5283D01*
X3306D01*
X3307Y5283D01*
X3309Y5284D01*
X3313Y5286D01*
X3315Y5289D01*
X3315Y5292D01*
X3315Y5293D01*
X3315D01*
X3315Y5294D01*
X3315Y5297D01*
X3313Y5301D01*
X3309Y5303D01*
X3306Y5303D01*
D02*
G37*
G36*
X3393Y5303D02*
X3392Y5303D01*
X3392Y5303D01*
X3391Y5303D01*
X3388Y5303D01*
X3385Y5301D01*
X3382Y5297D01*
X3382Y5294D01*
X3382Y5293D01*
X3382D01*
X3382Y5293D01*
X3382Y5293D01*
X3382Y5293D01*
X3382D01*
X3382Y5292D01*
X3382Y5289D01*
X3385Y5286D01*
X3388Y5284D01*
X3391Y5283D01*
X3392Y5283D01*
X3392D01*
X3393Y5283D01*
X3396Y5284D01*
X3399Y5286D01*
X3401Y5289D01*
X3402Y5292D01*
X3402Y5293D01*
X3402D01*
X3402Y5295D01*
X3399Y5300D01*
X3396Y5303D01*
X3393Y5303D01*
D02*
G37*
G36*
X630Y5304D02*
X629Y5304D01*
X629Y5304D01*
X628Y5304D01*
X625Y5303D01*
X621Y5301D01*
X619Y5298D01*
X619Y5294D01*
X619Y5293D01*
X619D01*
X619Y5293D01*
X619Y5293D01*
X619Y5293D01*
X619D01*
X619Y5292D01*
X619Y5289D01*
X621Y5286D01*
X625Y5284D01*
X628Y5283D01*
X630D01*
X632Y5284D01*
X636Y5286D01*
X638Y5289D01*
X639Y5292D01*
X639Y5293D01*
X639D01*
Y5293D01*
Y5293D01*
D01*
X639Y5293D01*
X639Y5293D01*
X639D01*
X639Y5294D01*
X638Y5298D01*
X636Y5301D01*
X632Y5303D01*
X630Y5304D01*
D02*
G37*
G36*
X2033Y5303D02*
X2032Y5303D01*
X2032Y5303D01*
X2031Y5303D01*
X2028Y5303D01*
X2025Y5301D01*
X2023Y5297D01*
X2022Y5294D01*
X2022Y5293D01*
X2022D01*
X2022Y5293D01*
X2022Y5293D01*
X2022Y5293D01*
X2022D01*
X2022Y5292D01*
X2023Y5289D01*
X2025Y5286D01*
X2028Y5284D01*
X2031Y5283D01*
X2032Y5283D01*
X2032D01*
X2033Y5283D01*
X2036Y5284D01*
X2039Y5286D01*
X2041Y5289D01*
X2042Y5292D01*
X2042Y5293D01*
X2042D01*
X2042Y5295D01*
X2039Y5300D01*
X2036Y5303D01*
X2033Y5303D01*
D02*
G37*
G36*
X2713D02*
X2712Y5303D01*
X2712Y5303D01*
X2711Y5303D01*
X2708Y5303D01*
X2705Y5301D01*
X2702Y5297D01*
X2702Y5294D01*
X2702Y5293D01*
X2702D01*
X2702Y5293D01*
X2702Y5293D01*
X2702Y5293D01*
X2702D01*
X2702Y5292D01*
X2702Y5289D01*
X2705Y5286D01*
X2708Y5284D01*
X2711Y5283D01*
X2712Y5283D01*
X2712D01*
X2713Y5283D01*
X2716Y5284D01*
X2719Y5286D01*
X2721Y5289D01*
X2722Y5292D01*
X2722Y5293D01*
X2722D01*
X2722Y5295D01*
X2719Y5300D01*
X2716Y5303D01*
X2713Y5303D01*
D02*
G37*
G36*
X3393Y5260D02*
X3392Y5260D01*
X3392Y5260D01*
X3391Y5260D01*
X3388Y5259D01*
X3385Y5257D01*
X3382Y5254D01*
X3382Y5251D01*
X3382Y5250D01*
X3382D01*
X3382Y5250D01*
X3382Y5250D01*
X3382Y5250D01*
X3382D01*
X3382Y5249D01*
X3382Y5246D01*
X3385Y5243D01*
X3388Y5241D01*
X3391Y5240D01*
X3392Y5240D01*
X3392D01*
X3393Y5240D01*
X3396Y5241D01*
X3399Y5243D01*
X3401Y5246D01*
X3402Y5249D01*
X3402Y5250D01*
X3402D01*
X3402Y5252D01*
X3399Y5257D01*
X3396Y5259D01*
X3393Y5260D01*
D02*
G37*
G36*
X2033Y5217D02*
X2032Y5217D01*
X2032Y5217D01*
X2031Y5217D01*
X2028Y5216D01*
X2025Y5214D01*
X2023Y5211D01*
X2022Y5208D01*
X2022Y5207D01*
X2022D01*
X2022Y5207D01*
X2022Y5207D01*
X2022Y5207D01*
X2022D01*
X2022Y5206D01*
X2023Y5203D01*
X2025Y5200D01*
X2028Y5197D01*
X2031Y5197D01*
X2032Y5197D01*
X2032D01*
X2033Y5197D01*
X2036Y5197D01*
X2039Y5200D01*
X2041Y5203D01*
X2042Y5206D01*
X2042Y5207D01*
X2042D01*
X2042Y5209D01*
X2039Y5214D01*
X2036Y5216D01*
X2033Y5217D01*
D02*
G37*
G36*
X2713D02*
X2712Y5217D01*
X2712Y5217D01*
X2711Y5217D01*
X2708Y5216D01*
X2705Y5214D01*
X2702Y5211D01*
X2702Y5208D01*
X2702Y5207D01*
X2702D01*
X2702Y5207D01*
X2702Y5207D01*
X2702Y5207D01*
X2702D01*
X2702Y5206D01*
X2702Y5203D01*
X2705Y5200D01*
X2708Y5197D01*
X2711Y5197D01*
X2712Y5197D01*
X2712D01*
X2713Y5197D01*
X2716Y5197D01*
X2719Y5200D01*
X2721Y5203D01*
X2722Y5206D01*
X2722Y5207D01*
X2722D01*
X2722Y5209D01*
X2719Y5214D01*
X2716Y5216D01*
X2713Y5217D01*
D02*
G37*
G36*
X673D02*
X672Y5217D01*
X672Y5217D01*
X671Y5217D01*
X668Y5216D01*
X665Y5214D01*
X662Y5211D01*
X662Y5208D01*
X662Y5207D01*
X662D01*
X662Y5207D01*
X662Y5207D01*
X662Y5207D01*
X662D01*
X662Y5206D01*
X662Y5203D01*
X665Y5200D01*
X668Y5197D01*
X671Y5197D01*
X672Y5197D01*
X672D01*
X673Y5197D01*
X676Y5197D01*
X679Y5200D01*
X681Y5203D01*
X682Y5206D01*
X682Y5207D01*
X682D01*
X682Y5209D01*
X679Y5214D01*
X676Y5216D01*
X673Y5217D01*
D02*
G37*
G36*
X1353D02*
X1352Y5217D01*
X1352Y5217D01*
X1351Y5217D01*
X1348Y5216D01*
X1345Y5214D01*
X1342Y5211D01*
X1342Y5208D01*
X1342Y5207D01*
X1342D01*
X1342Y5207D01*
X1342Y5207D01*
X1342Y5207D01*
X1342D01*
X1342Y5206D01*
X1342Y5203D01*
X1345Y5200D01*
X1348Y5197D01*
X1351Y5197D01*
X1352Y5197D01*
X1352D01*
X1353Y5197D01*
X1356Y5197D01*
X1359Y5200D01*
X1361Y5203D01*
X1362Y5206D01*
X1362Y5207D01*
X1362D01*
X1362Y5209D01*
X1359Y5214D01*
X1356Y5216D01*
X1353Y5217D01*
D02*
G37*
G36*
X3393D02*
X3392Y5217D01*
X3392Y5217D01*
X3391Y5217D01*
X3388Y5216D01*
X3385Y5214D01*
X3382Y5211D01*
X3382Y5208D01*
X3382Y5207D01*
X3382D01*
X3382Y5207D01*
X3382Y5207D01*
X3382Y5207D01*
X3382D01*
X3382Y5206D01*
X3382Y5203D01*
X3385Y5200D01*
X3388Y5197D01*
X3391Y5197D01*
X3392Y5197D01*
X3392D01*
X3393Y5197D01*
X3396Y5197D01*
X3399Y5200D01*
X3401Y5203D01*
X3402Y5206D01*
X3402Y5207D01*
X3402D01*
X3402Y5209D01*
X3399Y5214D01*
X3396Y5216D01*
X3393Y5217D01*
D02*
G37*
G36*
X1990Y5217D02*
X1989Y5217D01*
X1989Y5217D01*
X1988Y5217D01*
X1985Y5216D01*
X1982Y5214D01*
X1979Y5211D01*
X1979Y5208D01*
X1979Y5207D01*
X1979D01*
X1979Y5207D01*
X1979Y5207D01*
X1979Y5207D01*
X1979D01*
X1979Y5206D01*
X1979Y5203D01*
X1982Y5199D01*
X1985Y5197D01*
X1988Y5197D01*
X1990D01*
X1993Y5197D01*
X1996Y5199D01*
X1998Y5203D01*
X1999Y5206D01*
X1999Y5207D01*
X1999D01*
Y5207D01*
Y5207D01*
D01*
X1999Y5207D01*
X1999Y5207D01*
X1999D01*
X1999Y5208D01*
X1998Y5211D01*
X1996Y5214D01*
X1993Y5216D01*
X1990Y5217D01*
D02*
G37*
G36*
X2670D02*
X2669Y5217D01*
X2669Y5217D01*
X2668Y5217D01*
X2665Y5216D01*
X2661Y5214D01*
X2659Y5211D01*
X2659Y5208D01*
X2659Y5207D01*
X2659D01*
X2659Y5207D01*
X2659Y5207D01*
X2659Y5207D01*
X2659D01*
X2659Y5206D01*
X2659Y5203D01*
X2661Y5199D01*
X2665Y5197D01*
X2668Y5197D01*
X2670D01*
X2672Y5197D01*
X2676Y5199D01*
X2678Y5203D01*
X2679Y5206D01*
X2679Y5207D01*
X2679D01*
Y5207D01*
Y5207D01*
D01*
X2679Y5207D01*
X2679Y5207D01*
X2679D01*
X2679Y5208D01*
X2678Y5211D01*
X2676Y5214D01*
X2672Y5216D01*
X2670Y5217D01*
D02*
G37*
G36*
X630D02*
X629Y5217D01*
X629Y5217D01*
X628Y5217D01*
X625Y5216D01*
X621Y5214D01*
X619Y5211D01*
X619Y5208D01*
X619Y5207D01*
X619D01*
X619Y5207D01*
X619Y5207D01*
X619Y5207D01*
X619D01*
X619Y5206D01*
X619Y5203D01*
X621Y5199D01*
X625Y5197D01*
X628Y5197D01*
X630D01*
X632Y5197D01*
X636Y5199D01*
X638Y5203D01*
X639Y5206D01*
X639Y5207D01*
X639D01*
Y5207D01*
Y5207D01*
D01*
X639Y5207D01*
X639Y5207D01*
X639D01*
X639Y5208D01*
X638Y5211D01*
X636Y5214D01*
X632Y5216D01*
X630Y5217D01*
D02*
G37*
G36*
X1310D02*
X1309Y5217D01*
X1309Y5217D01*
X1308Y5217D01*
X1305Y5216D01*
X1301Y5214D01*
X1299Y5211D01*
X1299Y5208D01*
X1299Y5207D01*
X1299D01*
X1299Y5207D01*
X1299Y5207D01*
X1299Y5207D01*
X1299D01*
X1299Y5206D01*
X1299Y5203D01*
X1301Y5199D01*
X1305Y5197D01*
X1308Y5197D01*
X1310D01*
X1312Y5197D01*
X1316Y5199D01*
X1318Y5203D01*
X1319Y5206D01*
X1319Y5207D01*
X1319D01*
Y5207D01*
Y5207D01*
D01*
X1319Y5207D01*
X1319Y5207D01*
X1319D01*
X1319Y5208D01*
X1318Y5211D01*
X1316Y5214D01*
X1312Y5216D01*
X1310Y5217D01*
D02*
G37*
G36*
X3306Y5217D02*
X3305Y5217D01*
X3305Y5217D01*
X3304Y5217D01*
X3302Y5216D01*
X3298Y5214D01*
X3296Y5211D01*
X3296Y5208D01*
X3296Y5207D01*
X3295D01*
X3295Y5206D01*
X3296Y5203D01*
X3298Y5200D01*
X3301Y5197D01*
X3305Y5197D01*
X3306Y5197D01*
X3306D01*
X3307Y5197D01*
X3309Y5197D01*
X3313Y5200D01*
X3315Y5203D01*
X3315Y5206D01*
X3315Y5207D01*
X3315D01*
X3315Y5208D01*
X3315Y5211D01*
X3313Y5214D01*
X3309Y5216D01*
X3306Y5217D01*
D02*
G37*
G36*
X2077Y5217D02*
X2076Y5217D01*
Y5217D01*
X2074Y5217D01*
X2069Y5214D01*
X2066Y5211D01*
X2066Y5208D01*
X2066Y5207D01*
X2065D01*
X2065Y5206D01*
X2066Y5203D01*
X2068Y5199D01*
X2071Y5197D01*
X2074Y5197D01*
X2075Y5197D01*
X2077D01*
X2083Y5199D01*
X2085Y5203D01*
X2086Y5206D01*
X2086Y5207D01*
X2085Y5207D01*
X2085Y5208D01*
X2085Y5211D01*
X2082Y5214D01*
X2079Y5216D01*
X2077Y5217D01*
D02*
G37*
G36*
X2756D02*
X2755Y5217D01*
Y5217D01*
X2753Y5217D01*
X2748Y5214D01*
X2746Y5211D01*
X2746Y5208D01*
X2746Y5207D01*
X2745D01*
X2745Y5206D01*
X2745Y5203D01*
X2748Y5199D01*
X2751Y5197D01*
X2754Y5197D01*
X2755Y5197D01*
X2757D01*
X2762Y5199D01*
X2765Y5203D01*
X2765Y5206D01*
X2765Y5207D01*
X2765Y5207D01*
Y5207D01*
Y5207D01*
D01*
X2765Y5208D01*
X2764Y5211D01*
X2762Y5214D01*
X2759Y5216D01*
X2756Y5217D01*
D02*
G37*
G36*
X716D02*
X715Y5217D01*
Y5217D01*
X713Y5217D01*
X708Y5214D01*
X706Y5211D01*
X706Y5208D01*
X706Y5207D01*
X705D01*
X705Y5206D01*
X705Y5203D01*
X708Y5199D01*
X711Y5197D01*
X714Y5197D01*
X715Y5197D01*
X717D01*
X722Y5199D01*
X725Y5203D01*
X725Y5206D01*
X725Y5207D01*
X725Y5207D01*
X725Y5208D01*
X724Y5211D01*
X722Y5214D01*
X719Y5216D01*
X716Y5217D01*
D02*
G37*
G36*
X1396D02*
X1395Y5217D01*
Y5217D01*
X1393Y5217D01*
X1388Y5214D01*
X1386Y5211D01*
X1386Y5208D01*
X1386Y5207D01*
X1385D01*
X1385Y5206D01*
X1385Y5203D01*
X1388Y5199D01*
X1391Y5197D01*
X1394Y5197D01*
X1395Y5197D01*
X1397D01*
X1402Y5199D01*
X1405Y5203D01*
X1405Y5206D01*
X1405Y5207D01*
X1405Y5207D01*
X1405Y5208D01*
X1404Y5211D01*
X1402Y5214D01*
X1399Y5216D01*
X1396Y5217D01*
D02*
G37*
G36*
X3436D02*
X3435Y5217D01*
Y5217D01*
X3433Y5217D01*
X3428Y5214D01*
X3426Y5211D01*
X3426Y5208D01*
X3426Y5207D01*
X3425D01*
X3425Y5206D01*
X3425Y5203D01*
X3428Y5199D01*
X3431Y5197D01*
X3434Y5197D01*
X3435Y5197D01*
X3437D01*
X3442Y5199D01*
X3445Y5203D01*
X3445Y5206D01*
X3445Y5207D01*
X3445Y5207D01*
Y5207D01*
Y5207D01*
D01*
X3445Y5208D01*
X3444Y5211D01*
X3442Y5214D01*
X3439Y5216D01*
X3436Y5217D01*
D02*
G37*
G36*
X1947Y5217D02*
X1946Y5217D01*
X1946Y5217D01*
X1945Y5217D01*
X1942Y5216D01*
X1939Y5214D01*
X1936Y5211D01*
X1936Y5208D01*
X1936Y5207D01*
X1935D01*
X1935Y5206D01*
X1936Y5203D01*
X1938Y5200D01*
X1942Y5197D01*
X1945Y5197D01*
X1946Y5197D01*
X1946D01*
X1947Y5197D01*
X1950Y5197D01*
X1953Y5200D01*
X1955Y5203D01*
X1956Y5206D01*
X1956Y5207D01*
X1956D01*
X1956Y5208D01*
X1955Y5211D01*
X1953Y5214D01*
X1950Y5216D01*
X1947Y5217D01*
D02*
G37*
G36*
X2626D02*
X2625Y5217D01*
X2625Y5217D01*
X2624Y5217D01*
X2622Y5216D01*
X2618Y5214D01*
X2616Y5211D01*
X2616Y5208D01*
X2616Y5207D01*
X2615D01*
X2615Y5206D01*
X2616Y5203D01*
X2618Y5200D01*
X2621Y5197D01*
X2625Y5197D01*
X2626Y5197D01*
X2626D01*
X2627Y5197D01*
X2629Y5197D01*
X2633Y5200D01*
X2635Y5203D01*
X2635Y5206D01*
X2635Y5207D01*
X2635D01*
X2635Y5208D01*
X2635Y5211D01*
X2633Y5214D01*
X2629Y5216D01*
X2626Y5217D01*
D02*
G37*
G36*
X586D02*
X585Y5217D01*
X585Y5217D01*
X584Y5217D01*
X582Y5216D01*
X578Y5214D01*
X576Y5211D01*
X576Y5208D01*
X576Y5207D01*
X575D01*
X575Y5206D01*
X576Y5203D01*
X578Y5200D01*
X581Y5197D01*
X585Y5197D01*
X586Y5197D01*
X586D01*
X587Y5197D01*
X589Y5197D01*
X593Y5200D01*
X595Y5203D01*
X595Y5206D01*
X595Y5207D01*
X595D01*
X595Y5208D01*
X595Y5211D01*
X593Y5214D01*
X589Y5216D01*
X586Y5217D01*
D02*
G37*
G36*
X1266D02*
X1265Y5217D01*
X1265Y5217D01*
X1264Y5217D01*
X1262Y5216D01*
X1258Y5214D01*
X1256Y5211D01*
X1256Y5208D01*
X1256Y5207D01*
X1255D01*
X1255Y5206D01*
X1256Y5203D01*
X1258Y5200D01*
X1261Y5197D01*
X1265Y5197D01*
X1266Y5197D01*
X1266D01*
X1267Y5197D01*
X1269Y5197D01*
X1273Y5200D01*
X1275Y5203D01*
X1275Y5206D01*
X1275Y5207D01*
X1275D01*
X1275Y5208D01*
X1275Y5211D01*
X1273Y5214D01*
X1269Y5216D01*
X1266Y5217D01*
D02*
G37*
G36*
X3350Y5217D02*
X3349Y5217D01*
X3349Y5217D01*
X3348Y5217D01*
X3345Y5216D01*
X3341Y5214D01*
X3339Y5211D01*
X3339Y5208D01*
X3339Y5207D01*
X3339D01*
X3339Y5207D01*
X3339Y5207D01*
X3339Y5207D01*
X3339D01*
X3339Y5206D01*
X3339Y5203D01*
X3341Y5199D01*
X3345Y5197D01*
X3348Y5197D01*
X3350D01*
X3352Y5197D01*
X3356Y5199D01*
X3358Y5203D01*
X3359Y5206D01*
X3359Y5207D01*
X3359D01*
Y5207D01*
Y5207D01*
D01*
X3359Y5207D01*
X3359Y5207D01*
X3359D01*
X3359Y5208D01*
X3358Y5211D01*
X3356Y5214D01*
X3352Y5216D01*
X3350Y5217D01*
D02*
G37*
G36*
X1947Y5260D02*
X1946Y5260D01*
X1946Y5260D01*
X1945Y5260D01*
X1942Y5259D01*
X1939Y5257D01*
X1936Y5254D01*
X1936Y5251D01*
X1936Y5250D01*
X1935D01*
X1935Y5250D01*
X1936Y5246D01*
X1938Y5243D01*
X1942Y5241D01*
X1945Y5240D01*
X1946Y5240D01*
X1946D01*
X1947Y5240D01*
X1950Y5241D01*
X1953Y5243D01*
X1955Y5246D01*
X1956Y5249D01*
X1956Y5250D01*
X1956D01*
X1956Y5251D01*
X1955Y5254D01*
X1953Y5257D01*
X1950Y5259D01*
X1947Y5260D01*
D02*
G37*
G36*
X2626D02*
X2625Y5260D01*
X2625Y5260D01*
X2624Y5260D01*
X2622Y5259D01*
X2618Y5257D01*
X2616Y5254D01*
X2616Y5251D01*
X2616Y5250D01*
X2615D01*
X2615Y5250D01*
X2616Y5246D01*
X2618Y5243D01*
X2621Y5241D01*
X2625Y5240D01*
X2626Y5240D01*
X2626D01*
X2627Y5240D01*
X2629Y5241D01*
X2633Y5243D01*
X2635Y5246D01*
X2635Y5249D01*
X2635Y5250D01*
X2635D01*
X2635Y5251D01*
X2635Y5254D01*
X2633Y5257D01*
X2629Y5259D01*
X2626Y5260D01*
D02*
G37*
G36*
X586D02*
X585Y5260D01*
X585Y5260D01*
X584Y5260D01*
X582Y5259D01*
X578Y5257D01*
X576Y5254D01*
X576Y5251D01*
X576Y5250D01*
X575D01*
X575Y5250D01*
X576Y5246D01*
X578Y5243D01*
X581Y5241D01*
X585Y5240D01*
X586Y5240D01*
X586D01*
X587Y5240D01*
X589Y5241D01*
X593Y5243D01*
X595Y5246D01*
X595Y5249D01*
X595Y5250D01*
X595D01*
X595Y5251D01*
X595Y5254D01*
X593Y5257D01*
X589Y5259D01*
X586Y5260D01*
D02*
G37*
G36*
X1266D02*
X1265Y5260D01*
X1265Y5260D01*
X1264Y5260D01*
X1262Y5259D01*
X1258Y5257D01*
X1256Y5254D01*
X1256Y5251D01*
X1256Y5250D01*
X1255D01*
X1255Y5250D01*
X1256Y5246D01*
X1258Y5243D01*
X1261Y5241D01*
X1265Y5240D01*
X1266Y5240D01*
X1266D01*
X1267Y5240D01*
X1269Y5241D01*
X1273Y5243D01*
X1275Y5246D01*
X1275Y5249D01*
X1275Y5250D01*
X1275D01*
X1275Y5251D01*
X1275Y5254D01*
X1273Y5257D01*
X1269Y5259D01*
X1266Y5260D01*
D02*
G37*
G36*
X3306D02*
X3305Y5260D01*
X3305Y5260D01*
X3304Y5260D01*
X3302Y5259D01*
X3298Y5257D01*
X3296Y5254D01*
X3296Y5251D01*
X3296Y5250D01*
X3295D01*
X3295Y5250D01*
X3296Y5246D01*
X3298Y5243D01*
X3301Y5241D01*
X3305Y5240D01*
X3306Y5240D01*
X3306D01*
X3307Y5240D01*
X3309Y5241D01*
X3313Y5243D01*
X3315Y5246D01*
X3315Y5249D01*
X3315Y5250D01*
X3315D01*
X3315Y5251D01*
X3315Y5254D01*
X3313Y5257D01*
X3309Y5259D01*
X3306Y5260D01*
D02*
G37*
G36*
X2033Y5260D02*
X2032Y5260D01*
X2032Y5260D01*
X2031Y5260D01*
X2028Y5259D01*
X2025Y5257D01*
X2023Y5254D01*
X2022Y5251D01*
X2022Y5250D01*
X2022D01*
X2022Y5250D01*
X2022Y5250D01*
X2022Y5250D01*
X2022D01*
X2022Y5249D01*
X2023Y5246D01*
X2025Y5243D01*
X2028Y5241D01*
X2031Y5240D01*
X2032Y5240D01*
X2032D01*
X2033Y5240D01*
X2036Y5241D01*
X2039Y5243D01*
X2041Y5246D01*
X2042Y5249D01*
X2042Y5250D01*
X2042D01*
X2042Y5252D01*
X2039Y5257D01*
X2036Y5259D01*
X2033Y5260D01*
D02*
G37*
G36*
X2713D02*
X2712Y5260D01*
X2712Y5260D01*
X2711Y5260D01*
X2708Y5259D01*
X2705Y5257D01*
X2702Y5254D01*
X2702Y5251D01*
X2702Y5250D01*
X2702D01*
X2702Y5250D01*
X2702Y5250D01*
X2702Y5250D01*
X2702D01*
X2702Y5249D01*
X2702Y5246D01*
X2705Y5243D01*
X2708Y5241D01*
X2711Y5240D01*
X2712Y5240D01*
X2712D01*
X2713Y5240D01*
X2716Y5241D01*
X2719Y5243D01*
X2721Y5246D01*
X2722Y5249D01*
X2722Y5250D01*
X2722D01*
X2722Y5252D01*
X2719Y5257D01*
X2716Y5259D01*
X2713Y5260D01*
D02*
G37*
G36*
X673D02*
X672Y5260D01*
X672Y5260D01*
X671Y5260D01*
X668Y5259D01*
X665Y5257D01*
X662Y5254D01*
X662Y5251D01*
X662Y5250D01*
X662D01*
X662Y5250D01*
X662Y5250D01*
X662Y5250D01*
X662D01*
X662Y5249D01*
X662Y5246D01*
X665Y5243D01*
X668Y5241D01*
X671Y5240D01*
X672Y5240D01*
X672D01*
X673Y5240D01*
X676Y5241D01*
X679Y5243D01*
X681Y5246D01*
X682Y5249D01*
X682Y5250D01*
X682D01*
X682Y5252D01*
X679Y5257D01*
X676Y5259D01*
X673Y5260D01*
D02*
G37*
G36*
X1353D02*
X1352Y5260D01*
X1352Y5260D01*
X1351Y5260D01*
X1348Y5259D01*
X1345Y5257D01*
X1342Y5254D01*
X1342Y5251D01*
X1342Y5250D01*
X1342D01*
X1342Y5250D01*
X1342Y5250D01*
X1342Y5250D01*
X1342D01*
X1342Y5249D01*
X1342Y5246D01*
X1345Y5243D01*
X1348Y5241D01*
X1351Y5240D01*
X1352Y5240D01*
X1352D01*
X1353Y5240D01*
X1356Y5241D01*
X1359Y5243D01*
X1361Y5246D01*
X1362Y5249D01*
X1362Y5250D01*
X1362D01*
X1362Y5252D01*
X1359Y5257D01*
X1356Y5259D01*
X1353Y5260D01*
D02*
G37*
G36*
X3436Y5260D02*
X3435Y5260D01*
Y5260D01*
X3433Y5260D01*
X3428Y5257D01*
X3426Y5254D01*
X3426Y5251D01*
X3426Y5250D01*
X3425D01*
X3425Y5249D01*
X3425Y5246D01*
X3428Y5243D01*
X3431Y5240D01*
X3434Y5240D01*
X3435Y5240D01*
X3437D01*
X3442Y5243D01*
X3445Y5246D01*
X3445Y5249D01*
X3445Y5251D01*
X3445Y5251D01*
Y5251D01*
Y5251D01*
D01*
X3445Y5251D01*
X3444Y5254D01*
X3442Y5257D01*
X3439Y5259D01*
X3436Y5260D01*
D02*
G37*
G36*
X1903Y5217D02*
X1902Y5217D01*
Y5217D01*
X1901D01*
X1898Y5216D01*
X1895Y5214D01*
X1893Y5211D01*
X1892Y5208D01*
Y5207D01*
X1892D01*
X1892Y5207D01*
Y5206D01*
X1893Y5203D01*
X1895Y5200D01*
X1898Y5197D01*
X1901Y5197D01*
X1902D01*
X1904Y5197D01*
X1909Y5200D01*
X1911Y5203D01*
X1912Y5206D01*
X1912Y5207D01*
X1913D01*
X1913Y5208D01*
X1912Y5211D01*
X1910Y5214D01*
X1906Y5216D01*
X1903Y5217D01*
D02*
G37*
G36*
X2583D02*
X2582Y5217D01*
Y5217D01*
X2581D01*
X2578Y5216D01*
X2575Y5214D01*
X2572Y5211D01*
X2572Y5208D01*
Y5207D01*
X2572D01*
X2572Y5207D01*
Y5206D01*
X2572Y5203D01*
X2575Y5200D01*
X2578Y5197D01*
X2581Y5197D01*
X2582D01*
X2584Y5197D01*
X2589Y5200D01*
X2591Y5203D01*
X2592Y5206D01*
X2592Y5207D01*
X2592D01*
X2592Y5208D01*
X2592Y5211D01*
X2590Y5214D01*
X2586Y5216D01*
X2583Y5217D01*
D02*
G37*
G36*
X543D02*
X542Y5217D01*
Y5217D01*
X541D01*
X538Y5216D01*
X535Y5214D01*
X532Y5211D01*
X532Y5208D01*
Y5207D01*
X532D01*
X532Y5207D01*
Y5206D01*
X532Y5203D01*
X535Y5200D01*
X538Y5197D01*
X541Y5197D01*
X542D01*
X544Y5197D01*
X549Y5200D01*
X551Y5203D01*
X552Y5206D01*
X552Y5207D01*
X552D01*
X552Y5208D01*
X552Y5211D01*
X550Y5214D01*
X546Y5216D01*
X543Y5217D01*
D02*
G37*
G36*
X1223D02*
X1222Y5217D01*
Y5217D01*
X1221D01*
X1218Y5216D01*
X1215Y5214D01*
X1212Y5211D01*
X1212Y5208D01*
Y5207D01*
X1212D01*
X1212Y5207D01*
Y5206D01*
X1212Y5203D01*
X1215Y5200D01*
X1218Y5197D01*
X1221Y5197D01*
X1222D01*
X1224Y5197D01*
X1229Y5200D01*
X1231Y5203D01*
X1232Y5206D01*
X1232Y5207D01*
X1232D01*
X1232Y5208D01*
X1232Y5211D01*
X1230Y5214D01*
X1226Y5216D01*
X1223Y5217D01*
D02*
G37*
G36*
X3263D02*
X3262Y5217D01*
Y5217D01*
X3261D01*
X3258Y5216D01*
X3255Y5214D01*
X3252Y5211D01*
X3252Y5208D01*
Y5207D01*
X3252D01*
X3252Y5207D01*
Y5206D01*
X3252Y5203D01*
X3255Y5200D01*
X3258Y5197D01*
X3261Y5197D01*
X3262D01*
X3264Y5197D01*
X3269Y5200D01*
X3271Y5203D01*
X3272Y5206D01*
X3272Y5207D01*
X3272D01*
X3272Y5208D01*
X3272Y5211D01*
X3270Y5214D01*
X3266Y5216D01*
X3263Y5217D01*
D02*
G37*
G36*
X2077Y5260D02*
X2076Y5260D01*
Y5260D01*
X2074Y5260D01*
X2069Y5257D01*
X2066Y5254D01*
X2066Y5251D01*
X2066Y5250D01*
X2065D01*
X2065Y5249D01*
X2066Y5246D01*
X2068Y5243D01*
X2071Y5240D01*
X2074Y5240D01*
X2075Y5240D01*
X2077D01*
X2083Y5243D01*
X2085Y5246D01*
X2086Y5249D01*
X2086Y5251D01*
X2085Y5251D01*
X2085Y5251D01*
X2085Y5254D01*
X2082Y5257D01*
X2079Y5259D01*
X2077Y5260D01*
D02*
G37*
G36*
X2756D02*
X2755Y5260D01*
Y5260D01*
X2753Y5260D01*
X2748Y5257D01*
X2746Y5254D01*
X2746Y5251D01*
X2746Y5250D01*
X2745D01*
X2745Y5249D01*
X2745Y5246D01*
X2748Y5243D01*
X2751Y5240D01*
X2754Y5240D01*
X2755Y5240D01*
X2757D01*
X2762Y5243D01*
X2765Y5246D01*
X2765Y5249D01*
X2765Y5251D01*
X2765Y5251D01*
Y5251D01*
Y5251D01*
D01*
X2765Y5251D01*
X2764Y5254D01*
X2762Y5257D01*
X2759Y5259D01*
X2756Y5260D01*
D02*
G37*
G36*
X716D02*
X715Y5260D01*
Y5260D01*
X713Y5260D01*
X708Y5257D01*
X706Y5254D01*
X706Y5251D01*
X706Y5250D01*
X705D01*
X705Y5249D01*
X705Y5246D01*
X708Y5243D01*
X711Y5240D01*
X714Y5240D01*
X715Y5240D01*
X717D01*
X722Y5243D01*
X725Y5246D01*
X725Y5249D01*
X725Y5251D01*
X725Y5251D01*
X725Y5251D01*
X724Y5254D01*
X722Y5257D01*
X719Y5259D01*
X716Y5260D01*
D02*
G37*
G36*
X1396D02*
X1395Y5260D01*
Y5260D01*
X1393Y5260D01*
X1388Y5257D01*
X1386Y5254D01*
X1386Y5251D01*
X1386Y5250D01*
X1385D01*
X1385Y5249D01*
X1385Y5246D01*
X1388Y5243D01*
X1391Y5240D01*
X1394Y5240D01*
X1395Y5240D01*
X1397D01*
X1402Y5243D01*
X1405Y5246D01*
X1405Y5249D01*
X1405Y5251D01*
X1405Y5251D01*
X1405Y5251D01*
X1404Y5254D01*
X1402Y5257D01*
X1399Y5259D01*
X1396Y5260D01*
D02*
G37*
G36*
X2028Y7698D02*
X2026D01*
X2023Y7697D01*
X2020Y7695D01*
X2018Y7692D01*
X2017Y7689D01*
Y7688D01*
Y7687D01*
X2016D01*
Y7687D01*
X2017Y7684D01*
X2019Y7680D01*
X2023Y7678D01*
X2026Y7677D01*
X2028D01*
X2031Y7678D01*
X2034Y7680D01*
X2037Y7683D01*
X2037Y7686D01*
Y7687D01*
X2037D01*
Y7688D01*
Y7689D01*
X2036Y7692D01*
X2034Y7695D01*
X2031Y7697D01*
X2028Y7698D01*
D02*
G37*
G36*
X2068D02*
X2066D01*
X2064Y7697D01*
X2060Y7695D01*
X2058Y7692D01*
X2058Y7689D01*
Y7688D01*
Y7687D01*
X2057D01*
Y7686D01*
X2057Y7683D01*
X2059Y7680D01*
X2063Y7678D01*
X2066Y7677D01*
X2068D01*
X2071Y7678D01*
X2074Y7680D01*
X2077Y7684D01*
X2077Y7687D01*
X2077D01*
Y7688D01*
Y7689D01*
X2077Y7692D01*
X2075Y7695D01*
X2071Y7697D01*
X2068Y7698D01*
D02*
G37*
G36*
X1989Y7699D02*
X1987D01*
X1984Y7698D01*
X1980Y7696D01*
X1978Y7692D01*
X1977Y7689D01*
Y7688D01*
Y7687D01*
Y7686D01*
X1977Y7683D01*
X1980Y7680D01*
X1983Y7678D01*
X1986Y7677D01*
X1988D01*
X1991Y7678D01*
X1994Y7680D01*
X1997Y7684D01*
X1997Y7687D01*
Y7687D01*
X1997D01*
Y7690D01*
Y7691D01*
X1996Y7694D01*
X1994Y7696D01*
X1991Y7698D01*
X1989Y7699D01*
D02*
G37*
G36*
X1707Y7698D02*
X1705D01*
X1702Y7697D01*
X1699Y7695D01*
X1697Y7692D01*
X1696Y7689D01*
Y7688D01*
Y7687D01*
X1695D01*
Y7687D01*
X1696Y7684D01*
X1698Y7680D01*
X1702Y7678D01*
X1705Y7677D01*
X1707D01*
X1710Y7678D01*
X1713Y7680D01*
X1716Y7684D01*
X1716Y7687D01*
Y7687D01*
X1716D01*
Y7688D01*
Y7689D01*
X1715Y7692D01*
X1713Y7695D01*
X1710Y7697D01*
X1707Y7698D01*
D02*
G37*
G36*
X1948D02*
X1946D01*
X1944Y7697D01*
X1940Y7695D01*
X1938Y7692D01*
X1938Y7689D01*
Y7688D01*
Y7687D01*
X1937D01*
Y7687D01*
X1937Y7684D01*
X1940Y7680D01*
X1943Y7678D01*
X1946Y7677D01*
X1948D01*
X1951Y7678D01*
X1955Y7680D01*
X1957Y7683D01*
X1957Y7686D01*
Y7687D01*
X1956D01*
Y7689D01*
Y7690D01*
X1956Y7693D01*
X1954Y7695D01*
X1951Y7697D01*
X1948Y7698D01*
D02*
G37*
G36*
X2484D02*
X2482D01*
X2479Y7697D01*
X2476Y7695D01*
X2473Y7692D01*
X2473Y7689D01*
Y7688D01*
Y7687D01*
X2472D01*
Y7687D01*
X2473Y7684D01*
X2475Y7680D01*
X2478Y7678D01*
X2482Y7677D01*
X2484D01*
X2487Y7678D01*
X2490Y7680D01*
X2492Y7683D01*
X2493Y7686D01*
Y7687D01*
X2492D01*
Y7688D01*
Y7689D01*
X2492Y7692D01*
X2490Y7695D01*
X2486Y7697D01*
X2484Y7698D01*
D02*
G37*
G36*
X2524D02*
X2522D01*
X2519Y7697D01*
X2516Y7695D01*
X2514Y7692D01*
X2513Y7689D01*
Y7688D01*
Y7687D01*
X2512D01*
Y7686D01*
X2513Y7683D01*
X2515Y7680D01*
X2518Y7678D01*
X2521Y7677D01*
X2523D01*
X2526Y7678D01*
X2530Y7680D01*
X2532Y7684D01*
X2533Y7687D01*
X2533D01*
Y7688D01*
Y7689D01*
X2532Y7692D01*
X2530Y7695D01*
X2527Y7697D01*
X2524Y7698D01*
D02*
G37*
G36*
X2444Y7699D02*
X2442D01*
X2439Y7698D01*
X2435Y7696D01*
X2433Y7692D01*
X2432Y7689D01*
Y7688D01*
Y7687D01*
Y7686D01*
X2433Y7683D01*
X2435Y7680D01*
X2438Y7678D01*
X2441Y7677D01*
X2443D01*
X2446Y7678D01*
X2450Y7680D01*
X2452Y7684D01*
X2453Y7687D01*
Y7687D01*
X2452D01*
Y7690D01*
Y7691D01*
X2452Y7694D01*
X2450Y7696D01*
X2447Y7698D01*
X2444Y7699D01*
D02*
G37*
G36*
X2108Y7698D02*
X2106D01*
X2103Y7697D01*
X2100Y7695D01*
X2098Y7692D01*
X2097Y7689D01*
Y7688D01*
Y7687D01*
X2096D01*
Y7687D01*
X2097Y7684D01*
X2099Y7680D01*
X2103Y7678D01*
X2106Y7677D01*
X2108D01*
X2111Y7678D01*
X2114Y7680D01*
X2117Y7684D01*
X2117Y7687D01*
Y7687D01*
X2117D01*
Y7688D01*
Y7689D01*
X2116Y7692D01*
X2114Y7695D01*
X2111Y7697D01*
X2108Y7698D01*
D02*
G37*
G36*
X2404D02*
X2402D01*
X2399Y7697D01*
X2396Y7695D01*
X2394Y7692D01*
X2393Y7689D01*
Y7688D01*
Y7687D01*
X2392D01*
Y7687D01*
X2393Y7684D01*
X2395Y7680D01*
X2399Y7678D01*
X2402Y7677D01*
X2404D01*
X2407Y7678D01*
X2410Y7680D01*
X2412Y7683D01*
X2413Y7686D01*
Y7687D01*
X2412D01*
Y7689D01*
Y7690D01*
X2411Y7693D01*
X2409Y7695D01*
X2406Y7697D01*
X2404Y7698D01*
D02*
G37*
G36*
X1229D02*
X1227D01*
X1224Y7697D01*
X1221Y7695D01*
X1218Y7692D01*
X1218Y7689D01*
Y7688D01*
Y7687D01*
X1217D01*
Y7687D01*
X1218Y7684D01*
X1220Y7680D01*
X1223Y7678D01*
X1227Y7677D01*
X1229D01*
X1232Y7678D01*
X1235Y7680D01*
X1237Y7683D01*
X1238Y7686D01*
Y7687D01*
X1237D01*
Y7688D01*
Y7689D01*
X1237Y7692D01*
X1235Y7695D01*
X1231Y7697D01*
X1229Y7698D01*
D02*
G37*
G36*
X1269D02*
X1267D01*
X1264Y7697D01*
X1261Y7695D01*
X1259Y7692D01*
X1258Y7689D01*
Y7688D01*
Y7687D01*
X1257D01*
Y7686D01*
X1258Y7683D01*
X1260Y7680D01*
X1263Y7678D01*
X1266Y7677D01*
X1268D01*
X1271Y7678D01*
X1275Y7680D01*
X1277Y7684D01*
X1278Y7687D01*
X1278D01*
Y7688D01*
Y7689D01*
X1277Y7692D01*
X1275Y7695D01*
X1272Y7697D01*
X1269Y7698D01*
D02*
G37*
G36*
X1189Y7699D02*
X1187D01*
X1184Y7698D01*
X1180Y7696D01*
X1178Y7692D01*
X1177Y7689D01*
Y7688D01*
Y7687D01*
Y7686D01*
X1178Y7683D01*
X1180Y7680D01*
X1183Y7678D01*
X1186Y7677D01*
X1188D01*
X1191Y7678D01*
X1195Y7680D01*
X1197Y7684D01*
X1198Y7687D01*
Y7687D01*
X1197D01*
Y7690D01*
Y7691D01*
X1197Y7694D01*
X1195Y7696D01*
X1192Y7698D01*
X1189Y7699D01*
D02*
G37*
G36*
X2563Y7658D02*
X2561D01*
X2558Y7657D01*
X2555Y7655D01*
X2553Y7652D01*
X2552Y7649D01*
Y7648D01*
Y7647D01*
X2552D01*
X2552Y7644D01*
X2555Y7641D01*
X2558Y7639D01*
X2561Y7638D01*
X2563D01*
X2566Y7639D01*
X2570Y7641D01*
X2572Y7644D01*
X2573Y7647D01*
X2572D01*
Y7648D01*
Y7649D01*
X2572Y7652D01*
X2569Y7655D01*
X2566Y7657D01*
X2563Y7658D01*
D02*
G37*
G36*
X1149Y7698D02*
X1147D01*
X1144Y7697D01*
X1141Y7695D01*
X1139Y7692D01*
X1138Y7689D01*
Y7688D01*
Y7687D01*
X1137D01*
Y7687D01*
X1138Y7684D01*
X1140Y7680D01*
X1144Y7678D01*
X1147Y7677D01*
X1149D01*
X1152Y7678D01*
X1155Y7680D01*
X1157Y7683D01*
X1158Y7686D01*
Y7687D01*
X1157D01*
Y7689D01*
Y7690D01*
X1156Y7693D01*
X1154Y7695D01*
X1151Y7697D01*
X1149Y7698D01*
D02*
G37*
G36*
X1627D02*
X1625D01*
X1622Y7697D01*
X1619Y7695D01*
X1617Y7692D01*
X1616Y7689D01*
Y7688D01*
Y7687D01*
X1615D01*
Y7687D01*
X1616Y7684D01*
X1618Y7680D01*
X1622Y7678D01*
X1625Y7677D01*
X1627D01*
X1630Y7678D01*
X1633Y7680D01*
X1636Y7683D01*
X1636Y7686D01*
Y7687D01*
X1636D01*
Y7688D01*
Y7689D01*
X1635Y7692D01*
X1633Y7695D01*
X1630Y7697D01*
X1627Y7698D01*
D02*
G37*
G36*
X1667D02*
X1665D01*
X1663Y7697D01*
X1659Y7695D01*
X1657Y7692D01*
X1657Y7689D01*
Y7688D01*
Y7687D01*
X1656D01*
Y7686D01*
X1656Y7683D01*
X1658Y7680D01*
X1662Y7678D01*
X1665Y7677D01*
X1667D01*
X1670Y7678D01*
X1673Y7680D01*
X1676Y7684D01*
X1676Y7687D01*
X1676D01*
Y7688D01*
Y7689D01*
X1676Y7692D01*
X1674Y7695D01*
X1670Y7697D01*
X1667Y7698D01*
D02*
G37*
G36*
X1588Y7699D02*
X1586D01*
X1583Y7698D01*
X1579Y7696D01*
X1577Y7692D01*
X1576Y7689D01*
Y7688D01*
Y7687D01*
Y7686D01*
X1576Y7683D01*
X1579Y7680D01*
X1582Y7678D01*
X1585Y7677D01*
X1587D01*
X1590Y7678D01*
X1593Y7680D01*
X1596Y7684D01*
X1596Y7687D01*
Y7687D01*
X1596D01*
Y7690D01*
Y7691D01*
X1595Y7694D01*
X1593Y7696D01*
X1590Y7698D01*
X1588Y7699D01*
D02*
G37*
G36*
X1308Y7698D02*
X1306D01*
X1303Y7697D01*
X1300Y7695D01*
X1298Y7692D01*
X1297Y7689D01*
Y7688D01*
Y7687D01*
X1296D01*
Y7687D01*
X1297Y7684D01*
X1300Y7680D01*
X1303Y7678D01*
X1306Y7677D01*
X1308D01*
X1311Y7678D01*
X1315Y7680D01*
X1317Y7684D01*
X1318Y7687D01*
Y7687D01*
X1317D01*
Y7688D01*
Y7689D01*
X1317Y7692D01*
X1314Y7695D01*
X1311Y7697D01*
X1308Y7698D01*
D02*
G37*
G36*
X1547D02*
X1545D01*
X1543Y7697D01*
X1539Y7695D01*
X1537Y7692D01*
X1537Y7689D01*
Y7688D01*
Y7687D01*
X1536D01*
Y7687D01*
X1536Y7684D01*
X1539Y7680D01*
X1542Y7678D01*
X1545Y7677D01*
X1547D01*
X1550Y7678D01*
X1554Y7680D01*
X1556Y7683D01*
X1556Y7686D01*
Y7687D01*
X1555D01*
Y7689D01*
Y7690D01*
X1555Y7693D01*
X1553Y7695D01*
X1550Y7697D01*
X1547Y7698D01*
D02*
G37*
G36*
X2563D02*
X2561D01*
X2558Y7697D01*
X2555Y7695D01*
X2553Y7692D01*
X2552Y7689D01*
Y7688D01*
Y7687D01*
X2551D01*
Y7687D01*
X2552Y7684D01*
X2555Y7680D01*
X2558Y7678D01*
X2561Y7677D01*
X2563D01*
X2566Y7678D01*
X2570Y7680D01*
X2572Y7684D01*
X2573Y7687D01*
Y7687D01*
X2572D01*
Y7688D01*
Y7689D01*
X2572Y7692D01*
X2569Y7695D01*
X2566Y7697D01*
X2563Y7698D01*
D02*
G37*
G36*
X2068Y7739D02*
X2066D01*
X2063Y7739D01*
X2060Y7736D01*
X2057Y7733D01*
X2057Y7730D01*
Y7728D01*
Y7727D01*
Y7726D01*
X2057Y7724D01*
X2059Y7720D01*
X2063Y7718D01*
X2066Y7718D01*
X2068D01*
X2071Y7718D01*
X2074Y7721D01*
X2077Y7724D01*
X2077Y7727D01*
Y7729D01*
Y7730D01*
X2077Y7733D01*
X2075Y7737D01*
X2071Y7739D01*
X2068Y7739D01*
D02*
G37*
G36*
X2108D02*
X2106D01*
X2103Y7739D01*
X2099Y7736D01*
X2097Y7733D01*
X2096Y7730D01*
Y7728D01*
Y7727D01*
X2097Y7724D01*
X2099Y7721D01*
X2103Y7718D01*
X2106Y7718D01*
X2108D01*
X2111Y7718D01*
X2114Y7721D01*
X2117Y7724D01*
X2117Y7727D01*
Y7728D01*
Y7731D01*
X2117Y7733D01*
X2115Y7736D01*
X2111Y7739D01*
X2108Y7739D01*
D02*
G37*
G36*
X2029Y7738D02*
X2026D01*
X2023Y7738D01*
X2019Y7735D01*
X2017Y7732D01*
X2016Y7730D01*
Y7728D01*
Y7727D01*
X2017Y7724D01*
X2019Y7721D01*
X2023Y7718D01*
X2026Y7718D01*
X2028D01*
X2031Y7718D01*
X2034Y7720D01*
X2037Y7724D01*
X2037Y7726D01*
X2037D01*
Y7729D01*
Y7730D01*
X2036Y7733D01*
X2034Y7736D01*
X2032Y7738D01*
X2029Y7738D01*
D02*
G37*
G36*
X1948Y7739D02*
X1947D01*
X1947Y7739D01*
X1946D01*
X1943Y7738D01*
X1939Y7735D01*
X1937Y7732D01*
X1937Y7730D01*
X1937D01*
Y7728D01*
Y7727D01*
X1937Y7724D01*
X1940Y7721D01*
X1943Y7718D01*
X1946Y7718D01*
X1948D01*
X1951Y7718D01*
X1955Y7720D01*
X1957Y7724D01*
X1957Y7727D01*
Y7727D01*
X1957D01*
X1957Y7729D01*
Y7730D01*
X1957Y7733D01*
X1954Y7736D01*
X1951Y7739D01*
X1948Y7739D01*
D02*
G37*
G36*
X1988Y7739D02*
X1986D01*
X1983Y7739D01*
X1980Y7737D01*
X1977Y7733D01*
X1977Y7730D01*
Y7729D01*
Y7727D01*
Y7726D01*
X1977Y7724D01*
X1980Y7720D01*
X1983Y7718D01*
X1986Y7718D01*
X1988D01*
X1991Y7718D01*
X1994Y7721D01*
X1997Y7724D01*
X1997Y7727D01*
Y7728D01*
Y7731D01*
X1997Y7733D01*
X1995Y7736D01*
X1991Y7739D01*
X1988Y7739D01*
D02*
G37*
G36*
X2524D02*
X2522D01*
X2519Y7739D01*
X2515Y7736D01*
X2513Y7733D01*
X2512Y7730D01*
Y7728D01*
Y7727D01*
Y7726D01*
X2513Y7724D01*
X2515Y7720D01*
X2518Y7718D01*
X2521Y7718D01*
X2523D01*
X2526Y7718D01*
X2530Y7721D01*
X2532Y7724D01*
X2533Y7727D01*
Y7729D01*
Y7730D01*
X2532Y7733D01*
X2530Y7737D01*
X2527Y7739D01*
X2524Y7739D01*
D02*
G37*
G36*
X2563D02*
X2561D01*
X2558Y7739D01*
X2555Y7736D01*
X2552Y7733D01*
X2551Y7730D01*
Y7728D01*
Y7727D01*
X2552Y7724D01*
X2555Y7721D01*
X2558Y7718D01*
X2561Y7718D01*
X2563D01*
X2566Y7718D01*
X2570Y7721D01*
X2572Y7724D01*
X2573Y7727D01*
Y7728D01*
Y7731D01*
X2573Y7733D01*
X2570Y7736D01*
X2567Y7739D01*
X2563Y7739D01*
D02*
G37*
G36*
X2484Y7738D02*
X2482D01*
X2478Y7738D01*
X2475Y7735D01*
X2472Y7732D01*
X2472Y7730D01*
Y7728D01*
Y7727D01*
X2473Y7724D01*
X2475Y7721D01*
X2478Y7718D01*
X2482Y7718D01*
X2484D01*
X2487Y7718D01*
X2490Y7720D01*
X2492Y7724D01*
X2493Y7726D01*
X2492D01*
Y7729D01*
Y7730D01*
X2492Y7733D01*
X2490Y7736D01*
X2487Y7738D01*
X2484Y7738D01*
D02*
G37*
G36*
X2404Y7739D02*
X2403D01*
X2403Y7739D01*
X2402D01*
X2398Y7738D01*
X2395Y7735D01*
X2392Y7732D01*
X2392Y7730D01*
X2392D01*
Y7728D01*
Y7727D01*
X2393Y7724D01*
X2395Y7721D01*
X2399Y7718D01*
X2402Y7718D01*
X2404D01*
X2407Y7718D01*
X2410Y7720D01*
X2412Y7724D01*
X2413Y7727D01*
Y7727D01*
X2413D01*
X2413Y7729D01*
Y7730D01*
X2412Y7733D01*
X2410Y7736D01*
X2407Y7739D01*
X2404Y7739D01*
D02*
G37*
G36*
X2443Y7739D02*
X2441D01*
X2438Y7739D01*
X2435Y7737D01*
X2433Y7733D01*
X2432Y7730D01*
Y7729D01*
Y7727D01*
Y7726D01*
X2433Y7724D01*
X2435Y7720D01*
X2438Y7718D01*
X2441Y7718D01*
X2443D01*
X2446Y7718D01*
X2450Y7721D01*
X2452Y7724D01*
X2453Y7727D01*
Y7728D01*
Y7731D01*
X2452Y7733D01*
X2450Y7736D01*
X2446Y7739D01*
X2443Y7739D01*
D02*
G37*
G36*
X1269D02*
X1267D01*
X1264Y7739D01*
X1260Y7736D01*
X1258Y7733D01*
X1257Y7730D01*
Y7728D01*
Y7727D01*
Y7726D01*
X1258Y7724D01*
X1260Y7720D01*
X1263Y7718D01*
X1266Y7718D01*
X1268D01*
X1271Y7718D01*
X1275Y7721D01*
X1277Y7724D01*
X1278Y7727D01*
Y7729D01*
Y7730D01*
X1277Y7733D01*
X1275Y7737D01*
X1272Y7739D01*
X1269Y7739D01*
D02*
G37*
G36*
X1308D02*
X1306D01*
X1303Y7739D01*
X1300Y7736D01*
X1297Y7733D01*
X1296Y7730D01*
Y7728D01*
Y7727D01*
X1297Y7724D01*
X1300Y7721D01*
X1303Y7718D01*
X1306Y7718D01*
X1308D01*
X1311Y7718D01*
X1315Y7721D01*
X1317Y7724D01*
X1318Y7727D01*
Y7728D01*
Y7731D01*
X1318Y7733D01*
X1315Y7736D01*
X1312Y7739D01*
X1308Y7739D01*
D02*
G37*
G36*
X1229Y7738D02*
X1227D01*
X1223Y7738D01*
X1220Y7735D01*
X1217Y7732D01*
X1217Y7730D01*
Y7728D01*
Y7727D01*
X1218Y7724D01*
X1220Y7721D01*
X1223Y7718D01*
X1227Y7718D01*
X1229D01*
X1232Y7718D01*
X1235Y7720D01*
X1237Y7724D01*
X1238Y7726D01*
X1237D01*
Y7729D01*
Y7730D01*
X1237Y7733D01*
X1235Y7736D01*
X1232Y7738D01*
X1229Y7738D01*
D02*
G37*
G36*
X1149Y7739D02*
X1148D01*
X1148Y7739D01*
X1147D01*
X1143Y7738D01*
X1140Y7735D01*
X1137Y7732D01*
X1137Y7730D01*
X1137D01*
Y7728D01*
Y7727D01*
X1138Y7724D01*
X1140Y7721D01*
X1144Y7718D01*
X1147Y7718D01*
X1149D01*
X1152Y7718D01*
X1155Y7720D01*
X1157Y7724D01*
X1158Y7727D01*
Y7727D01*
X1158D01*
X1158Y7729D01*
Y7730D01*
X1157Y7733D01*
X1155Y7736D01*
X1152Y7739D01*
X1149Y7739D01*
D02*
G37*
G36*
X1188Y7739D02*
X1186D01*
X1183Y7739D01*
X1180Y7737D01*
X1178Y7733D01*
X1177Y7730D01*
Y7729D01*
Y7727D01*
Y7726D01*
X1178Y7724D01*
X1180Y7720D01*
X1183Y7718D01*
X1186Y7718D01*
X1188D01*
X1191Y7718D01*
X1195Y7721D01*
X1197Y7724D01*
X1198Y7727D01*
Y7728D01*
Y7731D01*
X1197Y7733D01*
X1195Y7736D01*
X1191Y7739D01*
X1188Y7739D01*
D02*
G37*
G36*
X1667D02*
X1665D01*
X1662Y7739D01*
X1659Y7736D01*
X1656Y7733D01*
X1656Y7730D01*
Y7728D01*
Y7727D01*
Y7726D01*
X1656Y7724D01*
X1658Y7720D01*
X1662Y7718D01*
X1665Y7718D01*
X1667D01*
X1670Y7718D01*
X1673Y7721D01*
X1676Y7724D01*
X1676Y7727D01*
Y7729D01*
Y7730D01*
X1676Y7733D01*
X1674Y7737D01*
X1670Y7739D01*
X1667Y7739D01*
D02*
G37*
G36*
X1707D02*
X1705D01*
X1702Y7739D01*
X1698Y7736D01*
X1696Y7733D01*
X1695Y7730D01*
Y7728D01*
Y7727D01*
X1696Y7724D01*
X1698Y7721D01*
X1702Y7718D01*
X1705Y7718D01*
X1707D01*
X1710Y7718D01*
X1713Y7721D01*
X1716Y7724D01*
X1716Y7727D01*
Y7728D01*
Y7731D01*
X1716Y7733D01*
X1714Y7736D01*
X1710Y7739D01*
X1707Y7739D01*
D02*
G37*
G36*
X1628Y7738D02*
X1625D01*
X1622Y7738D01*
X1618Y7735D01*
X1616Y7732D01*
X1615Y7730D01*
Y7728D01*
Y7727D01*
X1616Y7724D01*
X1618Y7721D01*
X1622Y7718D01*
X1625Y7718D01*
X1627D01*
X1630Y7718D01*
X1633Y7720D01*
X1636Y7724D01*
X1636Y7726D01*
X1636D01*
Y7729D01*
Y7730D01*
X1635Y7733D01*
X1633Y7736D01*
X1631Y7738D01*
X1628Y7738D01*
D02*
G37*
G36*
X1547Y7739D02*
X1546D01*
X1546Y7739D01*
X1545D01*
X1542Y7738D01*
X1538Y7735D01*
X1536Y7732D01*
X1536Y7730D01*
X1536D01*
Y7728D01*
Y7727D01*
X1536Y7724D01*
X1539Y7721D01*
X1542Y7718D01*
X1545Y7718D01*
X1547D01*
X1550Y7718D01*
X1554Y7720D01*
X1556Y7724D01*
X1556Y7727D01*
Y7727D01*
X1556D01*
X1556Y7729D01*
Y7730D01*
X1556Y7733D01*
X1553Y7736D01*
X1550Y7739D01*
X1547Y7739D01*
D02*
G37*
G36*
X1587Y7739D02*
X1585D01*
X1582Y7739D01*
X1579Y7737D01*
X1576Y7733D01*
X1576Y7730D01*
Y7729D01*
Y7727D01*
Y7726D01*
X1576Y7724D01*
X1579Y7720D01*
X1582Y7718D01*
X1585Y7718D01*
X1587D01*
X1590Y7718D01*
X1593Y7721D01*
X1596Y7724D01*
X1596Y7727D01*
Y7728D01*
Y7731D01*
X1596Y7733D01*
X1594Y7736D01*
X1590Y7739D01*
X1587Y7739D01*
D02*
G37*
G36*
X2524Y7658D02*
X2522D01*
X2519Y7657D01*
X2516Y7655D01*
X2514Y7652D01*
X2513Y7649D01*
Y7648D01*
Y7647D01*
X2512D01*
X2513Y7644D01*
X2515Y7641D01*
X2518Y7638D01*
X2521Y7638D01*
X2523D01*
X2526Y7639D01*
X2530Y7641D01*
X2532Y7645D01*
X2533Y7647D01*
Y7648D01*
Y7649D01*
X2532Y7652D01*
X2530Y7655D01*
X2527Y7657D01*
X2524Y7658D01*
D02*
G37*
G36*
X2108Y7618D02*
X2106D01*
X2103Y7618D01*
X2100Y7615D01*
X2098Y7612D01*
X2097Y7609D01*
Y7608D01*
Y7608D01*
X2097Y7606D01*
Y7605D01*
X2098Y7603D01*
X2100Y7599D01*
X2103Y7597D01*
X2106Y7597D01*
X2107D01*
X2107Y7597D01*
X2108D01*
X2111Y7598D01*
X2115Y7600D01*
X2117Y7604D01*
X2118Y7607D01*
Y7607D01*
X2117D01*
Y7608D01*
Y7609D01*
X2116Y7612D01*
X2114Y7615D01*
X2111Y7618D01*
X2108Y7618D01*
D02*
G37*
G36*
X2563D02*
X2561D01*
X2558Y7618D01*
X2555Y7615D01*
X2553Y7612D01*
X2552Y7609D01*
Y7608D01*
Y7608D01*
X2553Y7606D01*
Y7605D01*
X2553Y7603D01*
X2555Y7599D01*
X2559Y7597D01*
X2561Y7597D01*
X2562D01*
X2563Y7597D01*
X2564D01*
X2567Y7598D01*
X2570Y7600D01*
X2573Y7604D01*
X2573Y7607D01*
Y7607D01*
X2572D01*
Y7608D01*
Y7609D01*
X2572Y7612D01*
X2569Y7615D01*
X2566Y7618D01*
X2563Y7618D01*
D02*
G37*
G36*
X1707D02*
X1705D01*
X1702Y7618D01*
X1699Y7615D01*
X1697Y7612D01*
X1696Y7609D01*
Y7608D01*
Y7608D01*
X1696Y7606D01*
Y7605D01*
X1697Y7603D01*
X1699Y7599D01*
X1702Y7597D01*
X1705Y7597D01*
X1706D01*
X1706Y7597D01*
X1707D01*
X1710Y7598D01*
X1714Y7600D01*
X1716Y7604D01*
X1717Y7607D01*
Y7607D01*
X1716D01*
Y7608D01*
Y7609D01*
X1715Y7612D01*
X1713Y7615D01*
X1710Y7618D01*
X1707Y7618D01*
D02*
G37*
G36*
X2524D02*
X2522D01*
X2519Y7618D01*
X2516Y7615D01*
X2514Y7612D01*
X2513Y7609D01*
Y7608D01*
Y7607D01*
X2512D01*
Y7607D01*
Y7606D01*
X2513Y7603D01*
X2515Y7600D01*
X2519Y7597D01*
X2522Y7597D01*
X2524D01*
X2527Y7597D01*
X2530Y7599D01*
X2532Y7603D01*
X2533Y7605D01*
Y7606D01*
Y7607D01*
Y7608D01*
Y7609D01*
X2532Y7612D01*
X2530Y7615D01*
X2527Y7618D01*
X2524Y7618D01*
D02*
G37*
G36*
X1308D02*
X1306D01*
X1303Y7618D01*
X1300Y7615D01*
X1298Y7612D01*
X1297Y7609D01*
Y7608D01*
Y7608D01*
X1298Y7606D01*
Y7605D01*
X1298Y7603D01*
X1300Y7599D01*
X1304Y7597D01*
X1306Y7597D01*
X1307D01*
X1308Y7597D01*
X1309D01*
X1312Y7598D01*
X1315Y7600D01*
X1318Y7604D01*
X1318Y7607D01*
Y7607D01*
X1317D01*
Y7608D01*
Y7609D01*
X1317Y7612D01*
X1314Y7615D01*
X1311Y7618D01*
X1308Y7618D01*
D02*
G37*
G36*
X1229D02*
X1227D01*
X1224Y7618D01*
X1221Y7615D01*
X1218Y7612D01*
X1218Y7609D01*
Y7608D01*
Y7607D01*
Y7606D01*
Y7606D01*
X1218Y7603D01*
X1220Y7600D01*
X1223Y7598D01*
X1226Y7598D01*
X1229D01*
X1232Y7598D01*
X1235Y7601D01*
X1238Y7604D01*
X1238Y7607D01*
Y7607D01*
X1237D01*
Y7608D01*
Y7609D01*
X1237Y7612D01*
X1235Y7615D01*
X1231Y7618D01*
X1229Y7618D01*
D02*
G37*
G36*
X1149Y7658D02*
X1147D01*
X1144Y7657D01*
X1141Y7655D01*
X1139Y7652D01*
X1138Y7649D01*
Y7648D01*
Y7647D01*
X1137D01*
X1138Y7644D01*
X1140Y7641D01*
X1144Y7639D01*
X1147Y7638D01*
X1149D01*
X1152Y7638D01*
X1155Y7641D01*
X1157Y7644D01*
X1158Y7647D01*
X1157D01*
Y7649D01*
Y7650D01*
X1156Y7652D01*
X1154Y7655D01*
X1151Y7657D01*
X1149Y7658D01*
D02*
G37*
G36*
X1189Y7659D02*
X1187D01*
X1184Y7658D01*
X1180Y7656D01*
X1178Y7652D01*
X1177Y7649D01*
Y7649D01*
Y7648D01*
Y7647D01*
X1178Y7644D01*
X1180Y7641D01*
X1183Y7638D01*
X1186Y7638D01*
X1188D01*
X1191Y7639D01*
X1195Y7641D01*
X1197Y7644D01*
X1198Y7647D01*
X1197D01*
Y7650D01*
Y7651D01*
X1197Y7653D01*
X1195Y7656D01*
X1192Y7658D01*
X1189Y7659D01*
D02*
G37*
G36*
X2484Y7618D02*
X2482D01*
X2479Y7618D01*
X2476Y7615D01*
X2473Y7612D01*
X2473Y7609D01*
Y7608D01*
Y7607D01*
Y7606D01*
Y7606D01*
X2473Y7603D01*
X2475Y7600D01*
X2478Y7598D01*
X2481Y7598D01*
X2484D01*
X2487Y7598D01*
X2490Y7601D01*
X2493Y7604D01*
X2493Y7607D01*
Y7607D01*
X2492D01*
Y7608D01*
Y7609D01*
X2492Y7612D01*
X2490Y7615D01*
X2486Y7618D01*
X2484Y7618D01*
D02*
G37*
G36*
X1627D02*
X1625D01*
X1622Y7618D01*
X1619Y7615D01*
X1617Y7612D01*
X1616Y7609D01*
Y7608D01*
Y7607D01*
Y7606D01*
Y7606D01*
X1617Y7603D01*
X1619Y7600D01*
X1622Y7598D01*
X1624Y7598D01*
X1627D01*
X1630Y7598D01*
X1634Y7601D01*
X1636Y7604D01*
X1637Y7607D01*
Y7607D01*
X1636D01*
Y7608D01*
Y7609D01*
X1635Y7612D01*
X1633Y7615D01*
X1630Y7618D01*
X1627Y7618D01*
D02*
G37*
G36*
X2028D02*
X2026D01*
X2023Y7618D01*
X2020Y7615D01*
X2018Y7612D01*
X2017Y7609D01*
Y7608D01*
Y7607D01*
Y7606D01*
Y7606D01*
X2018Y7603D01*
X2020Y7600D01*
X2023Y7598D01*
X2025Y7598D01*
X2028D01*
X2031Y7598D01*
X2035Y7601D01*
X2037Y7604D01*
X2038Y7607D01*
Y7607D01*
X2037D01*
Y7608D01*
Y7609D01*
X2036Y7612D01*
X2034Y7615D01*
X2031Y7618D01*
X2028Y7618D01*
D02*
G37*
G36*
X1547D02*
X1545D01*
X1543Y7618D01*
X1539Y7615D01*
X1537Y7612D01*
X1537Y7609D01*
Y7608D01*
Y7607D01*
X1536D01*
Y7607D01*
Y7606D01*
X1536Y7603D01*
X1539Y7600D01*
X1542Y7597D01*
X1545Y7597D01*
X1547D01*
X1551Y7597D01*
X1554Y7600D01*
X1557Y7603D01*
X1557Y7606D01*
Y7607D01*
Y7607D01*
X1555D01*
Y7609D01*
Y7610D01*
X1555Y7613D01*
X1553Y7616D01*
X1550Y7618D01*
X1547Y7618D01*
D02*
G37*
G36*
X1588Y7619D02*
X1586D01*
X1583Y7619D01*
X1579Y7616D01*
X1577Y7613D01*
X1576Y7609D01*
Y7608D01*
Y7607D01*
Y7606D01*
Y7605D01*
X1576Y7603D01*
X1579Y7599D01*
X1582Y7597D01*
X1585Y7597D01*
X1587D01*
X1590Y7597D01*
X1594Y7600D01*
X1596Y7603D01*
X1597Y7606D01*
Y7607D01*
Y7607D01*
X1596D01*
Y7610D01*
Y7611D01*
X1595Y7614D01*
X1593Y7617D01*
X1590Y7619D01*
X1588Y7619D01*
D02*
G37*
G36*
X1269Y7618D02*
X1267D01*
X1264Y7618D01*
X1261Y7615D01*
X1259Y7612D01*
X1258Y7609D01*
Y7608D01*
Y7607D01*
X1257D01*
Y7607D01*
Y7606D01*
X1258Y7603D01*
X1260Y7600D01*
X1264Y7597D01*
X1267Y7597D01*
X1269D01*
X1272Y7597D01*
X1275Y7599D01*
X1277Y7603D01*
X1278Y7605D01*
Y7606D01*
Y7607D01*
Y7608D01*
Y7609D01*
X1277Y7612D01*
X1275Y7615D01*
X1272Y7618D01*
X1269Y7618D01*
D02*
G37*
G36*
X1149D02*
X1147D01*
X1144Y7618D01*
X1141Y7615D01*
X1139Y7612D01*
X1138Y7609D01*
Y7608D01*
Y7607D01*
X1137D01*
Y7607D01*
Y7606D01*
X1138Y7603D01*
X1140Y7600D01*
X1144Y7597D01*
X1147Y7597D01*
X1149D01*
X1152Y7597D01*
X1156Y7600D01*
X1158Y7603D01*
X1159Y7606D01*
Y7607D01*
Y7607D01*
X1157D01*
Y7609D01*
Y7610D01*
X1156Y7613D01*
X1154Y7616D01*
X1151Y7618D01*
X1149Y7618D01*
D02*
G37*
G36*
X1189Y7619D02*
X1187D01*
X1184Y7619D01*
X1180Y7616D01*
X1178Y7613D01*
X1177Y7609D01*
Y7608D01*
Y7607D01*
Y7606D01*
Y7605D01*
X1178Y7603D01*
X1180Y7599D01*
X1183Y7597D01*
X1186Y7597D01*
X1188D01*
X1191Y7597D01*
X1195Y7600D01*
X1197Y7603D01*
X1198Y7606D01*
Y7607D01*
Y7607D01*
X1197D01*
Y7610D01*
Y7611D01*
X1197Y7614D01*
X1195Y7617D01*
X1192Y7619D01*
X1189Y7619D01*
D02*
G37*
G36*
X1667Y7618D02*
X1665D01*
X1663Y7618D01*
X1659Y7615D01*
X1657Y7612D01*
X1657Y7609D01*
Y7608D01*
Y7607D01*
X1656D01*
Y7607D01*
Y7606D01*
X1656Y7603D01*
X1659Y7600D01*
X1662Y7597D01*
X1665Y7597D01*
X1667D01*
X1670Y7597D01*
X1674Y7599D01*
X1676Y7603D01*
X1676Y7605D01*
Y7606D01*
Y7607D01*
Y7608D01*
Y7609D01*
X1676Y7612D01*
X1674Y7615D01*
X1670Y7618D01*
X1667Y7618D01*
D02*
G37*
G36*
X2404D02*
X2402D01*
X2399Y7618D01*
X2396Y7615D01*
X2394Y7612D01*
X2393Y7609D01*
Y7608D01*
Y7607D01*
X2392D01*
Y7607D01*
Y7606D01*
X2393Y7603D01*
X2395Y7600D01*
X2399Y7597D01*
X2402Y7597D01*
X2404D01*
X2407Y7597D01*
X2411Y7600D01*
X2413Y7603D01*
X2414Y7606D01*
Y7607D01*
Y7607D01*
X2412D01*
Y7609D01*
Y7610D01*
X2411Y7613D01*
X2409Y7616D01*
X2406Y7618D01*
X2404Y7618D01*
D02*
G37*
G36*
X2444Y7619D02*
X2442D01*
X2439Y7619D01*
X2435Y7616D01*
X2433Y7613D01*
X2432Y7609D01*
Y7608D01*
Y7607D01*
Y7606D01*
Y7605D01*
X2433Y7603D01*
X2435Y7599D01*
X2438Y7597D01*
X2441Y7597D01*
X2443D01*
X2446Y7597D01*
X2450Y7600D01*
X2452Y7603D01*
X2453Y7606D01*
Y7607D01*
Y7607D01*
X2452D01*
Y7610D01*
Y7611D01*
X2452Y7614D01*
X2450Y7617D01*
X2447Y7619D01*
X2444Y7619D01*
D02*
G37*
G36*
X2068Y7618D02*
X2066D01*
X2064Y7618D01*
X2060Y7615D01*
X2058Y7612D01*
X2058Y7609D01*
Y7608D01*
Y7607D01*
X2057D01*
Y7607D01*
Y7606D01*
X2057Y7603D01*
X2060Y7600D01*
X2063Y7597D01*
X2066Y7597D01*
X2068D01*
X2071Y7597D01*
X2075Y7599D01*
X2077Y7603D01*
X2077Y7605D01*
Y7606D01*
Y7607D01*
Y7608D01*
Y7609D01*
X2077Y7612D01*
X2075Y7615D01*
X2071Y7618D01*
X2068Y7618D01*
D02*
G37*
G36*
X1948D02*
X1946D01*
X1944Y7618D01*
X1940Y7615D01*
X1938Y7612D01*
X1938Y7609D01*
Y7608D01*
Y7607D01*
X1937D01*
Y7607D01*
Y7606D01*
X1937Y7603D01*
X1940Y7600D01*
X1943Y7597D01*
X1946Y7597D01*
X1948D01*
X1952Y7597D01*
X1955Y7600D01*
X1958Y7603D01*
X1958Y7606D01*
Y7607D01*
Y7607D01*
X1956D01*
Y7609D01*
Y7610D01*
X1956Y7613D01*
X1954Y7616D01*
X1951Y7618D01*
X1948Y7618D01*
D02*
G37*
G36*
X1989Y7619D02*
X1987D01*
X1984Y7619D01*
X1980Y7616D01*
X1978Y7613D01*
X1977Y7609D01*
Y7608D01*
Y7607D01*
Y7606D01*
Y7605D01*
X1977Y7603D01*
X1980Y7599D01*
X1983Y7597D01*
X1986Y7597D01*
X1988D01*
X1991Y7597D01*
X1995Y7600D01*
X1997Y7603D01*
X1998Y7606D01*
Y7607D01*
Y7607D01*
X1997D01*
Y7610D01*
Y7611D01*
X1996Y7614D01*
X1994Y7617D01*
X1991Y7619D01*
X1989Y7619D01*
D02*
G37*
G36*
X1707Y7658D02*
X1705D01*
X1702Y7657D01*
X1699Y7655D01*
X1697Y7652D01*
X1696Y7649D01*
Y7648D01*
Y7647D01*
X1695D01*
X1696Y7644D01*
X1698Y7641D01*
X1702Y7639D01*
X1705Y7638D01*
X1707D01*
X1710Y7639D01*
X1713Y7641D01*
X1716Y7644D01*
X1716Y7647D01*
X1716D01*
Y7648D01*
Y7649D01*
X1715Y7652D01*
X1713Y7655D01*
X1710Y7657D01*
X1707Y7658D01*
D02*
G37*
G36*
X2108D02*
X2106D01*
X2103Y7657D01*
X2100Y7655D01*
X2098Y7652D01*
X2097Y7649D01*
Y7648D01*
Y7647D01*
X2096D01*
X2097Y7644D01*
X2099Y7641D01*
X2103Y7639D01*
X2106Y7638D01*
X2108D01*
X2111Y7639D01*
X2114Y7641D01*
X2117Y7644D01*
X2117Y7647D01*
X2117D01*
Y7648D01*
Y7649D01*
X2116Y7652D01*
X2114Y7655D01*
X2111Y7657D01*
X2108Y7658D01*
D02*
G37*
G36*
X1627D02*
X1625D01*
X1622Y7657D01*
X1619Y7655D01*
X1617Y7652D01*
X1616Y7649D01*
Y7648D01*
Y7647D01*
X1616D01*
X1616Y7644D01*
X1618Y7641D01*
X1622Y7639D01*
X1625Y7638D01*
X1627D01*
X1630Y7638D01*
X1633Y7641D01*
X1636Y7644D01*
X1636Y7647D01*
X1636D01*
Y7648D01*
Y7649D01*
X1635Y7652D01*
X1633Y7655D01*
X1630Y7657D01*
X1627Y7658D01*
D02*
G37*
G36*
X1667D02*
X1665D01*
X1663Y7657D01*
X1659Y7655D01*
X1657Y7652D01*
X1657Y7649D01*
Y7648D01*
Y7647D01*
X1656D01*
X1656Y7644D01*
X1658Y7641D01*
X1662Y7638D01*
X1665Y7638D01*
X1667D01*
X1670Y7639D01*
X1673Y7641D01*
X1676Y7645D01*
X1676Y7647D01*
Y7648D01*
Y7649D01*
X1676Y7652D01*
X1674Y7655D01*
X1670Y7657D01*
X1667Y7658D01*
D02*
G37*
G36*
X1989Y7659D02*
X1987D01*
X1984Y7658D01*
X1980Y7656D01*
X1978Y7652D01*
X1977Y7649D01*
Y7649D01*
Y7648D01*
Y7647D01*
X1977Y7644D01*
X1980Y7641D01*
X1983Y7638D01*
X1986Y7638D01*
X1988D01*
X1991Y7639D01*
X1994Y7641D01*
X1997Y7644D01*
X1997Y7647D01*
X1997D01*
Y7650D01*
Y7651D01*
X1996Y7653D01*
X1994Y7656D01*
X1991Y7658D01*
X1989Y7659D01*
D02*
G37*
G36*
X1948Y7658D02*
X1946D01*
X1944Y7657D01*
X1940Y7655D01*
X1938Y7652D01*
X1938Y7649D01*
Y7648D01*
Y7647D01*
X1937D01*
X1937Y7644D01*
X1940Y7641D01*
X1943Y7639D01*
X1946Y7638D01*
X1948D01*
X1951Y7638D01*
X1955Y7641D01*
X1957Y7644D01*
X1957Y7647D01*
X1956D01*
Y7649D01*
Y7650D01*
X1956Y7652D01*
X1954Y7655D01*
X1951Y7657D01*
X1948Y7658D01*
D02*
G37*
G36*
X2068D02*
X2066D01*
X2064Y7657D01*
X2060Y7655D01*
X2058Y7652D01*
X2058Y7649D01*
Y7648D01*
Y7647D01*
X2057D01*
X2057Y7644D01*
X2059Y7641D01*
X2063Y7638D01*
X2066Y7638D01*
X2068D01*
X2071Y7639D01*
X2074Y7641D01*
X2077Y7645D01*
X2077Y7647D01*
Y7648D01*
Y7649D01*
X2077Y7652D01*
X2075Y7655D01*
X2071Y7657D01*
X2068Y7658D01*
D02*
G37*
G36*
X2028D02*
X2026D01*
X2023Y7657D01*
X2020Y7655D01*
X2018Y7652D01*
X2017Y7649D01*
Y7648D01*
Y7647D01*
X2017D01*
X2017Y7644D01*
X2019Y7641D01*
X2023Y7639D01*
X2026Y7638D01*
X2028D01*
X2031Y7638D01*
X2034Y7641D01*
X2037Y7644D01*
X2037Y7647D01*
X2037D01*
Y7648D01*
Y7649D01*
X2036Y7652D01*
X2034Y7655D01*
X2031Y7657D01*
X2028Y7658D01*
D02*
G37*
G36*
X2404D02*
X2402D01*
X2399Y7657D01*
X2396Y7655D01*
X2394Y7652D01*
X2393Y7649D01*
Y7648D01*
Y7647D01*
X2392D01*
X2393Y7644D01*
X2395Y7641D01*
X2399Y7639D01*
X2402Y7638D01*
X2404D01*
X2407Y7638D01*
X2410Y7641D01*
X2412Y7644D01*
X2413Y7647D01*
X2412D01*
Y7649D01*
Y7650D01*
X2411Y7652D01*
X2409Y7655D01*
X2406Y7657D01*
X2404Y7658D01*
D02*
G37*
G36*
X1229D02*
X1227D01*
X1224Y7657D01*
X1221Y7655D01*
X1218Y7652D01*
X1218Y7649D01*
Y7648D01*
Y7647D01*
X1217D01*
X1218Y7644D01*
X1220Y7641D01*
X1223Y7639D01*
X1227Y7638D01*
X1229D01*
X1232Y7638D01*
X1235Y7641D01*
X1237Y7644D01*
X1238Y7647D01*
X1237D01*
Y7648D01*
Y7649D01*
X1237Y7652D01*
X1235Y7655D01*
X1231Y7657D01*
X1229Y7658D01*
D02*
G37*
G36*
X2484D02*
X2482D01*
X2479Y7657D01*
X2476Y7655D01*
X2473Y7652D01*
X2473Y7649D01*
Y7648D01*
Y7647D01*
X2472D01*
X2473Y7644D01*
X2475Y7641D01*
X2478Y7639D01*
X2482Y7638D01*
X2484D01*
X2487Y7638D01*
X2490Y7641D01*
X2492Y7644D01*
X2493Y7647D01*
X2492D01*
Y7648D01*
Y7649D01*
X2492Y7652D01*
X2490Y7655D01*
X2486Y7657D01*
X2484Y7658D01*
D02*
G37*
G36*
X2444Y7659D02*
X2442D01*
X2439Y7658D01*
X2435Y7656D01*
X2433Y7652D01*
X2432Y7649D01*
Y7649D01*
Y7648D01*
Y7647D01*
X2433Y7644D01*
X2435Y7641D01*
X2438Y7638D01*
X2441Y7638D01*
X2443D01*
X2446Y7639D01*
X2450Y7641D01*
X2452Y7644D01*
X2453Y7647D01*
X2452D01*
Y7650D01*
Y7651D01*
X2452Y7653D01*
X2450Y7656D01*
X2447Y7658D01*
X2444Y7659D01*
D02*
G37*
G36*
X1547Y7658D02*
X1545D01*
X1543Y7657D01*
X1539Y7655D01*
X1537Y7652D01*
X1537Y7649D01*
Y7648D01*
Y7647D01*
X1536D01*
X1536Y7644D01*
X1539Y7641D01*
X1542Y7639D01*
X1545Y7638D01*
X1547D01*
X1550Y7638D01*
X1554Y7641D01*
X1556Y7644D01*
X1556Y7647D01*
X1555D01*
Y7649D01*
Y7650D01*
X1555Y7652D01*
X1553Y7655D01*
X1550Y7657D01*
X1547Y7658D01*
D02*
G37*
G36*
X1588Y7659D02*
X1586D01*
X1583Y7658D01*
X1579Y7656D01*
X1577Y7652D01*
X1576Y7649D01*
Y7649D01*
Y7648D01*
Y7647D01*
X1576Y7644D01*
X1579Y7641D01*
X1582Y7638D01*
X1585Y7638D01*
X1587D01*
X1590Y7639D01*
X1593Y7641D01*
X1596Y7644D01*
X1596Y7647D01*
X1596D01*
Y7650D01*
Y7651D01*
X1595Y7653D01*
X1593Y7656D01*
X1590Y7658D01*
X1588Y7659D01*
D02*
G37*
G36*
X1269Y7658D02*
X1267D01*
X1264Y7657D01*
X1261Y7655D01*
X1259Y7652D01*
X1258Y7649D01*
Y7648D01*
Y7647D01*
X1257D01*
X1258Y7644D01*
X1260Y7641D01*
X1263Y7638D01*
X1266Y7638D01*
X1268D01*
X1271Y7639D01*
X1275Y7641D01*
X1277Y7645D01*
X1278Y7647D01*
Y7648D01*
Y7649D01*
X1277Y7652D01*
X1275Y7655D01*
X1272Y7657D01*
X1269Y7658D01*
D02*
G37*
G36*
X1308D02*
X1306D01*
X1303Y7657D01*
X1300Y7655D01*
X1298Y7652D01*
X1297Y7649D01*
Y7648D01*
Y7647D01*
X1297D01*
X1297Y7644D01*
X1300Y7641D01*
X1303Y7639D01*
X1306Y7638D01*
X1308D01*
X1311Y7639D01*
X1315Y7641D01*
X1317Y7644D01*
X1318Y7647D01*
X1317D01*
Y7648D01*
Y7649D01*
X1317Y7652D01*
X1314Y7655D01*
X1311Y7657D01*
X1308Y7658D01*
D02*
G37*
%LPD*%
G36*
X725Y5207D02*
Y5207D01*
Y5207D01*
D01*
D02*
G37*
G36*
Y5294D02*
Y5294D01*
Y5294D01*
D01*
D02*
G37*
G36*
Y5251D02*
Y5251D01*
Y5251D01*
D01*
D02*
G37*
G36*
X2085Y5294D02*
Y5294D01*
Y5294D01*
D01*
D02*
G37*
G36*
X1405D02*
Y5294D01*
Y5294D01*
D01*
D02*
G37*
G36*
X2085Y5207D02*
Y5207D01*
Y5207D01*
D01*
D02*
G37*
G36*
X1405D02*
Y5207D01*
Y5207D01*
D01*
D02*
G37*
G36*
Y5251D02*
Y5251D01*
Y5251D01*
D01*
D02*
G37*
G36*
X2085D02*
Y5251D01*
Y5251D01*
D01*
D02*
G37*
D36*
X4245Y312D02*
D03*
X4167D02*
D03*
X4112Y367D02*
D03*
Y445D02*
D03*
X4167Y501D02*
D03*
X4245D02*
D03*
X4301Y445D02*
D03*
Y367D02*
D03*
X445Y312D02*
D03*
X367D02*
D03*
X312Y367D02*
D03*
Y445D02*
D03*
X367Y501D02*
D03*
X445D02*
D03*
X501Y445D02*
D03*
Y367D02*
D03*
X445Y4062D02*
D03*
X367D02*
D03*
X312Y4117D02*
D03*
Y4195D02*
D03*
X367Y4251D02*
D03*
X445D02*
D03*
X501Y4195D02*
D03*
Y4117D02*
D03*
X4245Y4062D02*
D03*
X4167D02*
D03*
X4112Y4117D02*
D03*
Y4195D02*
D03*
X4167Y4251D02*
D03*
X4245D02*
D03*
X4301Y4195D02*
D03*
Y4117D02*
D03*
X4245Y4362D02*
D03*
X4167D02*
D03*
X4112Y4417D02*
D03*
Y4495D02*
D03*
X4167Y4551D02*
D03*
X4245D02*
D03*
X4301Y4495D02*
D03*
Y4417D02*
D03*
X445Y4362D02*
D03*
X367D02*
D03*
X312Y4417D02*
D03*
Y4495D02*
D03*
X367Y4551D02*
D03*
X445D02*
D03*
X501Y4495D02*
D03*
Y4417D02*
D03*
X445Y8112D02*
D03*
X367D02*
D03*
X312Y8167D02*
D03*
Y8245D02*
D03*
X367Y8301D02*
D03*
X445D02*
D03*
X501Y8245D02*
D03*
Y8167D02*
D03*
X4245Y8112D02*
D03*
X4167D02*
D03*
X4112Y8167D02*
D03*
Y8245D02*
D03*
X4167Y8301D02*
D03*
X4245D02*
D03*
X4301Y8245D02*
D03*
Y8167D02*
D03*
D41*
X1966Y2971D02*
D03*
Y3131D02*
D03*
X2016Y2971D02*
D03*
Y3131D02*
D03*
X2066Y2971D02*
D03*
Y3131D02*
D03*
X2116Y2971D02*
D03*
Y3131D02*
D03*
X2166Y2971D02*
D03*
Y3131D02*
D03*
X1966Y7021D02*
D03*
Y7181D02*
D03*
X2016Y7021D02*
D03*
Y7181D02*
D03*
X2066Y7021D02*
D03*
Y7181D02*
D03*
X2116Y7021D02*
D03*
Y7181D02*
D03*
X2166Y7021D02*
D03*
Y7181D02*
D03*
D173*
X4197Y3885D02*
D03*
Y7935D02*
D03*
D174*
X381Y131D02*
D03*
X4240Y134D02*
D03*
Y8482D02*
D03*
X381D02*
D03*
D175*
X971Y2103D02*
D03*
Y2049D02*
D03*
X2851Y3329D02*
D03*
Y3383D02*
D03*
X3094Y929D02*
D03*
Y983D02*
D03*
X2414Y929D02*
D03*
Y983D02*
D03*
X1054Y929D02*
D03*
Y983D02*
D03*
X374Y929D02*
D03*
Y983D02*
D03*
X1739Y929D02*
D03*
Y983D02*
D03*
X1891Y3158D02*
D03*
Y3104D02*
D03*
X1501Y2408D02*
D03*
Y2354D02*
D03*
X1531Y2628D02*
D03*
Y2574D02*
D03*
X1416Y2383D02*
D03*
Y2329D02*
D03*
X1581Y2413D02*
D03*
Y2359D02*
D03*
X1521Y2508D02*
D03*
Y2454D02*
D03*
X1686Y1988D02*
D03*
Y1934D02*
D03*
X3361Y3864D02*
D03*
Y3918D02*
D03*
X3226Y3934D02*
D03*
Y3988D02*
D03*
X3409Y3916D02*
D03*
Y3863D02*
D03*
X3325Y3987D02*
D03*
Y4040D02*
D03*
X3685Y4136D02*
D03*
Y4083D02*
D03*
X3994Y4194D02*
D03*
Y4140D02*
D03*
X681Y3708D02*
D03*
Y3654D02*
D03*
X971Y3708D02*
D03*
Y3654D02*
D03*
X1081Y3618D02*
D03*
Y3672D02*
D03*
X1481Y3619D02*
D03*
Y3673D02*
D03*
X1881Y3619D02*
D03*
Y3673D02*
D03*
X2337Y3620D02*
D03*
Y3674D02*
D03*
X1362Y3448D02*
D03*
Y3502D02*
D03*
X1762Y3449D02*
D03*
Y3503D02*
D03*
X2162Y3449D02*
D03*
Y3503D02*
D03*
X2602Y3405D02*
D03*
Y3459D02*
D03*
X2686Y2869D02*
D03*
Y2923D02*
D03*
X691Y2253D02*
D03*
Y2199D02*
D03*
X501Y2253D02*
D03*
Y2199D02*
D03*
X451Y2253D02*
D03*
Y2199D02*
D03*
X741Y2199D02*
D03*
Y2253D02*
D03*
X791Y2199D02*
D03*
Y2253D02*
D03*
X971Y6153D02*
D03*
Y6099D02*
D03*
X2851Y7379D02*
D03*
Y7433D02*
D03*
X3094Y4979D02*
D03*
Y5033D02*
D03*
X2414Y4979D02*
D03*
Y5033D02*
D03*
X1054Y4979D02*
D03*
Y5033D02*
D03*
X374Y4979D02*
D03*
Y5033D02*
D03*
X1739Y4979D02*
D03*
Y5033D02*
D03*
X1891Y7208D02*
D03*
Y7154D02*
D03*
X1501Y6458D02*
D03*
Y6404D02*
D03*
X1531Y6678D02*
D03*
Y6624D02*
D03*
X1416Y6433D02*
D03*
Y6379D02*
D03*
X1581Y6463D02*
D03*
Y6409D02*
D03*
X1521Y6558D02*
D03*
Y6504D02*
D03*
X1686Y6038D02*
D03*
Y5984D02*
D03*
X3361Y7914D02*
D03*
Y7968D02*
D03*
X3226Y7984D02*
D03*
Y8038D02*
D03*
X3409Y7966D02*
D03*
Y7913D02*
D03*
X3325Y8037D02*
D03*
Y8090D02*
D03*
X3685Y8186D02*
D03*
Y8133D02*
D03*
X3994Y8244D02*
D03*
Y8190D02*
D03*
X681Y7758D02*
D03*
Y7704D02*
D03*
X971Y7758D02*
D03*
Y7704D02*
D03*
X1081Y7668D02*
D03*
Y7722D02*
D03*
X1481Y7669D02*
D03*
Y7723D02*
D03*
X1881Y7669D02*
D03*
Y7723D02*
D03*
X2337Y7670D02*
D03*
Y7724D02*
D03*
X1362Y7498D02*
D03*
Y7552D02*
D03*
X1762Y7499D02*
D03*
Y7553D02*
D03*
X2162Y7499D02*
D03*
Y7553D02*
D03*
X2602Y7455D02*
D03*
Y7509D02*
D03*
X2686Y6919D02*
D03*
Y6973D02*
D03*
X691Y6303D02*
D03*
Y6249D02*
D03*
X501Y6303D02*
D03*
Y6249D02*
D03*
X451Y6303D02*
D03*
Y6249D02*
D03*
X741Y6249D02*
D03*
Y6303D02*
D03*
X791Y6249D02*
D03*
Y6303D02*
D03*
D176*
X3349Y1200D02*
D03*
X2669D02*
D03*
X1309D02*
D03*
X629D02*
D03*
X1989D02*
D03*
X3349Y5250D02*
D03*
X2669D02*
D03*
X1309D02*
D03*
X629D02*
D03*
X1989D02*
D03*
D177*
X3515Y1312D02*
D03*
X3489D02*
D03*
X3464D02*
D03*
X3438D02*
D03*
X3413D02*
D03*
X3387D02*
D03*
X3361D02*
D03*
X3336D02*
D03*
X3310D02*
D03*
X3285D02*
D03*
X3259D02*
D03*
X3233D02*
D03*
X3208D02*
D03*
X3182D02*
D03*
X3515Y1088D02*
D03*
X3489D02*
D03*
X3464D02*
D03*
X3438D02*
D03*
X3413D02*
D03*
X3387D02*
D03*
X3361D02*
D03*
X3336D02*
D03*
X3310D02*
D03*
X3285D02*
D03*
X3259D02*
D03*
X3233D02*
D03*
X3208D02*
D03*
X3182D02*
D03*
X2835Y1312D02*
D03*
X2809D02*
D03*
X2784D02*
D03*
X2758D02*
D03*
X2733D02*
D03*
X2707D02*
D03*
X2681D02*
D03*
X2656D02*
D03*
X2630D02*
D03*
X2605D02*
D03*
X2579D02*
D03*
X2553D02*
D03*
X2528D02*
D03*
X2502D02*
D03*
X2835Y1088D02*
D03*
X2809D02*
D03*
X2784D02*
D03*
X2758D02*
D03*
X2733D02*
D03*
X2707D02*
D03*
X2681D02*
D03*
X2656D02*
D03*
X2630D02*
D03*
X2605D02*
D03*
X2579D02*
D03*
X2553D02*
D03*
X2528D02*
D03*
X2502D02*
D03*
X1475Y1312D02*
D03*
X1449D02*
D03*
X1424D02*
D03*
X1398D02*
D03*
X1373D02*
D03*
X1347D02*
D03*
X1321D02*
D03*
X1296D02*
D03*
X1270D02*
D03*
X1245D02*
D03*
X1219D02*
D03*
X1193D02*
D03*
X1168D02*
D03*
X1142D02*
D03*
X1475Y1088D02*
D03*
X1449D02*
D03*
X1424D02*
D03*
X1398D02*
D03*
X1373D02*
D03*
X1347D02*
D03*
X1321D02*
D03*
X1296D02*
D03*
X1270D02*
D03*
X1245D02*
D03*
X1219D02*
D03*
X1193D02*
D03*
X1168D02*
D03*
X1142D02*
D03*
X795Y1312D02*
D03*
X769D02*
D03*
X744D02*
D03*
X718D02*
D03*
X693D02*
D03*
X667D02*
D03*
X641D02*
D03*
X616D02*
D03*
X590D02*
D03*
X565D02*
D03*
X539D02*
D03*
X513D02*
D03*
X488D02*
D03*
X462D02*
D03*
X795Y1088D02*
D03*
X769D02*
D03*
X744D02*
D03*
X718D02*
D03*
X693D02*
D03*
X667D02*
D03*
X641D02*
D03*
X616D02*
D03*
X590D02*
D03*
X565D02*
D03*
X539D02*
D03*
X513D02*
D03*
X488D02*
D03*
X462D02*
D03*
X2155Y1312D02*
D03*
X2130D02*
D03*
X2104D02*
D03*
X2078D02*
D03*
X2053D02*
D03*
X2027D02*
D03*
X2002D02*
D03*
X1976D02*
D03*
X1950D02*
D03*
X1925D02*
D03*
X1899D02*
D03*
X1874D02*
D03*
X1848D02*
D03*
X1823D02*
D03*
X2155Y1088D02*
D03*
X2130D02*
D03*
X2104D02*
D03*
X2078D02*
D03*
X2053D02*
D03*
X2027D02*
D03*
X2002D02*
D03*
X1976D02*
D03*
X1950D02*
D03*
X1925D02*
D03*
X1899D02*
D03*
X1874D02*
D03*
X1848D02*
D03*
X1823D02*
D03*
X3515Y5362D02*
D03*
X3489D02*
D03*
X3464D02*
D03*
X3438D02*
D03*
X3413D02*
D03*
X3387D02*
D03*
X3361D02*
D03*
X3336D02*
D03*
X3310D02*
D03*
X3285D02*
D03*
X3259D02*
D03*
X3233D02*
D03*
X3208D02*
D03*
X3182D02*
D03*
X3515Y5138D02*
D03*
X3489D02*
D03*
X3464D02*
D03*
X3438D02*
D03*
X3413D02*
D03*
X3387D02*
D03*
X3361D02*
D03*
X3336D02*
D03*
X3310D02*
D03*
X3285D02*
D03*
X3259D02*
D03*
X3233D02*
D03*
X3208D02*
D03*
X3182D02*
D03*
X2835Y5362D02*
D03*
X2809D02*
D03*
X2784D02*
D03*
X2758D02*
D03*
X2733D02*
D03*
X2707D02*
D03*
X2681D02*
D03*
X2656D02*
D03*
X2630D02*
D03*
X2605D02*
D03*
X2579D02*
D03*
X2553D02*
D03*
X2528D02*
D03*
X2502D02*
D03*
X2835Y5138D02*
D03*
X2809D02*
D03*
X2784D02*
D03*
X2758D02*
D03*
X2733D02*
D03*
X2707D02*
D03*
X2681D02*
D03*
X2656D02*
D03*
X2630D02*
D03*
X2605D02*
D03*
X2579D02*
D03*
X2553D02*
D03*
X2528D02*
D03*
X2502D02*
D03*
X1475Y5362D02*
D03*
X1449D02*
D03*
X1424D02*
D03*
X1398D02*
D03*
X1373D02*
D03*
X1347D02*
D03*
X1321D02*
D03*
X1296D02*
D03*
X1270D02*
D03*
X1245D02*
D03*
X1219D02*
D03*
X1193D02*
D03*
X1168D02*
D03*
X1142D02*
D03*
X1475Y5138D02*
D03*
X1449D02*
D03*
X1424D02*
D03*
X1398D02*
D03*
X1373D02*
D03*
X1347D02*
D03*
X1321D02*
D03*
X1296D02*
D03*
X1270D02*
D03*
X1245D02*
D03*
X1219D02*
D03*
X1193D02*
D03*
X1168D02*
D03*
X1142D02*
D03*
X795Y5362D02*
D03*
X769D02*
D03*
X744D02*
D03*
X718D02*
D03*
X693D02*
D03*
X667D02*
D03*
X641D02*
D03*
X616D02*
D03*
X590D02*
D03*
X565D02*
D03*
X539D02*
D03*
X513D02*
D03*
X488D02*
D03*
X462D02*
D03*
X795Y5138D02*
D03*
X769D02*
D03*
X744D02*
D03*
X718D02*
D03*
X693D02*
D03*
X667D02*
D03*
X641D02*
D03*
X616D02*
D03*
X590D02*
D03*
X565D02*
D03*
X539D02*
D03*
X513D02*
D03*
X488D02*
D03*
X462D02*
D03*
X2155Y5362D02*
D03*
X2130D02*
D03*
X2104D02*
D03*
X2078D02*
D03*
X2053D02*
D03*
X2027D02*
D03*
X2002D02*
D03*
X1976D02*
D03*
X1950D02*
D03*
X1925D02*
D03*
X1899D02*
D03*
X1874D02*
D03*
X1848D02*
D03*
X1823D02*
D03*
X2155Y5138D02*
D03*
X2130D02*
D03*
X2104D02*
D03*
X2078D02*
D03*
X2053D02*
D03*
X2027D02*
D03*
X2002D02*
D03*
X1976D02*
D03*
X1950D02*
D03*
X1925D02*
D03*
X1899D02*
D03*
X1874D02*
D03*
X1848D02*
D03*
X1823D02*
D03*
D178*
X941Y2197D02*
D03*
Y2235D02*
D03*
X906Y2197D02*
D03*
Y2235D02*
D03*
X3656Y942D02*
D03*
Y980D02*
D03*
X2981Y942D02*
D03*
Y980D02*
D03*
X1619Y937D02*
D03*
Y975D02*
D03*
X939Y937D02*
D03*
Y975D02*
D03*
X2294Y937D02*
D03*
Y975D02*
D03*
X2926Y1922D02*
D03*
Y1960D02*
D03*
X2891Y3365D02*
D03*
Y3327D02*
D03*
X1626Y2700D02*
D03*
Y2662D02*
D03*
Y2742D02*
D03*
Y2780D02*
D03*
X2294Y1002D02*
D03*
Y1040D02*
D03*
X3656Y1007D02*
D03*
Y1045D02*
D03*
X2979Y1007D02*
D03*
Y1045D02*
D03*
X1619Y1007D02*
D03*
Y1045D02*
D03*
X939Y1007D02*
D03*
Y1045D02*
D03*
X1931Y3102D02*
D03*
Y3140D02*
D03*
X2191Y1420D02*
D03*
Y1382D02*
D03*
X2156Y1420D02*
D03*
Y1382D02*
D03*
X2121Y1420D02*
D03*
Y1382D02*
D03*
X1675Y985D02*
D03*
Y947D02*
D03*
X1780Y985D02*
D03*
Y947D02*
D03*
X2260Y1040D02*
D03*
Y1002D02*
D03*
X626Y2412D02*
D03*
Y2450D02*
D03*
X3137Y946D02*
D03*
Y984D02*
D03*
X3621Y1007D02*
D03*
Y1045D02*
D03*
X3551Y1382D02*
D03*
Y1420D02*
D03*
X3039Y947D02*
D03*
Y985D02*
D03*
X3516Y1382D02*
D03*
Y1420D02*
D03*
X3481Y1382D02*
D03*
Y1420D02*
D03*
X2457Y946D02*
D03*
Y984D02*
D03*
X2944Y1007D02*
D03*
Y1045D02*
D03*
X2871Y1382D02*
D03*
Y1420D02*
D03*
X2359Y947D02*
D03*
Y985D02*
D03*
X2836Y1382D02*
D03*
Y1420D02*
D03*
X2801Y1382D02*
D03*
Y1420D02*
D03*
X1097Y946D02*
D03*
Y984D02*
D03*
X1582Y1006D02*
D03*
Y1044D02*
D03*
X1511Y1382D02*
D03*
Y1420D02*
D03*
X999Y947D02*
D03*
Y985D02*
D03*
X1476Y1382D02*
D03*
Y1420D02*
D03*
X1441Y1382D02*
D03*
Y1420D02*
D03*
X417Y946D02*
D03*
Y984D02*
D03*
X904Y1007D02*
D03*
Y1045D02*
D03*
X831Y1382D02*
D03*
Y1420D02*
D03*
X319Y947D02*
D03*
Y985D02*
D03*
X796Y1382D02*
D03*
Y1420D02*
D03*
X761Y1382D02*
D03*
Y1420D02*
D03*
X1491Y2572D02*
D03*
Y2610D02*
D03*
X906Y2972D02*
D03*
Y3010D02*
D03*
Y3080D02*
D03*
Y3042D02*
D03*
X1416Y3070D02*
D03*
Y3032D02*
D03*
X1451Y2992D02*
D03*
Y3030D02*
D03*
X1461Y2347D02*
D03*
Y2385D02*
D03*
X1561Y2452D02*
D03*
Y2490D02*
D03*
X1641Y2210D02*
D03*
Y2172D02*
D03*
X2631Y2362D02*
D03*
Y2400D02*
D03*
X2431Y1885D02*
D03*
Y1847D02*
D03*
X1581Y2230D02*
D03*
Y2192D02*
D03*
X1641Y2575D02*
D03*
Y2537D02*
D03*
X2396Y1885D02*
D03*
Y1847D02*
D03*
X2706Y2327D02*
D03*
Y2365D02*
D03*
X2311Y2922D02*
D03*
Y2960D02*
D03*
X1541Y2352D02*
D03*
Y2390D02*
D03*
X1641Y1932D02*
D03*
Y1970D02*
D03*
X3126Y1960D02*
D03*
Y1922D02*
D03*
X3966Y1935D02*
D03*
Y1897D02*
D03*
X3540Y1934D02*
D03*
Y1896D02*
D03*
X3796Y1935D02*
D03*
Y1897D02*
D03*
X3370Y1934D02*
D03*
Y1896D02*
D03*
X3161Y1922D02*
D03*
Y1960D02*
D03*
X4001Y1897D02*
D03*
Y1935D02*
D03*
X3575Y1896D02*
D03*
Y1934D02*
D03*
X2891Y1922D02*
D03*
Y1960D02*
D03*
X3761Y1897D02*
D03*
Y1935D02*
D03*
X3335Y1896D02*
D03*
Y1934D02*
D03*
X2536Y1642D02*
D03*
Y1680D02*
D03*
X661Y2450D02*
D03*
Y2412D02*
D03*
X941Y6247D02*
D03*
Y6285D02*
D03*
X906Y6247D02*
D03*
Y6285D02*
D03*
X3656Y4992D02*
D03*
Y5030D02*
D03*
X2981Y4992D02*
D03*
Y5030D02*
D03*
X1619Y4987D02*
D03*
Y5025D02*
D03*
X939Y4987D02*
D03*
Y5025D02*
D03*
X2294Y4987D02*
D03*
Y5025D02*
D03*
X2926Y5972D02*
D03*
Y6010D02*
D03*
X2891Y7415D02*
D03*
Y7377D02*
D03*
X1626Y6750D02*
D03*
Y6712D02*
D03*
Y6792D02*
D03*
Y6830D02*
D03*
X2294Y5052D02*
D03*
Y5090D02*
D03*
X3656Y5057D02*
D03*
Y5095D02*
D03*
X2979Y5057D02*
D03*
Y5095D02*
D03*
X1619Y5057D02*
D03*
Y5095D02*
D03*
X939Y5057D02*
D03*
Y5095D02*
D03*
X1931Y7152D02*
D03*
Y7190D02*
D03*
X2191Y5470D02*
D03*
Y5432D02*
D03*
X2156Y5470D02*
D03*
Y5432D02*
D03*
X2121Y5470D02*
D03*
Y5432D02*
D03*
X1675Y5035D02*
D03*
Y4997D02*
D03*
X1780Y5035D02*
D03*
Y4997D02*
D03*
X2260Y5090D02*
D03*
Y5052D02*
D03*
X626Y6462D02*
D03*
Y6500D02*
D03*
X3137Y4996D02*
D03*
Y5034D02*
D03*
X3621Y5057D02*
D03*
Y5095D02*
D03*
X3551Y5432D02*
D03*
Y5470D02*
D03*
X3039Y4997D02*
D03*
Y5035D02*
D03*
X3516Y5432D02*
D03*
Y5470D02*
D03*
X3481Y5432D02*
D03*
Y5470D02*
D03*
X2457Y4996D02*
D03*
Y5034D02*
D03*
X2944Y5057D02*
D03*
Y5095D02*
D03*
X2871Y5432D02*
D03*
Y5470D02*
D03*
X2359Y4997D02*
D03*
Y5035D02*
D03*
X2836Y5432D02*
D03*
Y5470D02*
D03*
X2801Y5432D02*
D03*
Y5470D02*
D03*
X1097Y4996D02*
D03*
Y5034D02*
D03*
X1582Y5056D02*
D03*
Y5094D02*
D03*
X1511Y5432D02*
D03*
Y5470D02*
D03*
X999Y4997D02*
D03*
Y5035D02*
D03*
X1476Y5432D02*
D03*
Y5470D02*
D03*
X1441Y5432D02*
D03*
Y5470D02*
D03*
X417Y4996D02*
D03*
Y5034D02*
D03*
X904Y5057D02*
D03*
Y5095D02*
D03*
X831Y5432D02*
D03*
Y5470D02*
D03*
X319Y4997D02*
D03*
Y5035D02*
D03*
X796Y5432D02*
D03*
Y5470D02*
D03*
X761Y5432D02*
D03*
Y5470D02*
D03*
X1491Y6622D02*
D03*
Y6660D02*
D03*
X906Y7022D02*
D03*
Y7060D02*
D03*
Y7130D02*
D03*
Y7092D02*
D03*
X1416Y7120D02*
D03*
Y7082D02*
D03*
X1451Y7042D02*
D03*
Y7080D02*
D03*
X1461Y6397D02*
D03*
Y6435D02*
D03*
X1561Y6502D02*
D03*
Y6540D02*
D03*
X1641Y6260D02*
D03*
Y6222D02*
D03*
X2631Y6412D02*
D03*
Y6450D02*
D03*
X2431Y5935D02*
D03*
Y5897D02*
D03*
X1581Y6280D02*
D03*
Y6242D02*
D03*
X1641Y6625D02*
D03*
Y6587D02*
D03*
X2396Y5935D02*
D03*
Y5897D02*
D03*
X2706Y6377D02*
D03*
Y6415D02*
D03*
X2311Y6972D02*
D03*
Y7010D02*
D03*
X1541Y6402D02*
D03*
Y6440D02*
D03*
X1641Y5982D02*
D03*
Y6020D02*
D03*
X3126Y6010D02*
D03*
Y5972D02*
D03*
X3966Y5985D02*
D03*
Y5947D02*
D03*
X3540Y5984D02*
D03*
Y5946D02*
D03*
X3796Y5985D02*
D03*
Y5947D02*
D03*
X3370Y5984D02*
D03*
Y5946D02*
D03*
X3161Y5972D02*
D03*
Y6010D02*
D03*
X4001Y5947D02*
D03*
Y5985D02*
D03*
X3575Y5946D02*
D03*
Y5984D02*
D03*
X2891Y5972D02*
D03*
Y6010D02*
D03*
X3761Y5947D02*
D03*
Y5985D02*
D03*
X3335Y5946D02*
D03*
Y5984D02*
D03*
X2536Y5692D02*
D03*
Y5730D02*
D03*
X661Y6500D02*
D03*
Y6462D02*
D03*
D179*
X856Y2289D02*
D03*
Y2202D02*
D03*
X711Y2413D02*
D03*
Y2500D02*
D03*
X856Y6339D02*
D03*
Y6252D02*
D03*
X711Y6463D02*
D03*
Y6550D02*
D03*
D180*
X3189Y1821D02*
D03*
X3243D02*
D03*
X3209Y1871D02*
D03*
X3263D02*
D03*
X4113Y1231D02*
D03*
X4059D02*
D03*
X839Y2781D02*
D03*
X893D02*
D03*
X839Y2831D02*
D03*
X893D02*
D03*
X1429D02*
D03*
X1483D02*
D03*
X1429Y2781D02*
D03*
X1483D02*
D03*
X1853Y661D02*
D03*
X1799D02*
D03*
X2124D02*
D03*
X2178D02*
D03*
X2078D02*
D03*
X2024D02*
D03*
X1953D02*
D03*
X1899D02*
D03*
X2513Y3071D02*
D03*
X2459D02*
D03*
X2254Y3081D02*
D03*
X2308D02*
D03*
X1859Y2991D02*
D03*
X1913D02*
D03*
X3384Y651D02*
D03*
X3437D02*
D03*
X3537D02*
D03*
X3484D02*
D03*
X3260Y652D02*
D03*
X3313D02*
D03*
X3160D02*
D03*
X3213D02*
D03*
X2704Y661D02*
D03*
X2758D02*
D03*
X2858D02*
D03*
X2804D02*
D03*
X2579D02*
D03*
X2633D02*
D03*
X2484D02*
D03*
X2538D02*
D03*
X1344Y651D02*
D03*
X1397D02*
D03*
X1497D02*
D03*
X1444D02*
D03*
X1220Y652D02*
D03*
X1273D02*
D03*
X1120D02*
D03*
X1173D02*
D03*
X659Y661D02*
D03*
X713D02*
D03*
X818D02*
D03*
X764D02*
D03*
X549D02*
D03*
X603D02*
D03*
X449D02*
D03*
X503D02*
D03*
X858Y3551D02*
D03*
X804D02*
D03*
X963D02*
D03*
X909D02*
D03*
X558Y3086D02*
D03*
X504D02*
D03*
X558Y3031D02*
D03*
X504D02*
D03*
X3179Y2576D02*
D03*
X3125D02*
D03*
X2904D02*
D03*
X2850D02*
D03*
X3887Y2576D02*
D03*
X3833D02*
D03*
X3607Y2571D02*
D03*
X3554D02*
D03*
X3179Y2626D02*
D03*
X3125D02*
D03*
X2904D02*
D03*
X2850D02*
D03*
X3887Y2626D02*
D03*
X3834D02*
D03*
X3607Y2621D02*
D03*
X3554D02*
D03*
X3189Y5871D02*
D03*
X3243D02*
D03*
X3209Y5921D02*
D03*
X3263D02*
D03*
X4113Y5281D02*
D03*
X4059D02*
D03*
X839Y6831D02*
D03*
X893D02*
D03*
X839Y6881D02*
D03*
X893D02*
D03*
X1429D02*
D03*
X1483D02*
D03*
X1429Y6831D02*
D03*
X1483D02*
D03*
X1853Y4711D02*
D03*
X1799D02*
D03*
X2124D02*
D03*
X2178D02*
D03*
X2078D02*
D03*
X2024D02*
D03*
X1953D02*
D03*
X1899D02*
D03*
X2513Y7121D02*
D03*
X2459D02*
D03*
X2254Y7131D02*
D03*
X2308D02*
D03*
X1859Y7041D02*
D03*
X1913D02*
D03*
X3384Y4701D02*
D03*
X3437D02*
D03*
X3537D02*
D03*
X3484D02*
D03*
X3260Y4702D02*
D03*
X3313D02*
D03*
X3160D02*
D03*
X3213D02*
D03*
X2704Y4711D02*
D03*
X2758D02*
D03*
X2858D02*
D03*
X2804D02*
D03*
X2579D02*
D03*
X2633D02*
D03*
X2484D02*
D03*
X2538D02*
D03*
X1344Y4701D02*
D03*
X1397D02*
D03*
X1497D02*
D03*
X1444D02*
D03*
X1220Y4702D02*
D03*
X1273D02*
D03*
X1120D02*
D03*
X1173D02*
D03*
X659Y4711D02*
D03*
X713D02*
D03*
X818D02*
D03*
X764D02*
D03*
X549D02*
D03*
X603D02*
D03*
X449D02*
D03*
X503D02*
D03*
X858Y7601D02*
D03*
X804D02*
D03*
X963D02*
D03*
X909D02*
D03*
X558Y7136D02*
D03*
X504D02*
D03*
X558Y7081D02*
D03*
X504D02*
D03*
X3179Y6626D02*
D03*
X3125D02*
D03*
X2904D02*
D03*
X2850D02*
D03*
X3887Y6626D02*
D03*
X3833D02*
D03*
X3607Y6621D02*
D03*
X3554D02*
D03*
X3179Y6676D02*
D03*
X3125D02*
D03*
X2904D02*
D03*
X2850D02*
D03*
X3887Y6676D02*
D03*
X3834D02*
D03*
X3607Y6671D02*
D03*
X3554D02*
D03*
D181*
X891Y1762D02*
D03*
Y1852D02*
D03*
Y2112D02*
D03*
Y5812D02*
D03*
Y5902D02*
D03*
Y6162D02*
D03*
D182*
X436Y2073D02*
D03*
Y2030D02*
D03*
Y1987D02*
D03*
Y1943D02*
D03*
Y1900D02*
D03*
Y1857D02*
D03*
Y1813D02*
D03*
Y1770D02*
D03*
Y6123D02*
D03*
Y6080D02*
D03*
Y6037D02*
D03*
Y5993D02*
D03*
Y5950D02*
D03*
Y5907D02*
D03*
Y5863D02*
D03*
Y5820D02*
D03*
D183*
X321Y1622D02*
D03*
Y2130D02*
D03*
Y5672D02*
D03*
Y6180D02*
D03*
D184*
X3225Y3891D02*
D03*
X3308D02*
D03*
X447Y3086D02*
D03*
X364D02*
D03*
X447Y3031D02*
D03*
X364D02*
D03*
X3225Y7941D02*
D03*
X3308D02*
D03*
X447Y7136D02*
D03*
X364D02*
D03*
X447Y7081D02*
D03*
X364D02*
D03*
D185*
X1417Y2881D02*
D03*
X1455D02*
D03*
X4052Y1276D02*
D03*
X4090D02*
D03*
X1535Y2666D02*
D03*
X1497D02*
D03*
X1535Y2701D02*
D03*
X1497D02*
D03*
X1735Y2901D02*
D03*
X1772D02*
D03*
X1698D02*
D03*
X1660D02*
D03*
X2848Y2671D02*
D03*
X2886D02*
D03*
X3123D02*
D03*
X3161D02*
D03*
X2515Y3026D02*
D03*
X2477D02*
D03*
X2267Y3036D02*
D03*
X2305D02*
D03*
X1775Y1901D02*
D03*
X1737D02*
D03*
X1670Y1871D02*
D03*
X1632D02*
D03*
X3337Y4090D02*
D03*
X3299D02*
D03*
X3376Y3982D02*
D03*
X3413D02*
D03*
X2280Y2871D02*
D03*
X2242D02*
D03*
X1905Y2946D02*
D03*
X1867D02*
D03*
X3832Y2671D02*
D03*
X3870D02*
D03*
X3552Y2666D02*
D03*
X3590D02*
D03*
X2660Y3061D02*
D03*
X2622D02*
D03*
X2660Y3111D02*
D03*
X2622D02*
D03*
X2660Y3161D02*
D03*
X2622D02*
D03*
X2660Y3211D02*
D03*
X2622D02*
D03*
X2660Y3261D02*
D03*
X2622D02*
D03*
X2660Y3311D02*
D03*
X2622D02*
D03*
X1417Y6931D02*
D03*
X1455D02*
D03*
X4052Y5326D02*
D03*
X4090D02*
D03*
X1535Y6716D02*
D03*
X1497D02*
D03*
X1535Y6751D02*
D03*
X1497D02*
D03*
X1735Y6951D02*
D03*
X1772D02*
D03*
X1698D02*
D03*
X1660D02*
D03*
X2848Y6721D02*
D03*
X2886D02*
D03*
X3123D02*
D03*
X3161D02*
D03*
X2515Y7076D02*
D03*
X2477D02*
D03*
X2267Y7086D02*
D03*
X2305D02*
D03*
X1775Y5951D02*
D03*
X1737D02*
D03*
X1670Y5921D02*
D03*
X1632D02*
D03*
X3337Y8140D02*
D03*
X3299D02*
D03*
X3376Y8032D02*
D03*
X3413D02*
D03*
X2280Y6921D02*
D03*
X2242D02*
D03*
X1905Y6996D02*
D03*
X1867D02*
D03*
X3832Y6721D02*
D03*
X3870D02*
D03*
X3552Y6716D02*
D03*
X3590D02*
D03*
X2660Y7111D02*
D03*
X2622D02*
D03*
X2660Y7161D02*
D03*
X2622D02*
D03*
X2660Y7211D02*
D03*
X2622D02*
D03*
X2660Y7261D02*
D03*
X2622D02*
D03*
X2660Y7311D02*
D03*
X2622D02*
D03*
X2660Y7361D02*
D03*
X2622D02*
D03*
D186*
X4166Y3886D02*
D03*
X4226D02*
D03*
X4166Y7936D02*
D03*
X4226D02*
D03*
D187*
X2786Y3334D02*
D03*
Y3438D02*
D03*
Y7384D02*
D03*
Y7488D02*
D03*
D188*
X4168Y1161D02*
D03*
X4064D02*
D03*
X3396Y4199D02*
D03*
X3503D02*
D03*
X4168Y5211D02*
D03*
X4064D02*
D03*
X3396Y8249D02*
D03*
X3503D02*
D03*
D189*
X836Y1006D02*
D03*
X1517Y1007D02*
D03*
X2876Y1005D02*
D03*
X3556D02*
D03*
X2196Y1006D02*
D03*
X311Y1471D02*
D03*
X656D02*
D03*
X696Y1411D02*
D03*
X616D02*
D03*
X536D02*
D03*
X576Y1471D02*
D03*
X496D02*
D03*
X1176D02*
D03*
X1256D02*
D03*
X1336D02*
D03*
X1376Y1411D02*
D03*
X1296D02*
D03*
X1216D02*
D03*
X1856Y1476D02*
D03*
X1936Y1471D02*
D03*
X1896Y1411D02*
D03*
X1976D02*
D03*
X2016Y1471D02*
D03*
X2056Y1411D02*
D03*
X2536Y1471D02*
D03*
X2576Y1411D02*
D03*
X2616Y1471D02*
D03*
X2696D02*
D03*
X2656Y1411D02*
D03*
X2736D02*
D03*
X3216Y1471D02*
D03*
X3256Y1411D02*
D03*
X3336D02*
D03*
X3296Y1471D02*
D03*
X3376D02*
D03*
X3416Y1411D02*
D03*
X836Y5056D02*
D03*
X1517Y5057D02*
D03*
X2876Y5055D02*
D03*
X3556D02*
D03*
X2196Y5056D02*
D03*
X311Y5521D02*
D03*
X656D02*
D03*
X696Y5461D02*
D03*
X616D02*
D03*
X536D02*
D03*
X576Y5521D02*
D03*
X496D02*
D03*
X1176D02*
D03*
X1256D02*
D03*
X1336D02*
D03*
X1376Y5461D02*
D03*
X1296D02*
D03*
X1216D02*
D03*
X1856Y5526D02*
D03*
X1936Y5521D02*
D03*
X1896Y5461D02*
D03*
X1976D02*
D03*
X2016Y5521D02*
D03*
X2056Y5461D02*
D03*
X2536Y5521D02*
D03*
X2576Y5461D02*
D03*
X2616Y5521D02*
D03*
X2696D02*
D03*
X2656Y5461D02*
D03*
X2736D02*
D03*
X3216Y5521D02*
D03*
X3256Y5461D02*
D03*
X3336D02*
D03*
X3296Y5521D02*
D03*
X3376D02*
D03*
X3416Y5461D02*
D03*
D190*
X4294Y1426D02*
D03*
X4057D02*
D03*
X3159Y3502D02*
D03*
X2922D02*
D03*
X4294Y5476D02*
D03*
X4057D02*
D03*
X3159Y7552D02*
D03*
X2922D02*
D03*
D191*
X901Y3840D02*
D03*
X851D02*
D03*
X751D02*
D03*
X901Y3623D02*
D03*
X851D02*
D03*
X751D02*
D03*
X801Y3840D02*
D03*
Y3623D02*
D03*
X901Y7890D02*
D03*
X851D02*
D03*
X751D02*
D03*
X901Y7673D02*
D03*
X851D02*
D03*
X751D02*
D03*
X801Y7890D02*
D03*
Y7673D02*
D03*
D192*
X3076Y3239D02*
D03*
Y3002D02*
D03*
Y7289D02*
D03*
Y7052D02*
D03*
D193*
X3443Y2631D02*
D03*
X3498D02*
D03*
X3723Y2631D02*
D03*
X3778D02*
D03*
X2740Y2631D02*
D03*
X2795D02*
D03*
X3017Y2631D02*
D03*
X3072D02*
D03*
X3498Y2571D02*
D03*
X3443D02*
D03*
X3778Y2571D02*
D03*
X3723D02*
D03*
X2795Y2571D02*
D03*
X2740D02*
D03*
X3072D02*
D03*
X3017D02*
D03*
X3443Y6681D02*
D03*
X3498D02*
D03*
X3723Y6681D02*
D03*
X3778D02*
D03*
X2740Y6681D02*
D03*
X2795D02*
D03*
X3017Y6681D02*
D03*
X3072D02*
D03*
X3498Y6621D02*
D03*
X3443D02*
D03*
X3778Y6621D02*
D03*
X3723D02*
D03*
X2795Y6621D02*
D03*
X2740D02*
D03*
X3072D02*
D03*
X3017D02*
D03*
D194*
X2856Y3949D02*
D03*
Y4153D02*
D03*
X2811Y3029D02*
D03*
Y3233D02*
D03*
X2856Y7999D02*
D03*
Y8203D02*
D03*
X2811Y7079D02*
D03*
Y7283D02*
D03*
D195*
X2974Y3766D02*
D03*
X3178D02*
D03*
X2974Y7816D02*
D03*
X3178D02*
D03*
D196*
X1784Y856D02*
D03*
X1942D02*
D03*
X2194D02*
D03*
X2036D02*
D03*
X2290Y741D02*
D03*
X2132D02*
D03*
X1692D02*
D03*
X1850D02*
D03*
X3395Y856D02*
D03*
X3552D02*
D03*
X3492Y741D02*
D03*
X3650D02*
D03*
X3303Y856D02*
D03*
X3145D02*
D03*
X3210Y741D02*
D03*
X3052D02*
D03*
X2715Y856D02*
D03*
X2872D02*
D03*
X2812Y741D02*
D03*
X2970D02*
D03*
X2623Y856D02*
D03*
X2465D02*
D03*
X2530Y741D02*
D03*
X2372D02*
D03*
X1355Y856D02*
D03*
X1512D02*
D03*
X1452Y741D02*
D03*
X1610D02*
D03*
X1263Y856D02*
D03*
X1105D02*
D03*
X1170Y736D02*
D03*
X1012D02*
D03*
X675Y856D02*
D03*
X832D02*
D03*
X772Y736D02*
D03*
X930D02*
D03*
X583Y856D02*
D03*
X425D02*
D03*
X485Y741D02*
D03*
X327D02*
D03*
X3773Y3892D02*
D03*
X3931D02*
D03*
X1784Y4906D02*
D03*
X1942D02*
D03*
X2194D02*
D03*
X2036D02*
D03*
X2290Y4791D02*
D03*
X2132D02*
D03*
X1692D02*
D03*
X1850D02*
D03*
X3395Y4906D02*
D03*
X3552D02*
D03*
X3492Y4791D02*
D03*
X3650D02*
D03*
X3303Y4906D02*
D03*
X3145D02*
D03*
X3210Y4791D02*
D03*
X3052D02*
D03*
X2715Y4906D02*
D03*
X2872D02*
D03*
X2812Y4791D02*
D03*
X2970D02*
D03*
X2623Y4906D02*
D03*
X2465D02*
D03*
X2530Y4791D02*
D03*
X2372D02*
D03*
X1355Y4906D02*
D03*
X1512D02*
D03*
X1452Y4791D02*
D03*
X1610D02*
D03*
X1263Y4906D02*
D03*
X1105D02*
D03*
X1170Y4786D02*
D03*
X1012D02*
D03*
X675Y4906D02*
D03*
X832D02*
D03*
X772Y4786D02*
D03*
X930D02*
D03*
X583Y4906D02*
D03*
X425D02*
D03*
X485Y4791D02*
D03*
X327D02*
D03*
X3773Y7942D02*
D03*
X3931D02*
D03*
D197*
X3852Y4039D02*
D03*
Y4196D02*
D03*
Y8089D02*
D03*
Y8246D02*
D03*
D198*
X2686Y2747D02*
D03*
Y2825D02*
D03*
Y6797D02*
D03*
Y6875D02*
D03*
D199*
X3131Y3972D02*
D03*
Y8022D02*
D03*
D200*
X3041Y4200D02*
D03*
X3131D02*
D03*
X3222D02*
D03*
X3041Y8250D02*
D03*
X3131D02*
D03*
X3222D02*
D03*
D201*
X3694Y3894D02*
D03*
X3461D02*
D03*
X3694Y7944D02*
D03*
X3461D02*
D03*
D202*
X3393Y4120D02*
D03*
Y4100D02*
D03*
Y4081D02*
D03*
Y4061D02*
D03*
Y4041D02*
D03*
X3582Y4120D02*
D03*
Y4100D02*
D03*
Y4081D02*
D03*
Y4061D02*
D03*
Y4041D02*
D03*
X3393Y8170D02*
D03*
Y8150D02*
D03*
Y8131D02*
D03*
Y8111D02*
D03*
Y8091D02*
D03*
X3582Y8170D02*
D03*
Y8150D02*
D03*
Y8131D02*
D03*
Y8111D02*
D03*
Y8091D02*
D03*
D203*
X3487Y4081D02*
D03*
Y8131D02*
D03*
D204*
X3611Y4205D02*
D03*
X3687D02*
D03*
X634Y2216D02*
D03*
X559D02*
D03*
X3611Y8255D02*
D03*
X3687D02*
D03*
X634Y6266D02*
D03*
X559D02*
D03*
D205*
X3322Y4214D02*
D03*
Y4138D02*
D03*
Y8264D02*
D03*
Y8188D02*
D03*
D206*
X774Y2806D02*
D03*
X700Y2844D02*
D03*
Y2769D02*
D03*
X774Y6856D02*
D03*
X700Y6894D02*
D03*
Y6819D02*
D03*
D207*
X3455Y1883D02*
D03*
X3418Y1957D02*
D03*
X3492D02*
D03*
X3881Y1884D02*
D03*
X3844Y1959D02*
D03*
X3919D02*
D03*
X3026Y1879D02*
D03*
X2989Y1954D02*
D03*
X3064D02*
D03*
X3455Y5933D02*
D03*
X3418Y6007D02*
D03*
X3492D02*
D03*
X3881Y5934D02*
D03*
X3844Y6009D02*
D03*
X3919D02*
D03*
X3026Y5929D02*
D03*
X2989Y6004D02*
D03*
X3064D02*
D03*
D208*
X1604Y3001D02*
D03*
X1753D02*
D03*
X1604Y7051D02*
D03*
X1753D02*
D03*
D209*
X1341Y2731D02*
D03*
Y2781D02*
D03*
Y2831D02*
D03*
Y2881D02*
D03*
Y2931D02*
D03*
Y2981D02*
D03*
Y3031D02*
D03*
Y3081D02*
D03*
X981Y2731D02*
D03*
Y2781D02*
D03*
Y2831D02*
D03*
Y2881D02*
D03*
Y2931D02*
D03*
Y2981D02*
D03*
Y3031D02*
D03*
Y3081D02*
D03*
X1341Y6781D02*
D03*
Y6831D02*
D03*
Y6881D02*
D03*
Y6931D02*
D03*
Y6981D02*
D03*
Y7031D02*
D03*
Y7081D02*
D03*
Y7131D02*
D03*
X981Y6781D02*
D03*
Y6831D02*
D03*
Y6881D02*
D03*
Y6931D02*
D03*
Y6981D02*
D03*
Y7031D02*
D03*
Y7081D02*
D03*
Y7131D02*
D03*
D210*
X1601Y2536D02*
D03*
Y2477D02*
D03*
Y6586D02*
D03*
Y6527D02*
D03*
D211*
X1755Y1866D02*
D03*
X1707D02*
D03*
X1910Y3041D02*
D03*
X1862D02*
D03*
X1755Y5916D02*
D03*
X1707D02*
D03*
X1910Y7091D02*
D03*
X1862D02*
D03*
D212*
X1456Y2572D02*
D03*
Y2620D02*
D03*
X1476Y2457D02*
D03*
Y2505D02*
D03*
X1601Y1932D02*
D03*
Y1980D02*
D03*
X1371Y2332D02*
D03*
Y2380D02*
D03*
X1456Y6622D02*
D03*
Y6670D02*
D03*
X1476Y6507D02*
D03*
Y6555D02*
D03*
X1601Y5982D02*
D03*
Y6030D02*
D03*
X1371Y6382D02*
D03*
Y6430D02*
D03*
D213*
X2353Y3787D02*
D03*
X2481D02*
D03*
X1897Y3786D02*
D03*
X2025D02*
D03*
X1497D02*
D03*
X1625D02*
D03*
X1097D02*
D03*
X1225D02*
D03*
X2353Y7837D02*
D03*
X2481D02*
D03*
X1897Y7836D02*
D03*
X2025D02*
D03*
X1497D02*
D03*
X1625D02*
D03*
X1097D02*
D03*
X1225D02*
D03*
D214*
X556Y4021D02*
D03*
X326Y591D02*
D03*
X556Y8071D02*
D03*
X326Y4641D02*
D03*
D215*
X4056Y561D02*
D03*
Y4611D02*
D03*
D216*
X2272Y3309D02*
D03*
Y3283D02*
D03*
Y3257D02*
D03*
Y3232D02*
D03*
Y3206D02*
D03*
Y3181D02*
D03*
Y3155D02*
D03*
Y3130D02*
D03*
X2495Y3309D02*
D03*
Y3283D02*
D03*
Y3257D02*
D03*
Y3232D02*
D03*
Y3206D02*
D03*
Y3181D02*
D03*
Y3155D02*
D03*
Y3130D02*
D03*
X2272Y7359D02*
D03*
Y7333D02*
D03*
Y7307D02*
D03*
Y7282D02*
D03*
Y7256D02*
D03*
Y7231D02*
D03*
Y7205D02*
D03*
Y7180D02*
D03*
X2495Y7359D02*
D03*
Y7333D02*
D03*
Y7307D02*
D03*
Y7282D02*
D03*
Y7256D02*
D03*
Y7231D02*
D03*
Y7205D02*
D03*
Y7180D02*
D03*
D217*
X2337Y3548D02*
D03*
Y3465D02*
D03*
X1881Y3567D02*
D03*
Y3484D02*
D03*
X1481Y3567D02*
D03*
Y3484D02*
D03*
X1081Y3567D02*
D03*
Y3484D02*
D03*
X971Y3760D02*
D03*
Y3843D02*
D03*
X680Y3759D02*
D03*
Y3843D02*
D03*
X2337Y7598D02*
D03*
Y7515D02*
D03*
X1881Y7617D02*
D03*
Y7534D02*
D03*
X1481Y7617D02*
D03*
Y7534D02*
D03*
X1081Y7617D02*
D03*
Y7534D02*
D03*
X971Y7810D02*
D03*
Y7893D02*
D03*
X680Y7809D02*
D03*
Y7893D02*
D03*
D218*
X2477Y1521D02*
D03*
Y1571D02*
D03*
Y1621D02*
D03*
Y1671D02*
D03*
X2265Y1521D02*
D03*
Y1571D02*
D03*
Y1621D02*
D03*
Y1671D02*
D03*
X2477Y5571D02*
D03*
Y5621D02*
D03*
Y5671D02*
D03*
Y5721D02*
D03*
X2265Y5571D02*
D03*
Y5621D02*
D03*
Y5671D02*
D03*
Y5721D02*
D03*
D219*
X896Y1317D02*
D03*
Y1085D02*
D03*
X1576Y1317D02*
D03*
Y1085D02*
D03*
X2936Y1317D02*
D03*
Y1085D02*
D03*
X3616Y1317D02*
D03*
Y1085D02*
D03*
X361Y1317D02*
D03*
Y1085D02*
D03*
X1041Y1317D02*
D03*
Y1085D02*
D03*
X2401Y1317D02*
D03*
Y1085D02*
D03*
X3081Y1317D02*
D03*
Y1085D02*
D03*
X2256Y1317D02*
D03*
Y1085D02*
D03*
X1721Y1317D02*
D03*
Y1085D02*
D03*
X896Y5367D02*
D03*
Y5135D02*
D03*
X1576Y5367D02*
D03*
Y5135D02*
D03*
X2936Y5367D02*
D03*
Y5135D02*
D03*
X3616Y5367D02*
D03*
Y5135D02*
D03*
X361Y5367D02*
D03*
Y5135D02*
D03*
X1041Y5367D02*
D03*
Y5135D02*
D03*
X2401Y5367D02*
D03*
Y5135D02*
D03*
X3081Y5367D02*
D03*
Y5135D02*
D03*
X2256Y5367D02*
D03*
Y5135D02*
D03*
X1721Y5367D02*
D03*
Y5135D02*
D03*
D220*
X2556Y2732D02*
D03*
Y2712D02*
D03*
Y2692D02*
D03*
Y2673D02*
D03*
Y2653D02*
D03*
Y2633D02*
D03*
Y2614D02*
D03*
Y2594D02*
D03*
Y2574D02*
D03*
Y2555D02*
D03*
Y2535D02*
D03*
Y2515D02*
D03*
Y2495D02*
D03*
Y2476D02*
D03*
Y2456D02*
D03*
Y2436D02*
D03*
Y2417D02*
D03*
Y2397D02*
D03*
Y2377D02*
D03*
Y2358D02*
D03*
Y2338D02*
D03*
Y2318D02*
D03*
Y2299D02*
D03*
Y2279D02*
D03*
Y2259D02*
D03*
Y2240D02*
D03*
Y2220D02*
D03*
Y2200D02*
D03*
Y2181D02*
D03*
Y2161D02*
D03*
Y2141D02*
D03*
Y2121D02*
D03*
Y2102D02*
D03*
Y2082D02*
D03*
Y2062D02*
D03*
Y2043D02*
D03*
X1726D02*
D03*
Y2062D02*
D03*
Y2082D02*
D03*
Y2102D02*
D03*
Y2121D02*
D03*
Y2141D02*
D03*
Y2161D02*
D03*
Y2181D02*
D03*
Y2200D02*
D03*
Y2220D02*
D03*
Y2240D02*
D03*
Y2259D02*
D03*
Y2279D02*
D03*
Y2299D02*
D03*
Y2318D02*
D03*
Y2338D02*
D03*
Y2358D02*
D03*
Y2377D02*
D03*
Y2397D02*
D03*
Y2417D02*
D03*
Y2436D02*
D03*
Y2456D02*
D03*
Y2476D02*
D03*
Y2495D02*
D03*
Y2515D02*
D03*
Y2535D02*
D03*
Y2555D02*
D03*
Y2574D02*
D03*
Y2594D02*
D03*
Y2614D02*
D03*
Y2633D02*
D03*
Y2653D02*
D03*
Y2673D02*
D03*
Y2692D02*
D03*
Y2712D02*
D03*
Y2732D02*
D03*
X2556Y6782D02*
D03*
Y6762D02*
D03*
Y6742D02*
D03*
Y6723D02*
D03*
Y6703D02*
D03*
Y6683D02*
D03*
Y6664D02*
D03*
Y6644D02*
D03*
Y6624D02*
D03*
Y6605D02*
D03*
Y6585D02*
D03*
Y6565D02*
D03*
Y6545D02*
D03*
Y6526D02*
D03*
Y6506D02*
D03*
Y6486D02*
D03*
Y6467D02*
D03*
Y6447D02*
D03*
Y6427D02*
D03*
Y6408D02*
D03*
Y6388D02*
D03*
Y6368D02*
D03*
Y6349D02*
D03*
Y6329D02*
D03*
Y6309D02*
D03*
Y6290D02*
D03*
Y6270D02*
D03*
Y6250D02*
D03*
Y6231D02*
D03*
Y6211D02*
D03*
Y6191D02*
D03*
Y6171D02*
D03*
Y6152D02*
D03*
Y6132D02*
D03*
Y6112D02*
D03*
Y6093D02*
D03*
X1726D02*
D03*
Y6112D02*
D03*
Y6132D02*
D03*
Y6152D02*
D03*
Y6171D02*
D03*
Y6191D02*
D03*
Y6211D02*
D03*
Y6231D02*
D03*
Y6250D02*
D03*
Y6270D02*
D03*
Y6290D02*
D03*
Y6309D02*
D03*
Y6329D02*
D03*
Y6349D02*
D03*
Y6368D02*
D03*
Y6388D02*
D03*
Y6408D02*
D03*
Y6427D02*
D03*
Y6447D02*
D03*
Y6467D02*
D03*
Y6486D02*
D03*
Y6506D02*
D03*
Y6526D02*
D03*
Y6545D02*
D03*
Y6565D02*
D03*
Y6585D02*
D03*
Y6605D02*
D03*
Y6624D02*
D03*
Y6644D02*
D03*
Y6664D02*
D03*
Y6683D02*
D03*
Y6703D02*
D03*
Y6723D02*
D03*
Y6742D02*
D03*
Y6762D02*
D03*
Y6782D02*
D03*
D221*
X2486Y1972D02*
D03*
X2466D02*
D03*
X2446D02*
D03*
X2427D02*
D03*
X2407D02*
D03*
X2387D02*
D03*
X2367D02*
D03*
X2348D02*
D03*
X2328D02*
D03*
X2308D02*
D03*
X2289D02*
D03*
X2269D02*
D03*
X2249D02*
D03*
X2230D02*
D03*
X2210D02*
D03*
X2190D02*
D03*
X2171D02*
D03*
X2151D02*
D03*
X2131D02*
D03*
X2112D02*
D03*
X2092D02*
D03*
X2072D02*
D03*
X2053D02*
D03*
X2033D02*
D03*
X2013D02*
D03*
X1993D02*
D03*
X1974D02*
D03*
X1954D02*
D03*
X1934D02*
D03*
X1915D02*
D03*
X1895D02*
D03*
X1875D02*
D03*
X1856D02*
D03*
X1836D02*
D03*
X1816D02*
D03*
X1797D02*
D03*
Y2803D02*
D03*
X1816D02*
D03*
X1836D02*
D03*
X1856D02*
D03*
X1875D02*
D03*
X1895D02*
D03*
X1915D02*
D03*
X1934D02*
D03*
X1954D02*
D03*
X1974D02*
D03*
X1993D02*
D03*
X2013D02*
D03*
X2033D02*
D03*
X2053D02*
D03*
X2072D02*
D03*
X2092D02*
D03*
X2112D02*
D03*
X2131D02*
D03*
X2151D02*
D03*
X2171D02*
D03*
X2190D02*
D03*
X2210D02*
D03*
X2230D02*
D03*
X2249D02*
D03*
X2269D02*
D03*
X2289D02*
D03*
X2308D02*
D03*
X2328D02*
D03*
X2348D02*
D03*
X2367D02*
D03*
X2387D02*
D03*
X2407D02*
D03*
X2427D02*
D03*
X2446D02*
D03*
X2466D02*
D03*
X2486D02*
D03*
Y6022D02*
D03*
X2466D02*
D03*
X2446D02*
D03*
X2427D02*
D03*
X2407D02*
D03*
X2387D02*
D03*
X2367D02*
D03*
X2348D02*
D03*
X2328D02*
D03*
X2308D02*
D03*
X2289D02*
D03*
X2269D02*
D03*
X2249D02*
D03*
X2230D02*
D03*
X2210D02*
D03*
X2190D02*
D03*
X2171D02*
D03*
X2151D02*
D03*
X2131D02*
D03*
X2112D02*
D03*
X2092D02*
D03*
X2072D02*
D03*
X2053D02*
D03*
X2033D02*
D03*
X2013D02*
D03*
X1993D02*
D03*
X1974D02*
D03*
X1954D02*
D03*
X1934D02*
D03*
X1915D02*
D03*
X1895D02*
D03*
X1875D02*
D03*
X1856D02*
D03*
X1836D02*
D03*
X1816D02*
D03*
X1797D02*
D03*
Y6853D02*
D03*
X1816D02*
D03*
X1836D02*
D03*
X1856D02*
D03*
X1875D02*
D03*
X1895D02*
D03*
X1915D02*
D03*
X1934D02*
D03*
X1954D02*
D03*
X1974D02*
D03*
X1993D02*
D03*
X2013D02*
D03*
X2033D02*
D03*
X2053D02*
D03*
X2072D02*
D03*
X2092D02*
D03*
X2112D02*
D03*
X2131D02*
D03*
X2151D02*
D03*
X2171D02*
D03*
X2190D02*
D03*
X2210D02*
D03*
X2230D02*
D03*
X2249D02*
D03*
X2269D02*
D03*
X2289D02*
D03*
X2308D02*
D03*
X2328D02*
D03*
X2348D02*
D03*
X2367D02*
D03*
X2387D02*
D03*
X2407D02*
D03*
X2427D02*
D03*
X2446D02*
D03*
X2466D02*
D03*
X2486D02*
D03*
D222*
X1303Y3473D02*
D03*
X1253D02*
D03*
X1203D02*
D03*
X1153D02*
D03*
X1701D02*
D03*
X1651D02*
D03*
X1601D02*
D03*
X1551D02*
D03*
X2102D02*
D03*
X2052D02*
D03*
X2002D02*
D03*
X1952D02*
D03*
X2558D02*
D03*
X2508D02*
D03*
X2458D02*
D03*
X2408D02*
D03*
X1303Y7523D02*
D03*
X1253D02*
D03*
X1203D02*
D03*
X1153D02*
D03*
X1701D02*
D03*
X1651D02*
D03*
X1601D02*
D03*
X1551D02*
D03*
X2102D02*
D03*
X2052D02*
D03*
X2002D02*
D03*
X1952D02*
D03*
X2558D02*
D03*
X2508D02*
D03*
X2458D02*
D03*
X2408D02*
D03*
D223*
X3111Y1641D02*
D03*
X2941Y1731D02*
D03*
X1291Y2491D02*
D03*
X1456Y2156D02*
D03*
Y1861D02*
D03*
X3111Y5691D02*
D03*
X2941Y5781D02*
D03*
X1291Y6541D02*
D03*
X1456Y6206D02*
D03*
Y5911D02*
D03*
D224*
X3111Y1741D02*
D03*
X3211Y1641D02*
D03*
Y1741D02*
D03*
X3311Y1641D02*
D03*
Y1741D02*
D03*
X3411Y1641D02*
D03*
Y1741D02*
D03*
X3511Y1641D02*
D03*
Y1741D02*
D03*
X2841Y1731D02*
D03*
X891Y2391D02*
D03*
Y2491D02*
D03*
X991Y2391D02*
D03*
Y2491D02*
D03*
X1091Y2391D02*
D03*
Y2491D02*
D03*
X1191Y2391D02*
D03*
Y2491D02*
D03*
X1291Y2391D02*
D03*
X1056Y2056D02*
D03*
Y2156D02*
D03*
X1156Y2056D02*
D03*
Y2156D02*
D03*
X1256Y2056D02*
D03*
Y2156D02*
D03*
X1356Y2056D02*
D03*
Y2156D02*
D03*
X1456Y2056D02*
D03*
X1056Y1761D02*
D03*
Y1861D02*
D03*
X1156Y1761D02*
D03*
Y1861D02*
D03*
X1256Y1761D02*
D03*
Y1861D02*
D03*
X1356Y1761D02*
D03*
Y1861D02*
D03*
X1456Y1761D02*
D03*
X3111Y5791D02*
D03*
X3211Y5691D02*
D03*
Y5791D02*
D03*
X3311Y5691D02*
D03*
Y5791D02*
D03*
X3411Y5691D02*
D03*
Y5791D02*
D03*
X3511Y5691D02*
D03*
Y5791D02*
D03*
X2841Y5781D02*
D03*
X891Y6441D02*
D03*
Y6541D02*
D03*
X991Y6441D02*
D03*
Y6541D02*
D03*
X1091Y6441D02*
D03*
Y6541D02*
D03*
X1191Y6441D02*
D03*
Y6541D02*
D03*
X1291Y6441D02*
D03*
X1056Y6106D02*
D03*
Y6206D02*
D03*
X1156Y6106D02*
D03*
Y6206D02*
D03*
X1256Y6106D02*
D03*
Y6206D02*
D03*
X1356Y6106D02*
D03*
Y6206D02*
D03*
X1456Y6106D02*
D03*
X1056Y5811D02*
D03*
Y5911D02*
D03*
X1156Y5811D02*
D03*
Y5911D02*
D03*
X1256Y5811D02*
D03*
Y5911D02*
D03*
X1356Y5811D02*
D03*
Y5911D02*
D03*
X1456Y5811D02*
D03*
D225*
X4258Y2286D02*
D03*
X4124D02*
D03*
Y1756D02*
D03*
X4258D02*
D03*
Y6336D02*
D03*
X4124D02*
D03*
Y5806D02*
D03*
X4258D02*
D03*
D226*
X3861Y1421D02*
D03*
Y1521D02*
D03*
Y1621D02*
D03*
Y1721D02*
D03*
Y5471D02*
D03*
Y5571D02*
D03*
Y5671D02*
D03*
Y5771D02*
D03*
D227*
X4151Y3281D02*
D03*
Y3481D02*
D03*
Y3681D02*
D03*
Y3081D02*
D03*
Y2881D02*
D03*
Y2681D02*
D03*
Y7331D02*
D03*
Y7531D02*
D03*
Y7731D02*
D03*
Y7131D02*
D03*
Y6931D02*
D03*
Y6731D02*
D03*
D228*
X2536Y4096D02*
D03*
X2336D02*
D03*
X2136D02*
D03*
X1936D02*
D03*
X1736D02*
D03*
X1536D02*
D03*
X1336D02*
D03*
X1136D02*
D03*
X936D02*
D03*
X736D02*
D03*
X2536Y8146D02*
D03*
X2336D02*
D03*
X2136D02*
D03*
X1936D02*
D03*
X1736D02*
D03*
X1536D02*
D03*
X1336D02*
D03*
X1136D02*
D03*
X936D02*
D03*
X736D02*
D03*
D229*
X1896Y401D02*
D03*
X1996D02*
D03*
X2096D02*
D03*
X2196D02*
D03*
X2416D02*
D03*
X2516D02*
D03*
X2616D02*
D03*
X2716D02*
D03*
X3901D02*
D03*
X3801D02*
D03*
X3701D02*
D03*
X3601D02*
D03*
X3306D02*
D03*
X3206D02*
D03*
X3106D02*
D03*
X3006D02*
D03*
X1601D02*
D03*
X1501D02*
D03*
X1401D02*
D03*
X1301D02*
D03*
X1011D02*
D03*
X911D02*
D03*
X811D02*
D03*
X711D02*
D03*
X476Y3791D02*
D03*
X376D02*
D03*
X3496Y2381D02*
D03*
X3396D02*
D03*
X3296D02*
D03*
X3081D02*
D03*
X2981D02*
D03*
X2881D02*
D03*
X3296Y2141D02*
D03*
X3396D02*
D03*
X3496D02*
D03*
X3711D02*
D03*
X3811D02*
D03*
X3911D02*
D03*
X2881D02*
D03*
X2981D02*
D03*
X3081D02*
D03*
X3147Y2811D02*
D03*
X3247D02*
D03*
X2832D02*
D03*
X2932D02*
D03*
X3776Y2811D02*
D03*
X3876D02*
D03*
X3460Y2811D02*
D03*
X3560D02*
D03*
X3911Y2381D02*
D03*
X3811D02*
D03*
X3711D02*
D03*
X1896Y4451D02*
D03*
X1996D02*
D03*
X2096D02*
D03*
X2196D02*
D03*
X2416D02*
D03*
X2516D02*
D03*
X2616D02*
D03*
X2716D02*
D03*
X3901D02*
D03*
X3801D02*
D03*
X3701D02*
D03*
X3601D02*
D03*
X3306D02*
D03*
X3206D02*
D03*
X3106D02*
D03*
X3006D02*
D03*
X1601D02*
D03*
X1501D02*
D03*
X1401D02*
D03*
X1301D02*
D03*
X1011D02*
D03*
X911D02*
D03*
X811D02*
D03*
X711D02*
D03*
X476Y7841D02*
D03*
X376D02*
D03*
X3496Y6431D02*
D03*
X3396D02*
D03*
X3296D02*
D03*
X3081D02*
D03*
X2981D02*
D03*
X2881D02*
D03*
X3296Y6191D02*
D03*
X3396D02*
D03*
X3496D02*
D03*
X3711D02*
D03*
X3811D02*
D03*
X3911D02*
D03*
X2881D02*
D03*
X2981D02*
D03*
X3081D02*
D03*
X3147Y6861D02*
D03*
X3247D02*
D03*
X2832D02*
D03*
X2932D02*
D03*
X3776Y6861D02*
D03*
X3876D02*
D03*
X3460Y6861D02*
D03*
X3560D02*
D03*
X3911Y6431D02*
D03*
X3811D02*
D03*
X3711D02*
D03*
D230*
X3867Y951D02*
D03*
X4006Y812D02*
D03*
X450Y3529D02*
D03*
Y3253D02*
D03*
X3867Y5001D02*
D03*
X4006Y4862D02*
D03*
X450Y7579D02*
D03*
Y7303D02*
D03*
D231*
X352Y3480D02*
D03*
Y3302D02*
D03*
Y7530D02*
D03*
Y7352D02*
D03*
D232*
X364Y2394D02*
D03*
Y2867D02*
D03*
Y6444D02*
D03*
Y6917D02*
D03*
D233*
X471Y2581D02*
D03*
Y2680D02*
D03*
X550D02*
D03*
Y2581D02*
D03*
X471Y6631D02*
D03*
Y6730D02*
D03*
X550D02*
D03*
Y6631D02*
D03*
D234*
X3866Y3159D02*
D03*
Y3293D02*
D03*
X3336D02*
D03*
Y3159D02*
D03*
X3866Y3549D02*
D03*
Y3683D02*
D03*
X3336D02*
D03*
Y3549D02*
D03*
X3866Y7209D02*
D03*
Y7343D02*
D03*
X3336D02*
D03*
Y7209D02*
D03*
X3866Y7599D02*
D03*
Y7733D02*
D03*
X3336D02*
D03*
Y7599D02*
D03*
M02*
